<?xml version="1.0" encoding="utf-8"?>
<!-- Generator: Adobe Illustrator 25.0.0, SVG Export Plug-In . SVG Version: 6.00 Build 0)  -->
<svg version="1.1" id="Layer_1" xmlns="http://www.w3.org/2000/svg" xmlns:xlink="http://www.w3.org/1999/xlink" x="0px" y="0px"
	 viewBox="0 0 34 48" style="enable-background:new 0 0 34 48;" xml:space="preserve">
<style type="text/css">
	.st0{fill:#011E41;}
</style>
<g id="Layer_2_1_">
	<g id="Icons">
		<path  stroke-width="param(outline-width) "  stroke-opacity="param(outline-opacity) "  stroke="param(outline) "  fill-opacity="param(fill-opacity) "  fill="param(fill) " class="st0" d="M17,0C7.6,0,0,7.6,0,17h34C34,7.6,26.4,0,17,0C17,0,17,0,17,0z"/>
		<path  stroke-width="param(outline-width) "  stroke-opacity="param(outline-opacity) "  stroke="param(outline) "  fill-opacity="param(fill-opacity) "  fill="param(fill) " class="st0" d="M28.5,19.4L17,30.4l-11.5-11c-0.6-0.6-1.5-0.5-2.1,0.1c-0.6,0.6-0.5,1.5,0,2.1l12.5,12c0,0,0,0,0,0
			c0.1,0.1,0.3,0.2,0.4,0.3c0,0,0,0,0,0c0.3,0.1,0.7,0.1,1.1,0c0,0,0,0,0,0c0.2-0.1,0.3-0.2,0.4-0.3c0,0,0,0,0,0l12.5-12
			c0.6-0.6,0.6-1.5,0-2.1C30,18.9,29.1,18.9,28.5,19.4z"/>
		<path  stroke-width="param(outline-width) "  stroke-opacity="param(outline-opacity) "  stroke="param(outline) "  fill-opacity="param(fill-opacity) "  fill="param(fill) " class="st0" d="M12,36h10c0.6,0,1,0.4,1,1v10c0,0.6-0.4,1-1,1H12c-0.6,0-1-0.4-1-1V37C11,36.4,11.4,36,12,36z"/>
	</g>
</g>
</svg>
