<?xml version="1.0" encoding="utf-8"?>
<!-- Generator: Adobe Illustrator 25.0.0, SVG Export Plug-In . SVG Version: 6.00 Build 0)  -->
<svg version="1.1" id="Layer_1" xmlns="http://www.w3.org/2000/svg" xmlns:xlink="http://www.w3.org/1999/xlink" x="0px" y="0px"
	 viewBox="0 0 48 48" style="enable-background:new 0 0 48 48;" xml:space="preserve">
<style type="text/css">
	.st0{fill:#011E41;}
</style>
<g id="Layer_2_1_">
	<g id="Icons">
		<path  stroke-width="param(outline-width) "  stroke-opacity="param(outline-opacity) "  stroke="param(outline) "  fill-opacity="param(fill-opacity) " fill="param(fill) #000" class="st0" d="M45,0c-1.7,0-3,1.3-3,3v16l-4.8,4.8c-0.3,0.5-0.8,0.7-1.3,0.4c-0.1-0.1-0.2-0.1-0.3-0.2
			c-0.5-0.5-0.5-1.3,0-1.7l4.1-4.1c0.8-0.8,0.8-2.2,0-3c-0.8-0.8-2.1-0.8-2.9,0c0,0,0,0,0,0l-7.9,8c-1.3,1.3-1.9,3.1-1.8,4.9h0v7h-6
			v-7h0c0.1-1.8-0.6-3.6-1.8-4.9l-7.9-8c-0.8-0.8-2.1-0.8-2.9,0c0,0,0,0,0,0c-0.8,0.8-0.8,2.2,0,3l4.1,4.1c0.5,0.5,0.5,1.3,0,1.7
			c-0.5,0.5-1.2,0.5-1.7,0c0,0,0,0,0,0L6,19V3c0-1.7-1.3-3-3-3C1.3,0,0,1.3,0,3v17.4c0,0.8,0.3,1.6,0.9,2.1l9.4,9.5h0l1.8,1.8V35
			c-1.1,0-2,0.9-2,2s0.9,2,2,2v3c-1.1,0-2,0.9-2,2s0.9,2,2,2v2h9v-2h6v2h9v-2c1.1,0,2-0.9,2-2s-0.9-2-2-2v-3c1.1,0,2-0.9,2-2
			s-0.9-2-2-2v-1.2l2.1-2.1h0l9-9.2c0.6-0.6,0.9-1.3,0.9-2.1V3C48,1.3,46.7,0,45,0z M27,42h-6v-3h6V42z"/>
	</g>
</g>
</svg>
