<?xml version="1.0" encoding="utf-8"?>
<!-- Generator: Adobe Illustrator 25.0.0, SVG Export Plug-In . SVG Version: 6.00 Build 0)  -->
<svg version="1.1" id="Layer_1" xmlns="http://www.w3.org/2000/svg" xmlns:xlink="http://www.w3.org/1999/xlink" x="0px" y="0px"
	 viewBox="0 0 34 48" style="enable-background:new 0 0 34 48;" xml:space="preserve">
<style type="text/css">
	.st0{fill:#011E41;}
</style>
<g id="Layer_2_1_">
	<g id="Icons">
		<path  stroke-width="param(outline-width) "  stroke-opacity="param(outline-opacity) "  stroke="param(outline) "  fill-opacity="param(fill-opacity) "  fill="param(fill) " class="st0" d="M31,10H3c-0.6,0-1,0.4-1,1v36c0,0.6,0.4,1,1,1h28c0.6,0,1-0.4,1-1V11C32,10.4,31.6,10,31,10z M10,42
			c0,0.6-0.4,1-1,1s-1-0.4-1-1V16c0-0.6,0.4-1,1-1s1,0.4,1,1V42z M18,42c0,0.6-0.4,1-1,1s-1-0.4-1-1V16c0-0.6,0.4-1,1-1s1,0.4,1,1
			V42z M26,42c0,0.6-0.4,1-1,1s-1-0.4-1-1V16c0-0.6,0.4-1,1-1s1,0.4,1,1V42z"/>
		<path  stroke-width="param(outline-width) "  stroke-opacity="param(outline-opacity) "  stroke="param(outline) "  fill-opacity="param(fill-opacity) "  fill="param(fill) " class="st0" d="M32,4H22V3c0-1.7-1.3-3-3-3h-4c-1.7,0-3,1.3-3,3v1H2C0.9,4,0,4.9,0,6s0.9,2,2,2h30c1.1,0,2-0.9,2-2
			S33.1,4,32,4z"/>
	</g>
</g>
</svg>
