<?xml version="1.0" encoding="utf-8"?>
<!-- Generator: Adobe Illustrator 25.0.0, SVG Export Plug-In . SVG Version: 6.00 Build 0)  -->
<svg version="1.1" id="Layer_1" xmlns="http://www.w3.org/2000/svg" xmlns:xlink="http://www.w3.org/1999/xlink" x="0px" y="0px"
	 viewBox="0 0 48 48" style="enable-background:new 0 0 48 48;" xml:space="preserve">
<style type="text/css">
	.st0{fill:#011E41;}
</style>
<g id="Layer_2_1_">
	<g id="Icons">
		<path  stroke-width="param(outline-width) "  stroke-opacity="param(outline-opacity) "  stroke="param(outline) "  fill-opacity="param(fill-opacity) "  fill="param(fill) " class="st0" d="M14,27c0-2.2,1.8-4,4-4c0,0,0,0,0,0h6V1c0-0.6-0.4-1-1-1H1C0.4,0,0,0.4,0,1v29c0,0.6,0.4,1,1,1h13V27z M10,6
			h10c0.6,0,1,0.4,1,1s-0.4,1-1,1H10C9.4,8,9,7.6,9,7S9.4,6,10,6z M6,28H3V3h3V28z M9,13c0-0.6,0.4-1,1-1h10c0.6,0,1,0.4,1,1
			s-0.4,1-1,1H10C9.4,14,9,13.6,9,13z"/>
		<path  stroke-width="param(outline-width) "  stroke-opacity="param(outline-opacity) "  stroke="param(outline) "  fill-opacity="param(fill-opacity) "  fill="param(fill) " class="st0" d="M18,25c-1.1,0-2,0.9-2,2v15h4V29h22v13h4V27c0-1.1-0.9-2-2-2H18z"/>
		<path  stroke-width="param(outline-width) "  stroke-opacity="param(outline-opacity) "  stroke="param(outline) "  fill-opacity="param(fill-opacity) "  fill="param(fill) " class="st0" d="M47,44H36c0,0.6-0.4,1-1,1h-8c-0.6,0-1-0.4-1-1H15c-0.6,0-1,0.4-1,1v2c0,0.6,0.4,1,1,1h32c0.6,0,1-0.4,1-1v-2
			C48,44.4,47.6,44,47,44z"/>
	</g>
</g>
</svg>
