<?xml version="1.0" encoding="utf-8"?>
<!-- Generator: Adobe Illustrator 25.0.0, SVG Export Plug-In . SVG Version: 6.00 Build 0)  -->
<svg version="1.1" id="Layer_1" xmlns="http://www.w3.org/2000/svg" xmlns:xlink="http://www.w3.org/1999/xlink" x="0px" y="0px"
	 viewBox="0 0 32 48" style="enable-background:new 0 0 32 48;" xml:space="preserve">
<style type="text/css">
	.st0{fill:#011E41;}
</style>
<g id="Layer_2_1_">
	<g id="Icons">
		<path  stroke-width="param(outline-width) "  stroke-opacity="param(outline-opacity) "  stroke="param(outline) "  fill-opacity="param(fill-opacity) "  fill="param(fill) " class="st0" d="M28,0c-2.2,0-4,1.8-4,4c0,0,0,0,0,0v16H8V4c0-2.2-1.8-4-4-4S0,1.8,0,4v40c0,2.2,1.8,4,4,4s4-1.8,4-4V28h16v16
			c0,2.2,1.8,4,4,4s4-1.8,4-4V4C32,1.8,30.2,0,28,0C28,0,28,0,28,0z"/>
	</g>
</g>
</svg>
