<?xml version="1.0" encoding="utf-8"?>
<!-- Generator: Adobe Illustrator 25.0.0, SVG Export Plug-In . SVG Version: 6.00 Build 0)  -->
<svg version="1.1" id="Layer_1" xmlns="http://www.w3.org/2000/svg" xmlns:xlink="http://www.w3.org/1999/xlink" x="0px" y="0px"
	 viewBox="0 0 43 48" style="enable-background:new 0 0 43 48;" xml:space="preserve">
<style type="text/css">
	.st0{fill:#011E41;}
</style>
<g id="Layer_2_1_">
	<g id="Icons">
		<path  stroke-width="param(outline-width) "  stroke-opacity="param(outline-opacity) "  stroke="param(outline) "  fill-opacity="param(fill-opacity) "  fill="param(fill) " class="st0" d="M11,24h3v2c0,1.1,0.9,2,2,2h10c1.1,0,2-0.9,2-2v-2h3c1.7,0,3-1.3,3-3c0-1.5-1.1-2.8-2.6-3
			C34.7,12.3,32.8,5,27,1.6S13.9,0.3,10.6,6c-2.2,3.7-2.2,8.3,0,12c-0.7,0.1-1.3,0.4-1.7,0.8c-1.2,1.2-1.2,3.1,0,4.2
			C9.4,23.7,10.2,24,11,24z M20,19v2c0,0.6-0.4,1-1,1s-1-0.4-1-1v-2c0-0.6,0.4-1,1-1S20,18.4,20,19z M22,19c0-0.6,0.4-1,1-1
			s1,0.4,1,1v2c0,0.6-0.4,1-1,1s-1-0.4-1-1V19z M26.5,10c1.4,0,2.5,1.1,2.5,2.5S27.9,15,26.5,15S24,13.9,24,12.5
			C24,11.1,25.1,10,26.5,10z M15.5,10c1.4,0,2.5,1.1,2.5,2.5S16.9,15,15.5,15S13,13.9,13,12.5C13,11.1,14.1,10,15.5,10z"/>
		<path  stroke-width="param(outline-width) "  stroke-opacity="param(outline-opacity) "  stroke="param(outline) "  fill-opacity="param(fill-opacity) "  fill="param(fill) " class="st0" d="M41.1,30.1L40,29.8l0.6-1c0.7-1.2,0.4-2.7-0.8-3.4c-1.2-0.7-2.7-0.4-3.4,0.8l-2.1,3.2L21,35L7.9,29.5
			l-1.1-2.9c-0.5-1.3-1.9-2-3.2-1.5s-2,1.9-1.5,3.2c0,0,0,0,0,0l0.5,1.4l-1,0.3c-1.3,0.4-2,1.8-1.6,3.2c0.4,1.3,1.8,2,3.2,1.6l0,0
			l2.5-0.8l8.2,3.4l-4.3,1.8l-2.1-1.1c-1.2-0.6-2.7-0.1-3.4,1.1c-0.6,1.2-0.1,2.7,1.1,3.4l1.2,0.6l-0.5,1.4
			c-0.4,1.3,0.3,2.7,1.6,3.2c1.3,0.4,2.7-0.3,3.2-1.6c0,0,0,0,0,0l0.8-2.3L21,40l9.4,3.9l0.8,2.3c0.4,1.3,1.9,2,3.2,1.6
			c1.3-0.4,2-1.8,1.6-3.2l-0.5-1.4l1.2-0.6c1.2-0.6,1.7-2.1,1.1-3.4s-2.1-1.7-3.4-1.1l-2.1,1.1L28,37.5l8.3-3.5l3.6,0.9
			c0.2,0.1,0.4,0.1,0.6,0.1c1.4,0,2.5-1.1,2.5-2.5C43,31.4,42.2,30.4,41.1,30.1z"/>
	</g>
</g>
</svg>
