<?xml version="1.0" encoding="utf-8"?>
<!-- Generator: Adobe Illustrator 25.0.0, SVG Export Plug-In . SVG Version: 6.00 Build 0)  -->
<svg version="1.1" id="Layer_1" xmlns="http://www.w3.org/2000/svg" xmlns:xlink="http://www.w3.org/1999/xlink" x="0px" y="0px"
	 viewBox="0 0 32 44" style="enable-background:new 0 0 32 44;" xml:space="preserve">
<style type="text/css">
	.st0{fill:#011E41;}
</style>
<g id="Layer_2_1_">
	<g id="Icons">
		<path  stroke-width="param(outline-width) "  stroke-opacity="param(outline-opacity) "  stroke="param(outline) "  fill-opacity="param(fill-opacity) "  fill="param(fill) " class="st0" d="M30,0H2C0.9,0,0,0.9,0,2v40c0,1.1,0.9,2,2,2h19v-7c0-2.2,1.8-4,4-4c0,0,0,0,0,0h7V2C32,0.9,31.1,0,30,0z
			 M25.5,28h-19C5.7,28,5,27.3,5,26.5S5.7,25,6.5,25h19c0.8,0,1.5,0.7,1.5,1.5S26.3,28,25.5,28z M25.5,20h-19C5.7,20,5,19.3,5,18.5
			S5.7,17,6.5,17h19c0.8,0,1.5,0.7,1.5,1.5S26.3,20,25.5,20z M25.5,12h-19C5.7,12,5,11.3,5,10.5S5.7,9,6.5,9h19
			c0.8,0,1.5,0.7,1.5,1.5S26.3,12,25.5,12z"/>
		<path  stroke-width="param(outline-width) "  stroke-opacity="param(outline-opacity) "  stroke="param(outline) "  fill-opacity="param(fill-opacity) "  fill="param(fill) " class="st0" d="M23,37v7l9-9h-7C23.9,35,23,35.9,23,37z"/>
	</g>
</g>
</svg>
