<?xml version="1.0" encoding="utf-8"?>
<!-- Generator: Adobe Illustrator 25.0.0, SVG Export Plug-In . SVG Version: 6.00 Build 0)  -->
<svg version="1.1" id="Layer_1" xmlns="http://www.w3.org/2000/svg" xmlns:xlink="http://www.w3.org/1999/xlink" x="0px" y="0px"
	 viewBox="0 0 48 44" style="enable-background:new 0 0 48 44;" xml:space="preserve">
<style type="text/css">
	.st0{fill:#011E41;}
</style>
<g id="Layer_2_1_">
	<g id="Icons">
		<path  stroke-width="param(outline-width) "  stroke-opacity="param(outline-opacity) "  stroke="param(outline) "  fill-opacity="param(fill-opacity) "  fill="param(fill) " class="st0" d="M47.1,0H18.9c-0.5,0-1,0.5-0.9,1v25h6c2.8,0,5,2.2,5,5s-2.2,5-5,5h-6v5c0,0.5,0.4,1,0.9,1H39v-6.2
			c0-1.5,1.2-2.8,2.8-2.8H48V1C48,0.5,47.6,0,47.1,0z M42,23H24c-0.6,0-1-0.4-1-1s0.4-1,1-1h18c0.6,0,1,0.4,1,1S42.6,23,42,23z
			 M42,17H24c-0.6,0-1-0.4-1-1c0-0.6,0.4-1,1-1h18c0.6,0,1,0.4,1,1C43,16.6,42.6,17,42,17z M42,11H24c-0.6,0-1-0.4-1-1s0.4-1,1-1h18
			c0.6,0,1,0.4,1,1S42.6,11,42,11z"/>
		<path  stroke-width="param(outline-width) "  stroke-opacity="param(outline-opacity) "  stroke="param(outline) "  fill-opacity="param(fill-opacity) "  fill="param(fill) " class="st0" d="M41.8,35c-0.4,0-0.8,0.3-0.8,0.8V42l7-7H41.8z"/>
		<path  stroke-width="param(outline-width) "  stroke-opacity="param(outline-opacity) "  stroke="param(outline) "  fill-opacity="param(fill-opacity) "  fill="param(fill) " class="st0" d="M24,29h-9v-9c0-1.1-0.9-2-2-2s-2,0.9-2,2v9H2c-1.1,0-2,0.9-2,2c0,1.1,0.9,2,2,2h9v9c0,1.1,0.9,2,2,2
			s2-0.9,2-2v-9h9c1.1,0,2-0.9,2-2C26,29.9,25.1,29,24,29z"/>
	</g>
</g>
</svg>
