<?xml version="1.0" encoding="utf-8"?>
<!-- Generator: Adobe Illustrator 25.0.0, SVG Export Plug-In . SVG Version: 6.00 Build 0)  -->
<svg version="1.1" id="Layer_1" xmlns="http://www.w3.org/2000/svg" xmlns:xlink="http://www.w3.org/1999/xlink" x="0px" y="0px"
	 viewBox="0 0 48 48" style="enable-background:new 0 0 48 48;" xml:space="preserve">
<style type="text/css">
	.st0{fill:#011E41;}
</style>
<g id="Layer_2_1_">
	<g id="Icons">
		<path  stroke-width="param(outline-width) "  stroke-opacity="param(outline-opacity) "  stroke="param(outline) "  fill-opacity="param(fill-opacity) "  fill="param(fill) " class="st0" d="M47.9,47.2L29.3,29.6c-0.7-0.7-1.7-0.8-2.5-0.3c-1.7,1.2-3.9,1.2-5.6,0c-0.8-0.5-1.8-0.4-2.5,0.3L0.1,47.2
			c-0.2,0.2-0.2,0.5,0,0.7C0.2,47.9,0.4,48,0.5,48h47c0.3,0,0.5-0.2,0.5-0.5C48,47.4,47.9,47.2,47.9,47.2z"/>
		<path  stroke-width="param(outline-width) "  stroke-opacity="param(outline-opacity) "  stroke="param(outline) "  fill-opacity="param(fill-opacity) "  fill="param(fill) " class="st0" d="M25,24.5c0,0.8,0.7,1.5,1.5,1.5s1.5-0.7,1.5-1.5l0-8c-0.2-3.4,2.4-6.3,5.8-6.4c0,0,0,0,0,0
			c2.5-0.1,4.7,1.8,4.8,4.4c0.1,1.9-1.3,3.5-3.2,3.6C34.1,18,33,17,32.9,15.7c0,0,0,0,0,0c0-0.8-0.7-1.5-1.6-1.4
			c-0.8,0-1.5,0.7-1.4,1.6c0.2,3,2.7,5.3,5.7,5.1c3.5-0.2,6.2-3.2,6.1-6.7c0,0,0,0,0,0c-0.2-4.2-3.8-7.4-8-7.2c0,0,0,0,0,0
			c-5,0.2-8.9,4.5-8.7,9.5V24.5z"/>
		<path  stroke-width="param(outline-width) "  stroke-opacity="param(outline-opacity) "  stroke="param(outline) "  fill-opacity="param(fill-opacity) "  fill="param(fill) " class="st0" d="M14.2,11.9c0.8,0,1.5-0.6,1.6-1.4c0-0.8-0.6-1.5-1.4-1.6C13,8.8,11.9,7.6,12,6.3c0.1-1.9,1.7-3.4,3.6-3.3
			c0,0,0,0,0,0c2.6,0.2,4.6,2.4,4.4,5c0,0,0,0,0,0v16.5c0,0.8,0.7,1.5,1.5,1.5s1.5-0.7,1.5-1.5l0-16.4c0.2-4.2-3-7.8-7.3-8.1
			C12.2-0.2,9.2,2.6,9,6.1c0,0,0,0,0,0C8.9,9.1,11.2,11.7,14.2,11.9z"/>
	</g>
</g>
</svg>
