<?xml version="1.0" encoding="utf-8"?>
<!-- Generator: Adobe Illustrator 25.0.0, SVG Export Plug-In . SVG Version: 6.00 Build 0)  -->
<svg version="1.1" id="Layer_1" xmlns="http://www.w3.org/2000/svg" xmlns:xlink="http://www.w3.org/1999/xlink" x="0px" y="0px"
	 viewBox="0 0 48 48" style="enable-background:new 0 0 48 48;" xml:space="preserve">
<style type="text/css">
	.st0{fill:#011E41;}
</style>
<g id="Layer_2_1_">
	<g id="Icons">
		<path  stroke-width="param(outline-width) "  stroke-opacity="param(outline-opacity) "  stroke="param(outline) "  fill-opacity="param(fill-opacity) "  fill="param(fill) " class="st0" d="M46.5,45h-45C0.7,45,0,45.7,0,46.5S0.7,48,1.5,48h45c0.8,0,1.5-0.7,1.5-1.5S47.3,45,46.5,45z"/>
		<path  stroke-width="param(outline-width) "  stroke-opacity="param(outline-opacity) "  stroke="param(outline) "  fill-opacity="param(fill-opacity) "  fill="param(fill) " class="st0" d="M5.5,43h37c0.8,0,1.5-0.7,1.5-1.5S43.3,40,42.5,40h-37C4.7,40,4,40.7,4,41.5S4.7,43,5.5,43z"/>
		<path  stroke-width="param(outline-width) "  stroke-opacity="param(outline-opacity) "  stroke="param(outline) "  fill-opacity="param(fill-opacity) "  fill="param(fill) " class="st0" d="M28,6h-2V2c0-1.1-0.9-2-2-2s-2,0.9-2,2v4h-2c-2.9,3.2-5.2,7.1-6.3,14h20.5C33.2,13.1,30.9,9.2,28,6z"/>
		<path  stroke-width="param(outline-width) "  stroke-opacity="param(outline-opacity) "  stroke="param(outline) "  fill-opacity="param(fill-opacity) "  fill="param(fill) " class="st0" d="M21,28c0-1.7,3-3,3-3s3,1.3,3,3v10h8v-7c0-3-0.1-6-0.5-9H13.5c-0.3,3-0.5,6-0.5,9v7h8V28z"/>
		<path  stroke-width="param(outline-width) "  stroke-opacity="param(outline-opacity) "  stroke="param(outline) "  fill-opacity="param(fill-opacity) "  fill="param(fill) " class="st0" d="M42,14.5c0-1.4-1.1-2.5-2.5-2.5S37,13.1,37,14.5V20h5V14.5z"/>
		<rect x="37" y="22" class="st0" width="5" height="16"/>
		<path  stroke-width="param(outline-width) "  stroke-opacity="param(outline-opacity) "  stroke="param(outline) "  fill-opacity="param(fill-opacity) "  fill="param(fill) " class="st0" d="M11,14.5c0-1.4-1.1-2.5-2.5-2.5S6,13.1,6,14.5V20h5V14.5z"/>
		<rect x="6" y="22" class="st0" width="5" height="16"/>
	</g>
</g>
</svg>
