<?xml version="1.0" encoding="utf-8"?>
<!-- Generator: Adobe Illustrator 25.0.0, SVG Export Plug-In . SVG Version: 6.00 Build 0)  -->
<svg version="1.1" id="Layer_1" xmlns="http://www.w3.org/2000/svg" xmlns:xlink="http://www.w3.org/1999/xlink" x="0px" y="0px"
	 viewBox="0 0 48 48" style="enable-background:new 0 0 48 48;" xml:space="preserve">
<style type="text/css">
	.st0{fill:#011E41;}
</style>
<g id="Layer_2_1_">
	<g id="Icons">
		<path  stroke-width="param(outline-width) "  stroke-opacity="param(outline-opacity) "  stroke="param(outline) "  fill-opacity="param(fill-opacity) "  fill="param(fill) " class="st0" d="M18.8,25.8l-3-3c-0.5-0.5-1.3-0.7-2-0.5l-12,4c-1.3,0.4-2,1.8-1.6,3.1c0.4,1.3,1.8,2,3.1,1.6c0,0,0,0,0,0
			l9.2-3.1l-7.7,7.8c-1,1-1,2.6,0,3.5s2.6,1,3.5,0l11.9-12L18.8,25.8z"/>
		<path  stroke-width="param(outline-width) "  stroke-opacity="param(outline-opacity) "  stroke="param(outline) "  fill-opacity="param(fill-opacity) "  fill="param(fill) " class="st0" d="M25.5,18.4l1.8,1.8l12-11.9c1-1,1-2.6,0-3.5s-2.6-1-3.5,0l0,0l-7.8,7.7L31,3.3c0.4-1.3-0.3-2.7-1.6-3.1
			c-1.3-0.4-2.7,0.3-3.1,1.6l-4,12c-0.2,0.7-0.1,1.5,0.5,2L25.5,18.4z"/>
		<path  stroke-width="param(outline-width) "  stroke-opacity="param(outline-opacity) "  stroke="param(outline) "  fill-opacity="param(fill-opacity) "  fill="param(fill) " class="st0" d="M45.1,25l2.4-2.4c0.6-0.6,0.6-1.5,0-2.1c-0.6-0.6-1.5-0.6-2.1,0l-25,25c-0.6,0.6-0.6,1.5,0,2.1
			c0.6,0.6,1.5,0.6,2.1,0l0,0l2.4-2.4l2.4,2.4c0.3,0.3,0.7,0.4,1.1,0.4h1c0.4,0,0.8-0.2,1.1-0.4l2.9-2.9l2.9,2.9
			c0.6,0.6,1.5,0.6,2.1,0c0,0,0,0,0,0l9-9c0.6-0.6,0.6-1.5,0-2.1c0,0,0,0,0,0l-2.9-2.9l2.9-2.9c0.3-0.3,0.4-0.7,0.4-1.1v-1
			c0-0.4-0.2-0.8-0.4-1.1L45.1,25z M38.5,31.6l1.9,1.9L38,35.9L36.1,34L38.5,31.6z M29,44.9L27.1,43l2.4-2.4l1.9,1.9L29,44.9z
			 M31.6,38.5l2.4-2.4l1.9,1.9l-2.4,2.4L31.6,38.5z M37.5,44.4l-1.9-1.9l2.4-2.4l1.9,1.9L37.5,44.4z M42,39.9L40.1,38l2.4-2.4
			l1.9,1.9L42,39.9z M42.5,31.4l-1.9-1.9l2.4-2.4l1.9,1.9L42.5,31.4z"/>
		<path  stroke-width="param(outline-width) "  stroke-opacity="param(outline-opacity) "  stroke="param(outline) "  fill-opacity="param(fill-opacity) "  fill="param(fill) " class="st0" d="M22.3,25.2l0.7,0.7c0,0.1,0,0.1,0,0.1c0,1.6,1.3,3,2.9,3c0.3,0,0.6,0,0.9-0.1c0,0,0.1,0.1,0.1,0.1l1.5,1.5
			c0.6,0.6,1.5,0.6,2.1,0c0.6-0.6,0.6-1.5,0-2.1l0,0L29,26.9c0,0-0.1-0.1-0.1-0.1c0.5-1.6-0.4-3.2-2-3.7C26.6,23,26.3,23,26,23
			c-0.1,0-0.1,0-0.2,0l-0.7-0.7L11.4,8.6c-0.8-0.8-2-0.8-2.8-0.1s-0.8,2-0.1,2.8c0,0,0,0,0.1,0.1L22.3,25.2z"/>
	</g>
</g>
</svg>
