<?xml version="1.0" encoding="utf-8"?>
<!-- Generator: Adobe Illustrator 25.0.0, SVG Export Plug-In . SVG Version: 6.00 Build 0)  -->
<svg version="1.1" id="Layer_1" xmlns="http://www.w3.org/2000/svg" xmlns:xlink="http://www.w3.org/1999/xlink" x="0px" y="0px"
	 viewBox="0 0 36 48" style="enable-background:new 0 0 36 48;" xml:space="preserve">
<style type="text/css">
	.st0{fill:#011E41;}
</style>
<g id="Layer_2_1_">
	<g id="Icons">
		<path  stroke-width="param(outline-width) "  stroke-opacity="param(outline-opacity) "  stroke="param(outline) "  fill-opacity="param(fill-opacity) "  fill="param(fill) " class="st0" d="M33,0H3C1.3,0,0,1.3,0,3v42c0,1.7,1.3,3,3,3h30c1.7,0,3-1.3,3-3V3C36,1.3,34.7,0,33,0z M32,44H4V4h28V44z"/>
		<path  stroke-width="param(outline-width) "  stroke-opacity="param(outline-opacity) "  stroke="param(outline) "  fill-opacity="param(fill-opacity) "  fill="param(fill) " class="st0" d="M22.6,13.6l0.4-0.4v7.4c0,0.8,0.7,1.5,1.5,1.5s1.5-0.7,1.5-1.5v-11C26,8.7,25.3,8,24.5,8
			c-0.4,0-0.8,0.2-1.1,0.4l-3,3c-0.6,0.6-0.6,1.5,0,2.1C21,14.1,22,14.1,22.6,13.6C22.6,13.6,22.6,13.6,22.6,13.6z"/>
		<path  stroke-width="param(outline-width) "  stroke-opacity="param(outline-opacity) "  stroke="param(outline) "  fill-opacity="param(fill-opacity) "  fill="param(fill) " class="st0" d="M14.1,26.1c-0.6-0.2-1.2-0.1-1.6,0.3l-3,3c-0.6,0.6-0.6,1.5,0,2.1s1.5,0.6,2.1,0l0.4-0.4v7.4
			c0,0.8,0.7,1.5,1.5,1.5s1.5-0.7,1.5-1.5v-11C15,26.9,14.6,26.3,14.1,26.1z"/>
		<path  stroke-width="param(outline-width) "  stroke-opacity="param(outline-opacity) "  stroke="param(outline) "  fill-opacity="param(fill-opacity) "  fill="param(fill) " class="st0" d="M22,40h3c1.7,0,3-1.3,3-3v-8c0-1.7-1.3-3-3-3h-3c-1.7,0-3,1.3-3,3v8C19,38.7,20.3,40,22,40z M22,29h3v8h-3V29
			z"/>
		<path  stroke-width="param(outline-width) "  stroke-opacity="param(outline-opacity) "  stroke="param(outline) "  fill-opacity="param(fill-opacity) "  fill="param(fill) " class="st0" d="M11,22h3c1.7,0,3-1.3,3-3v-8c0-1.7-1.3-3-3-3h-3c-1.7,0-3,1.3-3,3v8C8,20.7,9.3,22,11,22z M11,11h3v8h-3V11z"
			/>
	</g>
</g>
</svg>
