<?xml version="1.0" encoding="utf-8"?>
<!-- Generator: Adobe Illustrator 25.0.0, SVG Export Plug-In . SVG Version: 6.00 Build 0)  -->
<svg version="1.1" id="Layer_1" xmlns="http://www.w3.org/2000/svg" xmlns:xlink="http://www.w3.org/1999/xlink" x="0px" y="0px"
	 viewBox="0 0 48 48" style="enable-background:new 0 0 48 48;" xml:space="preserve">
<style type="text/css">
	.st0{fill:#011E41;}
</style>
<g id="Layer_2_1_">
	<g id="Icons">
		<path  stroke-width="param(outline-width) "  stroke-opacity="param(outline-opacity) "  stroke="param(outline) "  fill-opacity="param(fill-opacity) "  fill="param(fill) " class="st0" d="M24,18c-6,0-10.5,4.1-10.5,9.5c0,0.8,0.7,1.5,1.5,1.5s1.5-0.7,1.5-1.5c0-2.4,1.4-4.5,3.5-5.6V31l0,0v15.5
			c0,0.8,0.7,1.5,1.5,1.5s1.5-0.7,1.5-1.5V34h2v12.5c0,0.8,0.7,1.5,1.5,1.5s1.5-0.7,1.5-1.5V21.9c2.1,1,3.5,3.2,3.5,5.6
			c0,0.8,0.7,1.5,1.5,1.5s1.5-0.7,1.5-1.5C34.5,22.1,30,18,24,18z"/>
		<circle class="st0" cx="24.1" cy="13" r="3"/>
		<path  stroke-width="param(outline-width) "  stroke-opacity="param(outline-opacity) "  stroke="param(outline) "  fill-opacity="param(fill-opacity) "  fill="param(fill) " class="st0" d="M46.8,12.8L25.3,0.3c-0.8-0.5-1.7-0.5-2.5,0L1.2,12.8C0.5,13.3,0,14.1,0,15v30.5C0,46.9,1.1,48,2.5,48
			S5,46.9,5,45.5V16.4l19-11l19,11v29.1c0,1.4,1.1,2.5,2.5,2.5s2.5-1.1,2.5-2.5V15C48,14.1,47.5,13.3,46.8,12.8z"/>
	</g>
</g>
</svg>
