<?xml version="1.0" encoding="utf-8"?>
<!-- Generator: Adobe Illustrator 25.0.0, SVG Export Plug-In . SVG Version: 6.00 Build 0)  -->
<svg version="1.1" id="Layer_1" xmlns="http://www.w3.org/2000/svg" xmlns:xlink="http://www.w3.org/1999/xlink" x="0px" y="0px"
	 viewBox="0 0 48 43" style="enable-background:new 0 0 48 43;" xml:space="preserve">
<style type="text/css">
	.st0{fill:#011E41;}
</style>
<g id="Layer_2_1_">
	<g id="Icons">
		<path  stroke-width="param(outline-width) "  stroke-opacity="param(outline-opacity) "  stroke="param(outline) "  fill-opacity="param(fill-opacity) "  fill="param(fill) " class="st0" d="M27.2,26.3c-2.1,0.9-4.4,0.9-6.5,0l-7.6,12.8c-0.3,0.5-0.1,1.1,0.3,1.4c0,0,0,0,0.1,0
			c6.6,3.3,14.3,3.3,20.9,0c0.5-0.2,0.7-0.8,0.4-1.3c0,0,0,0,0-0.1L27.2,26.3z"/>
		<path  stroke-width="param(outline-width) "  stroke-opacity="param(outline-opacity) "  stroke="param(outline) "  fill-opacity="param(fill-opacity) "  fill="param(fill) " class="st0" d="M18.6,13.1L11.5,0.5c-0.3-0.5-0.9-0.7-1.3-0.4c0,0,0,0-0.1,0C4.1,4.1,0.3,10.7,0,18c0,0.6,0.4,1,1,1
			c0,0,0,0,0,0h15C16,16.7,17,14.6,18.6,13.1z"/>
		<path  stroke-width="param(outline-width) "  stroke-opacity="param(outline-opacity) "  stroke="param(outline) "  fill-opacity="param(fill-opacity) "  fill="param(fill) " class="st0" d="M37.9,0.2c-0.5-0.3-1.1-0.1-1.4,0.3c0,0,0,0,0,0l-7.1,12.6C31,14.6,32,16.7,32,19h15c0.6,0,1-0.5,1-1
			c0,0,0,0,0,0C47.7,10.7,43.9,4.1,37.9,0.2z"/>
		<path  stroke-width="param(outline-width) "  stroke-opacity="param(outline-opacity) "  stroke="param(outline) "  fill-opacity="param(fill-opacity) "  fill="param(fill) " class="st0" d="M22.5,23.8c0.5,0.2,1,0.2,1.5,0.2c0.5,0,1-0.1,1.5-0.2c2.7-0.8,4.2-3.6,3.4-6.2s-3.6-4.2-6.2-3.4
			s-4.2,3.6-3.4,6.2C19.7,22,20.9,23.3,22.5,23.8L22.5,23.8z"/>
	</g>
</g>
</svg>
