<?xml version="1.0" encoding="utf-8"?>
<!-- Generator: Adobe Illustrator 25.0.0, SVG Export Plug-In . SVG Version: 6.00 Build 0)  -->
<svg version="1.1" id="Layer_1" xmlns="http://www.w3.org/2000/svg" xmlns:xlink="http://www.w3.org/1999/xlink" x="0px" y="0px"
	 viewBox="0 0 44 44" style="enable-background:new 0 0 44 44;" xml:space="preserve">
<style type="text/css">
	.st0{fill:#011E41;}
</style>
<path  stroke-width="param(outline-width) "  stroke-opacity="param(outline-opacity) "  stroke="param(outline) "  fill-opacity="param(fill-opacity) "  fill="param(fill) " class="st0" d="M22,0C9.8,0,0,9.8,0,22s9.8,22,22,22s22-9.8,22-22C44,9.8,34.2,0,22,0C22,0,22,0,22,0z M37.5,13l-4.3,2.8
	c-0.4,0.3-1,0.1-1.3-0.3c-1-1.3-2.1-2.5-3.5-3.5c-0.4-0.3-0.5-0.9-0.3-1.3L31,6.5c0.3-0.5,0.9-0.6,1.4-0.4c0,0,0,0,0,0
	c2.2,1.4,4.1,3.3,5.5,5.5C38.1,12.1,38,12.7,37.5,13C37.5,13,37.5,13,37.5,13z M13,22c0-5,4-9,9-9s9,4,9,9s-4,9-9,9
	C17,31,13,27,13,22C13,22,13,22,13,22z M13.4,6.5l2.5,4.2c0.3,0.4,0.1,1-0.3,1.3c-1.4,1-2.6,2.2-3.6,3.6c-0.3,0.4-0.9,0.5-1.3,0.3
	L6.5,13c-0.5-0.3-0.6-0.9-0.4-1.4c0,0,0,0,0,0c1.6-2.2,3.5-4,5.8-5.5C12.5,5.9,13.1,6,13.4,6.5C13.4,6.5,13.4,6.5,13.4,6.5z M6.5,31
	l4.3-2.8c0.4-0.3,1-0.1,1.3,0.3c1,1.3,2.1,2.5,3.5,3.5c0.4,0.3,0.5,0.9,0.3,1.3L13,37.5c-0.3,0.5-0.9,0.6-1.4,0.4c0,0,0,0,0,0
	c-2.2-1.4-4.1-3.3-5.5-5.5C5.9,31.9,6,31.3,6.5,31C6.5,31,6.5,31,6.5,31L6.5,31z M31,37.5l-2.9-4.2c-0.3-0.4-0.1-1,0.3-1.3
	c1.4-1,2.6-2.2,3.6-3.6c0.3-0.4,0.9-0.5,1.3-0.3l4.2,2.5c0.5,0.3,0.6,0.9,0.4,1.4c0,0,0,0,0,0c-1.4,2.3-3.3,4.3-5.5,5.8
	C31.9,38.1,31.3,38,31,37.5C31,37.5,31,37.5,31,37.5z"/>
</svg>
