<?xml version="1.0" encoding="utf-8"?>
<!-- Generator: Adobe Illustrator 25.0.0, SVG Export Plug-In . SVG Version: 6.00 Build 0)  -->
<svg version="1.1" id="Layer_1" xmlns="http://www.w3.org/2000/svg" xmlns:xlink="http://www.w3.org/1999/xlink" x="0px" y="0px"
	 viewBox="0 0 48 48" style="enable-background:new 0 0 48 48;" xml:space="preserve">
<style type="text/css">
	.st0{fill:#011E41;}
</style>
<g id="Layer_2_1_">
	<g id="Expanded_Icons">
		<path  stroke-width="param(outline-width) "  stroke-opacity="param(outline-opacity) "  stroke="param(outline) "  fill-opacity="param(fill-opacity) "  fill="param(fill) " class="st0" d="M39,7.5L39,7.5c0,0.1,0,0.2,0,0.3c0,0.1,0,0.2-0.1,0.3l0,0h0c-0.1,0.2-0.2,0.4-0.4,0.5l-6,6
			c-0.6,0.6-1.5,0.6-2.1,0s-0.6-1.5,0-2.1L33.9,9H14.1l3.5,3.5c0.6,0.6,0.6,1.5,0,2.1s-1.5,0.6-2.1,0l-6-6C9.3,8.4,9.2,8.3,9.1,8.1
			l0,0C9,7.9,9,7.7,9,7.5v0C9,7.3,9,7.1,9.1,7l0,0c0.1-0.2,0.2-0.4,0.4-0.5l6-6c0.6-0.6,1.5-0.6,2.1,0s0.6,1.5,0,2.1c0,0,0,0,0,0
			L14.1,6h19.8l-3.5-3.5c-0.6-0.6-0.6-1.5,0-2.1c0.6-0.6,1.5-0.6,2.1,0l6,6c0.2,0.1,0.3,0.3,0.4,0.5l0,0l0,0l0,0
			C38.9,7,39,7.1,39,7.2C39,7.3,39,7.4,39,7.5z M47,21c0-2.2-1.8-4-4-4s-4,1.8-4,4s1.8,4,4,4S47,23.2,47,21C47,21,47,21,47,21L47,21
			z M48,27.9c-1.6-0.6-3.3-0.9-5-0.9c-7.4,0-13,5.2-13,12c0,1.1,0.9,2,2,2c1.1,0,2-0.9,2-2c-0.1-2.8,1.5-5.4,4-6.7V48h10V32.3l0,0
			V27.9z M5,25c2.2,0,4-1.8,4-4s-1.8-4-4-4s-4,1.8-4,4S2.8,25,5,25z M5,27c-1.7,0-3.4,0.3-5,0.9v4.4l0,0V48h10V32.3
			c2.5,1.3,4.1,3.9,4,6.7c0,1.1,0.9,2,2,2s2-0.9,2-2C18,32.2,12.4,27,5,27z"/>
	</g>
</g>
</svg>
