<?xml version="1.0" encoding="utf-8"?>
<!-- Generator: Adobe Illustrator 25.0.0, SVG Export Plug-In . SVG Version: 6.00 Build 0)  -->
<svg version="1.1" id="Layer_1" xmlns="http://www.w3.org/2000/svg" xmlns:xlink="http://www.w3.org/1999/xlink" x="0px" y="0px"
	 viewBox="0 0 44 44" style="enable-background:new 0 0 44 44;" xml:space="preserve">
<style type="text/css">
	.st0{fill:#011E41;}
</style>
<g id="Layer_2_1_">
	<g id="Icons">
		<path  stroke-width="param(outline-width) "  stroke-opacity="param(outline-opacity) "  stroke="param(outline) "  fill-opacity="param(fill-opacity) "  fill="param(fill) " class="st0" d="M0,39.1v3.5C0,43.4,0.7,44,1.5,44C2.3,44,3,43.4,3,42.5V41h13v1.5c0,0.8,0.7,1.5,1.5,1.5
			c0.8,0,1.4-0.7,1.5-1.5V7H0V39.1z M14,23c0-0.6,0.4-1,1-1s1,0.4,1,1v3c0,0.6-0.4,1-1,1s-1-0.4-1-1V23z"/>
		<path  stroke-width="param(outline-width) "  stroke-opacity="param(outline-opacity) "  stroke="param(outline) "  fill-opacity="param(fill-opacity) "  fill="param(fill) " class="st0" d="M14,0H5C2.2,0,0,2.2,0,5h19C19,2.2,16.8,0,14,0z"/>
		<path  stroke-width="param(outline-width) "  stroke-opacity="param(outline-opacity) "  stroke="param(outline) "  fill-opacity="param(fill-opacity) "  fill="param(fill) " class="st0" d="M25,39.1v3.5c0,0.8,0.7,1.5,1.5,1.5c0.8,0,1.4-0.7,1.5-1.5V41h13v1.5c0,0.8,0.7,1.5,1.5,1.5
			c0.8,0,1.4-0.7,1.5-1.5V7H25V39.1z M39,23c0-0.6,0.4-1,1-1s1,0.4,1,1v3c0,0.6-0.4,1-1,1s-1-0.4-1-1V23z"/>
		<path  stroke-width="param(outline-width) "  stroke-opacity="param(outline-opacity) "  stroke="param(outline) "  fill-opacity="param(fill-opacity) "  fill="param(fill) " class="st0" d="M39,0h-9c-2.8,0-5,2.2-5,5h19C44,2.2,41.8,0,39,0z"/>
	</g>
</g>
</svg>
