<?xml version="1.0" encoding="utf-8"?>
<!-- Generator: Adobe Illustrator 25.0.0, SVG Export Plug-In . SVG Version: 6.00 Build 0)  -->
<svg version="1.1" id="Layer_1" xmlns="http://www.w3.org/2000/svg" xmlns:xlink="http://www.w3.org/1999/xlink" x="0px" y="0px"
	 viewBox="0 0 48 48" style="enable-background:new 0 0 48 48;" xml:space="preserve">
<style type="text/css">
	.st0{fill:#011E41;}
</style>
<g id="Layer_2_1_">
	<g id="Editable_Icons">
		<path  stroke-width="param(outline-width) "  stroke-opacity="param(outline-opacity) "  stroke="param(outline) "  fill-opacity="param(fill-opacity) "  fill="param(fill) " class="st0" d="M38,31c-3.5-0.1-6.8,1.6-8.7,4.6c-2.2-3-6.4-3.5-9.4-1.3c-0.5,0.4-0.9,0.8-1.3,1.3c-1.9-2.9-5.2-4.7-8.7-4.6
			c-5.7,0-10,4.1-10,9.5C0,41.3,0.7,42,1.5,42S3,41.3,3,40.5c0-2.2,1.1-4.2,3-5.4V44c0,2.2,1.8,4,4,4s4-1.8,4-4v-8.9
			c1.9,1.1,3,3.2,3,5.4c0,0.8,0.7,1.5,1.5,1.5s1.5-0.7,1.5-1.5l0,0l0,0c0-1.1,0.4-2.1,1-2.9V41c0,1.7,1.3,3,3,3c1.7,0,3-1.3,3-3
			c0,0,0,0,0,0v-3.5c0.7,0.8,1,1.9,1,2.9c0,0,0,0,0,0c0,0.8,0.7,1.5,1.5,1.5s1.5-0.7,1.5-1.5c0-2.4,1.4-4.7,3.6-5.7L33.1,42
			c-0.5,2.7,1.2,5.4,4,5.9c2.7,0.5,5.4-1.2,5.9-4c0.1-0.7,0.1-1.3,0-2l-1.5-7.2c2.2,1,3.6,3.3,3.6,5.7c0,0.8,0.7,1.5,1.5,1.5
			s1.5-0.7,1.5-1.5C48,35.1,43.7,31,38,31z"/>
		<circle class="st0" cx="38" cy="26" r="3"/>
		<circle class="st0" cx="10" cy="26" r="3"/>
		<path  stroke-width="param(outline-width) "  stroke-opacity="param(outline-opacity) "  stroke="param(outline) "  fill-opacity="param(fill-opacity) "  fill="param(fill) " class="st0" d="M24,31c1.4,0,2.5-1.1,2.5-2.5S25.4,26,24,26s-2.5,1.1-2.5,2.5c0,0,0,0,0,0C21.5,29.9,22.6,31,24,31
			C24,31,24,31,24,31z"/>
		<path  stroke-width="param(outline-width) "  stroke-opacity="param(outline-opacity) "  stroke="param(outline) "  fill-opacity="param(fill-opacity) "  fill="param(fill) " class="st0" d="M14.4,15.6c0.6,0.6,1.5,0.6,2.1,0l4-4c0.6-0.6,0.6-1.5,0-2.1c-0.6-0.6-1.5-0.6-2.1,0l0,0L17,11V1.5
			C17,0.7,16.3,0,15.5,0C14.7,0,14,0.7,14,1.5l0,9.5l-1.4-1.6c-0.6-0.6-1.5-0.6-2.1,0c0,0,0,0,0,0c-0.6,0.6-0.6,1.5,0,2.1L14.4,15.6
			z"/>
		<path  stroke-width="param(outline-width) "  stroke-opacity="param(outline-opacity) "  stroke="param(outline) "  fill-opacity="param(fill-opacity) "  fill="param(fill) " class="st0" d="M31.4,15.6c0.6,0.6,1.5,0.6,2.1,0l4-4c0.6-0.6,0.6-1.5,0-2.1c-0.6-0.6-1.5-0.6-2.1,0l0,0L34,11V1.5
			C34,0.7,33.3,0,32.5,0S31,0.7,31,1.5V11l-1.4-1.6c-0.6-0.6-1.5-0.6-2.1,0c0,0,0,0,0,0c-0.6,0.6-0.6,1.5,0,2.1L31.4,15.6z"/>
	</g>
</g>
</svg>
