<?xml version="1.0" encoding="utf-8"?>
<!-- Generator: Adobe Illustrator 25.0.0, SVG Export Plug-In . SVG Version: 6.00 Build 0)  -->
<svg version="1.1" id="Layer_1" xmlns="http://www.w3.org/2000/svg" xmlns:xlink="http://www.w3.org/1999/xlink" x="0px" y="0px"
	 viewBox="0 0 48 48" style="enable-background:new 0 0 48 48;" xml:space="preserve">
<style type="text/css">
	.st0{fill:#011E41;}
</style>
<g id="Layer_2_1_">
	<g id="Icons">
		<path  stroke-width="param(outline-width) "  stroke-opacity="param(outline-opacity) "  stroke="param(outline) "  fill-opacity="param(fill-opacity) "  fill="param(fill) " class="st0" d="M41.9,29H41c-1.1,0-2,0.9-2,2v9.7l-4.5-5.1c-0.7-0.8-2-0.9-2.8-0.2c-0.2,0.1-0.3,0.3-0.4,0.5l-5,9
			c-0.5,1-0.2,2.2,0.8,2.7s2.2,0.2,2.7-0.8c0,0,0,0,0,0l3.6-6.5l6.1,6.9c0,0,0,0,0,0c0,0,0.1,0.1,0.2,0.1c0,0,0.1,0.1,0.1,0.1
			c0.1,0,0.1,0.1,0.2,0.1c0.1,0,0.1,0.1,0.2,0.1c0.1,0,0.1,0,0.2,0.1c0.1,0,0.1,0,0.2,0.1c0.1,0,0.1,0,0.2,0c0.1,0,0.1,0,0.2,0
			c0,0,0,0,0.1,0h5c1.1,0,2-0.9,2-2V35.1C48,31.7,45.3,29,41.9,29C41.9,29,41.9,29,41.9,29z"/>
		<circle class="st0" cx="35.5" cy="25.5" r="3.5"/>
		<path  stroke-width="param(outline-width) "  stroke-opacity="param(outline-opacity) "  stroke="param(outline) "  fill-opacity="param(fill-opacity) "  fill="param(fill) " class="st0" d="M13,10C5.5,10,0,15,0,22c0,1.1,0.9,2,2,2s2-0.9,2-2c-0.1-2.8,1.5-5.5,4-6.8v13.9c0,0,0,0.1,0,0.1
			c0,0,0,0.1,0,0.1V46c0,1.1,0.9,2,2,2s2-0.9,2-2V31h2v15c0,1.1,0.9,2,2,2s2-0.9,2-2V29.3c0,0,0-0.1,0-0.1c0,0,0-0.1,0-0.1V15.2
			c2.5,1.3,4.1,4,4,6.8c0,1.1,0.9,2,2,2s2-0.9,2-2C26,15,20.5,10,13,10z"/>
		<circle class="st0" cx="19" cy="5" r="4"/>
		<path  stroke-width="param(outline-width) "  stroke-opacity="param(outline-opacity) "  stroke="param(outline) "  fill-opacity="param(fill-opacity) "  fill="param(fill) " class="st0" d="M33,8.5c0,0.8,0.7,1.5,1.5,1.5h4c0.8,0,1.5-0.7,1.5-1.5S39.3,7,38.5,7h-4C33.7,7,33,7.7,33,8.5z"/>
		<path  stroke-width="param(outline-width) "  stroke-opacity="param(outline-opacity) "  stroke="param(outline) "  fill-opacity="param(fill-opacity) "  fill="param(fill) " class="st0" d="M29.8,6.8c0.7,0.4,1.6,0.1,2-0.7l2-4c0.4-0.7,0.1-1.6-0.7-2s-1.6-0.1-2,0.7c0,0,0,0,0,0l-2,4
			C28.8,5.6,29.1,6.5,29.8,6.8z"/>
		<path  stroke-width="param(outline-width) "  stroke-opacity="param(outline-opacity) "  stroke="param(outline) "  fill-opacity="param(fill-opacity) "  fill="param(fill) " class="st0" d="M31.2,16.2c0.4,0.7,1.3,1,2,0.7c0.7-0.4,1-1.3,0.7-2c0,0,0,0,0,0l-2-4c-0.4-0.7-1.3-1-2-0.7
			c-0.7,0.4-1,1.3-0.7,2c0,0,0,0,0,0L31.2,16.2z"/>
	</g>
</g>
</svg>
