<?xml version="1.0" encoding="utf-8"?>
<!-- Generator: Adobe Illustrator 25.0.0, SVG Export Plug-In . SVG Version: 6.00 Build 0)  -->
<svg version="1.1" id="Layer_1" xmlns="http://www.w3.org/2000/svg" xmlns:xlink="http://www.w3.org/1999/xlink" x="0px" y="0px"
	 viewBox="0 0 28 48" style="enable-background:new 0 0 28 48;" xml:space="preserve">
<style type="text/css">
	.st0{fill:#011E41;}
</style>
<g id="Layer_2_1_">
	<g id="Icons">
		<path  stroke-width="param(outline-width) "  stroke-opacity="param(outline-opacity) "  stroke="param(outline) "  fill-opacity="param(fill-opacity) "  fill="param(fill) " class="st0" d="M22,18L22,18l-1.1-6.7c0-0.7-0.6-1.3-1.3-1.4H13l0,0l0,0h-0.2c0,0,0,0-0.1,0l0,0C5.7,10.1,0,15.9,0,23
			c0,1.1,0.9,2,2,2s2-0.9,2-2c0-4.2,2.9-7.9,7-9L6,34.2c-0.2,0.8,0.2,1.5,1,1.8c0.1,0,0.1,0,0.2,0H11v10c0,1.1,0.9,2,2,2s2-0.9,2-2
			V36h2v10c0,1.1,0.9,2,2,2s2-0.9,2-2V34.8c0.9-0.8,1.5-1.9,1.8-3c3.7-1,6-4.8,5-8.6C27,20.4,24.8,18.4,22,18z M24.4,25.8l-0.3,0.3
			l-1.4,1.4l-1.2,1.3c-0.3,0.3-0.7,0.3-1,0c0,0,0,0,0,0L19,27.3l-1.1-1.2l-0.3-0.3c-0.9-0.9-0.8-2.4,0-3.3c0.9-0.8,2.3-0.8,3.1,0.1
			c0,0,0,0,0,0l0.2,0.2l0.2-0.2c0.3-0.3,0.6-0.5,0.9-0.6c0.8-0.3,1.6-0.1,2.2,0.5C25.2,23.5,25.2,24.9,24.4,25.8z"/>
		<circle class="st0" cx="17" cy="4" r="4"/>
	</g>
</g>
</svg>
