<?xml version="1.0" encoding="utf-8"?>
<!-- Generator: Adobe Illustrator 25.0.0, SVG Export Plug-In . SVG Version: 6.00 Build 0)  -->
<svg version="1.1" id="Layer_1" xmlns="http://www.w3.org/2000/svg" xmlns:xlink="http://www.w3.org/1999/xlink" x="0px" y="0px"
	 viewBox="0 0 26 48" style="enable-background:new 0 0 26 48;" xml:space="preserve">
<style type="text/css">
	.st0{fill:#011E41;}
</style>
<g id="Layer_2_1_">
	<g id="Icons">
		<path  stroke-width="param(outline-width) "  stroke-opacity="param(outline-opacity) "  stroke="param(outline) "  fill-opacity="param(fill-opacity) "  fill="param(fill) " class="st0" d="M0,22c0,1.1,0.9,2,2,2s2-0.9,2-2c0-3.2,2-6,5-7L5,34c-0.1,0.5,0.3,1,0.8,1c0.1,0,0.1,0,0.2,0h2v11
			c0,1.1,0.9,2,2,2s2-0.9,2-2V10C5,10.4,0,15.4,0,22z"/>
		<path  stroke-width="param(outline-width) "  stroke-opacity="param(outline-opacity) "  stroke="param(outline) "  fill-opacity="param(fill-opacity) "  fill="param(fill) " class="st0" d="M9,4c0,1.9,1.2,3.5,3,4V0C10.2,0.5,9,2.1,9,4z"/>
		<path  stroke-width="param(outline-width) "  stroke-opacity="param(outline-opacity) "  stroke="param(outline) "  fill-opacity="param(fill-opacity) "  fill="param(fill) " class="st0" d="M14,10v36c0,1.1,0.9,2,2,2s2-0.9,2-2V15c2.5,1.4,4,4.1,4,7c0,1.1,0.9,2,2,2s2-0.9,2-2C26,15.4,21,10.4,14,10z
			"/>
		<path  stroke-width="param(outline-width) "  stroke-opacity="param(outline-opacity) "  stroke="param(outline) "  fill-opacity="param(fill-opacity) "  fill="param(fill) " class="st0" d="M17,4c0-1.9-1.2-3.5-3-4v8C15.8,7.5,17,5.9,17,4z"/>
	</g>
</g>
</svg>
