<?xml version="1.0" encoding="utf-8"?>
<!-- Generator: Adobe Illustrator 25.0.0, SVG Export Plug-In . SVG Version: 6.00 Build 0)  -->
<svg version="1.1" id="Layer_1" xmlns="http://www.w3.org/2000/svg" xmlns:xlink="http://www.w3.org/1999/xlink" x="0px" y="0px"
	 viewBox="0 0 48 48" style="enable-background:new 0 0 48 48;" xml:space="preserve">
<style type="text/css">
	.st0{fill:#011E41;}
</style>
<g id="Layer_2_1_">
	<g id="Icons">
		<circle class="st0" cx="41.5" cy="6.5" r="6.5"/>
		<path  stroke-width="param(outline-width) "  stroke-opacity="param(outline-opacity) "  stroke="param(outline) "  fill-opacity="param(fill-opacity) "  fill="param(fill) " class="st0" d="M8.5,12H11c0,1.7,1.3,3,3,3h5c1.7,0,3-1.3,3-3s-1.3-3-3-3h-3.1c-0.2-1.2-1.3-2-2.4-2h-5C7.1,7,6,8.1,6,9.5
			S7.1,12,8.5,12z"/>
		<path  stroke-width="param(outline-width) "  stroke-opacity="param(outline-opacity) "  stroke="param(outline) "  fill-opacity="param(fill-opacity) "  fill="param(fill) " class="st0" d="M23,22.6c-1.5-2.5-4.7-3.4-7.2-1.9c-0.8,0.5-1.4,1.1-1.9,1.9L0.1,46.7c-0.2,0.4-0.1,0.9,0.3,1.2
			C0.6,48,0.7,48,0.9,48h16.8l0.6-1l9.4-16.4L23,22.6z"/>
		<path  stroke-width="param(outline-width) "  stroke-opacity="param(outline-opacity) "  stroke="param(outline) "  fill-opacity="param(fill-opacity) "  fill="param(fill) " class="st0" d="M47.9,46.5l-9.9-17.4c-1.1-2-3.6-2.7-5.6-1.6c-0.7,0.4-1.2,0.9-1.6,1.6l-2,3.5L20,48h27c0.6,0,1-0.5,1-1
			C48,46.8,48,46.6,47.9,46.5z"/>
	</g>
</g>
</svg>
