<?xml version="1.0" encoding="utf-8"?>
<!-- Generator: Adobe Illustrator 25.0.0, SVG Export Plug-In . SVG Version: 6.00 Build 0)  -->
<svg version="1.1" id="Layer_1" xmlns="http://www.w3.org/2000/svg" xmlns:xlink="http://www.w3.org/1999/xlink" x="0px" y="0px"
	 viewBox="0 0 48 48" style="enable-background:new 0 0 48 48;" xml:space="preserve">
<style type="text/css">
	.st0{fill:#011E41;}
</style>
<g id="Layer_2_1_">
	<g id="Icons">
		<path  stroke-width="param(outline-width) "  stroke-opacity="param(outline-opacity) "  stroke="param(outline) "  fill-opacity="param(fill-opacity) "  fill="param(fill) " class="st0" d="M39.4,17.6l-0.7,0.7l-3.9,3.9L22,35h17V24.6c1.9,1.8,3,4.3,3,6.9V42c0,1.7,1.3,3,3,3s3-1.3,3-3V31.5
			C48,25.6,44.7,20.2,39.4,17.6z"/>
		<path  stroke-width="param(outline-width) "  stroke-opacity="param(outline-opacity) "  stroke="param(outline) "  fill-opacity="param(fill-opacity) "  fill="param(fill) " class="st0" d="M21,30.3l8.3-8.3l0,0l2.6-2.6l0,0l3.1-3.1c-0.9-0.2-1.7-0.2-2.6-0.2H3c-1.7,0-3,1.3-3,3s1.3,3,3,3h18V30.3z"
			/>
		<rect x="21" y="39" class="st0" width="18" height="9"/>
		<path  stroke-width="param(outline-width) "  stroke-opacity="param(outline-opacity) "  stroke="param(outline) "  fill-opacity="param(fill-opacity) "  fill="param(fill) " class="st0" d="M29.5,14c3.6,0,6.5-2.9,6.5-6.5c0-0.5-0.1-1-0.2-1.5H23.2c-0.8,3.5,1.4,7,4.9,7.8C28.5,13.9,29,14,29.5,14z"
			/>
		<path  stroke-width="param(outline-width) "  stroke-opacity="param(outline-opacity) "  stroke="param(outline) "  fill-opacity="param(fill-opacity) "  fill="param(fill) " class="st0" d="M24.4,4h10.1C35.3,4,36,3.4,36,2.6V1.4C36,0.6,35.3,0,34.5,0c0,0-0.1,0-0.1,0L24.3,1.1
			C23.6,1.2,23,1.7,23,2.5v0.1C23,3.4,23.7,4,24.4,4z"/>
	</g>
</g>
</svg>
