<?xml version="1.0" encoding="utf-8"?>
<!-- Generator: Adobe Illustrator 25.0.0, SVG Export Plug-In . SVG Version: 6.00 Build 0)  -->
<svg version="1.1" id="Layer_1" xmlns="http://www.w3.org/2000/svg" xmlns:xlink="http://www.w3.org/1999/xlink" x="0px" y="0px"
	 viewBox="0 0 48 33" style="enable-background:new 0 0 48 33;" xml:space="preserve">
<style type="text/css">
	.st0{fill:#011E41;}
</style>
<g id="Layer_2_1_">
	<g id="Icons">
		<path  stroke-width="param(outline-width) "  stroke-opacity="param(outline-opacity) "  stroke="param(outline) "  fill-opacity="param(fill-opacity) "  fill="param(fill) " class="st0" d="M47,27H31c0,1.1-0.9,2-2,2H19c-1.1,0-2-0.9-2-2H1c-0.6,0-1,0.4-1,1v4c0,0.6,0.4,1,1,1h46c0.6,0,1-0.4,1-1v-4
			C48,27.4,47.6,27,47,27z"/>
		<path  stroke-width="param(outline-width) "  stroke-opacity="param(outline-opacity) "  stroke="param(outline) "  fill-opacity="param(fill-opacity) "  fill="param(fill) " class="st0" d="M7,24h1V5h32v19h5V2c0-0.3-0.1-0.5-0.2-0.8c-0.2-0.5-0.6-0.9-1.1-1.1C43.5,0.1,43.3,0,43,0H5C3.9,0,3,0.9,3,2
			v22H7z"/>
	</g>
</g>
</svg>
