<?xml version="1.0" encoding="utf-8"?>
<!-- Generator: Adobe Illustrator 25.0.0, SVG Export Plug-In . SVG Version: 6.00 Build 0)  -->
<svg version="1.1" id="Layer_1" xmlns="http://www.w3.org/2000/svg" xmlns:xlink="http://www.w3.org/1999/xlink" x="0px" y="0px"
	 viewBox="0 0 48 41" style="enable-background:new 0 0 48 41;" xml:space="preserve">
<style type="text/css">
	.st0{fill:#011E41;}
</style>
<g id="Layer_2_1_">
	<g id="Icons">
		<path  stroke-width="param(outline-width) "  stroke-opacity="param(outline-opacity) "  stroke="param(outline) "  fill-opacity="param(fill-opacity) "  fill="param(fill) " class="st0" d="M44,16v-5c0-6.1-4.9-11-11-11H16C9.9,0,5,4.9,5,11v5H4c-2.2,0-4,1.8-4,4c0,0,0,0,0,0v10c0,2.2,1.8,4,4,4
			c0,0,0,0,0,0v3c0,2.2,1.8,4,4,4s4-1.8,4-4v-3h24v3c0,2.2,1.8,4,4,4s4-1.8,4-4v-3c2.2,0,4-1.8,4-4c0,0,0,0,0,0V20
			C48,17.8,46.2,16,44,16C44,16,44,16,44,16z M11,11c0-2.8,2.3-5,5-5h17c2.8,0,5,2.2,5,5v5H11V11z M9,28c-1.7,0-3-1.3-3-3s1.3-3,3-3
			s3,1.3,3,3C12,26.7,10.7,28,9,28C9,28,9,28,9,28z M39,22c1.7,0,3,1.3,3,3s-1.3,3-3,3s-3-1.3-3-3C36,23.3,37.3,22,39,22
			C39,22,39,22,39,22z"/>
	</g>
</g>
</svg>
