<?xml version="1.0" encoding="utf-8"?>
<!-- Generator: Adobe Illustrator 25.0.0, SVG Export Plug-In . SVG Version: 6.00 Build 0)  -->
<svg version="1.1" id="Layer_1" xmlns="http://www.w3.org/2000/svg" xmlns:xlink="http://www.w3.org/1999/xlink" x="0px" y="0px"
	 viewBox="0 0 48 48" style="enable-background:new 0 0 48 48;" xml:space="preserve">
<style type="text/css">
	.st0{fill:#011E41;}
</style>
<path  stroke-width="param(outline-width) "  stroke-opacity="param(outline-opacity) "  stroke="param(outline) "  fill-opacity="param(fill-opacity) "  fill="param(fill) " class="st0" d="M10,5C8.3,5,7,6.3,7,8h6C13,6.3,11.7,5,10,5z"/>
<path  stroke-width="param(outline-width) "  stroke-opacity="param(outline-opacity) "  stroke="param(outline) "  fill-opacity="param(fill-opacity) "  fill="param(fill) " class="st0" d="M18.3,0c5.5,4.6,6.3,12.8,1.7,18.3c-1.1,1.3-2.5,2.4-4,3.2V48h32V0H18.3z M34,42c0,1.1-0.9,2-2,2
	c-1.1,0-2-0.9-2-2v-6c0-1.1,0.9-2,2-2c1.1,0,2,0.9,2,2V42z M34,27c0,1.1-0.9,2-2,2c-1.1,0-2-0.9-2-2v-6c0-1.1,0.9-2,2-2
	c1.1,0,2,0.9,2,2V27z M34,12c0,1.1-0.9,2-2,2c-1.1,0-2-0.9-2-2V6c0-1.1,0.9-2,2-2c1.1,0,2,0.9,2,2V12z"/>
<path  stroke-width="param(outline-width) "  stroke-opacity="param(outline-opacity) "  stroke="param(outline) "  fill-opacity="param(fill-opacity) "  fill="param(fill) " class="st0" d="M20,10c0-5.5-4.5-10-10-10S0,4.5,0,10s4.5,10,10,10C15.5,20,20,15.5,20,10z M15,14c0,1.1-0.9,2-2,2H7
	c-1.1,0-2-0.9-2-2V8c0-2.8,2.2-5,5-5s5,2.2,5,5V14z"/>
<path  stroke-width="param(outline-width) "  stroke-opacity="param(outline-opacity) "  stroke="param(outline) "  fill-opacity="param(fill-opacity) "  fill="param(fill) " class="st0" d="M9,10h2c0.6,0,1,0.4,1,1v2c0,0.6-0.4,1-1,1H9c-0.6,0-1-0.4-1-1v-2C8,10.4,8.4,10,9,10z"/>
</svg>
