<?xml version="1.0" encoding="utf-8"?>
<!-- Generator: Adobe Illustrator 25.0.0, SVG Export Plug-In . SVG Version: 6.00 Build 0)  -->
<svg version="1.1" id="Layer_1" xmlns="http://www.w3.org/2000/svg" xmlns:xlink="http://www.w3.org/1999/xlink" x="0px" y="0px"
	 viewBox="0 0 48.1 42" style="enable-background:new 0 0 48.1 42;" xml:space="preserve">
<style type="text/css">
	.st0{fill:#011E41;}
</style>
<g id="Layer_2_1_">
	<g id="Icons">
		<path  stroke-width="param(outline-width) "  stroke-opacity="param(outline-opacity) "  stroke="param(outline) "  fill-opacity="param(fill-opacity) "  fill="param(fill) " class="st0" d="M47.1,0H19c-0.5,0-1,0.5-0.9,1v4.5L19,5.7c1.8,0.4,3,1.9,3,3.7l0,12c0,3.5-1.2,6.8-3.4,9.5
			c-0.2,0.2-0.4,0.4-0.6,0.6V41c0,0.5,0.4,1,0.9,1h20.1v-6c0-1.7,1.3-3,3-3h6V1C48.1,0.5,47.7,0,47.1,0z M40,29H26.1
			c-0.6,0-1-0.4-1-1s0.4-1,1-1H40c0.6,0,1,0.4,1,1S40.6,29,40,29z M40,23H26.1c-0.6,0-1-0.4-1-1s0.4-1,1-1H40c0.6,0,1,0.4,1,1
			S40.6,23,40,23z M40,17H26.1c-0.6,0-1-0.4-1-1c0-0.6,0.4-1,1-1H40c0.6,0,1,0.4,1,1C41,16.6,40.6,17,40,17z M40,11H26.1
			c-0.6,0-1-0.4-1-1s0.4-1,1-1H40c0.6,0,1,0.4,1,1S40.6,11,40,11z"/>
		<path  stroke-width="param(outline-width) "  stroke-opacity="param(outline-opacity) "  stroke="param(outline) "  fill-opacity="param(fill-opacity) "  fill="param(fill) " class="st0" d="M42.1,35c-0.6,0-1,0.4-1,1v6l7-7H42.1z"/>
		<path  stroke-width="param(outline-width) "  stroke-opacity="param(outline-opacity) "  stroke="param(outline) "  fill-opacity="param(fill-opacity) "  fill="param(fill) " class="st0" d="M20.1,21.5l0-12c0-0.8-0.6-1.6-1.4-1.8l-0.5-0.1L10.3,6c-0.1,0-0.2,0-0.3,0C9.9,6,9.8,6,9.7,6L1.4,7.7
			C0.6,7.9,0,8.6,0,9.5l0,12.1C0,27.9,4.6,33,10.1,33h0c3.3-0.1,6.3-1.8,8-4.6C19.4,26.3,20.1,23.9,20.1,21.5z"/>
	</g>
</g>
</svg>
