<?xml version="1.0" encoding="utf-8"?>
<!-- Generator: Adobe Illustrator 25.0.0, SVG Export Plug-In . SVG Version: 6.00 Build 0)  -->
<svg version="1.1" id="Layer_1" xmlns="http://www.w3.org/2000/svg" xmlns:xlink="http://www.w3.org/1999/xlink" x="0px" y="0px"
	 viewBox="0 0 48 48" style="enable-background:new 0 0 48 48;" xml:space="preserve">
<style type="text/css">
	.st0{fill:#011E41;}
</style>
<g id="Layer_2_1_">
	<g id="Icons">
		<path  stroke-width="param(outline-width) "  stroke-opacity="param(outline-opacity) "  stroke="param(outline) "  fill-opacity="param(fill-opacity) "  fill="param(fill) " class="st0" d="M45.5,43H35V20c0-2.2,1.8-4,4-4c2.2,0,4,1.8,4,4c0,0,0,0,0,0h0v0.7c-1.2,0.6-2,1.8-2,3.2
			c0,1.7,2.9,5.4,3.4,6.1c0,0,0.1,0.1,0.2,0c0,0,0,0,0,0c0.5-0.7,3.4-4.4,3.4-6.1c0-1.3-0.8-2.6-2-3.2V20h0c0,0,0,0,0,0
			c0-3.8-3.1-6.9-7-7c-3.9,0-7,3.1-7,7v5h-2.5c-0.2,0-0.3,0-0.5,0c-2.6,0.3-4.7,2.3-5,5c0,0.2,0,0.3,0,0.5v1.2c-1.2,0.6-2,1.8-2,3.2
			c0,1.7,2.9,5.4,3.4,6.1c0,0,0.1,0.1,0.2,0c0,0,0,0,0,0c0.5-0.7,3.4-4.4,3.4-6.1c0-1.3-0.8-2.6-2-3.2v-1.2c0-1.4,1.1-2.5,2.5-2.5
			H32v15H2.5C1.1,43,0,44.1,0,45.5S1.1,48,2.5,48h43c1.4,0,2.5-1.1,2.5-2.5S46.9,43,45.5,43z"/>
		<path  stroke-width="param(outline-width) "  stroke-opacity="param(outline-opacity) "  stroke="param(outline) "  fill-opacity="param(fill-opacity) "  fill="param(fill) " class="st0" d="M12.5,6C13.3,6,14,5.3,14,4.5v-3C14,0.7,13.3,0,12.5,0S11,0.7,11,1.5v3C11,5.3,11.7,6,12.5,6z"/>
		<path  stroke-width="param(outline-width) "  stroke-opacity="param(outline-opacity) "  stroke="param(outline) "  fill-opacity="param(fill-opacity) "  fill="param(fill) " class="st0" d="M11,20.5v3c0,0.8,0.7,1.5,1.5,1.5s1.5-0.7,1.5-1.5v-3c0-0.8-0.7-1.5-1.5-1.5S11,19.7,11,20.5z"/>
		<path  stroke-width="param(outline-width) "  stroke-opacity="param(outline-opacity) "  stroke="param(outline) "  fill-opacity="param(fill-opacity) "  fill="param(fill) " class="st0" d="M19.2,7.9l2.1-2.1c0.6-0.6,0.6-1.5,0-2.1c-0.6-0.6-1.5-0.6-2.1,0c0,0,0,0,0,0l-2.1,2.1
			c-0.6,0.6-0.6,1.5,0,2.1C17.7,8.5,18.6,8.5,19.2,7.9z"/>
		<path  stroke-width="param(outline-width) "  stroke-opacity="param(outline-opacity) "  stroke="param(outline) "  fill-opacity="param(fill-opacity) "  fill="param(fill) " class="st0" d="M5.8,17.1l-2.1,2.1c-0.6,0.6-0.6,1.5,0,2.1c0.6,0.6,1.5,0.6,2.1,0l2.1-2.1c0.6-0.6,0.6-1.5,0-2.1
			S6.4,16.5,5.8,17.1z"/>
		<path  stroke-width="param(outline-width) "  stroke-opacity="param(outline-opacity) "  stroke="param(outline) "  fill-opacity="param(fill-opacity) "  fill="param(fill) " class="st0" d="M19,12.5c0,0.8,0.7,1.5,1.5,1.5h3c0.8,0,1.5-0.7,1.5-1.5S24.3,11,23.5,11h-3C19.7,11,19,11.7,19,12.5z"/>
		<path  stroke-width="param(outline-width) "  stroke-opacity="param(outline-opacity) "  stroke="param(outline) "  fill-opacity="param(fill-opacity) "  fill="param(fill) " class="st0" d="M1.5,14h3C5.3,14,6,13.3,6,12.5S5.3,11,4.5,11h-3C0.7,11,0,11.7,0,12.5S0.7,14,1.5,14z"/>
		<path  stroke-width="param(outline-width) "  stroke-opacity="param(outline-opacity) "  stroke="param(outline) "  fill-opacity="param(fill-opacity) "  fill="param(fill) " class="st0" d="M17.1,17.1c-0.6,0.6-0.6,1.5,0,2.1l2.1,2.1c0.6,0.6,1.5,0.6,2.1,0c0.6-0.6,0.6-1.5,0-2.1l-2.1-2.1
			C18.6,16.5,17.7,16.5,17.1,17.1z"/>
		<path  stroke-width="param(outline-width) "  stroke-opacity="param(outline-opacity) "  stroke="param(outline) "  fill-opacity="param(fill-opacity) "  fill="param(fill) " class="st0" d="M5.8,7.9c0.6,0.6,1.5,0.6,2.1,0s0.6-1.5,0-2.1L5.8,3.7c-0.6-0.6-1.5-0.6-2.1,0c-0.6,0.6-0.6,1.5,0,2.1
			L5.8,7.9z"/>
		<circle class="st0" cx="12.5" cy="12.5" r="4.5"/>
	</g>
</g>
</svg>
