<?xml version="1.0" encoding="utf-8"?>
<!-- Generator: Adobe Illustrator 25.0.0, SVG Export Plug-In . SVG Version: 6.00 Build 0)  -->
<svg version="1.1" id="Layer_1" xmlns="http://www.w3.org/2000/svg" xmlns:xlink="http://www.w3.org/1999/xlink" x="0px" y="0px"
	 viewBox="0 0 48 48" style="enable-background:new 0 0 48 48;" xml:space="preserve">
<style type="text/css">
	.st0{fill:#011E41;}
</style>
<path  stroke-width="param(outline-width) "  stroke-opacity="param(outline-opacity) "  stroke="param(outline) "  fill-opacity="param(fill-opacity) "  fill="param(fill) " class="st0" d="M10,5C8.3,5,7,6.3,7,8h6C13,6.3,11.7,5,10,5z"/>
<path  stroke-width="param(outline-width) "  stroke-opacity="param(outline-opacity) "  stroke="param(outline) "  fill-opacity="param(fill-opacity) "  fill="param(fill) " class="st0" d="M20,10c0-5.5-4.5-10-10-10S0,4.5,0,10s4.5,10,10,10C15.5,20,20,15.5,20,10z M5,14V8c0-2.8,2.2-5,5-5s5,2.2,5,5
	v6c0,1.1-0.9,2-2,2H7C5.9,16,5,15.1,5,14z"/>
<path  stroke-width="param(outline-width) "  stroke-opacity="param(outline-opacity) "  stroke="param(outline) "  fill-opacity="param(fill-opacity) "  fill="param(fill) " class="st0" d="M47.1,33.9c-1.2-1.2-3.1-1.2-4.2,0c0,0,0,0,0,0c-2.9,2.9-6.8,4.9-10.9,5.5V26h7c1.7,0,3-1.3,3-3s-1.3-3-3-3h-7
	v-7c1.8-1,3-2.9,3-5c0-3.3-2.7-6-6-6s-6,2.7-6,6c0,2.1,1.2,4,3,5v7h-7c-1.7,0-3,1.3-3,3s1.3,3,3,3h7v13.4c-4.1-0.6-7.9-2.5-10.9-5.5
	c-1.2-1.2-3.1-1.2-4.2,0s-1.2,3.1,0,4.2c4.1,4.1,9.4,6.7,15.2,7.3c0.2,1.6,1.7,2.8,3.4,2.5c1.3-0.2,2.3-1.2,2.5-2.5
	c5.7-0.7,11.1-3.2,15.2-7.3C48.3,37,48.3,35.1,47.1,33.9C47.1,33.9,47.1,33.9,47.1,33.9z M29,10c-1.1,0-2-0.9-2-2s0.9-2,2-2
	s2,0.9,2,2C31,9.1,30.1,10,29,10z"/>
<path  stroke-width="param(outline-width) "  stroke-opacity="param(outline-opacity) "  stroke="param(outline) "  fill-opacity="param(fill-opacity) "  fill="param(fill) " class="st0" d="M9,10h2c0.6,0,1,0.4,1,1v2c0,0.6-0.4,1-1,1H9c-0.6,0-1-0.4-1-1v-2C8,10.4,8.4,10,9,10z"/>
</svg>
