<?xml version="1.0" encoding="utf-8"?>
<!-- Generator: Adobe Illustrator 25.0.0, SVG Export Plug-In . SVG Version: 6.00 Build 0)  -->
<svg version="1.1" id="Layer_1" xmlns="http://www.w3.org/2000/svg" xmlns:xlink="http://www.w3.org/1999/xlink" x="0px" y="0px"
	 viewBox="0 0 42 48" style="enable-background:new 0 0 42 48;" xml:space="preserve">
<style type="text/css">
	.st0{fill:#011E41;}
</style>
<g id="Layer_2_1_">
	<g id="Icons">
		<path  stroke-width="param(outline-width) "  stroke-opacity="param(outline-opacity) "  stroke="param(outline) "  fill-opacity="param(fill-opacity) "  fill="param(fill) " class="st0" d="M14,8.5c0,3.6,2.9,6.5,6.5,6.5S27,12.1,27,8.5c0-0.5-0.1-1-0.2-1.5H14.2C14.1,7.5,14,8,14,8.5z"/>
		<path  stroke-width="param(outline-width) "  stroke-opacity="param(outline-opacity) "  stroke="param(outline) "  fill-opacity="param(fill-opacity) "  fill="param(fill) " class="st0" d="M15,5h11c1.1,0,2-0.9,2-2.1V2.1c0-1.1-0.9-2-2-2.1c0,0,0,0,0,0h-0.1l-11,0.8c-1.1,0.1-1.9,1-1.9,2v0.1
			C13,4.1,13.9,5,15,5z"/>
		<path  stroke-width="param(outline-width) "  stroke-opacity="param(outline-opacity) "  stroke="param(outline) "  fill-opacity="param(fill-opacity) "  fill="param(fill) " class="st0" d="M40,29.8c-2-4.1-5.2-7.5-9.3-9.6l1.8-3.1c0.6-1,0.2-2.2-0.7-2.7c0,0,0,0,0,0l3.5-6.1l0.8-1.3
			c0.1-0.2,0.1-0.5-0.2-0.7l-2.2-1.3c-0.5-0.3-1.1-0.1-1.4,0.4c-0.1,0.2-0.1,0.3-0.1,0.5c0,0.4,0.2,0.7,0.5,0.9L29,13.2
			c-0.7,0-1.4,0.4-1.7,1l-2.4,4.2C23.6,18.1,22.3,18,21,18c-2.6,0-5.1,0.4-7.6,1.4l0,0l0.5,0.8l2.6,4.4h0l0,0l2.3,4l0.8,1.3
			l9.7,16.9c0.4-0.5,0.7-1.2,0.7-1.9V26.9c2.4,1.7,4.2,4.1,5.1,6.9c0.6,1.7,0.9,3.5,0.9,5.3c0,1.7,1.3,3,3,3s3-1.3,3-3
			C42,35.8,41.3,32.7,40,29.8z M25,29c-1.1,0-2-0.9-2-2s0.9-2,2-2s2,0.9,2,2C27,28.1,26.1,29,25,29z"/>
		<path  stroke-width="param(outline-width) "  stroke-opacity="param(outline-opacity) "  stroke="param(outline) "  fill-opacity="param(fill-opacity) "  fill="param(fill) " class="st0" d="M13.7,25.8L12,22.8l-1.3-2.2l0,0c-3.8,2.1-6.8,5.3-8.7,9.2c-1.4,2.9-2.1,6-2,9.2c0,1.7,1.3,3,3,3s3-1.3,3-3
			c0-1.8,0.3-3.6,0.9-5.3c1-2.8,2.8-5.2,5.1-6.9V45c0,1.7,1.3,3,3,3c0,0,0,0,0,0h11.5L13.7,25.8L13.7,25.8z"/>
	</g>
</g>
</svg>
