<?xml version="1.0" encoding="utf-8"?>
<!-- Generator: Adobe Illustrator 25.0.0, SVG Export Plug-In . SVG Version: 6.00 Build 0)  -->
<svg version="1.1" id="Layer_1" xmlns="http://www.w3.org/2000/svg" xmlns:xlink="http://www.w3.org/1999/xlink" x="0px" y="0px"
	 viewBox="0 0 32 42" style="enable-background:new 0 0 32 42;" xml:space="preserve">
<style type="text/css">
	.st0{fill:#011E41;}
</style>
<g id="Layer_2_1_">
	<g id="Expanded_Icons">
		<path  stroke-width="param(outline-width) "  stroke-opacity="param(outline-opacity) "  stroke="param(outline) "  fill-opacity="param(fill-opacity) "  fill="param(fill) " class="st0" d="M31.2,3L16.2,0c-0.1,0-0.3,0-0.4,0l-15,3C0.3,3.1,0,3.5,0,4v20.2C0,34,7.3,42,16,42s16-8,16-17.9V4
			C32,3.5,31.7,3.1,31.2,3z M9.7,12.8c0.2-0.5,0.7-0.9,1.2-1l5-0.7l-2.3,7l-3.9-3.9C9.6,14.1,9.4,14,9.3,14L9.7,12.8z M26,21.6
			c0,0.7-0.5,1.4-1.3,1.5L19,23.9l-1,6l-8,1l-4-8l2.6-7l4.7,4.7c0.2,0.2,0.4,0.3,0.7,0.3c0.1,0,0.2,0,0.2,0c0.3-0.1,0.6-0.3,0.7-0.7
			l2.8-8.5l3.2,3.2l3.8,0.8c0.7,0.1,1.2,0.8,1.2,1.5V21.6z"/>
	</g>
</g>
</svg>
