<?xml version="1.0" encoding="utf-8"?>
<!-- Generator: Adobe Illustrator 25.0.0, SVG Export Plug-In . SVG Version: 6.00 Build 0)  -->
<svg version="1.1" id="Layer_1" xmlns="http://www.w3.org/2000/svg" xmlns:xlink="http://www.w3.org/1999/xlink" x="0px" y="0px"
	 viewBox="0 0 48 48" style="enable-background:new 0 0 48 48;" xml:space="preserve">
<style type="text/css">
	.st0{fill:#011E41;}
</style>
<path  stroke-width="param(outline-width) "  stroke-opacity="param(outline-opacity) "  stroke="param(outline) "  fill-opacity="param(fill-opacity) "  fill="param(fill) " class="st0" d="M45.3,0H2.8C1.2,0,0,1.2,0,2.7c0,0,0,0,0,0v42.5C0,46.8,1.2,48,2.7,48c0,0,0,0,0,0h42.5c1.5,0,2.7-1.2,2.8-2.7
	c0,0,0,0,0,0V2.7C48,1.2,46.8,0,45.3,0C45.3,0,45.3,0,45.3,0z M44,44H4V4h40V44z"/>
<path  stroke-width="param(outline-width) "  stroke-opacity="param(outline-opacity) "  stroke="param(outline) "  fill-opacity="param(fill-opacity) "  fill="param(fill) " class="st0" d="M13.4,40.7c1.3,0.7,2.9,0.2,3.6-1c0,0,0,0,0,0l4.8-8.5l8.1,9c0,0,0,0,0.1,0.1c0.1,0.1,0.1,0.1,0.2,0.2
	c0.1,0.1,0.1,0.1,0.2,0.2c0.1,0,0.1,0.1,0.2,0.1c0.1,0,0.1,0.1,0.2,0.1c0.1,0,0.2,0.1,0.2,0.1c0.1,0,0.2,0.1,0.2,0.1
	c0.1,0,0.2,0,0.2,0c0.1,0,0.2,0,0.3,0c0,0,0.1,0,0.1,0h6.6c1.5,0,2.7-1.2,2.7-2.6V24c0-4.4-3.7-8-8.1-8h-1.2c-1.5,0-2.7,1.2-2.7,2.6
	v12.8l-5.8-6.6c-1-1.1-2.6-1.2-3.7-0.2c-0.2,0.2-0.4,0.4-0.6,0.7l-6.6,11.7C11.6,38.4,12.1,40,13.4,40.7
	C13.4,40.7,13.4,40.7,13.4,40.7z"/>
<circle class="st0" cx="24.5" cy="11.5" r="4.5"/>
</svg>
