<?xml version="1.0" encoding="utf-8"?>
<!-- Generator: Adobe Illustrator 25.0.0, SVG Export Plug-In . SVG Version: 6.00 Build 0)  -->
<svg version="1.1" id="Layer_1" xmlns="http://www.w3.org/2000/svg" xmlns:xlink="http://www.w3.org/1999/xlink" x="0px" y="0px"
	 viewBox="0 0 48 48" style="enable-background:new 0 0 48 48;" xml:space="preserve">
<style type="text/css">
	.st0{fill:#011E41;}
</style>
<path  stroke-width="param(outline-width) "  stroke-opacity="param(outline-opacity) "  stroke="param(outline) "  fill-opacity="param(fill-opacity) "  fill="param(fill) " class="st0" d="M47.2,22H15c-3.2,1.3-6.8,1.3-10,0H0.7L0,24v2c0,2.2,1.8,4,4,4s4-1.8,4-4c0,2.2,1.8,4,4,4s4-1.8,4-4
	c0,2.2,1.8,4,4,4s4-1.8,4-4c0,2.2,1.8,4,4,4s4-1.8,4-4c0,2.2,1.8,4,4,4s4-1.8,4-4c0,2.2,1.8,4,4,4s4-1.8,4-4v-2L47.2,22z"/>
<path  stroke-width="param(outline-width) "  stroke-opacity="param(outline-opacity) "  stroke="param(outline) "  fill-opacity="param(fill-opacity) "  fill="param(fill) " class="st0" d="M18.3,20h28.1L41.3,7.6C41.1,7.2,40.7,7,40.3,7H22.6C23.8,11.8,22.1,16.9,18.3,20z"/>
<path  stroke-width="param(outline-width) "  stroke-opacity="param(outline-opacity) "  stroke="param(outline) "  fill-opacity="param(fill-opacity) "  fill="param(fill) " class="st0" d="M10,5C8.3,5,7,6.3,7,8h6C13,6.3,11.7,5,10,5z"/>
<path  stroke-width="param(outline-width) "  stroke-opacity="param(outline-opacity) "  stroke="param(outline) "  fill-opacity="param(fill-opacity) "  fill="param(fill) " class="st0" d="M44,32v16H16V38c0-1.1-0.9-2-2-2h-4c-1.1,0-2,0.9-2,2v10H4V32c1.5,0,2.9-0.6,4-1.5c2.3,2.1,5.7,2.1,8,0
	c2.3,2.1,5.7,2.1,8,0c2.3,2.1,5.7,2.1,8,0c2.3,2.1,5.7,2.1,8,0C41.1,31.4,42.5,32,44,32z"/>
<path  stroke-width="param(outline-width) "  stroke-opacity="param(outline-opacity) "  stroke="param(outline) "  fill-opacity="param(fill-opacity) "  fill="param(fill) " class="st0" d="M19.5,7C17.9,1.7,12.3-1.2,7,0.5C2.8,1.8,0,5.6,0,10c0,5.5,4.5,10,10,10s10-4.5,10-10C20,9,19.8,8,19.5,7z
	 M15,14c0,1.1-0.9,2-2,2H7c-1.1,0-2-0.9-2-2V8c0-2.8,2.2-5,5-5c2.4,0,4.4,1.7,4.9,4C15,7.3,15,7.7,15,8V14z"/>
<path  stroke-width="param(outline-width) "  stroke-opacity="param(outline-opacity) "  stroke="param(outline) "  fill-opacity="param(fill-opacity) "  fill="param(fill) " class="st0" d="M9,10h2c0.6,0,1,0.4,1,1v2c0,0.6-0.4,1-1,1H9c-0.6,0-1-0.4-1-1v-2C8,10.4,8.4,10,9,10z"/>
</svg>
