<?xml version="1.0" encoding="utf-8"?>
<!-- Generator: Adobe Illustrator 25.0.0, SVG Export Plug-In . SVG Version: 6.00 Build 0)  -->
<svg version="1.1" id="Layer_1" xmlns="http://www.w3.org/2000/svg" xmlns:xlink="http://www.w3.org/1999/xlink" x="0px" y="0px"
	 viewBox="0 0 32 48" style="enable-background:new 0 0 32 48;" xml:space="preserve">
<style type="text/css">
	.st0{fill:#011E41;}
</style>
<g id="Layer_2_1_">
	<g id="Icons">
		<path  stroke-width="param(outline-width) "  stroke-opacity="param(outline-opacity) "  stroke="param(outline) "  fill-opacity="param(fill-opacity) "  fill="param(fill) " class="st0" d="M30,6H2C0.9,6,0,6.9,0,8v22h32V8C32,6.9,31.1,6,30,6z M15,21.5c0,1.9-1.6,3.5-3.5,3.5S8,23.4,8,21.5l0,0V14
			c0-0.6,0.4-1,1-1s1,0.4,1,1v7.5c0,0.8,0.7,1.5,1.5,1.5s1.5-0.7,1.5-1.5V14c0-0.6,0.4-1,1-1s1,0.4,1,1V21.5z M24,24
			c0,0.5-0.3,0.9-0.8,1c-0.1,0-0.2,0-0.2,0c-0.4,0-0.7-0.2-0.9-0.5L19,18.2V24c0,0.6-0.4,1-1,1s-1-0.4-1-1V14c0-0.6,0.4-1,1-1
			c0.4,0,0.7,0.2,0.9,0.5l3.1,6.2V14c0-0.6,0.4-1,1-1s1,0.4,1,1V24z"/>
		<path  stroke-width="param(outline-width) "  stroke-opacity="param(outline-opacity) "  stroke="param(outline) "  fill-opacity="param(fill-opacity) "  fill="param(fill) " class="st0" d="M6,4h20c1.1,0,2-0.9,2-2s-0.9-2-2-2H6C4.9,0,4,0.9,4,2S4.9,4,6,4z"/>
		<path  stroke-width="param(outline-width) "  stroke-opacity="param(outline-opacity) "  stroke="param(outline) "  fill-opacity="param(fill-opacity) "  fill="param(fill) " class="st0" d="M0,48h12V38c0-1.1,0.9-2,2-2h4c1.1,0,2,0.9,2,2v10h12V32H0V48z"/>
	</g>
</g>
</svg>
