<?xml version="1.0" encoding="utf-8"?>
<!-- Generator: Adobe Illustrator 25.0.0, SVG Export Plug-In . SVG Version: 6.00 Build 0)  -->
<svg version="1.1" id="Layer_1" xmlns="http://www.w3.org/2000/svg" xmlns:xlink="http://www.w3.org/1999/xlink" x="0px" y="0px"
	 viewBox="0 0 48 35" style="enable-background:new 0 0 48 35;" xml:space="preserve">
<style type="text/css">
	.st0{fill:#011E41;}
</style>
<g id="Layer_2_1_">
	<g id="Icons">
		<path  stroke-width="param(outline-width) "  stroke-opacity="param(outline-opacity) "  stroke="param(outline) "  fill-opacity="param(fill-opacity) "  fill="param(fill) " class="st0" d="M47.5,0h-31C16.2,0,16,0.2,16,0.5V8h10.5c1.4,0,2.5,1.1,2.5,2.5v24c0,0.2,0,0.3-0.1,0.5h18.6
			c0.3,0,0.5-0.2,0.5-0.5v-34C48,0.2,47.8,0,47.5,0z M43.6,20.6c-0.6,0.6-1.5,0.6-2.1,0c0,0,0,0,0,0L40,19.1v8.4
			c0,0.8-0.7,1.5-1.5,1.5S37,28.3,37,27.5l0,0v-8.4l-1.4,1.4c-0.6,0.6-1.5,0.6-2.1,0c-0.6-0.6-0.6-1.5,0-2.1l0,0l4-4c0,0,0,0,0,0
			c0.6-0.6,1.5-0.6,2.1-0.1c0,0,0,0,0.1,0.1l0,0l4,4C44.1,19,44.1,20,43.6,20.6z"/>
		<path  stroke-width="param(outline-width) "  stroke-opacity="param(outline-opacity) "  stroke="param(outline) "  fill-opacity="param(fill-opacity) "  fill="param(fill) " class="st0" d="M26.5,10h-26C0.2,10,0,10.2,0,10.5v24C0,34.8,0.2,35,0.5,35h26c0.3,0,0.5-0.2,0.5-0.5v-24
			C27,10.2,26.8,10,26.5,10z M17,19h-7c-1.1,0-2-0.9-2-2c0-1.1,0.9-2,2-2h7c1.1,0,2,0.9,2,2C19,18.1,18.1,19,17,19z"/>
	</g>
</g>
</svg>
