<?xml version="1.0" encoding="utf-8"?>
<!-- Generator: Adobe Illustrator 25.0.0, SVG Export Plug-In . SVG Version: 6.00 Build 0)  -->
<svg version="1.1" id="Layer_1" xmlns="http://www.w3.org/2000/svg" xmlns:xlink="http://www.w3.org/1999/xlink" x="0px" y="0px"
	 viewBox="0 0 48 48" style="enable-background:new 0 0 48 48;" xml:space="preserve">
<style type="text/css">
	.st0{fill:#011E41;}
</style>
<g id="Layer_2_1_">
	<g id="Icons">
		<path  stroke-width="param(outline-width) "  stroke-opacity="param(outline-opacity) "  stroke="param(outline) "  fill-opacity="param(fill-opacity) "  fill="param(fill) " class="st0" d="M46,42c-1.6,0-3.2,0.4-4.6,1.2c-1.7,1-3.8,1-5.4,0c-1.4-0.8-3-1.3-4.6-1.2c-1.6,0-3.2,0.4-4.6,1.2
			C25.9,43.8,25,44,24,44c-1,0-1.9-0.2-2.7-0.8c-1.4-0.8-3-1.3-4.6-1.2c-1.6,0-3.2,0.4-4.6,1.2c-0.8,0.5-1.8,0.8-2.7,0.8
			c-1,0-1.9-0.2-2.7-0.8C5.2,42.4,3.6,42,2,42c-1.1,0-2,0.9-2,2s0.9,2,2,2c1,0,1.9,0.2,2.7,0.8c1.4,0.8,3,1.3,4.6,1.2
			c1.6,0,3.2-0.4,4.6-1.2c0.8-0.5,1.8-0.8,2.7-0.8c1,0,1.9,0.2,2.7,0.8c1.4,0.8,3,1.3,4.6,1.2c1.6,0,3.2-0.4,4.6-1.2
			c1.7-1,3.8-1,5.4,0c2.9,1.7,6.4,1.7,9.3,0C44.1,46.2,45,46,46,46c1.1,0,2-0.9,2-2S47.1,42,46,42z"/>
		<path  stroke-width="param(outline-width) "  stroke-opacity="param(outline-opacity) "  stroke="param(outline) "  fill-opacity="param(fill-opacity) "  fill="param(fill) " class="st0" d="M46,34c-1.6,0-3.2,0.4-4.6,1.2c-1.7,1-3.8,1-5.4,0c-1.4-0.8-3-1.3-4.6-1.2c-1.6,0-3.2,0.4-4.6,1.2
			C25.9,35.8,25,36,24,36c-1,0-1.9-0.2-2.7-0.8c-1.4-0.8-3-1.3-4.6-1.2c-1.6,0-3.2,0.4-4.6,1.2c-0.8,0.5-1.8,0.8-2.7,0.8
			c-1,0-1.9-0.2-2.7-0.8C5.2,34.4,3.6,34,2,34c-1.1,0-2,0.9-2,2s0.9,2,2,2c1,0,1.9,0.2,2.7,0.8c1.4,0.8,3,1.3,4.6,1.2
			c1.6,0,3.2-0.4,4.6-1.2c0.8-0.5,1.8-0.8,2.7-0.8c1,0,1.9,0.2,2.7,0.8c1.4,0.8,3,1.3,4.6,1.2c1.6,0,3.2-0.4,4.6-1.2
			c1.7-1,3.8-1,5.4,0c2.9,1.7,6.4,1.7,9.3,0C44.1,38.2,45,38,46,38c1.1,0,2-0.9,2-2S47.1,34,46,34z"/>
		<path  stroke-width="param(outline-width) "  stroke-opacity="param(outline-opacity) "  stroke="param(outline) "  fill-opacity="param(fill-opacity) "  fill="param(fill) " class="st0" d="M8,22h28.5c3.5,0,6.6-2.5,7.3-5.9c0.1-0.5,0.2-1.1,0.2-1.6c0-4.1-3.4-7.5-7.5-7.5c-0.9,0-1.8,0.2-2.7,0.5l0,0
			c-1.1-5.1-6.1-8.4-11.3-7.3C18.2,1.1,15,5,15,9.4c-2.5-1.1-5.5,0-6.6,2.6C8.1,12.6,8,13.3,8,14c-2.2,0-4,1.8-4,4S5.8,22,8,22z"/>
		<path  stroke-width="param(outline-width) "  stroke-opacity="param(outline-opacity) "  stroke="param(outline) "  fill-opacity="param(fill-opacity) "  fill="param(fill) " class="st0" d="M11,24.5L7.5,28c-0.7,0.7-0.7,1.8,0,2.5c0.7,0.7,1.8,0.7,2.5,0l3.5-3.5c0.7-0.7,0.7-1.8,0-2.5
			C12.8,23.8,11.7,23.8,11,24.5z"/>
		<path  stroke-width="param(outline-width) "  stroke-opacity="param(outline-opacity) "  stroke="param(outline) "  fill-opacity="param(fill-opacity) "  fill="param(fill) " class="st0" d="M23,24.5L19.5,28c-0.7,0.7-0.7,1.8,0,2.5c0.7,0.7,1.8,0.7,2.5,0l3.5-3.5c0.7-0.7,0.7-1.8,0-2.5
			C24.8,23.8,23.7,23.8,23,24.5z"/>
		<path  stroke-width="param(outline-width) "  stroke-opacity="param(outline-opacity) "  stroke="param(outline) "  fill-opacity="param(fill-opacity) "  fill="param(fill) " class="st0" d="M35,24.5L31.5,28c-0.7,0.7-0.7,1.8,0,2.5c0.7,0.7,1.8,0.7,2.5,0l3.5-3.5c0.7-0.7,0.7-1.8,0-2.5
			C36.8,23.8,35.7,23.8,35,24.5z"/>
	</g>
</g>
</svg>
