<?xml version="1.0" encoding="utf-8"?>
<!-- Generator: Adobe Illustrator 25.0.0, SVG Export Plug-In . SVG Version: 6.00 Build 0)  -->
<svg version="1.1" id="Layer_1" xmlns="http://www.w3.org/2000/svg" xmlns:xlink="http://www.w3.org/1999/xlink" x="0px" y="0px"
	 viewBox="0 0 48 48" style="enable-background:new 0 0 48 48;" xml:space="preserve">
<style type="text/css">
	.st0{fill:#011E41;}
</style>
<g id="Layer_2_1_">
	<g id="Icons">
		<path  stroke-width="param(outline-width) "  stroke-opacity="param(outline-opacity) "  stroke="param(outline) "  fill-opacity="param(fill-opacity) "  fill="param(fill) " class="st0" d="M10,39c1.1,0,2-0.9,2-2V19.8l4.6,4.6c0.8,0.8,2,0.8,2.8,0s0.8-2,0-2.8l0,0l-8-8c-0.8-0.8-2-0.8-2.8,0
			c0,0,0,0,0,0l-8,8c-0.8,0.8-0.8,2,0,2.8s2,0.8,2.8,0l0,0L8,19.8V37C8,38.1,8.9,39,10,39z"/>
		<path  stroke-width="param(outline-width) "  stroke-opacity="param(outline-opacity) "  stroke="param(outline) "  fill-opacity="param(fill-opacity) "  fill="param(fill) " class="st0" d="M39.4,13.6c-0.8-0.8-2-0.8-2.8,0c0,0,0,0,0,0l-8,8c-0.8,0.8-0.8,2,0,2.8s2,0.8,2.8,0l0,0l4.6-4.6V37
			c0,1.1,0.9,2,2,2s2-0.9,2-2V19.8l4.6,4.6c0.8,0.8,2,0.8,2.8,0c0.8-0.8,0.8-2,0-2.8L39.4,13.6z"/>
		<path  stroke-width="param(outline-width) "  stroke-opacity="param(outline-opacity) "  stroke="param(outline) "  fill-opacity="param(fill-opacity) "  fill="param(fill) " class="st0" d="M1,44h46c0.6,0,1,0.4,1,1v2c0,0.6-0.4,1-1,1H1c-0.6,0-1-0.4-1-1v-2C0,44.4,0.4,44,1,44z"/>
		<path  stroke-width="param(outline-width) "  stroke-opacity="param(outline-opacity) "  stroke="param(outline) "  fill-opacity="param(fill-opacity) "  fill="param(fill) " class="st0" d="M1,0h46c0.6,0,1,0.4,1,1v8c0,0.6-0.4,1-1,1H1c-0.6,0-1-0.4-1-1V1C0,0.4,0.4,0,1,0z"/>
	</g>
</g>
</svg>
