<?xml version="1.0" encoding="utf-8"?>
<!-- Generator: Adobe Illustrator 25.0.0, SVG Export Plug-In . SVG Version: 6.00 Build 0)  -->
<svg version="1.1" id="Layer_1" xmlns="http://www.w3.org/2000/svg" xmlns:xlink="http://www.w3.org/1999/xlink" x="0px" y="0px"
	 viewBox="0 0 44 44" style="enable-background:new 0 0 44 44;" xml:space="preserve">
<style type="text/css">
	.st0{fill:#011E41;}
</style>
<g id="Layer_2_1_">
	<g id="Icons">
		<path  stroke-width="param(outline-width) "  stroke-opacity="param(outline-opacity) "  stroke="param(outline) "  fill-opacity="param(fill-opacity) "  fill="param(fill) " class="st0" d="M9.2,26.1l1.7-1.7c0.3-0.3,0.4-0.6,0.5-1c0.1-0.6-0.1-1.3-0.6-1.7c-0.3-0.3-0.6-0.4-1-0.5
			c-0.6-0.2-1.3,0-1.8,0.5l-2.6,2.6l-2.1,2.1c-0.7,0.8-0.7,2,0.1,2.7c0.4,0.4,0.9,0.6,1.4,0.6c0.5,0,1-0.2,1.3-0.5L9.2,26.1
			L9.2,26.1z"/>
		<path  stroke-width="param(outline-width) "  stroke-opacity="param(outline-opacity) "  stroke="param(outline) "  fill-opacity="param(fill-opacity) "  fill="param(fill) " class="st0" d="M22.5,10.6l-0.3,0.3l-3.7,3.7l-0.1,0.1l-1.4,1.4c-0.7,0.7-1.7,1.1-2.7,1.1c-0.1,0-0.2,0-0.3,0
			c0,0-0.1,0-0.1,0c-2.1-0.2-3.6-2.1-3.3-4.2c0.1-0.9,0.5-1.7,1.1-2.3l8.1-8.1C20,2.4,20.2,2.2,20.4,2C14.1-1.9,5.9,0.1,2,6.4
			c-3.3,5.3-2.5,12.1,1.9,16.5L4,23l2.8-2.8c0.7-0.7,1.7-1.1,2.7-1.1c0.7,0,1.3,0.2,1.9,0.5c0.3,0.2,0.6,0.4,0.9,0.6
			c0.5,0.5,0.8,1.1,1,1.8c0.1,0.3,0.1,0.6,0.1,0.9c0,0.4,0,0.7-0.1,1.1c0.3-0.1,0.7-0.1,1-0.1c2.1,0,3.9,1.7,3.9,3.8
			c0,0.4,0,0.7-0.1,1.1c0.3-0.1,0.7-0.1,1-0.1c2.1,0,3.9,1.7,3.9,3.8c0,0.4,0,0.7-0.1,1.1c0.3-0.1,0.7-0.1,1-0.1
			c2.1,0,3.9,1.7,3.9,3.8c0,0.6-0.1,1.2-0.3,1.7c0.3,0.1,0.7,0.2,1.1,0.2c1.6,0,2.9-1.3,2.9-2.9c0-0.5-0.1-1-0.4-1.4
			c1.3,0.8,3.1,0.4,3.9-0.9c0.6-0.9,0.6-2.1,0-3c0.4,0.2,0.9,0.4,1.4,0.4c1.6,0,2.9-1.3,2.9-2.9c0-0.8-0.3-1.5-0.8-2L22.5,10.6z"/>
		<path  stroke-width="param(outline-width) "  stroke-opacity="param(outline-opacity) "  stroke="param(outline) "  fill-opacity="param(fill-opacity) "  fill="param(fill) " class="st0" d="M23.8,35.4c-0.1,0-0.2,0-0.3,0c-0.4,0.1-0.7,0.2-1,0.5l-4.8,4.8c-0.7,0.8-0.7,2,0.1,2.7
			c0.4,0.4,0.9,0.6,1.4,0.6c0.5,0,1-0.2,1.3-0.5l4.8-4.8c0.3-0.3,0.4-0.6,0.5-1c0.2-1.1-0.6-2.1-1.7-2.3
			C24,35.4,23.9,35.4,23.8,35.4z"/>
		<path  stroke-width="param(outline-width) "  stroke-opacity="param(outline-opacity) "  stroke="param(outline) "  fill-opacity="param(fill-opacity) "  fill="param(fill) " class="st0" d="M16.2,28.1c0.2-1.1-0.6-2.1-1.7-2.3c-0.1,0-0.2,0-0.3,0c-0.1,0-0.2,0-0.3,0c-0.4,0.1-0.7,0.2-1,0.5l-4.8,4.8
			c-0.7,0.8-0.7,2,0.1,2.7c0.4,0.4,0.9,0.6,1.4,0.6c0.5,0,1-0.2,1.3-0.5l4.8-4.8C16,28.9,16.2,28.5,16.2,28.1z"/>
		<path  stroke-width="param(outline-width) "  stroke-opacity="param(outline-opacity) "  stroke="param(outline) "  fill-opacity="param(fill-opacity) "  fill="param(fill) " class="st0" d="M21,32.9c0.2-1.1-0.6-2.1-1.7-2.3c-0.1,0-0.2,0-0.3,0c-0.1,0-0.2,0-0.3,0c-0.4,0.1-0.7,0.2-1,0.5L13,35.9
			c-0.7,0.8-0.7,2,0.1,2.7c0.4,0.4,0.9,0.6,1.4,0.6c0.5,0,1-0.2,1.3-0.5l4.8-4.8C20.8,33.6,21,33.3,21,32.9z"/>
		<path  stroke-width="param(outline-width) "  stroke-opacity="param(outline-opacity) "  stroke="param(outline) "  fill-opacity="param(fill-opacity) "  fill="param(fill) " class="st0" d="M40.1,3.9C35.2-1,27.3-1.3,22,3.1c-0.3,0.2-0.6,0.5-0.9,0.8L13,12.1c-0.7,0.7-0.7,2,0,2.7
			c0.8,0.7,2,0.7,2.7,0l7-7l2.4,2.4l13.7,13.7c0.4-0.3,0.8-0.7,1.1-1C45.3,17.6,45.3,9.2,40.1,3.9C40.1,3.9,40.1,3.9,40.1,3.9z"/>
	</g>
</g>
</svg>
