<?xml version="1.0" encoding="utf-8"?>
<!-- Generator: Adobe Illustrator 25.0.0, SVG Export Plug-In . SVG Version: 6.00 Build 0)  -->
<svg version="1.1" id="Layer_1" xmlns="http://www.w3.org/2000/svg" xmlns:xlink="http://www.w3.org/1999/xlink" x="0px" y="0px"
	 viewBox="0 0 32 48" style="enable-background:new 0 0 32 48;" xml:space="preserve">
<style type="text/css">
	.st0{fill:#011E41;}
</style>
<g id="Layer_2_1_">
	<g id="Icons">
		<path  stroke-width="param(outline-width) "  stroke-opacity="param(outline-opacity) "  stroke="param(outline) "  fill-opacity="param(fill-opacity) "  fill="param(fill) " class="st0" d="M25,14c-0.6,0-1,0.4-1,1v6c0,0.6,0.4,1,1,1s1-0.4,1-1v-6C26,14.4,25.6,14,25,14z"/>
		<path  stroke-width="param(outline-width) "  stroke-opacity="param(outline-opacity) "  stroke="param(outline) "  fill-opacity="param(fill-opacity) "  fill="param(fill) " class="st0" d="M30,6H2C0.9,6,0,6.9,0,8v22h32V8C32,6.9,31.1,6,30,6z M11,23c0,0.5-0.3,0.9-0.8,1c-0.1,0-0.2,0-0.2,0
			c-0.4,0-0.7-0.2-0.9-0.5L6,17.2V23c0,0.6-0.4,1-1,1s-1-0.4-1-1V13c0-0.6,0.4-1,1-1c0.4,0,0.7,0.2,0.9,0.5L9,18.8V13
			c0-0.6,0.4-1,1-1s1,0.4,1,1V23z M20,20.5c0,1.9-1.6,3.5-3.5,3.5S13,22.4,13,20.5V15c0-1.7,1.3-3,3-3h2c0.6,0,1,0.4,1,1s-0.4,1-1,1
			h-2c-0.6,0-1,0.4-1,1v5.5c0,0.8,0.7,1.5,1.5,1.5c0.8,0,1.5-0.7,1.5-1.5V19h-1c-0.6,0-1-0.4-1-1s0.4-1,1-1h1c1.1,0,2,0.9,2,2V20.5z
			 M28,21c0,1.7-1.3,3-3,3s-3-1.3-3-3v-6c0-1.7,1.3-3,3-3s3,1.3,3,3V21z"/>
		<path  stroke-width="param(outline-width) "  stroke-opacity="param(outline-opacity) "  stroke="param(outline) "  fill-opacity="param(fill-opacity) "  fill="param(fill) " class="st0" d="M6,4h20c1.1,0,2-0.9,2-2s-0.9-2-2-2H6C4.9,0,4,0.9,4,2S4.9,4,6,4z"/>
		<path  stroke-width="param(outline-width) "  stroke-opacity="param(outline-opacity) "  stroke="param(outline) "  fill-opacity="param(fill-opacity) "  fill="param(fill) " class="st0" d="M0,48h12V38c0-1.1,0.9-2,2-2h4c1.1,0,2,0.9,2,2v10h12V32H0V48z"/>
	</g>
</g>
</svg>
