<?xml version="1.0" encoding="utf-8"?>
<!-- Generator: Adobe Illustrator 25.0.0, SVG Export Plug-In . SVG Version: 6.00 Build 0)  -->
<svg version="1.1" id="Layer_1" xmlns="http://www.w3.org/2000/svg" xmlns:xlink="http://www.w3.org/1999/xlink" x="0px" y="0px"
	 viewBox="0 0 48 44" style="enable-background:new 0 0 48 44;" xml:space="preserve">
<style type="text/css">
	.st0{fill:#011E41;}
</style>
<g id="Layer_2_1_">
	<g id="Icons">
		<path  stroke-width="param(outline-width) "  stroke-opacity="param(outline-opacity) "  stroke="param(outline) "  fill-opacity="param(fill-opacity) "  fill="param(fill) " class="st0" d="M14.1,25.7c-1.3,1.1-1.4,3-0.4,4.2s3,1.4,4.2,0.4c0,0,0,0,0,0c3.5-3.1,8.7-3.1,12.2,0
			c1.3,1.1,3.2,0.9,4.2-0.4s0.9-3.2-0.4-4.2c0,0,0,0,0,0C28.2,20.7,19.8,20.7,14.1,25.7z"/>
		<path  stroke-width="param(outline-width) "  stroke-opacity="param(outline-opacity) "  stroke="param(outline) "  fill-opacity="param(fill-opacity) "  fill="param(fill) " class="st0" d="M46.8,7.6C33.3-2.5,14.7-2.5,1.2,7.6c-1.3,1-1.6,2.9-0.6,4.2s2.9,1.6,4.2,0.6c11.4-8.5,27-8.5,38.4,0
			c1.3,1,3.2,0.7,4.2-0.6S48.1,8.6,46.8,7.6z"/>
		<path  stroke-width="param(outline-width) "  stroke-opacity="param(outline-opacity) "  stroke="param(outline) "  fill-opacity="param(fill-opacity) "  fill="param(fill) " class="st0" d="M6.1,17.7c-1.3,1.1-1.4,3-0.4,4.2s3,1.4,4.2,0.4c0,0,0,0,0,0c8.1-7,20.1-7,28.2,0c1.3,1.1,3.2,0.9,4.2-0.4
			c1.1-1.3,0.9-3.2-0.4-4.2c0,0,0,0,0,0C31.6,8.8,16.4,8.8,6.1,17.7z"/>
		<circle class="st0" cx="24" cy="39" r="5"/>
	</g>
</g>
</svg>
