<?xml version="1.0" encoding="utf-8"?>
<!-- Generator: Adobe Illustrator 25.0.0, SVG Export Plug-In . SVG Version: 6.00 Build 0)  -->
<svg version="1.1" id="Layer_1" xmlns="http://www.w3.org/2000/svg" xmlns:xlink="http://www.w3.org/1999/xlink" x="0px" y="0px"
	 viewBox="0 0 48 48" style="enable-background:new 0 0 48 48;" xml:space="preserve">
<style type="text/css">
	.st0{fill:#011E41;}
</style>
<g id="Layer_2_1_">
	<g id="Icons">
		<circle class="st0" cx="24" cy="24" r="5"/>
		<path  stroke-width="param(outline-width) "  stroke-opacity="param(outline-opacity) "  stroke="param(outline) "  fill-opacity="param(fill-opacity) "  fill="param(fill) " class="st0" d="M24,16c1.7,0,3-1.3,3-3v0V3c0-1.7-1.3-3-3-3c-1.7,0-3,1.3-3,3v10C21,14.7,22.3,16,24,16C24,16,24,16,24,16z"
			/>
		<path  stroke-width="param(outline-width) "  stroke-opacity="param(outline-opacity) "  stroke="param(outline) "  fill-opacity="param(fill-opacity) "  fill="param(fill) " class="st0" d="M18.1,18.1c1.2-1.2,1.2-3.1,0-4.3L5.2,0.9C4-0.3,2.1-0.3,0.9,0.9s-1.2,3.1,0,4.3l12.9,12.9
			C15,19.3,16.9,19.3,18.1,18.1z"/>
		<path  stroke-width="param(outline-width) "  stroke-opacity="param(outline-opacity) "  stroke="param(outline) "  fill-opacity="param(fill-opacity) "  fill="param(fill) " class="st0" d="M7,21h6c1.6,0,3,1.3,3,3v0c0,1.6-1.3,3-3,3H7c-1.6,0-3-1.3-3-3v0C4,22.3,5.3,21,7,21z"/>
		<path  stroke-width="param(outline-width) "  stroke-opacity="param(outline-opacity) "  stroke="param(outline) "  fill-opacity="param(fill-opacity) "  fill="param(fill) " class="st0" d="M14.1,29.8l-9.2,9.2c-1.1,1.1-1.1,2.9,0,4.1s2.9,1.1,4.1,0l0,0l9.2-9.2c1.1-1.1,1.1-2.9,0-4.1
			S15.2,28.7,14.1,29.8z"/>
		<path  stroke-width="param(outline-width) "  stroke-opacity="param(outline-opacity) "  stroke="param(outline) "  fill-opacity="param(fill-opacity) "  fill="param(fill) " class="st0" d="M24,32c-1.7,0-3,1.3-3,3c0,0,0,0,0,0v10c0,1.7,1.3,3,3,3s3-1.3,3-3V35C27,33.3,25.6,32,24,32z"/>
		<path  stroke-width="param(outline-width) "  stroke-opacity="param(outline-opacity) "  stroke="param(outline) "  fill-opacity="param(fill-opacity) "  fill="param(fill) " class="st0" d="M34,29.9c-1.1-1.1-2.9-1.1-4.1,0s-1.1,2.9,0,4.1l5.2,5.2c1.1,1.1,2.9,1.1,4.1,0c1.1-1.1,1.1-2.9,0-4.1
			L34,29.9z"/>
		<path  stroke-width="param(outline-width) "  stroke-opacity="param(outline-opacity) "  stroke="param(outline) "  fill-opacity="param(fill-opacity) "  fill="param(fill) " class="st0" d="M44.8,21h-9.6c-1.7-0.1-3.1,1.3-3.2,3v0c0.1,1.7,1.5,3,3.2,3h9.6c1.7,0.1,3.1-1.3,3.2-3v0
			C47.9,22.3,46.5,20.9,44.8,21z"/>
		<path  stroke-width="param(outline-width) "  stroke-opacity="param(outline-opacity) "  stroke="param(outline) "  fill-opacity="param(fill-opacity) "  fill="param(fill) " class="st0" d="M33.8,18.2l3.3-3.2c1.1-1.1,1.1-2.9,0-4.1s-2.9-1.1-4.1,0l-3.2,3.2c-1.1,1.1-1.1,2.9,0,4.1c0,0,0,0,0,0
			C30.9,19.3,32.7,19.3,33.8,18.2C33.8,18.2,33.8,18.2,33.8,18.2z"/>
	</g>
</g>
</svg>
