<?xml version="1.0" encoding="utf-8"?>
<!-- Generator: Adobe Illustrator 25.0.0, SVG Export Plug-In . SVG Version: 6.00 Build 0)  -->
<svg version="1.1" id="Layer_1" xmlns="http://www.w3.org/2000/svg" xmlns:xlink="http://www.w3.org/1999/xlink" x="0px" y="0px"
	 viewBox="0 0 48 48" style="enable-background:new 0 0 48 48;" xml:space="preserve">
<style type="text/css">
	.st0{fill:#011E41;}
</style>
<g id="Layer_2_1_">
	<g id="Icons">
		<circle class="st0" cx="21.5" cy="8.5" r="6.5"/>
		<path  stroke-width="param(outline-width) "  stroke-opacity="param(outline-opacity) "  stroke="param(outline) "  fill-opacity="param(fill-opacity) "  fill="param(fill) " class="st0" d="M0,38.9c0,1.7,1.4,3,3,3c0,0,0.1,0,0.1,0C4.8,41.9,6,40.5,6,38.9c0-4.7,2.2-9.1,6-11.9v17c0,2.2,1.8,4,4,4h0
			H27c1.1,0,2.1-0.4,2.8-1.2c0.1-0.1,0.1-0.2,0.1-0.4V19.6c-2.7-1.1-5.6-1.6-8.5-1.6C9.2,18,0,26.9,0,38.9z"/>
		<path  stroke-width="param(outline-width) "  stroke-opacity="param(outline-opacity) "  stroke="param(outline) "  fill-opacity="param(fill-opacity) "  fill="param(fill) " class="st0" d="M48,23v-2.9c0-1-0.7-1.9-1.7-2.1c-1.1-0.2-2.1,0.5-2.3,1.6c0,0.1,0,0.2,0,0.3v3c0,1.1-0.9,2-2,2V11
			c0-1.1-0.9-2-2-2V0.5C40,0.2,39.8,0,39.5,0H37c-0.6,0-1,0.4-1,1s0.4,1,1,1v7.3c-0.6,0.4-1,1-1,1.7v6h-1c-1.1,0-2,0.9-2,2v15
			c0,1.1,0.9,2,2,2h1v10c0,1.1,0.9,2,2,2h5c1.1,0,2-0.9,2-2c0-0.2,0-0.3-0.1-0.5c0,0-2.9-9.4-2.9-9.5h3.9c1,0,1.9-0.7,2.1-1.7
			c0.2-1.1-0.5-2.1-1.6-2.3c-0.1,0-0.2,0-0.3,0h-4v-3C45.3,29,48,26.3,48,23z"/>
	</g>
</g>
</svg>
