<?xml version="1.0" encoding="utf-8"?>
<!-- Generator: Adobe Illustrator 25.0.0, SVG Export Plug-In . SVG Version: 6.00 Build 0)  -->
<svg version="1.1" id="Layer_1" xmlns="http://www.w3.org/2000/svg" xmlns:xlink="http://www.w3.org/1999/xlink" x="0px" y="0px"
	 viewBox="0 0 48 48" style="enable-background:new 0 0 48 48;" xml:space="preserve">
<style type="text/css">
	.st0{fill:#011E41;}
</style>
<path  stroke-width="param(outline-width) "  stroke-opacity="param(outline-opacity) "  stroke="param(outline) "  fill-opacity="param(fill-opacity) "  fill="param(fill) " class="st0" d="M46,22h-4.1c-0.4-3.4-1.7-6.6-3.8-9.2l3.3-3.4c0.8-0.8,0.8-2,0-2.8c-0.8-0.8-2-0.8-2.8,0l-3.4,3.3
	c-2.7-2.1-5.9-3.4-9.2-3.8V2c0-1.1-0.9-2-2-2s-2,0.9-2,2v4.1c-3.4,0.4-6.6,1.7-9.2,3.8L9.4,6.6c-0.8-0.8-2-0.8-2.8,0
	c-0.8,0.8-0.8,2,0,2.8l3.3,3.4c-2.1,2.7-3.4,5.9-3.8,9.2H2c-1.1,0-2,0.9-2,2s0.9,2,2,2h4.1c0.4,3.4,1.7,6.6,3.8,9.2l-3.3,3.4
	c-0.8,0.8-0.8,2,0,2.8s2,0.8,2.8,0c0,0,0,0,0,0l3.4-3.3c2.7,2.1,5.9,3.4,9.2,3.8V46c0,1.1,0.9,2,2,2s2-0.9,2-2v-4.1
	c3.4-0.4,6.6-1.7,9.2-3.8l3.4,3.3c0.8,0.8,2,0.8,2.8,0c0.8-0.8,0.8-2,0-2.8l-3.3-3.4c2.1-2.7,3.4-5.9,3.8-9.2H46c1.1,0,2-0.9,2-2
	S47.1,22,46,22z M15.5,22c-1.4,0-2.5-1.1-2.5-2.5s1.1-2.5,2.5-2.5s2.5,1.1,2.5,2.5C18,20.9,16.9,22,15.5,22z M28,34
	c-2.8,0-5-2.2-5-5s2.2-5,5-5s5,2.2,5,5C33,31.8,30.8,34,28,34z"/>
</svg>
