<?xml version="1.0" encoding="utf-8"?>
<!-- Generator: Adobe Illustrator 25.0.0, SVG Export Plug-In . SVG Version: 6.00 Build 0)  -->
<svg version="1.1" id="Layer_1" xmlns="http://www.w3.org/2000/svg" xmlns:xlink="http://www.w3.org/1999/xlink" x="0px" y="0px"
	 viewBox="0 0 48 37" style="enable-background:new 0 0 48 37;" xml:space="preserve">
<style type="text/css">
	.st0{fill:#011E41;}
</style>
<g id="Layer_2_1_">
	<g id="Icons">
		<path  stroke-width="param(outline-width) "  stroke-opacity="param(outline-opacity) "  stroke="param(outline) "  fill-opacity="param(fill-opacity) "  fill="param(fill) " class="st0" d="M10,10c-5.7,0-10,4.1-10,9.5C0,20.3,0.7,21,1.5,21S3,20.3,3,19.5c0-2.2,1.1-4.2,3-5.4v21.4
			C6,36.3,6.7,37,7.5,37C8.3,37,9,36.3,9,35.5V25h2v10.5c0,0.8,0.7,1.5,1.5,1.5s1.5-0.7,1.5-1.5V14.1c1.9,1.1,3,3.2,3,5.4
			c0,0.8,0.7,1.5,1.5,1.5s1.5-0.7,1.5-1.5C20,14.1,15.7,10,10,10z"/>
		<circle class="st0" cx="10" cy="4" r="4"/>
		<path  stroke-width="param(outline-width) "  stroke-opacity="param(outline-opacity) "  stroke="param(outline) "  fill-opacity="param(fill-opacity) "  fill="param(fill) " class="st0" d="M38,10c-5.7,0-10,4.1-10,9.5c0,0.8,0.7,1.5,1.5,1.5s1.5-0.7,1.5-1.5c0-2.4,1.3-4.6,3.4-5.6l-2.3,12
			c-0.1,0.5,0.3,1,0.9,1.1c0,0,0.1,0,0.1,0H34v8.5c0,0.8,0.7,1.5,1.5,1.5s1.5-0.7,1.5-1.5V27h2v8.5c0,0.8,0.7,1.5,1.5,1.5
			s1.5-0.7,1.5-1.5V27h0.9c0.6,0,1-0.4,1-1c0,0,0-0.1,0-0.1l-2.3-12c2.1,1.1,3.5,3.3,3.4,5.6c0,0.8,0.7,1.5,1.5,1.5s1.5-0.7,1.5-1.5
			C48,14.1,43.7,10,38,10z"/>
		<circle class="st0" cx="38" cy="4" r="4"/>
	</g>
</g>
</svg>
