<?xml version="1.0" encoding="utf-8"?>
<!-- Generator: Adobe Illustrator 25.0.0, SVG Export Plug-In . SVG Version: 6.00 Build 0)  -->
<svg version="1.1" id="Layer_1" xmlns="http://www.w3.org/2000/svg" xmlns:xlink="http://www.w3.org/1999/xlink" x="0px" y="0px"
	 viewBox="0 0 48 48" style="enable-background:new 0 0 48 48;" xml:space="preserve">
<style type="text/css">
	.st0{fill:#011E41;}
</style>
<g id="Layer_2_1_">
	<g id="Icons">
		<path  stroke-width="param(outline-width) "  stroke-opacity="param(outline-opacity) "  stroke="param(outline) "  fill-opacity="param(fill-opacity) "  fill="param(fill) " class="st0" d="M40.1,14.9l-14-14c-1.2-1.2-3.1-1.2-4.2,0c0,0,0,0,0,0l-14,14c-1.2,1.2-1.2,3.1,0,4.2s3.1,1.2,4.2,0l8.9-8.9
			V36c0,1.7,1.3,3,3,3s3-1.3,3-3V10.2l8.9,8.9c1.2,1.2,3.1,1.2,4.2,0S41.3,16.1,40.1,14.9z"/>
		<path  stroke-width="param(outline-width) "  stroke-opacity="param(outline-opacity) "  stroke="param(outline) "  fill-opacity="param(fill-opacity) "  fill="param(fill) " class="st0" d="M45.8,34H30v2c0,3.3-2.7,6-6,6s-6-2.7-6-6v-2H2.2c-1.3,0.1-2.3,1.2-2.2,2.5v9c-0.1,1.3,0.9,2.4,2.2,2.5h43.6
			c1.3-0.1,2.3-1.2,2.2-2.5v-9C48.1,35.2,47.1,34.1,45.8,34z M36,43c-1.1,0-2-0.9-2-2s0.9-2,2-2s2,0.9,2,2C38,42.1,37.1,43,36,43z
			 M43,43c-1.1,0-2-0.9-2-2s0.9-2,2-2s2,0.9,2,2C45,42.1,44.1,43,43,43z"/>
	</g>
</g>
</svg>
