<?xml version="1.0" encoding="utf-8"?>
<!-- Generator: Adobe Illustrator 25.0.0, SVG Export Plug-In . SVG Version: 6.00 Build 0)  -->
<svg version="1.1" id="Layer_1" xmlns="http://www.w3.org/2000/svg" xmlns:xlink="http://www.w3.org/1999/xlink" x="0px" y="0px"
	 viewBox="0 0 48 41" style="enable-background:new 0 0 48 41;" xml:space="preserve">
<style type="text/css">
	.st0{fill:#011E41;}
</style>
<g id="Layer_2_1_">
	<g id="Icons">
		<path  stroke-width="param(outline-width) "  stroke-opacity="param(outline-opacity) "  stroke="param(outline) "  fill-opacity="param(fill-opacity) "  fill="param(fill) " class="st0" d="M47.7,37.4L27.1,1.8c-1-1.7-3.2-2.3-4.9-1.3c-0.5,0.3-1,0.8-1.3,1.3L0.3,37.4c-0.7,1.1-0.3,2.6,0.9,3.3
			C1.6,40.9,2,41,2.4,41h43.2c1.3,0,2.4-1.1,2.4-2.4C48,38.2,47.9,37.8,47.7,37.4z M24,34c-1.1,0-2-0.9-2-2c0-1.1,0.9-2,2-2
			s2,0.9,2,2C26,33.1,25.1,34,24,34L24,34z M26,25c0,1.1-0.9,2-2,2s-2-0.9-2-2V14c0-1.1,0.9-2,2-2s2,0.9,2,2V25z"/>
	</g>
</g>
</svg>
