<?xml version="1.0" encoding="utf-8"?>
<!-- Generator: Adobe Illustrator 25.0.0, SVG Export Plug-In . SVG Version: 6.00 Build 0)  -->
<svg version="1.1" id="Layer_1" xmlns="http://www.w3.org/2000/svg" xmlns:xlink="http://www.w3.org/1999/xlink" x="0px" y="0px"
	 viewBox="0 0 26 48" style="enable-background:new 0 0 26 48;" xml:space="preserve">
<style type="text/css">
	.st0{fill:#011E41;}
</style>
<g id="Layer_2_1_">
	<g id="Icons">
		<path  stroke-width="param(outline-width) "  stroke-opacity="param(outline-opacity) "  stroke="param(outline) "  fill-opacity="param(fill-opacity) "  fill="param(fill) " class="st0" d="M22,0H4C1.8,0,0,1.8,0,4c0,0,0,0,0,0v40c0,2.2,1.8,4,4,4c0,0,0,0,0,0h18c2.2,0,4-1.8,4-4c0,0,0,0,0,0V4
			C26,1.8,24.2,0,22,0C22,0,22,0,22,0z M10,3h6c0.6,0,1,0.4,1,1s-0.4,1-1,1h-6C9.4,5,9,4.6,9,4S9.4,3,10,3z M6,45c-1.1,0-2-0.9-2-2
			s0.9-2,2-2s2,0.9,2,2C8,44.1,7.1,45,6,45z M6,37c-1.1,0-2-0.9-2-2s0.9-2,2-2s2,0.9,2,2C8,36.1,7.1,37,6,37z M6,29
			c-1.1,0-2-0.9-2-2s0.9-2,2-2s2,0.9,2,2C8,28.1,7.1,29,6,29z M13,45c-1.1,0-2-0.9-2-2s0.9-2,2-2s2,0.9,2,2C15,44.1,14.1,45,13,45z
			 M13,37c-1.1,0-2-0.9-2-2s0.9-2,2-2s2,0.9,2,2C15,36.1,14.1,37,13,37z M13,29c-1.1,0-2-0.9-2-2s0.9-2,2-2s2,0.9,2,2
			C15,28.1,14.1,29,13,29z M20,45c-1.1,0-2-0.9-2-2s0.9-2,2-2s2,0.9,2,2C22,44.1,21.1,45,20,45z M20,37c-1.1,0-2-0.9-2-2s0.9-2,2-2
			s2,0.9,2,2C22,36.1,21.1,37,20,37z M20,29c-1.1,0-2-0.9-2-2s0.9-2,2-2s2,0.9,2,2C22,28.1,21.1,29,20,29z M22,21c0,0.6-0.4,1-1,1H5
			c-0.6,0-1-0.4-1-1V9c0-0.6,0.4-1,1-1h16c0.6,0,1,0.4,1,1V21z"/>
	</g>
</g>
</svg>
