<?xml version="1.0" encoding="utf-8"?>
<!-- Generator: Adobe Illustrator 25.0.0, SVG Export Plug-In . SVG Version: 6.00 Build 0)  -->
<svg version="1.1" id="Layer_1" xmlns="http://www.w3.org/2000/svg" xmlns:xlink="http://www.w3.org/1999/xlink" x="0px" y="0px"
	 viewBox="0 0 26 48" style="enable-background:new 0 0 26 48;" xml:space="preserve">
<style type="text/css">
	.st0{fill:#011E41;}
</style>
<g id="Layer_2_1_">
	<g id="Icons">
		<path  stroke-width="param(outline-width) "  stroke-opacity="param(outline-opacity) "  stroke="param(outline) "  fill-opacity="param(fill-opacity) "  fill="param(fill) " class="st0" d="M13,10C5.5,10,0,15,0,22c0,1.1,0.9,2,2,2s2-0.9,2-2c0-3.2,2-6,5-7L5,34c0,0.5,0.3,1,0.8,1c0.1,0,0.1,0,0.2,0
			h2v11c0,1.1,0.9,2,2,2s2-0.9,2-2V35h2v11c0,1.1,0.9,2,2,2s2-0.9,2-2V35h2c0.5,0,1-0.3,1-0.8c0-0.1,0-0.1,0-0.2l-4-19
			c3,1.1,5,3.9,5,7c0,1.1,0.9,2,2,2s2-0.9,2-2C26,15,20.5,10,13,10z"/>
		<circle class="st0" cx="13" cy="4" r="4"/>
	</g>
</g>
</svg>
