<?xml version="1.0" encoding="utf-8"?>
<!-- Generator: Adobe Illustrator 25.0.0, SVG Export Plug-In . SVG Version: 6.00 Build 0)  -->
<svg version="1.1" id="Layer_1" xmlns="http://www.w3.org/2000/svg" xmlns:xlink="http://www.w3.org/1999/xlink" x="0px" y="0px"
	 viewBox="0 0 48 48" style="enable-background:new 0 0 48 48;" xml:space="preserve">
<style type="text/css">
	.st0{fill:#011E41;}
</style>
<g id="Layer_2_1_">
	<g id="Icons">
		<path  stroke-width="param(outline-width) "  stroke-opacity="param(outline-opacity) "  stroke="param(outline) "  fill-opacity="param(fill-opacity) "  fill="param(fill) " class="st0" d="M45.3,0H2.8C1.2,0,0,1.2,0,2.7c0,0,0,0,0,0v28.5C0,32.8,1.2,34,2.7,34c0,0,0,0,0,0h14.5
			c0.1-0.7,0.3-1.3,0.6-2c0.1-0.3,0.3-0.7,0.4-1c0.1-0.3,0.3-0.7,0.5-1h-4c-1.1-2.4-0.9-5.2,0.4-7.5l5.1,5.1h0l1.4,1.4
			c-0.2,0.3-0.5,0.6-0.6,1c-0.2,0.3-0.4,0.7-0.6,1c-0.2,0.3-0.3,0.7-0.5,1c-0.3,0.6-0.5,1.3-0.6,2c-1.2,4.7,0,9.6,3.2,13.3
			c0.4,0.4,0.9,0.7,1.5,0.7c0,0,0.1,0,0.1,0c0.5,0,1-0.2,1.4-0.5c0.9-0.8,1-2.1,0.2-3c0,0,0,0,0,0c-2.5-2.9-3.2-6.9-2-10.5
			c0.5-1.5,1.4-2.9,2.5-4l0.8-0.8l0.7-0.7l0.5-0.5l0.6-0.6l2.5,2.5h-2.1c0,0-0.5,0.4-1,0.9c-0.1,0.1-0.2,0.2-0.3,0.3
			C27,32.1,26.4,33,25.9,34h19.4c1.5,0,2.7-1.2,2.8-2.7c0,0,0,0,0,0V2.7C48,1.2,46.8,0,45.3,0C45.3,0,45.3,0,45.3,0z M15.7,15.3
			l-0.2,0.2c-4.6,4.4-6.4,9.8-5,14.5H4V4h14.8c0,0,0,0,0,0.1C21.1,7.8,20.1,11.5,15.7,15.3z M44,30h-7.3l-6.6-6.6l-8.6-8.6
			c2.5-3.5,3.1-7.2,1.7-10.8H44V30z"/>
		<circle class="st0" cx="10" cy="12" r="4"/>
	</g>
</g>
</svg>
