<?xml version="1.0" encoding="utf-8"?>
<!-- Generator: Adobe Illustrator 25.0.0, SVG Export Plug-In . SVG Version: 6.00 Build 0)  -->
<svg version="1.1" id="Layer_1" xmlns="http://www.w3.org/2000/svg" xmlns:xlink="http://www.w3.org/1999/xlink" x="0px" y="0px"
	 viewBox="0 0 48 33" style="enable-background:new 0 0 48 33;" xml:space="preserve">
<style type="text/css">
	.st0{fill:#011E41;}
</style>
<g id="Layer_2_1_">
	<g id="Icons">
		<path  stroke-width="param(outline-width) "  stroke-opacity="param(outline-opacity) "  stroke="param(outline) "  fill-opacity="param(fill-opacity) "  fill="param(fill) " class="st0" d="M0,20c0,7.2,5.8,13,13,13c0,0,0,0,0,0h22c7.2,0,13-5.8,13-13H0z"/>
		<path  stroke-width="param(outline-width) "  stroke-opacity="param(outline-opacity) "  stroke="param(outline) "  fill-opacity="param(fill-opacity) "  fill="param(fill) " class="st0" d="M15,17h32c0-3.9-3.1-7-7-7c0,0,0,0,0,0l0,0c-0.3-3.6-3.4-6.2-6.9-6c-0.8,0.1-1.7,0.3-2.4,0.7
			c-1.3-3.6-5.3-5.6-8.9-4.3c-2,0.7-3.6,2.3-4.3,4.3c-3.2-1.6-7.1-0.3-8.7,2.9C8.3,8.3,8.1,9.2,8,10l0,0c-3.9,0-7,3.1-7,7
			c0,0,0,0,0,0H15z"/>
	</g>
</g>
</svg>
