<?xml version="1.0" encoding="utf-8"?>
<!-- Generator: Adobe Illustrator 25.0.0, SVG Export Plug-In . SVG Version: 6.00 Build 0)  -->
<svg version="1.1" id="Layer_1" xmlns="http://www.w3.org/2000/svg" xmlns:xlink="http://www.w3.org/1999/xlink" x="0px" y="0px"
	 viewBox="0 0 48 48" style="enable-background:new 0 0 48 48;" xml:space="preserve">
<style type="text/css">
	.st0{fill:#011E41;}
</style>
<g id="Layer_2_1_">
	<g id="Icons">
		<path  stroke-width="param(outline-width) "  stroke-opacity="param(outline-opacity) "  stroke="param(outline) "  fill-opacity="param(fill-opacity) "  fill="param(fill) " class="st0" d="M19.2,19c-3.8-0.5-7.5-2.7-9-6.2L10,12.3C9.7,11.5,8.9,11,8,11v0H2.2C1,11,0,12,0,13.2c0,0,0,0,0,0v15.5
			c0,0.1,0,0.2,0,0.3c0,0.1,0,0.2,0,0.3V46c0,1.1,0.9,2,2,2s2-0.9,2-2V31h2v15c0,1.1,0.9,2,2,2s2-0.9,2-2V29.3c0-0.1,0-0.2,0-0.3
			c0-0.1,0-0.2,0-0.3v-9.5c2.5,2,5.5,3.3,8.6,3.8c0.1,0,0.2,0,0.3,0c1,0.1,1.9-0.6,2.1-1.6C21.1,20.2,20.3,19.2,19.2,19z"/>
		<circle class="st0" cx="5" cy="5" r="4"/>
		<circle class="st0" cx="34" cy="6" r="4"/>
		<path  stroke-width="param(outline-width) "  stroke-opacity="param(outline-opacity) "  stroke="param(outline) "  fill-opacity="param(fill-opacity) "  fill="param(fill) " class="st0" d="M46,0c-1.1,0-2,0.9-2,2c-0.1,5.5-4.5,9.9-10,10c-5.1,0-9-4.3-9-10c0-1.1-0.9-2-2-2s-2,0.9-2,2
			c0,6.1,3.2,11,8,13v13.8c0,0.1,0,0.2,0,0.2c0,0.1,0,0.2,0,0.2V46c0,1.1,0.9,2,2,2c1.1,0,2-0.9,2-2V31h2v15c0,1.1,0.9,2,2,2
			s2-0.9,2-2V29.3c0-0.1,0-0.2,0-0.2c0-0.1,0-0.2,0-0.2V15c5.4-2.1,8.9-7.3,9-13C48,0.9,47.1,0,46,0z"/>
	</g>
</g>
</svg>
