<?xml version="1.0" encoding="utf-8"?>
<!-- Generator: Adobe Illustrator 25.0.0, SVG Export Plug-In . SVG Version: 6.00 Build 0)  -->
<svg version="1.1" id="Layer_1" xmlns="http://www.w3.org/2000/svg" xmlns:xlink="http://www.w3.org/1999/xlink" x="0px" y="0px"
	 viewBox="0 0 48 38" style="enable-background:new 0 0 48 38;" xml:space="preserve">
<style type="text/css">
	.st0{fill:#011E41;}
</style>
<g id="Layer_2_1_">
	<g id="Icons">
		<path  stroke-width="param(outline-width) "  stroke-opacity="param(outline-opacity) "  stroke="param(outline) "  fill-opacity="param(fill-opacity) "  fill="param(fill) " class="st0" d="M48,23.6C47.6,10.4,36.7-0.1,23.5,0C22.7,0,22,0.7,22,1.5C22,2.3,22.7,3,23.5,3c10.2-0.1,19,7.1,21,17
			c-0.1,0-0.2,0-0.2,0h-2c-1.4,0-2.6,0.8-3.3,2h-1.1l-6.5-6.4c-0.8-0.8-2.1-0.8-2.9,0L26,18.1l-2.6-2.5c-0.8-0.8-2.1-0.8-2.9,0
			L14.1,22H6.5C4.6,22,3,23.6,3,25.5S4.6,29,6.5,29l0,0H7l-6.5,6.4c-0.5,0.5-0.6,1.2-0.3,1.9c0.4,0.7,1.4,1,2.1,0.5
			c0.1-0.1,0.2-0.1,0.3-0.2l8.7-8.6H13c0,0.5,0.2,1,0.6,1.4l-5.1,5c-0.6,0.6-0.7,1.5-0.1,2.1c0.6,0.6,1.5,0.7,2.1,0.1
			c0,0,0,0,0.1-0.1l6.6-6.6h7.7l-4.5,4.4c-0.6,0.6-0.7,1.5-0.1,2.1s1.5,0.7,2.1,0.1c0,0,0,0,0.1-0.1l4.9-4.8l4.9,4.8
			c0.6,0.6,1.6,0.6,2.2,0c0.6-0.6,0.6-1.5,0-2.1c0,0,0,0,0,0L30.1,31h4.7l6.6,6.5c0.6,0.6,1.6,0.6,2.2,0c0.6-0.6,0.6-1.5,0-2.1
			c0,0,0,0,0,0L39.1,31h5.2c2,0,3.7-1.6,3.7-3.7c0,0,0,0,0,0v-3.6C48,23.7,48,23.6,48,23.6z M22,22h-3.7l3.7-3.6l1.9,1.8L22,22z
			 M29.9,22l-1.8-1.8l1.9-1.8l3.7,3.6H29.9z M44.5,27c-0.8,0-1.5-0.7-1.5-1.5s0.7-1.5,1.5-1.5s1.5,0.7,1.5,1.5
			C46,26.3,45.3,27,44.5,27C44.5,27,44.5,27,44.5,27L44.5,27z"/>
	</g>
</g>
</svg>
