<?xml version="1.0" encoding="utf-8"?>
<!-- Generator: Adobe Illustrator 25.0.0, SVG Export Plug-In . SVG Version: 6.00 Build 0)  -->
<svg version="1.1" id="Layer_1" xmlns="http://www.w3.org/2000/svg" xmlns:xlink="http://www.w3.org/1999/xlink" x="0px" y="0px"
	 viewBox="0 0 48 30" style="enable-background:new 0 0 48 30;" xml:space="preserve">
<style type="text/css">
	.st0{fill:#011E41;}
</style>
<g id="Layer_2_1_">
	<g id="Expanded_Icons">
		<path  stroke-width="param(outline-width) "  stroke-opacity="param(outline-opacity) "  stroke="param(outline) "  fill-opacity="param(fill-opacity) "  fill="param(fill) " class="st0" d="M48,21v6c0,1.7-1.3,3-3,3s-3-1.3-3-3v-2H6v2c0,1.7-1.3,3-3,3s-3-1.3-3-3V3c0-1.7,1.3-3,3-3s3,1.3,3,3v16h40
			C47.1,19,48,19.9,48,21z M13,8c-2.2,0-4,1.8-4,4s1.8,4,4,4s4-1.8,4-4S15.2,8,13,8z M43,8H23c-2.2,0-4,1.8-4,4l0,0c0,2.2,1.8,4,4,4
			h20c2.2,0,4-1.8,4-4l0,0C47,9.8,45.2,8,43,8z"/>
	</g>
</g>
</svg>
