<?xml version="1.0" encoding="utf-8"?>
<!-- Generator: Adobe Illustrator 25.0.0, SVG Export Plug-In . SVG Version: 6.00 Build 0)  -->
<svg version="1.1" id="Layer_1" xmlns="http://www.w3.org/2000/svg" xmlns:xlink="http://www.w3.org/1999/xlink" x="0px" y="0px"
	 viewBox="0 0 44 44" style="enable-background:new 0 0 44 44;" xml:space="preserve">
<style type="text/css">
	.st0{fill:#011E41;}
</style>
<g id="Layer_2_1_">
	<g id="Icons">
		<path  stroke-width="param(outline-width) "  stroke-opacity="param(outline-opacity) "  stroke="param(outline) "  fill-opacity="param(fill-opacity) "  fill="param(fill) " class="st0" d="M37,0H5.3C2.3,0.1,0,2.5,0,5.5v37.6C0,43.6,0.4,44,0.9,44H16V32c0-2.2,1.8-4,4-4c0,0,0,0,0,0h12V14h5
			c3.9,0,7-3.1,7-7S40.9,0,37,0z M4.3,13.3l6-6c0.4-0.4,1-0.4,1.4,0s0.4,1,0,1.4l-6,6c-0.4,0.4-1,0.4-1.4,0
			C3.9,14.3,3.9,13.7,4.3,13.3z M19.7,10.7l-16,16c-0.4,0.4-1,0.4-1.4,0c-0.4-0.4-0.4-1,0-1.4l16-16c0.4-0.4,1-0.4,1.4,0
			C20.1,9.7,20.1,10.3,19.7,10.7C19.7,10.7,19.7,10.7,19.7,10.7z M32,12v-0.1c0,0,0.1,0.1,0.1,0.1H32z M37,11c-2.2,0-4-1.8-4-4
			s1.8-4,4-4s4,1.8,4,4C41,9.2,39.2,11,37,11C37,11,37,11,37,11z"/>
		<path  stroke-width="param(outline-width) "  stroke-opacity="param(outline-opacity) "  stroke="param(outline) "  fill-opacity="param(fill-opacity) "  fill="param(fill) " class="st0" d="M18,32v12l14-14H20C18.9,30,18,30.9,18,32z"/>
	</g>
</g>
</svg>
