<?xml version="1.0" encoding="utf-8"?>
<!-- Generator: Adobe Illustrator 25.0.0, SVG Export Plug-In . SVG Version: 6.00 Build 0)  -->
<svg version="1.1" id="Layer_1" xmlns="http://www.w3.org/2000/svg" xmlns:xlink="http://www.w3.org/1999/xlink" x="0px" y="0px"
	 viewBox="0 0 48 44" style="enable-background:new 0 0 48 44;" xml:space="preserve">
<style type="text/css">
	.st0{fill:#011E41;}
</style>
<g id="Layer_2_1_">
	<g id="FINAL">
		<path  stroke-width="param(outline-width) "  stroke-opacity="param(outline-opacity) "  stroke="param(outline) "  fill-opacity="param(fill-opacity) "  fill="param(fill) " class="st0" d="M47.1,4.9l-4-4c-1.2-1.2-3.1-1.2-4.2,0c0,0,0,0,0,0L14.6,25.1c-4.9-2.6-11-0.7-13.5,4.2s-0.7,11,4.2,13.5
			c4.9,2.6,11,0.7,13.5-4.2c1.5-2.9,1.5-6.4,0-9.3l14.6-14.6l1.9,1.9c1.2,1.2,3.1,1.2,4.2,0c1.2-1.2,1.2-3.1,0-4.2l0,0l-1.9-1.9
			L41,7.2l1.9,1.9c1.2,1.2,3.1,1.2,4.2,0S48.3,6.1,47.1,4.9z M10,38c-2.2,0-4-1.8-4-4s1.8-4,4-4s4,1.8,4,4C14,36.2,12.2,38,10,38z"
			/>
	</g>
</g>
</svg>
