<?xml version="1.0" encoding="utf-8"?>
<!-- Generator: Adobe Illustrator 25.0.0, SVG Export Plug-In . SVG Version: 6.00 Build 0)  -->
<svg version="1.1" id="Layer_1" xmlns="http://www.w3.org/2000/svg" xmlns:xlink="http://www.w3.org/1999/xlink" x="0px" y="0px"
	 viewBox="0 0 48 48" style="enable-background:new 0 0 48 48;" xml:space="preserve">
<style type="text/css">
	.st0{fill:#011E41;}
</style>
<g id="Layer_2_1_">
	<g id="Icons">
		<path  stroke-width="param(outline-width) "  stroke-opacity="param(outline-opacity) "  stroke="param(outline) "  fill-opacity="param(fill-opacity) "  fill="param(fill) " class="st0" d="M44.6,27.6L40,32.2V15c0-1.1-0.9-2-2-2s-2,0.9-2,2v17.2l-4.6-4.6c-0.8-0.8-2-0.8-2.8,0s-0.8,2,0,2.8l8,8
			c0.8,0.8,2,0.8,2.8,0c0,0,0,0,0,0l8-8c0.8-0.8,0.8-2,0-2.8C46.6,26.8,45.4,26.8,44.6,27.6z"/>
		<path  stroke-width="param(outline-width) "  stroke-opacity="param(outline-opacity) "  stroke="param(outline) "  fill-opacity="param(fill-opacity) "  fill="param(fill) " class="st0" d="M10,13c-1.1,0-2,0.9-2,2v17.2l-4.6-4.6c-0.8-0.8-2-0.8-2.8,0s-0.8,2,0,2.8l0,0l8,8c0.8,0.8,2,0.8,2.8,0
			c0,0,0,0,0,0l8-8c0.8-0.8,0.8-2,0-2.8s-2-0.8-2.8,0L12,32.2V15C12,13.9,11.1,13,10,13z"/>
		<path  stroke-width="param(outline-width) "  stroke-opacity="param(outline-opacity) "  stroke="param(outline) "  fill-opacity="param(fill-opacity) "  fill="param(fill) " class="st0" d="M1,44h46c0.6,0,1,0.4,1,1v2c0,0.6-0.4,1-1,1H1c-0.6,0-1-0.4-1-1v-2C0,44.4,0.4,44,1,44z"/>
		<path  stroke-width="param(outline-width) "  stroke-opacity="param(outline-opacity) "  stroke="param(outline) "  fill-opacity="param(fill-opacity) "  fill="param(fill) " class="st0" d="M1,0h46c0.6,0,1,0.4,1,1v8c0,0.6-0.4,1-1,1H1c-0.6,0-1-0.4-1-1V1C0,0.4,0.4,0,1,0z"/>
	</g>
</g>
</svg>
