<?xml version="1.0" encoding="utf-8"?>
<!-- Generator: Adobe Illustrator 25.0.0, SVG Export Plug-In . SVG Version: 6.00 Build 0)  -->
<svg version="1.1" id="Layer_1" xmlns="http://www.w3.org/2000/svg" xmlns:xlink="http://www.w3.org/1999/xlink" x="0px" y="0px"
	 viewBox="0 0 36 45" style="enable-background:new 0 0 36 45;" xml:space="preserve">
<style type="text/css">
	.st0{fill:#011E41;}
</style>
<g id="Layer_2_1_">
	<g id="Icons">
		<path  stroke-width="param(outline-width) "  stroke-opacity="param(outline-opacity) "  stroke="param(outline) "  fill-opacity="param(fill-opacity) "  fill="param(fill) " class="st0" d="M30,41H20l0-28.5c0,0,0,0,0-0.1c1.9-1.1,2.6-3.5,1.5-5.5C20.4,5,17.9,4.4,16,5.5s-2.6,3.5-1.5,5.5
			c0.4,0.6,0.9,1.1,1.5,1.5c0,0,0,0,0,0.1L16,41H6c-1.1,0-2,0.9-2,2s0.9,2,2,2h24c1.1,0,2-0.9,2-2S31.1,41,30,41z"/>
		<path  stroke-width="param(outline-width) "  stroke-opacity="param(outline-opacity) "  stroke="param(outline) "  fill-opacity="param(fill-opacity) "  fill="param(fill) " class="st0" d="M24.7,15.7c0.6,0.6,1.8,0.3,2.5-0.8c2.3-3.6,2.3-8.2,0-11.8c-0.7-1.1-2-1.4-2.5-0.8c-0.5,0.7-0.5,1.7,0,2.4
			c1.7,2.6,1.7,6,0,8.6C24.2,14,24.2,14.9,24.7,15.7z"/>
		<path  stroke-width="param(outline-width) "  stroke-opacity="param(outline-opacity) "  stroke="param(outline) "  fill-opacity="param(fill-opacity) "  fill="param(fill) " class="st0" d="M33.4,1c-0.7-1-1.9-1.2-2.5-0.6C30.4,1,30.4,2,31,2.7c2.7,3.7,2.7,8.8,0,12.5c-0.6,0.7-0.6,1.7-0.1,2.4
			c0.6,0.6,1.8,0.4,2.5-0.6C36.8,12.2,36.8,5.7,33.4,1z"/>
		<path  stroke-width="param(outline-width) "  stroke-opacity="param(outline-opacity) "  stroke="param(outline) "  fill-opacity="param(fill-opacity) "  fill="param(fill) " class="st0" d="M11.2,15.7c0.5-0.7,0.5-1.7,0-2.4c-1.7-2.6-1.7-6,0-8.6c0.5-0.7,0.5-1.7,0-2.4C10.6,1.7,9.3,2,8.6,3.1
			c-2.3,3.6-2.3,8.2,0,11.8C9.3,16,10.6,16.3,11.2,15.7z"/>
		<path  stroke-width="param(outline-width) "  stroke-opacity="param(outline-opacity) "  stroke="param(outline) "  fill-opacity="param(fill-opacity) "  fill="param(fill) " class="st0" d="M5.1,17.6c0.5-0.7,0.5-1.7-0.1-2.4C2.3,11.5,2.3,6.4,5,2.7C5.6,2,5.6,1,5.1,0.3C4.5-0.3,3.3,0,2.6,1
			c-3.4,4.8-3.4,11.2,0,16C3.3,18,4.5,18.2,5.1,17.6z"/>
	</g>
</g>
</svg>
