<?xml version="1.0" encoding="utf-8"?>
<!-- Generator: Adobe Illustrator 25.0.0, SVG Export Plug-In . SVG Version: 6.00 Build 0)  -->
<svg version="1.1" id="Layer_1" xmlns="http://www.w3.org/2000/svg" xmlns:xlink="http://www.w3.org/1999/xlink" x="0px" y="0px"
	 viewBox="0 0 26 48" style="enable-background:new 0 0 26 48;" xml:space="preserve">
<style type="text/css">
	.st0{fill:#011E41;}
</style>
<g id="Layer_2_1_">
	<g id="Icons">
		<path  stroke-width="param(outline-width) "  stroke-opacity="param(outline-opacity) "  stroke="param(outline) "  fill-opacity="param(fill-opacity) "  fill="param(fill) " class="st0" d="M24,0H2C0.9,0,0,0.9,0,2v12h26V2C26,0.9,25.1,0,24,0z M22,8c0,1.1-0.9,2-2,2H6c-1.1,0-2-0.9-2-2V6
			c0-1.1,0.9-2,2-2h14c1.1,0,2,0.9,2,2V8z"/>
		<path  stroke-width="param(outline-width) "  stroke-opacity="param(outline-opacity) "  stroke="param(outline) "  fill-opacity="param(fill-opacity) "  fill="param(fill) " class="st0" d="M0,46c0,1.1,0.9,2,2,2h22c1.1,0,2-0.9,2-2V17H0V46z"/>
	</g>
</g>
</svg>
