<?xml version="1.0" encoding="utf-8"?>
<!-- Generator: Adobe Illustrator 25.0.0, SVG Export Plug-In . SVG Version: 6.00 Build 0)  -->
<svg version="1.1" id="Layer_1" xmlns="http://www.w3.org/2000/svg" xmlns:xlink="http://www.w3.org/1999/xlink" x="0px" y="0px"
	 viewBox="0 0 44 44" style="enable-background:new 0 0 44 44;" xml:space="preserve">
<style type="text/css">
	.st0{fill:#011E41;}
</style>
<g id="Layer_2_1_">
	<g id="Icons">
		<path  stroke-width="param(outline-width) "  stroke-opacity="param(outline-opacity) "  stroke="param(outline) "  fill-opacity="param(fill-opacity) "  fill="param(fill) " class="st0" d="M22,0C9.8,0,0,9.8,0,22s9.8,22,22,22s22-9.8,22-22C44,9.8,34.2,0,22,0z M32.1,27.9c1.2,1.2,1.2,3.1,0,4.2
			c-1.2,1.2-3.1,1.2-4.2,0c0,0,0,0,0,0L22,26l-5.9,6.1c-1.2,1.2-3.1,1.2-4.2,0c0,0,0,0,0,0c-1.2-1.2-1.2-3.1,0-4.2L18,22l-6.1-5.9
			c-1.2-1.2-1.2-3.1,0-4.2s3.1-1.2,4.2,0L22,18l5.9-6.1c1.2-1.2,3.1-1.2,4.2,0c1.2,1.2,1.2,3.1,0,4.2L26,22L32.1,27.9z"/>
	</g>
</g>
</svg>
