<?xml version="1.0" encoding="utf-8"?>
<!-- Generator: Adobe Illustrator 25.0.0, SVG Export Plug-In . SVG Version: 6.00 Build 0)  -->
<svg version="1.1" id="Layer_1" xmlns="http://www.w3.org/2000/svg" xmlns:xlink="http://www.w3.org/1999/xlink" x="0px" y="0px"
	 viewBox="0 0 20 48" style="enable-background:new 0 0 20 48;" xml:space="preserve">
<style type="text/css">
	.st0{fill:#011E41;}
</style>
<g id="Layer_2_1_">
	<g id="Icons">
		<path  stroke-width="param(outline-width) "  stroke-opacity="param(outline-opacity) "  stroke="param(outline) "  fill-opacity="param(fill-opacity) "  fill="param(fill) " class="st0" d="M14,20.7V15c0.6,0,1-0.4,1-1v-3c0-0.6-0.4-1-1-1h-2V0.2c0-0.2-0.4-0.3-0.6-0.2L8.1,2.7C8,2.7,8,2.8,8,2.8V10
			H6c-0.6,0-1,0.4-1,1v3c0,0.6,0.4,1,1,1v5.7c-3.6,1.4-6,4.9-6,8.8V46c0,1.1,0.9,2,2,2h16c1.1,0,2-0.9,2-2V29.5
			C20,25.6,17.6,22.1,14,20.7z"/>
	</g>
</g>
</svg>
