<?xml version="1.0" encoding="utf-8"?>
<!-- Generator: Adobe Illustrator 25.0.0, SVG Export Plug-In . SVG Version: 6.00 Build 0)  -->
<svg version="1.1" id="Layer_1" xmlns="http://www.w3.org/2000/svg" xmlns:xlink="http://www.w3.org/1999/xlink" x="0px" y="0px"
	 viewBox="0 0 48 48" style="enable-background:new 0 0 48 48;" xml:space="preserve">
<style type="text/css">
	.st0{fill:#011E41;}
</style>
<g id="Layer_2_1_">
	<g id="Icons">
		<path  stroke-width="param(outline-width) "  stroke-opacity="param(outline-opacity) "  stroke="param(outline) "  fill-opacity="param(fill-opacity) "  fill="param(fill) " class="st0" d="M7.7,37.4l-7.1,7.2c-0.8,0.8-0.8,2.1,0,2.8c0.8,0.8,2.1,0.8,2.8,0c0,0,0,0,0,0l7.1-7.2c0.8-0.8,0.8-2.1,0-2.8
			C9.7,36.6,8.5,36.6,7.7,37.4C7.7,37.4,7.7,37.4,7.7,37.4z"/>
		<path  stroke-width="param(outline-width) "  stroke-opacity="param(outline-opacity) "  stroke="param(outline) "  fill-opacity="param(fill-opacity) "  fill="param(fill) " class="st0" d="M38.8,11.1c0.5,0,1-0.2,1.4-0.6l7.2-7.1c0.8-0.8,0.8-2,0-2.8s-2-0.8-2.8,0l0,0l-7.2,7.1c-0.8,0.8-0.8,2,0,2.8
			C37.8,10.9,38.3,11.1,38.8,11.1z"/>
		<path  stroke-width="param(outline-width) "  stroke-opacity="param(outline-opacity) "  stroke="param(outline) "  fill-opacity="param(fill-opacity) "  fill="param(fill) " class="st0" d="M40.3,37.4c-0.8-0.8-2-0.8-2.8,0c-0.8,0.8-0.8,2,0,2.8l7.1,7.2c0.8,0.8,2,0.8,2.8,0c0.8-0.8,0.8-2,0-2.8
			L40.3,37.4z"/>
		<path  stroke-width="param(outline-width) "  stroke-opacity="param(outline-opacity) "  stroke="param(outline) "  fill-opacity="param(fill-opacity) "  fill="param(fill) " class="st0" d="M7.8,10.5c0.8,0.8,2.1,0.8,2.8,0c0.8-0.8,0.8-2.1,0-2.8L3.4,0.6c-0.8-0.8-2.1-0.8-2.8,0s-0.8,2.1,0,2.8
			L7.8,10.5z"/>
		<path  stroke-width="param(outline-width) "  stroke-opacity="param(outline-opacity) "  stroke="param(outline) "  fill-opacity="param(fill-opacity) "  fill="param(fill) " class="st0" d="M24,10c-7.4,0-13,5.2-13,12c0,1.1,0.9,2,2,2s2-0.9,2-2c-0.1-2.8,1.5-5.4,4-6.7V46c0,1.1,0.9,2,2,2s2-0.9,2-2
			V31h2v15c0,1.1,0.9,2,2,2s2-0.9,2-2V15.3c2.5,1.3,4.1,3.9,4,6.7c0,1.1,0.9,2,2,2s2-0.9,2-2C37,15.2,31.4,10,24,10z"/>
		<circle class="st0" cx="24" cy="4" r="4"/>
	</g>
</g>
</svg>
