<?xml version="1.0" encoding="utf-8"?>
<!-- Generator: Adobe Illustrator 25.0.0, SVG Export Plug-In . SVG Version: 6.00 Build 0)  -->
<svg version="1.1" id="Layer_1" xmlns="http://www.w3.org/2000/svg" xmlns:xlink="http://www.w3.org/1999/xlink" x="0px" y="0px"
	 viewBox="0 0 24 40.7" style="enable-background:new 0 0 24 40.7;" xml:space="preserve">
<style type="text/css">
	.st0{fill:#011E41;}
</style>
<g id="Layer_2_1_">
	<g id="Icons">
		<path  stroke-width="param(outline-width) "  stroke-opacity="param(outline-opacity) "  stroke="param(outline) "  fill-opacity="param(fill-opacity) "  fill="param(fill) " class="st0" d="M12,11C5.4,11,0,15.9,0,22c0,1.1,0.9,2,2,2s2-0.9,2-2c0-2.2,1.1-4.2,3-5.4V23h10v-6.4c1.9,1.2,3,3.2,3,5.4
			c0,1.1,0.9,2,2,2s2-0.9,2-2C24,15.9,18.6,11,12,11z"/>
		<circle class="st0" cx="12" cy="4.5" r="4.5"/>
		<path  stroke-width="param(outline-width) "  stroke-opacity="param(outline-opacity) "  stroke="param(outline) "  fill-opacity="param(fill-opacity) "  fill="param(fill) " class="st0" d="M9.1,37.1c-2.3-1.6-2.8-4.7-1.2-7c0.4-0.6,1-1.1,1.6-1.5c0.1-0.1,0.2-0.2,0.1-0.3c0,0,0,0,0-0.1L7,25.7
			c-0.1-0.1-0.2-0.1-0.3,0c-4,2.9-4.9,8.5-2,12.6c0.6,0.8,1.3,1.5,2.1,2c0.8,0.6,2,0.5,2.7-0.2c0.8-0.8,0.7-2.1-0.1-2.8
			C9.3,37.2,9.2,37.2,9.1,37.1z"/>
		<path  stroke-width="param(outline-width) "  stroke-opacity="param(outline-opacity) "  stroke="param(outline) "  fill-opacity="param(fill-opacity) "  fill="param(fill) " class="st0" d="M17.3,25.7c-0.1-0.1-0.2-0.1-0.3,0l-2.5,2.5c-0.1,0.1-0.1,0.3,0,0.3c0,0,0,0,0.1,0c2.4,1.4,3.2,4.4,1.9,6.8
			c-0.4,0.6-0.9,1.2-1.5,1.6c-0.9,0.6-1.1,1.9-0.5,2.8c0.4,0.5,1,0.9,1.6,0.9c0.4,0,0.8-0.1,1.1-0.4c4.1-2.8,5.1-8.4,2.3-12.5
			C18.8,27,18.1,26.3,17.3,25.7z"/>
	</g>
</g>
</svg>
