<?xml version="1.0" encoding="utf-8"?>
<!-- Generator: Adobe Illustrator 25.0.0, SVG Export Plug-In . SVG Version: 6.00 Build 0)  -->
<svg version="1.1" id="Layer_1" xmlns="http://www.w3.org/2000/svg" xmlns:xlink="http://www.w3.org/1999/xlink" x="0px" y="0px"
	 viewBox="0 0 48 48" style="enable-background:new 0 0 48 48;" xml:space="preserve">
<style type="text/css">
	.st0{fill:#011E41;}
</style>
<g id="Layer_2_1_">
	<g id="Icons">
		<path  stroke-width="param(outline-width) "  stroke-opacity="param(outline-opacity) "  stroke="param(outline) "  fill-opacity="param(fill-opacity) "  fill="param(fill) " class="st0" d="M8.4,33.8L1.2,41c-1.6,1.6-1.6,4.2,0,5.8c1.6,1.6,4.2,1.6,5.8,0l7.2-7.2C11.9,38,10,36.1,8.4,33.8z"/>
		<path  stroke-width="param(outline-width) "  stroke-opacity="param(outline-opacity) "  stroke="param(outline) "  fill-opacity="param(fill-opacity) "  fill="param(fill) " class="st0" d="M22,20h-4c-0.6,0-1,0.4-1,1v4.9c1.3,2.5,3.4,4.4,6,5.5V21C23,20.4,22.6,20,22,20z"/>
		<path  stroke-width="param(outline-width) "  stroke-opacity="param(outline-opacity) "  stroke="param(outline) "  fill-opacity="param(fill-opacity) "  fill="param(fill) " class="st0" d="M38,14h-4c-0.6,0-1,0.4-1,1v16.5c2.6-1.1,4.7-3.1,6-5.5V15C39,14.4,38.6,14,38,14z"/>
		<path  stroke-width="param(outline-width) "  stroke-opacity="param(outline-opacity) "  stroke="param(outline) "  fill-opacity="param(fill-opacity) "  fill="param(fill) " class="st0" d="M30,17h-4c-0.6,0-1,0.4-1,1v14.1c2,0.5,4,0.5,6,0V18C31,17.4,30.6,17,30,17z"/>
		<path  stroke-width="param(outline-width) "  stroke-opacity="param(outline-opacity) "  stroke="param(outline) "  fill-opacity="param(fill-opacity) "  fill="param(fill) " class="st0" d="M28,0C17,0,8,9,8,20s9,20,20,20s20-9,20-20C48,9,39.1,0,28,0C28,0,28,0,28,0z M39,30.2
			c-5.6,6.1-15.1,6.4-21.2,0.8c-3.1-2.8-4.8-6.8-4.8-11c0-8.3,6.7-15,15-15c8.3,0,15,6.7,15,15C43,23.8,41.6,27.4,39,30.2z"/>
	</g>
</g>
</svg>
