<?xml version="1.0" encoding="utf-8"?>
<!-- Generator: Adobe Illustrator 25.0.0, SVG Export Plug-In . SVG Version: 6.00 Build 0)  -->
<svg version="1.1" id="Layer_1" xmlns="http://www.w3.org/2000/svg" xmlns:xlink="http://www.w3.org/1999/xlink" x="0px" y="0px"
	 viewBox="0 0 48 48" style="enable-background:new 0 0 48 48;" xml:space="preserve">
<style type="text/css">
	.st0{fill:#011E41;}
</style>
<g id="Layer_2_1_">
	<g id="Icons">
		<path  stroke-width="param(outline-width) "  stroke-opacity="param(outline-opacity) "  stroke="param(outline) "  fill-opacity="param(fill-opacity) "  fill="param(fill) " class="st0" d="M46.5,45h-45C0.7,45,0,45.7,0,46.5S0.7,48,1.5,48h45c0.8,0,1.5-0.7,1.5-1.5S47.3,45,46.5,45z"/>
		<path  stroke-width="param(outline-width) "  stroke-opacity="param(outline-opacity) "  stroke="param(outline) "  fill-opacity="param(fill-opacity) "  fill="param(fill) " class="st0" d="M5.5,43h37c0.8,0,1.5-0.7,1.5-1.5S43.3,40,42.5,40h-37C4.7,40,4,40.7,4,41.5S4.7,43,5.5,43z"/>
		<path  stroke-width="param(outline-width) "  stroke-opacity="param(outline-opacity) "  stroke="param(outline) "  fill-opacity="param(fill-opacity) "  fill="param(fill) " class="st0" d="M5,32h38c0.6,0,1-0.4,1-1c0-0.2-0.1-0.4-0.2-0.6l-4.5-6c-0.2-0.3-0.5-0.4-0.8-0.4h-29c-0.3,0-0.6,0.1-0.8,0.4
			l-4.5,6c-0.3,0.4-0.2,1.1,0.2,1.4C4.6,31.9,4.8,32,5,32z"/>
		<path  stroke-width="param(outline-width) "  stroke-opacity="param(outline-opacity) "  stroke="param(outline) "  fill-opacity="param(fill-opacity) "  fill="param(fill) " class="st0" d="M9,22h30c0.6,0,1-0.4,1-1c0-0.2-0.1-0.4-0.2-0.6l-4.5-6c-0.2-0.3-0.5-0.4-0.8-0.4h-21c-0.3,0-0.6,0.1-0.8,0.4
			l-4.5,6c-0.3,0.4-0.2,1.1,0.2,1.4C8.6,21.9,8.8,22,9,22z"/>
		<path  stroke-width="param(outline-width) "  stroke-opacity="param(outline-opacity) "  stroke="param(outline) "  fill-opacity="param(fill-opacity) "  fill="param(fill) " class="st0" d="M12,12h24c0.6,0,1-0.4,1-1c0-0.2,0-0.4-0.1-0.5l-5.6-10C31.1,0.2,30.8,0,30.4,0H17.6c-0.4,0-0.7,0.2-0.9,0.5
			l-5.6,10c-0.3,0.5-0.1,1.1,0.4,1.4C11.7,12,11.8,12,12,12z"/>
		<path  stroke-width="param(outline-width) "  stroke-opacity="param(outline-opacity) "  stroke="param(outline) "  fill-opacity="param(fill-opacity) "  fill="param(fill) " class="st0" d="M35,34h4c0.6,0,1,0.4,1,1v2c0,0.6-0.4,1-1,1h-4c-0.6,0-1-0.4-1-1v-2C34,34.4,34.4,34,35,34z"/>
		<path  stroke-width="param(outline-width) "  stroke-opacity="param(outline-opacity) "  stroke="param(outline) "  fill-opacity="param(fill-opacity) "  fill="param(fill) " class="st0" d="M9,34h4c0.6,0,1,0.4,1,1v2c0,0.6-0.4,1-1,1H9c-0.6,0-1-0.4-1-1v-2C8,34.4,8.4,34,9,34z"/>
		<path  stroke-width="param(outline-width) "  stroke-opacity="param(outline-opacity) "  stroke="param(outline) "  fill-opacity="param(fill-opacity) "  fill="param(fill) " class="st0" d="M22,34h4c0.6,0,1,0.4,1,1v2c0,0.6-0.4,1-1,1h-4c-0.6,0-1-0.4-1-1v-2C21,34.4,21.4,34,22,34z"/>
	</g>
</g>
</svg>
