<?xml version="1.0" encoding="utf-8"?>
<!-- Generator: Adobe Illustrator 25.0.0, SVG Export Plug-In . SVG Version: 6.00 Build 0)  -->
<svg version="1.1" id="Layer_1" xmlns="http://www.w3.org/2000/svg" xmlns:xlink="http://www.w3.org/1999/xlink" x="0px" y="0px"
	 viewBox="0 0 34 48" style="enable-background:new 0 0 34 48;" xml:space="preserve">
<style type="text/css">
	.st0{fill:#011E41;}
</style>
<g id="Layer_2_1_">
	<g id="Icons">
		<path  stroke-width="param(outline-width) "  stroke-opacity="param(outline-opacity) "  stroke="param(outline) "  fill-opacity="param(fill-opacity) "  fill="param(fill) " class="st0" d="M16,6.5C16,2.9,13.1,0,9.5,0S3,2.9,3,6.5v25.1c-3.8,3.6-4,9.6-0.4,13.4s9.6,4,13.4,0.4c1.9-1.8,3-4.3,3-6.9
			c0-2.6-1.1-5.1-3-6.9V6.5z M9.5,45C5.9,45,3,42.1,3,38.5c0-2,0.9-3.8,2.4-5.1L6,33V6.5C6,4.6,7.6,3,9.5,3S13,4.6,13,6.5V33
			l0.6,0.5c2.8,2.2,3.3,6.3,1,9.1C13.3,44.1,11.5,45,9.5,45z"/>
		<path  stroke-width="param(outline-width) "  stroke-opacity="param(outline-opacity) "  stroke="param(outline) "  fill-opacity="param(fill-opacity) "  fill="param(fill) " class="st0" d="M11,34.8V8.5C11,7.7,10.3,7,9.5,7S8,7.7,8,8.5v26.3C6,35.6,5,38,5.8,40S9,43,11,42.2s3-3.2,2.2-5.2
			C12.8,36,12,35.2,11,34.8z"/>
		<path  stroke-width="param(outline-width) "  stroke-opacity="param(outline-opacity) "  stroke="param(outline) "  fill-opacity="param(fill-opacity) "  fill="param(fill) " class="st0" d="M32.5,10H28V5.5C28,4.7,27.3,4,26.5,4S25,4.7,25,5.5V10h-4.5c-0.8,0-1.5,0.7-1.5,1.5s0.7,1.5,1.5,1.5H25v4.5
			c0,0.8,0.7,1.5,1.5,1.5s1.5-0.7,1.5-1.5V13h4.5c0.8,0,1.5-0.7,1.5-1.5S33.3,10,32.5,10z"/>
	</g>
</g>
</svg>
