<?xml version="1.0" encoding="utf-8"?>
<!-- Generator: Adobe Illustrator 25.0.0, SVG Export Plug-In . SVG Version: 6.00 Build 0)  -->
<svg version="1.1" id="Layer_1" xmlns="http://www.w3.org/2000/svg" xmlns:xlink="http://www.w3.org/1999/xlink" x="0px" y="0px"
	 viewBox="0 0 48 35" style="enable-background:new 0 0 48 35;" xml:space="preserve">
<style type="text/css">
	.st0{fill:#011E41;}
</style>
<g id="Layer_2_1_">
	<g id="Icons">
		<path  stroke-width="param(outline-width) "  stroke-opacity="param(outline-opacity) "  stroke="param(outline) "  fill-opacity="param(fill-opacity) "  fill="param(fill) " class="st0" d="M46.5,3C47.3,3,48,2.3,48,1.5S47.3,0,46.5,0h-38C7.7,0,7,0.7,7,1.5S7.7,3,8.5,3H26v7H8.7
			C7.9,7.7,5.3,6.4,3,7.2s-3.6,3.4-2.8,5.7s3.4,3.6,5.7,2.8c1.1-0.4,2-1.1,2.5-2.2L17,17v2h0c0,0,0,0.1,0,0.1c0,4.7,3.7,8.6,8.5,8.8
			c0,0,0,0,0.1,0c0.1,0,0.2,0,0.4,0H27v4h-8.6c-0.8,0-1.4,0.6-1.4,1.4v0.2c0,0.8,0.6,1.4,1.4,1.4h22.3c0.2,0,0.3,0,0.5-0.1l4.8-1.6
			c0.7-0.2,1.2-1.1,0.9-1.8c-0.2-0.7-1.1-1.2-1.8-0.9c0,0,0,0,0,0l-3.9,1.3c-0.1,0-0.3,0.1-0.4,0.1H39v-4.1c4.9-0.6,8.5-5,7.9-9.9
			c-0.5-4.6-4.4-8-8.9-8h-9V3H46.5z M4.5,13C3.7,13,3,12.3,3,11.5S3.7,10,4.5,10S6,10.7,6,11.5C6,12.3,5.3,13,4.5,13
			C4.5,13,4.5,13,4.5,13z M30,32v-4h6v4H30z M44,19h-7v-6c0.3,0,0.6,0,1,0.1C41.4,13.5,44,16,44,19z"/>
	</g>
</g>
</svg>
