<?xml version="1.0" encoding="utf-8"?>
<!-- Generator: Adobe Illustrator 25.0.0, SVG Export Plug-In . SVG Version: 6.00 Build 0)  -->
<svg version="1.1" id="Layer_1" xmlns="http://www.w3.org/2000/svg" xmlns:xlink="http://www.w3.org/1999/xlink" x="0px" y="0px"
	 viewBox="0 0 48 48" style="enable-background:new 0 0 48 48;" xml:space="preserve">
<style type="text/css">
	.st0{fill:#011E41;}
</style>
<g id="Layer_2_1_">
	<g id="Icons">
		<path  stroke-width="param(outline-width) "  stroke-opacity="param(outline-opacity) "  stroke="param(outline) "  fill-opacity="param(fill-opacity) "  fill="param(fill) " class="st0" d="M2,34h10c1.1,0,2,0.9,2,2v10c0,1.1-0.9,2-2,2H2c-1.1,0-2-0.9-2-2V36C0,34.9,0.9,34,2,34z"/>
		<path  stroke-width="param(outline-width) "  stroke-opacity="param(outline-opacity) "  stroke="param(outline) "  fill-opacity="param(fill-opacity) "  fill="param(fill) " class="st0" d="M7.8,30.5c0.3,1.1,1.4,1.7,2.5,1.4l9.3-2.4c1.1-0.3,1.7-1.4,1.4-2.5L18,17.5c-0.3-1.1-1.4-1.7-2.5-1.4
			l-9.1,2.7c-1.1,0.3-1.7,1.4-1.4,2.5L7.8,30.5z"/>
		<path  stroke-width="param(outline-width) "  stroke-opacity="param(outline-opacity) "  stroke="param(outline) "  fill-opacity="param(fill-opacity) "  fill="param(fill) " class="st0" d="M27,18h10c1.1,0,2,0.9,2,2v10c0,1.1-0.9,2-2,2H27c-1.1,0-2-0.9-2-2V20C25,18.9,25.9,18,27,18z"/>
		<path  stroke-width="param(outline-width) "  stroke-opacity="param(outline-opacity) "  stroke="param(outline) "  fill-opacity="param(fill-opacity) "  fill="param(fill) " class="st0" d="M21.8,13.9l10,1.1c1.1,0.1,2.1-0.7,2.2-1.8l1-10c0.1-1.1-0.7-2.1-1.8-2.2l-9.8-1c-1.1-0.1-2.1,0.7-2.2,1.8
			L20,11.7C19.9,12.8,20.7,13.8,21.8,13.9z"/>
		<path  stroke-width="param(outline-width) "  stroke-opacity="param(outline-opacity) "  stroke="param(outline) "  fill-opacity="param(fill-opacity) "  fill="param(fill) " class="st0" d="M19,34h10c1.1,0,2,0.9,2,2v10c0,1.1-0.9,2-2,2H19c-1.1,0-2-0.9-2-2V36C17,34.9,17.9,34,19,34z"/>
		<path  stroke-width="param(outline-width) "  stroke-opacity="param(outline-opacity) "  stroke="param(outline) "  fill-opacity="param(fill-opacity) "  fill="param(fill) " class="st0" d="M36,34h10c1.1,0,2,0.9,2,2v10c0,1.1-0.9,2-2,2H36c-1.1,0-2-0.9-2-2V36C34,34.9,34.9,34,36,34z"/>
	</g>
</g>
</svg>
