<?xml version="1.0" encoding="utf-8"?>
<!-- Generator: Adobe Illustrator 25.0.0, SVG Export Plug-In . SVG Version: 6.00 Build 0)  -->
<svg version="1.1" id="Layer_1" xmlns="http://www.w3.org/2000/svg" xmlns:xlink="http://www.w3.org/1999/xlink" x="0px" y="0px"
	 viewBox="0 0 42 42" style="enable-background:new 0 0 42 42;" xml:space="preserve">
<style type="text/css">
	.st0{fill:#011E41;}
</style>
<g id="Layer_2_1_">
	<g id="FINAL">
		<path  stroke-width="param(outline-width) "  stroke-opacity="param(outline-opacity) "  stroke="param(outline) "  fill-opacity="param(fill-opacity) "  fill="param(fill) " class="st0" d="M10,5c0,2.8-2.2,5-5,5S0,7.8,0,5s2.2-5,5-5S10,2.2,10,5z M5,16c-2.8,0-5,2.2-5,5s2.2,5,5,5s5-2.2,5-5
			S7.8,16,5,16z M5,32c-2.8,0-5,2.2-5,5s2.2,5,5,5s5-2.2,5-5S7.8,32,5,32z M5,16c-2.8,0-5,2.2-5,5s2.2,5,5,5s5-2.2,5-5S7.8,16,5,16z
			 M5,32c-2.8,0-5,2.2-5,5s2.2,5,5,5s5-2.2,5-5S7.8,32,5,32z M21,0c-2.8,0-5,2.2-5,5s2.2,5,5,5s5-2.2,5-5S23.8,0,21,0z M21,16
			c-2.8,0-5,2.2-5,5s2.2,5,5,5s5-2.2,5-5S23.8,16,21,16z M21,32c-2.8,0-5,2.2-5,5s2.2,5,5,5s5-2.2,5-5S23.8,32,21,32z M21,0
			c-2.8,0-5,2.2-5,5s2.2,5,5,5s5-2.2,5-5S23.8,0,21,0z M21,16c-2.8,0-5,2.2-5,5s2.2,5,5,5s5-2.2,5-5S23.8,16,21,16z M21,32
			c-2.8,0-5,2.2-5,5s2.2,5,5,5s5-2.2,5-5S23.8,32,21,32z M37,0c-2.8,0-5,2.2-5,5s2.2,5,5,5s5-2.2,5-5S39.8,0,37,0z M37,16
			c-2.8,0-5,2.2-5,5s2.2,5,5,5s5-2.2,5-5S39.8,16,37,16z M37,32c-2.8,0-5,2.2-5,5s2.2,5,5,5s5-2.2,5-5S39.8,32,37,32z M37,0
			c-2.8,0-5,2.2-5,5s2.2,5,5,5s5-2.2,5-5S39.8,0,37,0z M37,16c-2.8,0-5,2.2-5,5s2.2,5,5,5s5-2.2,5-5S39.8,16,37,16z M37,32
			c-2.8,0-5,2.2-5,5s2.2,5,5,5s5-2.2,5-5S39.8,32,37,32z"/>
	</g>
</g>
</svg>
