<?xml version="1.0" encoding="utf-8"?>
<!-- Generator: Adobe Illustrator 25.0.0, SVG Export Plug-In . SVG Version: 6.00 Build 0)  -->
<svg version="1.1" id="Layer_1" xmlns="http://www.w3.org/2000/svg" xmlns:xlink="http://www.w3.org/1999/xlink" x="0px" y="0px"
	 viewBox="0 0 32 48" style="enable-background:new 0 0 32 48;" xml:space="preserve">
<style type="text/css">
	.st0{fill:#011E41;}
</style>
<g id="Layer_2_1_">
	<g id="Icons">
		<path  stroke-width="param(outline-width) "  stroke-opacity="param(outline-opacity) "  stroke="param(outline) "  fill-opacity="param(fill-opacity) "  fill="param(fill) " class="st0" d="M30,6H2C0.9,6,0,6.9,0,8v22h32V8C32,6.9,31.1,6,30,6z M11,11c0-0.6,0.4-1,1-1s1,0.4,1,1v3c0,0.6-0.4,1-1,1
			s-1-0.4-1-1V11z M15,28h-0.1c-2.1,0-3.9-1.7-3.9-3.9c0,0,0,0,0,0V23h0.1c2.1,0,3.9,1.7,3.9,3.9c0,0,0,0,0,0V28z M15,22h-0.1
			c-2.1,0-3.9-1.7-3.9-3.9c0,0,0,0,0,0V17h0.1c2.1,0,3.9,1.7,3.9,3.9c0,0,0,0,0,0V22z M16,17L16,17c-0.6,0-1-0.4-1-1V9
			c0-0.5,0.4-1,1-1h0c0.5,0,1,0.4,1,1v7C17,16.6,16.6,17,16,17z M21,24.1c0,2.1-1.7,3.9-3.9,3.9c0,0,0,0,0,0H17v-1.1
			c0-2.1,1.7-3.9,3.9-3.9c0,0,0,0,0,0H21V24.1z M21,18.1c0,2.1-1.7,3.9-3.9,3.9c0,0,0,0,0,0H17v-1.1c0-2.1,1.7-3.9,3.9-3.9
			c0,0,0,0,0,0H21V18.1z M21,14c0,0.6-0.4,1-1,1s-1-0.4-1-1v-3c0-0.6,0.4-1,1-1s1,0.4,1,1V14z"/>
		<path  stroke-width="param(outline-width) "  stroke-opacity="param(outline-opacity) "  stroke="param(outline) "  fill-opacity="param(fill-opacity) "  fill="param(fill) " class="st0" d="M6,4h20c1.1,0,2-0.9,2-2s-0.9-2-2-2H6C4.9,0,4,0.9,4,2S4.9,4,6,4z"/>
		<path  stroke-width="param(outline-width) "  stroke-opacity="param(outline-opacity) "  stroke="param(outline) "  fill-opacity="param(fill-opacity) "  fill="param(fill) " class="st0" d="M0,48h12V38c0-1.1,0.9-2,2-2h4c1.1,0,2,0.9,2,2v10h12V32H0V48z"/>
	</g>
</g>
</svg>
