<?xml version="1.0" encoding="utf-8"?>
<!-- Generator: Adobe Illustrator 25.0.0, SVG Export Plug-In . SVG Version: 6.00 Build 0)  -->
<svg version="1.1" id="Layer_1" xmlns="http://www.w3.org/2000/svg" xmlns:xlink="http://www.w3.org/1999/xlink" x="0px" y="0px"
	 viewBox="0 0 42 48" style="enable-background:new 0 0 42 48;" xml:space="preserve">
<style type="text/css">
	.st0{fill:#011E41;}
</style>
<g id="Layer_2_1_">
	<g id="Icons">
		<path  stroke-width="param(outline-width) "  stroke-opacity="param(outline-opacity) "  stroke="param(outline) "  fill-opacity="param(fill-opacity) "  fill="param(fill) " class="st0" d="M29,10c-7.4,0-13,5.2-13,12c0,1.1,0.9,2,2,2s2-0.9,2-2c-0.1-2.8,1.5-5.4,4-6.7V46c0,1.1,0.9,2,2,2s2-0.9,2-2
			V31h2v15c0,1.1,0.9,2,2,2c1.1,0,2-0.9,2-2V15.3c2.5,1.3,4.1,3.9,4,6.7c0,1.1,0.9,2,2,2s2-0.9,2-2C42,15.2,36.4,10,29,10z"/>
		<circle class="st0" cx="29" cy="4" r="4"/>
		<path  stroke-width="param(outline-width) "  stroke-opacity="param(outline-opacity) "  stroke="param(outline) "  fill-opacity="param(fill-opacity) "  fill="param(fill) " class="st0" d="M8,0C3.6,0,0,3.6,0,8s3.6,8,8,8s8-3.6,8-8C16,3.6,12.4,0,8,0C8,0,8,0,8,0z M11.7,10.3c0.4,0.4,0.4,1,0,1.4
			c-0.4,0.4-1,0.4-1.4,0L8,9.4l-2.3,2.3c-0.4,0.4-1,0.4-1.4,0c-0.4-0.4-0.4-1,0-1.4L6.6,8L4.3,5.7c-0.4-0.4-0.4-1,0-1.4
			c0.4-0.4,1-0.4,1.4,0c0,0,0,0,0,0L8,6.6l2.3-2.3c0.4-0.4,1-0.4,1.4,0c0.4,0.4,0.4,1,0,1.4L9.4,8L11.7,10.3z"/>
	</g>
</g>
</svg>
