<?xml version="1.0" encoding="utf-8"?>
<!-- Generator: Adobe Illustrator 25.0.0, SVG Export Plug-In . SVG Version: 6.00 Build 0)  -->
<svg version="1.1" id="Layer_1" xmlns="http://www.w3.org/2000/svg" xmlns:xlink="http://www.w3.org/1999/xlink" x="0px" y="0px"
	 viewBox="0 0 48 48" style="enable-background:new 0 0 48 48;" xml:space="preserve">
<style type="text/css">
	.st0{fill:#011E41;}
</style>
<g id="Layer_2_1_">
	<g id="Icons">
		<path  stroke-width="param(outline-width) "  stroke-opacity="param(outline-opacity) "  stroke="param(outline) "  fill-opacity="param(fill-opacity) "  fill="param(fill) " class="st0" d="M38,44h-4.5l-7.2-26.8c1.8-1.3,2.2-3.8,0.9-5.6s-3.8-2.2-5.6-0.9s-2.2,3.8-0.9,5.6c0.2,0.3,0.5,0.6,0.9,0.9
			L14.5,44H10c-1.1,0-2,0.9-2,2s0.9,2,2,2h28c1.1,0,2-0.9,2-2S39.1,44,38,44z M21.3,30h5.4l1.6,6h-8.6L21.3,30z M22.1,27l1.9-7
			l1.9,7L22.1,27z M18.9,39h10.2l1.3,5H17.6L18.9,39z"/>
		<path  stroke-width="param(outline-width) "  stroke-opacity="param(outline-opacity) "  stroke="param(outline) "  fill-opacity="param(fill-opacity) "  fill="param(fill) " class="st0" d="M3,13.6c0-4.1,1.7-8,4.6-11C8.2,2,8.1,1,7.5,0.4c0,0,0,0,0,0C6.9-0.2,6-0.1,5.4,0.5C1.9,4,0,8.7,0,13.6
			c0,4.9,2,9.5,5.4,13c0.6,0.6,1.6,0.6,2.2,0.1C8.1,26,8.2,25,7.6,24.4C4.7,21.5,3.1,17.6,3,13.6z"/>
		<path  stroke-width="param(outline-width) "  stroke-opacity="param(outline-opacity) "  stroke="param(outline) "  fill-opacity="param(fill-opacity) "  fill="param(fill) " class="st0" d="M12.2,19.5c0.5,0.6,1.5,0.7,2.1,0.2c0,0,0,0,0,0c0.6-0.6,0.7-1.6,0.1-2.2c-0.9-1-1.5-2.4-1.5-3.8
			c0-1.5,0.6-2.8,1.6-3.9C15.2,9,15.1,8,14.5,7.4c-0.6-0.6-1.5-0.6-2.1,0c0,0,0,0,0,0C9.3,10.9,9.2,16,12.2,19.5L12.2,19.5z"/>
		<path  stroke-width="param(outline-width) "  stroke-opacity="param(outline-opacity) "  stroke="param(outline) "  fill-opacity="param(fill-opacity) "  fill="param(fill) " class="st0" d="M8.4,22.5c0.5,0.6,1.4,0.6,2,0.1c0,0,0,0,0,0c0.6-0.6,0.6-1.5,0.1-2.1c-1.7-1.9-2.6-4.4-2.5-7
			c-0.1-2.6,0.9-5.1,2.6-7.1c0.5-0.6,0.5-1.5,0-2.1c-0.5-0.5-1.4-0.5-2,0c0,0,0,0,0,0.1C3.9,9.5,3.8,17.4,8.4,22.5L8.4,22.5z"/>
		<path  stroke-width="param(outline-width) "  stroke-opacity="param(outline-opacity) "  stroke="param(outline) "  fill-opacity="param(fill-opacity) "  fill="param(fill) " class="st0" d="M42.7,0.5c-0.6-0.6-1.6-0.6-2.2,0s-0.6,1.6,0,2.2c0,0,0,0,0,0c2.9,2.9,4.5,6.9,4.5,11
			c-0.1,4.1-1.7,8-4.6,10.9c-0.6,0.6-0.6,1.6,0,2.2c0.6,0.6,1.6,0.6,2.2,0c0,0,0,0,0,0c3.4-3.5,5.3-8.1,5.4-13
			C48,8.7,46.1,4,42.7,0.5z"/>
		<path  stroke-width="param(outline-width) "  stroke-opacity="param(outline-opacity) "  stroke="param(outline) "  fill-opacity="param(fill-opacity) "  fill="param(fill) " class="st0" d="M35,13.6c0,1.4-0.6,2.8-1.6,3.8c-0.6,0.6-0.5,1.6,0.1,2.2c0.6,0.6,1.6,0.5,2.2-0.1c1.5-1.6,2.3-3.7,2.3-5.9
			c0-2.2-0.8-4.4-2.3-6.1c-0.6-0.6-1.6-0.7-2.2-0.1S32.8,9,33.4,9.7l0,0C34.4,10.7,35,12.1,35,13.6z"/>
		<path  stroke-width="param(outline-width) "  stroke-opacity="param(outline-opacity) "  stroke="param(outline) "  fill-opacity="param(fill-opacity) "  fill="param(fill) " class="st0" d="M40,13.6c0.1,2.6-0.9,5.1-2.6,7c-0.6,0.6-0.5,1.5,0.1,2.1c0.6,0.6,1.5,0.5,2.1-0.1c0,0,0,0,0,0
			c2.3-2.4,3.5-5.7,3.5-9c0.1-3.4-1.2-6.6-3.5-9.1c-0.6-0.6-1.5-0.6-2.1,0c-0.6,0.6-0.6,1.5,0,2.1c0,0,0,0,0,0
			C39.2,8.4,40.1,10.9,40,13.6z"/>
	</g>
</g>
</svg>
