<?xml version="1.0" encoding="utf-8"?>
<!-- Generator: Adobe Illustrator 25.0.0, SVG Export Plug-In . SVG Version: 6.00 Build 0)  -->
<svg version="1.1" id="Layer_1" xmlns="http://www.w3.org/2000/svg" xmlns:xlink="http://www.w3.org/1999/xlink" x="0px" y="0px"
	 viewBox="0 0 48 48" style="enable-background:new 0 0 48 48;" xml:space="preserve">
<style type="text/css">
	.st0{fill:#011E41;}
</style>
<g id="Layer_2_1_">
	<g id="FINAL">
		<path  stroke-width="param(outline-width) "  stroke-opacity="param(outline-opacity) "  stroke="param(outline) "  fill-opacity="param(fill-opacity) "  fill="param(fill) " class="st0" d="M46.3,9.7L45,11l-8-8l1.3-1.3c2.2-2.2,5.8-2.2,8,0l0,0C48.6,3.9,48.6,7.4,46.3,9.7
			C46.3,9.7,46.3,9.7,46.3,9.7z M34,6L2.2,37.8C2.1,37.9,2,38.1,2,38.3L0,46.7c-0.1,0.5,0.2,1.1,0.7,1.2c0.2,0,0.4,0,0.5,0L9.7,46
			c0.2,0,0.4-0.1,0.5-0.3L42,14L34,6z"/>
	</g>
</g>
</svg>
