<?xml version="1.0" encoding="utf-8"?>
<!-- Generator: Adobe Illustrator 25.0.0, SVG Export Plug-In . SVG Version: 6.00 Build 0)  -->
<svg version="1.1" id="Layer_1" xmlns="http://www.w3.org/2000/svg" xmlns:xlink="http://www.w3.org/1999/xlink" x="0px" y="0px"
	 viewBox="0 0 46 48" style="enable-background:new 0 0 46 48;" xml:space="preserve">
<style type="text/css">
	.st0{fill:#011E41;}
</style>
<g id="Layer_2_1_">
	<g id="Text">
		<path  stroke-width="param(outline-width) "  stroke-opacity="param(outline-opacity) "  stroke="param(outline) "  fill-opacity="param(fill-opacity) "  fill="param(fill) " class="st0" d="M44.6,8.4l-7.1-7c-1.9-1.9-5-1.9-7,0l-17,17c-1.9,1.9-1.9,5,0,7c0,0,0,0,0,0l3.5,3.5c0.4,0.4,1.1,0.4,1.5,0
			l2.3-2.3c0.4-0.4,0.4-1.1,0-1.5c0,0,0,0,0,0l-3.1-3.1L34,5.7l6.2,6.2l-7,7l1.4,1.4c0.8,0.8,1.5,1.8,1.9,3l8-7.9
			C46.5,13.4,46.5,10.3,44.6,8.4z"/>
		<path  stroke-width="param(outline-width) "  stroke-opacity="param(outline-opacity) "  stroke="param(outline) "  fill-opacity="param(fill-opacity) "  fill="param(fill) " class="st0" d="M28.9,19.1c-0.4-0.4-1.1-0.4-1.5,0c0,0,0,0,0,0L25,21.4c-0.4,0.4-0.4,1.1,0,1.5l0.8,0.8l2.3,2.3l-9.3,9.3
			l-7,7l-3.1-3.1l-3.1-3.1l7-7l-0.4-0.4l0,0l-1.1-1.1c-0.8-0.8-1.5-1.8-1.9-3l-7.9,7.9c-1.9,1.9-1.9,5,0,7l7,7c1.9,1.9,5,1.9,7,0
			l8.5-8.5l8.5-8.5c1.9-1.9,1.9-5,0-7L28.9,19.1z"/>
	</g>
</g>
</svg>
