<?xml version="1.0" encoding="utf-8"?>
<!-- Generator: Adobe Illustrator 25.0.0, SVG Export Plug-In . SVG Version: 6.00 Build 0)  -->
<svg version="1.1" id="Layer_1" xmlns="http://www.w3.org/2000/svg" xmlns:xlink="http://www.w3.org/1999/xlink" x="0px" y="0px"
	 viewBox="0 0 48 41" style="enable-background:new 0 0 48 41;" xml:space="preserve">
<style type="text/css">
	.st0{fill:#011E41;}
</style>
<g id="Layer_2_1_">
	<g id="Icons">
		<path  stroke-width="param(outline-width) "  stroke-opacity="param(outline-opacity) "  stroke="param(outline) "  fill-opacity="param(fill-opacity) "  fill="param(fill) " class="st0" d="M39,22L39,22c-0.2,0-0.3,0-0.5,0c-0.1,0-0.2,0-0.3,0c-0.1,0-0.1,0-0.2,0H25.5c-1.9,0-3.5,1.6-3.5,3.5
			s1.6,3.5,3.5,3.5H31c1.1,0,2,0.9,2,2c0,1.1-0.9,2-2,2h-9c-0.6,0-1.2-0.2-1.6-0.6L6.8,19.2c-1.6-1.6-4.1-1.6-5.7,0
			C1,19.3,1,19.4,0.9,19.5c-1.3,1.7-1.1,4,0.4,5.5l15.2,14.9c0.8,0.8,1.8,1.2,2.8,1.2H38c0.1,0,0.2,0,0.2,0c0.1,0,0.2,0,0.3,0
			c0.2,0,0.3,0,0.5,0v0c5,0,9-4,9-9v-1C48,26,44,22,39,22C39,22,39,22,39,22z"/>
		<path  stroke-width="param(outline-width) "  stroke-opacity="param(outline-opacity) "  stroke="param(outline) "  fill-opacity="param(fill-opacity) "  fill="param(fill) " class="st0" d="M6.5,13C6.5,13,6.5,13,6.5,13c0.1,0,0.1,0,0.1,0h8.9c1.4,0,2.5-1.1,2.5-2.5C18,9.1,16.9,8,15.5,8c0,0,0,0,0,0
			h-2.7l0,0h-1.3C10.7,8,10,7.3,10,6.5S10.7,5,11.5,5h6.4c0.4,0,0.8,0.2,1.1,0.4l9.3,9.8c1.1,1.1,2.9,1.1,3.9,0
			c0.1-0.1,0.1-0.1,0.2-0.2c0.9-1.2,0.8-2.8-0.3-3.8L21.5,0.8C21,0.3,20.3,0,19.6,0h-13c0,0,0,0-0.1,0l0,0C2.9,0,0,2.9,0,6.5
			S2.9,13,6.5,13C6.5,13,6.5,13,6.5,13z"/>
	</g>
</g>
</svg>
