<?xml version="1.0" encoding="utf-8"?>
<!-- Generator: Adobe Illustrator 25.0.0, SVG Export Plug-In . SVG Version: 6.00 Build 0)  -->
<svg version="1.1" id="Layer_1" xmlns="http://www.w3.org/2000/svg" xmlns:xlink="http://www.w3.org/1999/xlink" x="0px" y="0px"
	 viewBox="0 0 48 48" style="enable-background:new 0 0 48 48;" xml:space="preserve">
<style type="text/css">
	.st0{fill:#011E41;}
</style>
<g id="Layer_2_1_">
	<g id="Icons">
		<path  stroke-width="param(outline-width) "  stroke-opacity="param(outline-opacity) "  stroke="param(outline) "  fill-opacity="param(fill-opacity) "  fill="param(fill) " class="st0" d="M36.2,7.3L36.2,7.3c0.4,0.6,1.3,0.9,1.9,0.5L39,7.4v1.1c0,0.8,0.7,1.5,1.5,1.5S42,9.3,42,8.5V7.4l0.9,0.5
			c0.7,0.4,1.5,0.2,1.9-0.5v0c0.4-0.6,0.2-1.4-0.4-1.8c0,0-0.1,0-0.1,0L43.3,5l0.9-0.5c0.6-0.3,0.9-1.1,0.6-1.7c0,0,0-0.1,0-0.1v0
			c-0.4-0.6-1.3-0.9-1.9-0.5L42,2.6V1.5C42,0.7,41.3,0,40.5,0S39,0.7,39,1.5v1.1l-0.9-0.5c-0.7-0.4-1.5-0.2-1.9,0.5v0
			c-0.4,0.6-0.2,1.4,0.4,1.8c0,0,0.1,0,0.1,0L37.7,5l-0.9,0.5C36.1,5.8,35.8,6.6,36.2,7.3C36.2,7.3,36.2,7.3,36.2,7.3z"/>
		<path  stroke-width="param(outline-width) "  stroke-opacity="param(outline-opacity) "  stroke="param(outline) "  fill-opacity="param(fill-opacity) "  fill="param(fill) " class="st0" d="M47.6,19.7c-0.4-1.1-1.3-2-2.4-2.4c-1.1-0.4-2.4-0.4-3.5,0c-0.7,0.3-1,1.2-0.6,1.8c0,0,0,0.1,0,0.1
			c0.3,0.6,1,0.9,1.7,0.7c0.4-0.1,0.8,0,1.2,0.1c0.3,0.1,0.6,0.4,0.8,0.8c0.4,1.1-0.1,2.4-1.2,2.9c-0.8,0.3-1.7,0.3-2.5,0
			c-0.8-0.3-1.4-0.9-1.7-1.7L32.9,7.9c-0.4-0.7-1.2-1.1-2-0.7c-0.7,0.4-1.1,1.2-0.7,2l0,0l6.5,14.1c0.6,1.5,1.8,2.7,3.3,3.3
			c0.7,0.3,1.6,0.5,2.4,0.5c0.8,0,1.6-0.2,2.4-0.5C47.4,25.4,48.7,22.4,47.6,19.7z"/>
		<path  stroke-width="param(outline-width) "  stroke-opacity="param(outline-opacity) "  stroke="param(outline) "  fill-opacity="param(fill-opacity) "  fill="param(fill) " class="st0" d="M21,7.3c-0.5-1.1-1.8-1.6-3-1.1c-0.5,0.2-0.9,0.6-1.1,1.1L0.2,44.8c-0.5,1.1,0,2.5,1.1,3
			C1.6,47.9,1.9,48,2.3,48h33.5c1.2,0,2.3-1,2.3-2.2c0-0.3-0.1-0.6-0.2-0.9L21,7.3z M15,22l4-9l4,9H15z"/>
	</g>
</g>
</svg>
