<?xml version="1.0" encoding="utf-8"?>
<!-- Generator: Adobe Illustrator 25.0.0, SVG Export Plug-In . SVG Version: 6.00 Build 0)  -->
<svg version="1.1" id="Layer_1" xmlns="http://www.w3.org/2000/svg" xmlns:xlink="http://www.w3.org/1999/xlink" x="0px" y="0px"
	 viewBox="0 0 48 48" style="enable-background:new 0 0 48 48;" xml:space="preserve">
<style type="text/css">
	.st0{fill:#011E41;}
</style>
<g id="Layer_2_1_">
	<g id="Icons">
		<path  stroke-width="param(outline-width) "  stroke-opacity="param(outline-opacity) "  stroke="param(outline) "  fill-opacity="param(fill-opacity) "  fill="param(fill) " class="st0" d="M31,5h-3.8c-0.4,0-0.8-0.3-1-0.7L25,0.7c-0.2-0.6-0.8-0.9-1.3-0.7c-0.3,0.1-0.6,0.4-0.7,0.7l-1.2,3.5
			c-0.1,0.4-0.5,0.7-1,0.7H17c-0.6,0-1.1,0.6-1,1.2c0,0.3,0.2,0.6,0.4,0.8l3.2,2.5c0.4,0.3,0.5,0.8,0.4,1.2l-1.9,3.9
			c-0.2,0.6,0.1,1.2,0.7,1.4c0.3,0.1,0.7,0.1,0.9-0.1l3.7-2.6c0.4-0.3,0.8-0.3,1.2,0l3.7,2.6c0.5,0.3,1.2,0.2,1.5-0.3
			c0.2-0.3,0.2-0.6,0.1-0.9l-1.9-3.9c-0.1-0.4,0-0.9,0.4-1.2L31.6,7c0.5-0.4,0.6-1.1,0.2-1.6C31.6,5.2,31.3,5,31,5z"/>
		<path  stroke-width="param(outline-width) "  stroke-opacity="param(outline-opacity) "  stroke="param(outline) "  fill-opacity="param(fill-opacity) "  fill="param(fill) " class="st0" d="M30,25H18c-0.6,0-1,0.4-1,1v22h14V26C31,25.4,30.6,25,30,25z"/>
		<path  stroke-width="param(outline-width) "  stroke-opacity="param(outline-opacity) "  stroke="param(outline) "  fill-opacity="param(fill-opacity) "  fill="param(fill) " class="st0" d="M47,35H35c-0.6,0-1,0.4-1,1v12h14V36C48,35.4,47.6,35,47,35z"/>
		<path  stroke-width="param(outline-width) "  stroke-opacity="param(outline-opacity) "  stroke="param(outline) "  fill-opacity="param(fill-opacity) "  fill="param(fill) " class="st0" d="M13,31H1c-0.6,0-1,0.4-1,1v16h14V32C14,31.4,13.6,31,13,31z"/>
	</g>
</g>
</svg>
