<?xml version="1.0" encoding="utf-8"?>
<!-- Generator: Adobe Illustrator 25.0.0, SVG Export Plug-In . SVG Version: 6.00 Build 0)  -->
<svg version="1.1" id="Layer_1" xmlns="http://www.w3.org/2000/svg" xmlns:xlink="http://www.w3.org/1999/xlink" x="0px" y="0px"
	 viewBox="0 0 48 48" style="enable-background:new 0 0 48 48;" xml:space="preserve">
<style type="text/css">
	.st0{fill:#011E41;}
</style>
<g id="Layer_2_1_">
	<g id="Icons">
		<path  stroke-width="param(outline-width) "  stroke-opacity="param(outline-opacity) "  stroke="param(outline) "  fill-opacity="param(fill-opacity) "  fill="param(fill) " class="st0" d="M17,25.1L17,25.1l0-1.6c0-1.4-1.1-2.5-2.5-2.5h-5C8.1,21,7,22.1,7,23.5v1.6h0C1,27.8-1.7,35,1.1,41
			S11,49.7,17,46.9c2.2-1,4.1-2.7,5.3-4.8c-1.8-3.9-1.8-8.4,0-12.3C21.1,27.8,19.2,26.1,17,25.1z M12,43c-3.9,0-7-3.1-7-7s3.1-7,7-7
			s7,3.1,7,7C19,39.9,15.9,43,12,43z"/>
		<path  stroke-width="param(outline-width) "  stroke-opacity="param(outline-opacity) "  stroke="param(outline) "  fill-opacity="param(fill-opacity) "  fill="param(fill) " class="st0" d="M12,18c1.1,0,2-0.9,2-2v-3c0-1.1-0.9-2-2-2s-2,0.9-2,2v3C10,17.1,10.9,18,12,18z"/>
		<path  stroke-width="param(outline-width) "  stroke-opacity="param(outline-opacity) "  stroke="param(outline) "  fill-opacity="param(fill-opacity) "  fill="param(fill) " class="st0" d="M16.4,8.4l2.1-2.1c0.8-0.8,0.8-2,0-2.8c-0.8-0.8-2-0.8-2.8,0c0,0,0,0,0,0l-2.1,2.1c-0.8,0.8-0.8,2,0,2.8
			C14.4,9.2,15.6,9.2,16.4,8.4L16.4,8.4z"/>
		<path  stroke-width="param(outline-width) "  stroke-opacity="param(outline-opacity) "  stroke="param(outline) "  fill-opacity="param(fill-opacity) "  fill="param(fill) " class="st0" d="M34,13v3c0,1.1,0.9,2,2,2s2-0.9,2-2v-3c0-1.1-0.9-2-2-2S34,11.9,34,13z"/>
		<path  stroke-width="param(outline-width) "  stroke-opacity="param(outline-opacity) "  stroke="param(outline) "  fill-opacity="param(fill-opacity) "  fill="param(fill) " class="st0" d="M31.7,8.4c0.8,0.8,2,0.8,2.8,0c0.8-0.8,0.8-2,0-2.8c0,0,0,0,0,0l-2.1-2.1c-0.8-0.8-2-0.8-2.8,0h0
			c-0.8,0.8-0.8,2,0,2.8L31.7,8.4z"/>
		<path  stroke-width="param(outline-width) "  stroke-opacity="param(outline-opacity) "  stroke="param(outline) "  fill-opacity="param(fill-opacity) "  fill="param(fill) " class="st0" d="M27,2c0-1.1-0.9-2-2-2c0,0,0,0,0,0h-2c-1.1,0-2,0.9-2,2s0.9,2,2,2h2C26.1,4,27,3.1,27,2z"/>
		<path  stroke-width="param(outline-width) "  stroke-opacity="param(outline-opacity) "  stroke="param(outline) "  fill-opacity="param(fill-opacity) "  fill="param(fill) " class="st0" d="M41,25.1L41,25.1l0-1.6c0-1.4-1.1-2.5-2.5-2.5h-5c-1.4,0-2.5,1.1-2.5,2.5v1.6h0c-6,2.8-8.7,9.9-5.9,15.9
			S35,49.7,41,46.9c6-2.8,8.7-9.9,5.9-15.9C45.7,28.4,43.6,26.3,41,25.1z M36,43c-3.9,0-7-3.1-7-7s3.1-7,7-7s7,3.1,7,7
			C43,39.9,39.9,43,36,43z"/>
	</g>
</g>
</svg>
