<?xml version="1.0" encoding="utf-8"?>
<!-- Generator: Adobe Illustrator 25.0.0, SVG Export Plug-In . SVG Version: 6.00 Build 0)  -->
<svg version="1.1" id="Layer_1" xmlns="http://www.w3.org/2000/svg" xmlns:xlink="http://www.w3.org/1999/xlink" x="0px" y="0px"
	 viewBox="0 0 34 42" style="enable-background:new 0 0 34 42;" xml:space="preserve">
<style type="text/css">
	.st0{fill:#011E41;}
</style>
<g id="Layer_2_1_">
	<g id="Icons">
		<path  stroke-width="param(outline-width) "  stroke-opacity="param(outline-opacity) "  stroke="param(outline) "  fill-opacity="param(fill-opacity) "  fill="param(fill) " class="st0" d="M33,0h-4v8l-3-1l-3,1V0H0v42h33c0.5,0,1-0.4,1-1V0.9C34,0.4,33.5,0,33,0z M6,38.5C6,38.8,5.8,39,5.5,39
			c0,0,0,0,0,0h-2C3.2,39,3,38.8,3,38.5c0,0,0,0,0,0v-35C3,3.2,3.2,3,3.5,3c0,0,0,0,0,0h2C5.8,3,6,3.2,6,3.5c0,0,0,0,0,0V38.5z
			 M25.5,23h-13c-0.8,0-1.5-0.7-1.5-1.5s0.7-1.5,1.5-1.5h13c0.8,0,1.5,0.7,1.5,1.5S26.3,23,25.5,23z M25.5,17h-13
			c-0.8,0-1.5-0.7-1.5-1.5c0-0.8,0.7-1.5,1.5-1.5h13c0.8,0,1.5,0.7,1.5,1.5C27,16.3,26.3,17,25.5,17z"/>
	</g>
</g>
</svg>
