<?xml version="1.0" encoding="utf-8"?>
<!-- Generator: Adobe Illustrator 25.0.0, SVG Export Plug-In . SVG Version: 6.00 Build 0)  -->
<svg version="1.1" id="Layer_1" xmlns="http://www.w3.org/2000/svg" xmlns:xlink="http://www.w3.org/1999/xlink" x="0px" y="0px"
	 viewBox="0 0 35 48" style="enable-background:new 0 0 35 48;" xml:space="preserve">
<style type="text/css">
	.st0{fill:#011E41;}
</style>
<path  stroke-width="param(outline-width) "  stroke-opacity="param(outline-opacity) "  stroke="param(outline) "  fill-opacity="param(fill-opacity) "  fill="param(fill) " class="st0" d="M20.4,19h-5.8c-2.5,0.1-4.5-1.9-4.6-4.4c-0.1-2.5,1.9-4.5,4.4-4.6c0.1,0,0.1,0,0.2,0H18c2.8,0,5-2.2,5-5
	s-2.2-5-5-5h-3.4C6.6-0.1,0.1,6.4,0,14.4S6.4,28.9,14.4,29c0.1,0,0.1,0,0.2,0h5.8c2.5-0.1,4.5,1.9,4.6,4.4s-1.9,4.5-4.4,4.6
	c-0.1,0-0.1,0-0.2,0H14c-2.8,0-5,2.2-5,5s2.2,5,5,5h6.4c8,0.1,14.5-6.4,14.6-14.4c0.1-8-6.4-14.5-14.4-14.6C20.5,19,20.5,19,20.4,19
	z M16.5,2C17.3,2,18,2.7,18,3.5S17.3,5,16.5,5C15.7,5,15,4.3,15,3.5C15,2.7,15.7,2,16.5,2C16.5,2,16.5,2,16.5,2z"/>
</svg>
