<?xml version="1.0" encoding="utf-8"?>
<!-- Generator: Adobe Illustrator 25.0.0, SVG Export Plug-In . SVG Version: 6.00 Build 0)  -->
<svg version="1.1" id="Layer_1" xmlns="http://www.w3.org/2000/svg" xmlns:xlink="http://www.w3.org/1999/xlink" x="0px" y="0px"
	 viewBox="0 0 42 48" style="enable-background:new 0 0 42 48;" xml:space="preserve">
<style type="text/css">
	.st0{fill:#011E41;}
</style>
<g id="Layer_2_1_">
	<g id="Icons">
		<path  stroke-width="param(outline-width) "  stroke-opacity="param(outline-opacity) "  stroke="param(outline) "  fill-opacity="param(fill-opacity) "  fill="param(fill) " class="st0" d="M5,21h1v-3c0-2.8-2.2-5-5-5H0v3C0,18.8,2.2,21,5,21z"/>
		<path  stroke-width="param(outline-width) "  stroke-opacity="param(outline-opacity) "  stroke="param(outline) "  fill-opacity="param(fill-opacity) "  fill="param(fill) " class="st0" d="M5,30h1v-3c0-2.8-2.2-5-5-5H0v3C0,27.8,2.2,30,5,30z"/>
		<path  stroke-width="param(outline-width) "  stroke-opacity="param(outline-opacity) "  stroke="param(outline) "  fill-opacity="param(fill-opacity) "  fill="param(fill) " class="st0" d="M6,36c0-2.8-2.2-5-5-5H0v3c0,2.8,2.2,5,5,5h1V36z"/>
		<path  stroke-width="param(outline-width) "  stroke-opacity="param(outline-opacity) "  stroke="param(outline) "  fill-opacity="param(fill-opacity) "  fill="param(fill) " class="st0" d="M9,18v3h1c2.8,0,5-2.2,5-5v-3h-1C11.2,13,9,15.2,9,18z"/>
		<path  stroke-width="param(outline-width) "  stroke-opacity="param(outline-opacity) "  stroke="param(outline) "  fill-opacity="param(fill-opacity) "  fill="param(fill) " class="st0" d="M9,27v3h1c2.8,0,5-2.2,5-5v-3h-1C11.2,22,9,24.2,9,27z"/>
		<path  stroke-width="param(outline-width) "  stroke-opacity="param(outline-opacity) "  stroke="param(outline) "  fill-opacity="param(fill-opacity) "  fill="param(fill) " class="st0" d="M9,36v3h1c2.8,0,5-2.2,5-5v-3h-1C11.2,31,9,33.2,9,36z"/>
		<path  stroke-width="param(outline-width) "  stroke-opacity="param(outline-opacity) "  stroke="param(outline) "  fill-opacity="param(fill-opacity) "  fill="param(fill) " class="st0" d="M6,46.5C6,47.3,6.7,48,7.5,48S9,47.3,9,46.5V41H6V46.5z"/>
		<path  stroke-width="param(outline-width) "  stroke-opacity="param(outline-opacity) "  stroke="param(outline) "  fill-opacity="param(fill-opacity) "  fill="param(fill) " class="st0" d="M1.5,11C2.3,11,3,10.3,3,9.5v-4C3,4.7,2.3,4,1.5,4S0,4.7,0,5.5v4C0,10.3,0.7,11,1.5,11z"/>
		<path  stroke-width="param(outline-width) "  stroke-opacity="param(outline-opacity) "  stroke="param(outline) "  fill-opacity="param(fill-opacity) "  fill="param(fill) " class="st0" d="M13.5,4C12.7,4,12,4.7,12,5.5v4c0,0.8,0.7,1.5,1.5,1.5S15,10.3,15,9.5v-4C15,4.7,14.3,4,13.5,4z"/>
		<path  stroke-width="param(outline-width) "  stroke-opacity="param(outline-opacity) "  stroke="param(outline) "  fill-opacity="param(fill-opacity) "  fill="param(fill) " class="st0" d="M7.5,14C8.3,14,9,13.3,9,12.5v-11C9,0.7,8.3,0,7.5,0S6,0.7,6,1.5v11C6,13.3,6.7,14,7.5,14z"/>
		<path  stroke-width="param(outline-width) "  stroke-opacity="param(outline-opacity) "  stroke="param(outline) "  fill-opacity="param(fill-opacity) "  fill="param(fill) " class="st0" d="M28.3,21.2l1,0.3l0.8-2.9c0.7-2.7-0.9-5.4-3.5-6.1l-1-0.3l-0.8,2.9C24,17.8,25.6,20.5,28.3,21.2
			C28.3,21.2,28.3,21.2,28.3,21.2z"/>
		<path  stroke-width="param(outline-width) "  stroke-opacity="param(outline-opacity) "  stroke="param(outline) "  fill-opacity="param(fill-opacity) "  fill="param(fill) " class="st0" d="M25.9,29.9l1,0.3l0.8-2.9c0.7-2.7-0.9-5.4-3.5-6.1c0,0,0,0,0,0l-1-0.3l-0.8,2.9
			C21.7,26.5,23.3,29.2,25.9,29.9C25.9,29.9,25.9,29.9,25.9,29.9z"/>
		<path  stroke-width="param(outline-width) "  stroke-opacity="param(outline-opacity) "  stroke="param(outline) "  fill-opacity="param(fill-opacity) "  fill="param(fill) " class="st0" d="M24.6,38.9l0.8-2.9c0.7-2.7-0.9-5.4-3.5-6.1c0,0,0,0,0,0l-1-0.3l-0.8,2.9c-0.7,2.7,0.9,5.4,3.5,6.1
			c0,0,0,0,0,0L24.6,38.9z"/>
		<path  stroke-width="param(outline-width) "  stroke-opacity="param(outline-opacity) "  stroke="param(outline) "  fill-opacity="param(fill-opacity) "  fill="param(fill) " class="st0" d="M32.9,19.4l-0.8,2.9l1,0.3c2.7,0.7,5.4-0.9,6.1-3.5l0.8-2.9l-1-0.3C36.4,15.1,33.6,16.7,32.9,19.4
			C32.9,19.4,32.9,19.4,32.9,19.4z"/>
		<path  stroke-width="param(outline-width) "  stroke-opacity="param(outline-opacity) "  stroke="param(outline) "  fill-opacity="param(fill-opacity) "  fill="param(fill) " class="st0" d="M30.6,28.1L29.8,31l1,0.3c2.7,0.7,5.4-0.9,6.1-3.5l0.8-2.9l-1-0.3C34,23.8,31.3,25.4,30.6,28.1
			C30.6,28.1,30.6,28.1,30.6,28.1z"/>
		<path  stroke-width="param(outline-width) "  stroke-opacity="param(outline-opacity) "  stroke="param(outline) "  fill-opacity="param(fill-opacity) "  fill="param(fill) " class="st0" d="M28.3,36.7l-0.8,2.9l1,0.3c2.7,0.7,5.4-0.9,6.1-3.5c0,0,0,0,0,0l0.8-2.9l-1-0.3C31.7,32.5,29,34.1,28.3,36.7z
			"/>
		<path  stroke-width="param(outline-width) "  stroke-opacity="param(outline-opacity) "  stroke="param(outline) "  fill-opacity="param(fill-opacity) "  fill="param(fill) " class="st0" d="M22.6,46.1c-0.2,0.8,0.3,1.6,1.1,1.8c0.8,0.2,1.6-0.3,1.8-1.1l1.4-5.3l-2.9-0.8L22.6,46.1z"/>
		<path  stroke-width="param(outline-width) "  stroke-opacity="param(outline-opacity) "  stroke="param(outline) "  fill-opacity="param(fill-opacity) "  fill="param(fill) " class="st0" d="M27.5,10.7c0.8,0.2,1.6-0.3,1.8-1.1c0,0,0,0,0,0l1-3.9c0.2-0.8-0.3-1.6-1.1-1.8s-1.6,0.3-1.8,1.1c0,0,0,0,0,0
			l-1,3.9C26.2,9.6,26.7,10.4,27.5,10.7z"/>
		<path  stroke-width="param(outline-width) "  stroke-opacity="param(outline-opacity) "  stroke="param(outline) "  fill-opacity="param(fill-opacity) "  fill="param(fill) " class="st0" d="M40.9,7c-0.8-0.2-1.6,0.3-1.8,1.1l-1,3.9c-0.2,0.8,0.3,1.6,1.1,1.8c0.8,0.2,1.6-0.3,1.8-1.1l1-3.9
			C42.2,8,41.7,7.2,40.9,7C40.9,7,40.9,7,40.9,7z"/>
		<path  stroke-width="param(outline-width) "  stroke-opacity="param(outline-opacity) "  stroke="param(outline) "  fill-opacity="param(fill-opacity) "  fill="param(fill) " class="st0" d="M32.5,15.1c0.8,0.2,1.6-0.3,1.8-1.1c0,0,0,0,0,0l2.8-10.6c0.2-0.8-0.3-1.6-1.1-1.8c-0.8-0.2-1.6,0.3-1.8,1.1
			c0,0,0,0,0,0l-2.8,10.6C31.2,14.1,31.7,14.9,32.5,15.1z"/>
	</g>
</g>
</svg>
