<?xml version="1.0" encoding="utf-8"?>
<!-- Generator: Adobe Illustrator 25.0.0, SVG Export Plug-In . SVG Version: 6.00 Build 0)  -->
<svg version="1.1" id="Layer_1" xmlns="http://www.w3.org/2000/svg" xmlns:xlink="http://www.w3.org/1999/xlink" x="0px" y="0px"
	 viewBox="0 0 48 37" style="enable-background:new 0 0 48 37;" xml:space="preserve">
<style type="text/css">
	.st0{fill:#011E41;}
</style>
<g id="Layer_2_1_">
	<g id="Expanded_Icons">
		<path  stroke-width="param(outline-width) "  stroke-opacity="param(outline-opacity) "  stroke="param(outline) "  fill-opacity="param(fill-opacity) "  fill="param(fill) " class="st0" d="M46,20h-5v-5h5c1.1,0,2-0.9,2-2s-0.9-2-2-2h-5.3L30.3,2.1c-3.2-2.8-7.9-2.8-11.2,0L8.7,11H2c-1.1,0-2,0.9-2,2
			s0.9,2,2,2h6v5H2c-1.1,0-2,0.9-2,2s0.9,2,2,2h6.4c1.9,8.9,10.7,14.5,19.6,12.6c6.3-1.4,11.3-6.3,12.6-12.6H46c1.1,0,2-0.9,2-2
			S47.1,20,46,20z"/>
	</g>
</g>
</svg>
