<?xml version="1.0" encoding="utf-8"?>
<!-- Generator: Adobe Illustrator 25.0.0, SVG Export Plug-In . SVG Version: 6.00 Build 0)  -->
<svg version="1.1" id="Layer_1" xmlns="http://www.w3.org/2000/svg" xmlns:xlink="http://www.w3.org/1999/xlink" x="0px" y="0px"
	 viewBox="0 0 46 46" style="enable-background:new 0 0 46 46;" xml:space="preserve">
<style type="text/css">
	.st0{fill:#011E41;}
</style>
<g id="Layer_2_1_">
	<g id="Icons">
		<path  stroke-width="param(outline-width) "  stroke-opacity="param(outline-opacity) "  stroke="param(outline) "  fill-opacity="param(fill-opacity) "  fill="param(fill) " class="st0" d="M28.7,23L44.8,6.8c1.6-1.6,1.6-4.1,0-5.7c-1.6-1.6-4.1-1.6-5.6,0L23,17.3L6.8,1.2c-1.6-1.6-4.1-1.6-5.7,0
			c-1.6,1.6-1.6,4.1,0,5.6L17.3,23L1.2,39.2c-1.6,1.6-1.6,4.1,0,5.7c1.6,1.6,4.1,1.6,5.6,0L23,28.7l16.2,16.2c1.6,1.6,4.1,1.6,5.7,0
			c1.6-1.6,1.6-4.1,0-5.6L28.7,23z"/>
	</g>
</g>
</svg>
