<?xml version="1.0" encoding="utf-8"?>
<!-- Generator: Adobe Illustrator 25.0.0, SVG Export Plug-In . SVG Version: 6.00 Build 0)  -->
<svg version="1.1" id="Layer_1" xmlns="http://www.w3.org/2000/svg" xmlns:xlink="http://www.w3.org/1999/xlink" x="0px" y="0px"
	 viewBox="0 0 48 44" style="enable-background:new 0 0 48 44;" xml:space="preserve">
<style type="text/css">
	.st0{fill:#011E41;}
</style>
<g id="Layer_2_1_">
	<g id="Icons">
		<path  stroke-width="param(outline-width) "  stroke-opacity="param(outline-opacity) "  stroke="param(outline) "  fill-opacity="param(fill-opacity) "  fill="param(fill) " class="st0" d="M46,0H2C0.9,0,0,0.9,0,2v42h10V21C10,13.3,16.3,7,24,7c7.7,0,14,6.3,14,14v23h10V2C48,0.9,47.1,0,46,0z"/>
		<path  stroke-width="param(outline-width) "  stroke-opacity="param(outline-opacity) "  stroke="param(outline) "  fill-opacity="param(fill-opacity) "  fill="param(fill) " class="st0" d="M32,33v-4c0-1.7-1.3-3-3-3c0,0,0,0,0,0H19c-1.7,0-3,1.3-3,3c0,0,0,0,0,0v4c-1.7,0-3,1.3-3,3v2
			c0,1.7,1.3,3,3,3c0,0,0,0,0,0v1c0,1.1,0.9,2,2,2s2-0.9,2-2v-1h8v1c0,1.1,0.9,2,2,2s2-0.9,2-2v-1c1.7,0,3-1.3,3-3c0,0,0,0,0,0v-2
			C35,34.3,33.7,33,32,33z M19,30c0-0.6,0.4-1,1-1h8c0.6,0,1,0.4,1,1v3H19V30z M17.5,35c0.8,0,1.5,0.7,1.5,1.5S18.3,38,17.5,38
			S16,37.3,16,36.5C16,35.7,16.7,35,17.5,35C17.5,35,17.5,35,17.5,35z M30.5,38c-0.8,0-1.5-0.7-1.5-1.5s0.7-1.5,1.5-1.5
			s1.5,0.7,1.5,1.5C32,37.3,31.3,38,30.5,38C30.5,38,30.5,38,30.5,38z"/>
	</g>
</g>
</svg>
