<?xml version="1.0" encoding="utf-8"?>
<!-- Generator: Adobe Illustrator 25.0.0, SVG Export Plug-In . SVG Version: 6.00 Build 0)  -->
<svg version="1.1" id="Layer_1" xmlns="http://www.w3.org/2000/svg" xmlns:xlink="http://www.w3.org/1999/xlink" x="0px" y="0px"
	 viewBox="0 0 32 44" style="enable-background:new 0 0 32 44;" xml:space="preserve">
<style type="text/css">
	.st0{fill:#011E41;}
</style>
<g id="Layer_2_1_">
	<g id="Icons">
		<path  stroke-width="param(outline-width) "  stroke-opacity="param(outline-opacity) "  stroke="param(outline) "  fill-opacity="param(fill-opacity) "  fill="param(fill) " class="st0" d="M16,17c2.2,0,4-1.8,4-4c0,0,0,0,0,0c0-1.9-3-5.8-3.8-6.9C16.1,6,16,6,15.9,6c0,0-0.1,0-0.1,0.1
			C15,7.2,12,11.1,12,13C12,15.2,13.8,17,16,17C16,17,16,17,16,17z"/>
		<path  stroke-width="param(outline-width) "  stroke-opacity="param(outline-opacity) "  stroke="param(outline) "  fill-opacity="param(fill-opacity) "  fill="param(fill) " class="st0" d="M31,0H1C0.5,0,0,0.4,0,0.9C0,0.9,0,1,0,1l3.7,40.5c0.2,1.5,1.5,2.6,3,2.5h18.6c1.5,0.1,2.8-1,3-2.5L32,1
			C32,0.5,31.6,0,31,0C31,0,31,0,31,0z M26.2,20.2c-0.9-0.2-1.7-0.2-2.6-0.2c-1.8,0-3.7,0.4-5.3,1.2c-1.1,0.6-2.4,0.9-3.7,0.8
			c-1.3,0-2.5-0.2-3.7-0.8C9.3,20.4,7.6,20,5.8,20L4.3,4h23.4L26.2,20.2z"/>
	</g>
</g>
</svg>
