<?xml version="1.0" encoding="utf-8"?>
<!-- Generator: Adobe Illustrator 25.0.0, SVG Export Plug-In . SVG Version: 6.00 Build 0)  -->
<svg version="1.1" id="Layer_1" xmlns="http://www.w3.org/2000/svg" xmlns:xlink="http://www.w3.org/1999/xlink" x="0px" y="0px"
	 viewBox="0 0 34 48" style="enable-background:new 0 0 34 48;" xml:space="preserve">
<style type="text/css">
	.st0{fill:#011E41;}
</style>
<g id="Layer_2_1_">
	<g id="Icons">
		<path  stroke-width="param(outline-width) "  stroke-opacity="param(outline-opacity) "  stroke="param(outline) "  fill-opacity="param(fill-opacity) "  fill="param(fill) " class="st0" d="M27.8,41c-0.4,0-0.8,0.3-0.8,0.8V48l7-7H27.8z"/>
		<path  stroke-width="param(outline-width) "  stroke-opacity="param(outline-opacity) "  stroke="param(outline) "  fill-opacity="param(fill-opacity) "  fill="param(fill) " class="st0" d="M25,10V1c0-0.6-0.4-1-1-1H1C0.4,0,0,0.4,0,1v33c0,0.6,0.4,1,1,1h5V14c0-2.2,1.8-4,4-4c0,0,0,0,0,0H25z"/>
		<path  stroke-width="param(outline-width) "  stroke-opacity="param(outline-opacity) "  stroke="param(outline) "  fill-opacity="param(fill-opacity) "  fill="param(fill) " class="st0" d="M33,13H10c-0.6,0-1,0.4-1,1v33c0,0.6,0.4,1,1,1h15v-6.2c0-1.5,1.2-2.8,2.8-2.8H34V14C34,13.4,33.6,13,33,13z
			 M29,35H14c-0.6,0-1-0.4-1-1s0.4-1,1-1h15c0.6,0,1,0.4,1,1S29.6,35,29,35z M29,29H14c-0.6,0-1-0.4-1-1s0.4-1,1-1h15
			c0.6,0,1,0.4,1,1S29.6,29,29,29z M29,23H14c-0.6,0-1-0.4-1-1s0.4-1,1-1h15c0.6,0,1,0.4,1,1S29.6,23,29,23z"/>
	</g>
</g>
</svg>
