<?xml version="1.0" encoding="utf-8"?>
<!-- Generator: Adobe Illustrator 25.0.0, SVG Export Plug-In . SVG Version: 6.00 Build 0)  -->
<svg version="1.1" id="Layer_1" xmlns="http://www.w3.org/2000/svg" xmlns:xlink="http://www.w3.org/1999/xlink" x="0px" y="0px"
	 viewBox="0 0 47.9 48" style="enable-background:new 0 0 47.9 48;" xml:space="preserve">
<style type="text/css">
	.st0{fill:#011E41;}
</style>
<g id="Layer_2_1_">
	<g id="Expanded_Icons">
		<path  stroke-width="param(outline-width) "  stroke-opacity="param(outline-opacity) "  stroke="param(outline) "  fill-opacity="param(fill-opacity) "  fill="param(fill) " class="st0" d="M45.9,48H16.1c-1.1,0-2-0.9-2-2c0-0.4,0.1-0.7,0.3-1L27,23.2V22h3c0.6,0,1-0.4,1-1s-0.4-1-1-1h-3v-3h3
			c0.6,0,1-0.4,1-1c0-0.6-0.4-1-1-1h-3v-3h3c0.6,0,1-0.4,1-1s-0.4-1-1-1h-3V8l-1.9-1.9C25.1,6.1,25,5.9,25,5.8V4.5
			C25,4.2,25.2,4,25.5,4c0,0,0,0,0,0h11C36.8,4,37,4.2,37,4.5c0,0,0,0,0,0v1.3c0,0.1-0.1,0.3-0.1,0.4L35,8v15.2L47.6,45
			c0.6,1,0.2,2.2-0.7,2.7C46.6,47.9,46.2,48,45.9,48z M11.5,0h-11C0.2,0,0,0.2,0,0.5c0,0,0,0,0,0v1.3c0,0.1,0.1,0.3,0.1,0.4L2,4v2h3
			c0.6,0,1,0.4,1,1S5.6,8,5,8H2v3h3c0.6,0,1,0.4,1,1s-0.4,1-1,1H2v3h3c0.6,0,1,0.4,1,1s-0.4,1-1,1H2v3h3c0.6,0,1,0.4,1,1s-0.4,1-1,1
			H2v3h3c0.6,0,1,0.4,1,1s-0.4,1-1,1H2v3h3c0.6,0,1,0.4,1,1s-0.4,1-1,1H2v3c0,2.2,1.8,4,4,4s4-1.8,4-4V4l1.9-1.9
			C11.9,2.1,12,1.9,12,1.8V0.5C12,0.2,11.8,0,11.5,0C11.5,0,11.5,0,11.5,0z"/>
	</g>
</g>
</svg>
