<?xml version="1.0" encoding="utf-8"?>
<!-- Generator: Adobe Illustrator 25.0.0, SVG Export Plug-In . SVG Version: 6.00 Build 0)  -->
<svg version="1.1" id="Layer_1" xmlns="http://www.w3.org/2000/svg" xmlns:xlink="http://www.w3.org/1999/xlink" x="0px" y="0px"
	 viewBox="0 0 20 48" style="enable-background:new 0 0 20 48;" xml:space="preserve">
<style type="text/css">
	.st0{fill:#011E41;}
</style>
<g id="Layer_2_1_">
	<g id="Icons">
		<path  stroke-width="param(outline-width) "  stroke-opacity="param(outline-opacity) "  stroke="param(outline) "  fill-opacity="param(fill-opacity) "  fill="param(fill) " class="st0" d="M18,14.1V2c0-1.1-0.9-2-2-2s-2,0.9-2,2v12H6v-2c0-0.6-0.4-1-1-1H3c-0.6,0-1,0.4-1,1v2.1
			c-1.2,0.3-2.1,1.5-2,2.8v11.3c0,0.9,0.4,1.8,1.1,2.3v14.4c0,1.7,1.4,3.1,3.1,3.1h11.7c1.7,0,3.1-1.4,3.1-3.1V30.4
			c0.6-0.6,1-1.4,1-2.2V16.8C20.1,15.6,19.2,14.4,18,14.1z M15,41.2c0,0.4-0.4,0.8-0.8,0.8H5.8C5.3,42,5,41.7,5,41.2v-4.5
			C5,36.3,5.3,36,5.8,36h8.5c0.4,0,0.8,0.3,0.8,0.8L15,41.2z M15,29H5c-0.6,0-1-0.4-1-1s0.4-1,1-1h10c0.6,0,1,0.4,1,1S15.6,29,15,29
			z M15,25H5c-0.6,0-1-0.4-1-1s0.4-1,1-1h10c0.6,0,1,0.4,1,1S15.6,25,15,25z M15,21H5c-0.6,0-1-0.4-1-1s0.4-1,1-1h10
			c0.6,0,1,0.4,1,1S15.6,21,15,21z"/>
	</g>
</g>
</svg>
