<?xml version="1.0" encoding="utf-8"?>
<!-- Generator: Adobe Illustrator 25.0.0, SVG Export Plug-In . SVG Version: 6.00 Build 0)  -->
<svg version="1.1" id="Layer_1" xmlns="http://www.w3.org/2000/svg" xmlns:xlink="http://www.w3.org/1999/xlink" x="0px" y="0px"
	 viewBox="0 0 48 41" style="enable-background:new 0 0 48 41;" xml:space="preserve">
<style type="text/css">
	.st0{fill:#011E41;}
</style>
<g id="Layer_2_1_">
	<g id="Expanded_Icons">
		<path  stroke-width="param(outline-width) "  stroke-opacity="param(outline-opacity) "  stroke="param(outline) "  fill-opacity="param(fill-opacity) "  fill="param(fill) " class="st0" d="M1.4,13L5.8,0.7C5.9,0.3,6.3,0,6.7,0h33.6c0.4,0,0.8,0.2,0.9,0.6L46.4,13H1.4z M0.7,15L0,17v2
			c0,2.2,1.8,4,4,4s4-1.8,4-4c0,2.2,1.8,4,4,4s4-1.8,4-4c0,2.2,1.8,4,4,4s4-1.8,4-4c0,2.2,1.8,4,4,4s4-1.8,4-4c0,2.2,1.8,4,4,4
			s4-1.8,4-4c0,2.2,1.8,4,4,4s4-1.8,4-4v-2l-0.8-2H0.7z M40,23.5c-2.3,2.1-5.7,2.1-8,0c-2.3,2.1-5.7,2.1-8,0c-2.3,2.1-5.7,2.1-8,0
			c-2.3,2.1-5.7,2.1-8,0c-1.1,1-2.5,1.5-4,1.5v16h4V31c0-1.1,0.9-2,2-2h4c1.1,0,2,0.9,2,2v10h28V25C42.5,25,41.1,24.5,40,23.5z"/>
	</g>
</g>
</svg>
