<?xml version="1.0" encoding="utf-8"?>
<!-- Generator: Adobe Illustrator 25.0.0, SVG Export Plug-In . SVG Version: 6.00 Build 0)  -->
<svg version="1.1" id="Layer_1" xmlns="http://www.w3.org/2000/svg" xmlns:xlink="http://www.w3.org/1999/xlink" x="0px" y="0px"
	 viewBox="0 0 44 44" style="enable-background:new 0 0 44 44;" xml:space="preserve">
<style type="text/css">
	.st0{fill:#011E41;}
</style>
<path  stroke-width="param(outline-width) "  stroke-opacity="param(outline-opacity) "  stroke="param(outline) "  fill-opacity="param(fill-opacity) "  fill="param(fill) " class="st0" d="M31.7,23L29,22.7c0-0.8-0.2-1.6-0.5-2.3l0.9-0.7c0.7-0.5,0.8-1.5,0.3-2.1s-1.5-0.8-2.1-0.3l-0.8,0.6
	c-0.6-0.6-1.3-1-2-1.4l0.2-1.9c0.1-0.8-0.5-1.6-1.3-1.7s-1.6,0.5-1.7,1.3L21.8,16c-1.1,0-2.2,0.3-3.2,0.9l-2-2.3
	c-0.5-0.6-1.5-0.7-2.1-0.2s-0.7,1.5-0.2,2.1l0,0l2,2.4c-0.5,0.7-0.9,1.5-1.1,2.3L13.7,21c-0.8-0.1-1.6,0.5-1.7,1.3
	c-0.1,0.8,0.5,1.6,1.3,1.7l0,0l1.8,0.2c0.1,0.8,0.4,1.5,0.7,2.1l-1.3,1c-0.7,0.5-0.8,1.5-0.3,2.1c0.5,0.7,1.4,0.8,2.1,0.3l1.4-1.1
	c0.7,0.5,1.5,0.9,2.4,1.1L20,31.3c-0.1,0.8,0.5,1.6,1.3,1.7l0,0c0.1,0,0.1,0,0.2,0c0.8,0,1.4-0.6,1.5-1.3l0.2-1.8
	c0.7-0.1,1.4-0.4,2.1-0.7l1.1,1.3c0.5,0.6,1.5,0.7,2.1,0.2s0.7-1.5,0.2-2.1l-1.1-1.3c0.4-0.5,0.7-1,0.9-1.6l2.9,0.3
	c0.1,0,0.1,0,0.2,0c0.8,0,1.5-0.7,1.5-1.5C33,23.7,32.4,23.1,31.7,23L31.7,23z M20,23c-1.1,0-2-0.9-2-2s0.9-2,2-2s2,0.9,2,2
	S21.1,23,20,23z M23.5,27c-0.8,0-1.5-0.7-1.5-1.5s0.7-1.5,1.5-1.5s1.5,0.7,1.5,1.5S24.3,27,23.5,27L23.5,27z"/>
<path  stroke-width="param(outline-width) "  stroke-opacity="param(outline-opacity) "  stroke="param(outline) "  fill-opacity="param(fill-opacity) "  fill="param(fill) " class="st0" d="M38,0H6C2.7,0,0,2.7,0,6v32c0,3.3,2.7,6,6,6h32c3.3,0,6-2.7,6-6V6C44,2.7,41.3,0,38,0z M40,38c0,1.1-0.9,2-2,2
	H6c-1.1,0-2-0.9-2-2V6c0-1.1,0.9-2,2-2h32c1.1,0,2,0.9,2,2V38z"/>
</svg>
