<?xml version="1.0" encoding="utf-8"?>
<!-- Generator: Adobe Illustrator 25.0.0, SVG Export Plug-In . SVG Version: 6.00 Build 0)  -->
<svg version="1.1" id="Layer_1" xmlns="http://www.w3.org/2000/svg" xmlns:xlink="http://www.w3.org/1999/xlink" x="0px" y="0px"
	 viewBox="0 0 48 32" style="enable-background:new 0 0 48 32;" xml:space="preserve">
<style type="text/css">
	.st0{fill:#011E41;}
</style>
<g id="Layer_2_1_">
	<g id="Icons">
		<path  stroke-width="param(outline-width) "  stroke-opacity="param(outline-opacity) "  stroke="param(outline) "  fill-opacity="param(fill-opacity) "  fill="param(fill) " class="st0" d="M24,26c-4.6,0-8.4-3.4-8.9-8H0v12c0,1.1,0.9,2,2,2h44c1.1,0,2-0.9,2-2V18H32.9C32.4,22.6,28.6,26,24,26z"/>
		<path  stroke-width="param(outline-width) "  stroke-opacity="param(outline-opacity) "  stroke="param(outline) "  fill-opacity="param(fill-opacity) "  fill="param(fill) " class="st0" d="M46,6H33V2c0-1.1-0.9-2-2-2H17c-1.1,0-2,0.9-2,2v4h-5V4c0-0.6-0.4-1-1-1H6C5.4,3,5,3.4,5,4v2H2
			C0.9,6,0,6.9,0,8v8h15.1c0.5-4.9,5-8.5,9.9-7.9c4.2,0.5,7.5,3.8,7.9,7.9H48V8C48,6.9,47.1,6,46,6z M42.5,12h-5
			c-0.8,0-1.5-0.7-1.5-1.5S36.7,9,37.5,9h5c0.8,0,1.5,0.7,1.5,1.5S43.3,12,42.5,12z"/>
		<path  stroke-width="param(outline-width) "  stroke-opacity="param(outline-opacity) "  stroke="param(outline) "  fill-opacity="param(fill-opacity) "  fill="param(fill) " class="st0" d="M24,24c3.2,0,6-2.1,6.8-5.2c0.3-1.2,0.3-2.4,0-3.5c-1-3.7-4.8-6-8.5-5c-2.5,0.6-4.4,2.6-5,5
			c-0.3,1.2-0.3,2.4,0,3.5C18,21.9,20.8,24,24,24z M20.1,16c0.6-2.1,2.7-3.4,4.9-2.9c1.4,0.4,2.5,1.5,2.9,2.9c0.2,0.7,0.2,1.3,0,2
			c-0.6,2.1-2.7,3.4-4.9,2.9c-1.4-0.4-2.5-1.5-2.9-2.9C20,17.3,20,16.7,20.1,16z"/>
	</g>
</g>
</svg>
