<?xml version="1.0" encoding="utf-8"?>
<!-- Generator: Adobe Illustrator 25.0.0, SVG Export Plug-In . SVG Version: 6.00 Build 0)  -->
<svg version="1.1" id="Layer_1" xmlns="http://www.w3.org/2000/svg" xmlns:xlink="http://www.w3.org/1999/xlink" x="0px" y="0px"
	 viewBox="0 0 48 48" style="enable-background:new 0 0 48 48;" xml:space="preserve">
<style type="text/css">
	.st0{fill:#011E41;}
</style>
<g id="Layer_2_1_">
	<g id="Icons">
		<path  stroke-width="param(outline-width) "  stroke-opacity="param(outline-opacity) "  stroke="param(outline) "  fill-opacity="param(fill-opacity) "  fill="param(fill) " class="st0" d="M46,36h-5v-6c0-1.1-0.9-2-2-2h-7c-1.1,0-2,0.9-2,2s0.9,2,2,2h5v4H27v-3c0-1.7-1.3-3-3-3s-3,1.3-3,3v3H11v-4h5
			c1.1,0,2-0.9,2-2s-0.9-2-2-2H9c-1.1,0-2,0.9-2,2v6H2c-1.1,0-2,0.9-2,2v8c0,1.1,0.9,2,2,2h44c1.1,0,2-0.9,2-2v-8
			C48,36.9,47.1,36,46,36z M26,43c0,1.1-0.9,2-2,2s-2-0.9-2-2v-2c0-1.1,0.9-2,2-2c1.1,0,2,0.9,2,2V43z"/>
		<path  stroke-width="param(outline-width) "  stroke-opacity="param(outline-opacity) "  stroke="param(outline) "  fill-opacity="param(fill-opacity) "  fill="param(fill) " class="st0" d="M12,18c0,1.1,0.9,2,2,2s2-0.9,2-2c0-1.7-0.4-3.4-1.2-4.9c-0.5-0.9-0.8-2-0.8-3.1c0-1.1,0.2-2.2,0.8-3.1
			C15.6,5.4,16,3.7,16,2c0-1.1-0.9-2-2-2s-2,0.9-2,2c0,1.1-0.2,2.2-0.8,3.1C10.4,6.6,10,8.3,10,10c0,1.7,0.4,3.4,1.2,4.9
			C11.8,15.8,12,16.9,12,18z"/>
		<path  stroke-width="param(outline-width) "  stroke-opacity="param(outline-opacity) "  stroke="param(outline) "  fill-opacity="param(fill-opacity) "  fill="param(fill) " class="st0" d="M34,18c0,1.1,0.9,2,2,2s2-0.9,2-2c0-1.7-0.4-3.4-1.2-4.9c-0.5-0.9-0.8-2-0.8-3.1c0-1.1,0.2-2.2,0.8-3.1
			C37.6,5.4,38,3.7,38,2c0-1.1-0.9-2-2-2s-2,0.9-2,2c0,1.1-0.2,2.2-0.8,3.1C32.4,6.6,32,8.3,32,10c0,1.7,0.4,3.4,1.2,4.9
			C33.8,15.8,34,16.9,34,18z"/>
		<path  stroke-width="param(outline-width) "  stroke-opacity="param(outline-opacity) "  stroke="param(outline) "  fill-opacity="param(fill-opacity) "  fill="param(fill) " class="st0" d="M23,18c0,1.1,0.9,2,2,2s2-0.9,2-2c0-1.7-0.4-3.4-1.2-4.9c-0.5-0.9-0.8-2-0.8-3.1c0-1.1,0.2-2.2,0.8-3.1
			C26.6,5.4,27,3.7,27,2c0-1.1-0.9-2-2-2s-2,0.9-2,2c0,1.1-0.2,2.2-0.8,3.1C21.4,6.6,21,8.3,21,10c0,1.7,0.4,3.4,1.2,4.9
			C22.8,15.8,23,16.9,23,18z"/>
	</g>
</g>
</svg>
