<?xml version="1.0" encoding="utf-8"?>
<!-- Generator: Adobe Illustrator 25.0.0, SVG Export Plug-In . SVG Version: 6.00 Build 0)  -->
<svg version="1.1" id="Layer_1" xmlns="http://www.w3.org/2000/svg" xmlns:xlink="http://www.w3.org/1999/xlink" x="0px" y="0px"
	 viewBox="0 0 44 32" style="enable-background:new 0 0 44 32;" xml:space="preserve">
<style type="text/css">
	.st0{fill:#011E41;}
</style>
<g id="Layer_2_1_">
	<g id="FINAL">
		<path  stroke-width="param(outline-width) "  stroke-opacity="param(outline-opacity) "  stroke="param(outline) "  fill-opacity="param(fill-opacity) "  fill="param(fill) " class="st0" d="M37,0.9V0l7,7h-6.2C37.3,7,37,6.7,37,6.2V0.9z M44,9v21c0,1.1-0.9,2-2,2H2c-1.1,0-2-0.9-2-2V2
			c0-1.1,0.9-2,2-2h33v6.2C35,7.8,36.2,9,37.8,9H44z M17,15c0-1.7-1.3-3-3-3h-3c-0.6,0-1,0.4-1,1c0,0,0,0,0,0v10c0,0.6,0.4,1,1,1
			s1-0.4,1-1v-4h2c1.7,0,3-1.3,3-3V15z M26,15c0-1.7-1.3-3-3-3h-3c-0.6,0-1,0.4-1,1c0,0,0,0,0,0v10c0,0.6,0.4,1,1,1c0,0,0,0,0,0h3
			c1.7,0,3-1.3,3-3V15z M35,13c0-0.6-0.4-1-1-1c0,0,0,0,0,0h-5c-0.6,0-1,0.4-1,1c0,0,0,0,0,0v10c0,0.6,0.4,1,1,1s1-0.4,1-1v-4h2
			c0.6,0,1-0.4,1-1s-0.4-1-1-1h-2v-3h4C34.6,14,35,13.6,35,13C35,13,35,13,35,13z M23,14h-2v8h2c0.6,0,1-0.4,1-1v-6
			C24,14.4,23.6,14,23,14z M14,14h-2v3h2c0.6,0,1-0.4,1-1v-1C15,14.4,14.6,14,14,14z"/>
	</g>
</g>
</svg>
