<?xml version="1.0" encoding="utf-8"?>
<!-- Generator: Adobe Illustrator 25.0.0, SVG Export Plug-In . SVG Version: 6.00 Build 0)  -->
<svg version="1.1" id="Layer_1" xmlns="http://www.w3.org/2000/svg" xmlns:xlink="http://www.w3.org/1999/xlink" x="0px" y="0px"
	 viewBox="0 0 48 45" style="enable-background:new 0 0 48 45;" xml:space="preserve">
<style type="text/css">
	.st0{fill:#011E41;}
</style>
<g id="Layer_2_1_">
	<g id="Icons">
		<path  stroke-width="param(outline-width) "  stroke-opacity="param(outline-opacity) "  stroke="param(outline) "  fill-opacity="param(fill-opacity) "  fill="param(fill) " class="st0" d="M38.5,5h-22l0,0H5.1l2.4-2.4C8.1,2,8.1,1,7.6,0.4S6-0.1,5.4,0.4l-5,5l0,0l0,0C0.3,5.6,0.2,5.7,0.1,5.9
			c0,0,0,0,0,0C0,6.1,0,6.3,0,6.5c0,0,0,0,0,0c0,0,0,0,0,0C0,6.7,0,6.9,0.1,7c0,0,0,0,0,0c0.1,0.2,0.2,0.3,0.3,0.5l0,0l0,0l5,5
			c0.6,0.6,1.5,0.6,2.1,0s0.6-1.5,0-2.1l0,0L5.1,8H13l0,0h25.5c3.6,0,6.5,2.9,6.5,6.5v3c0,0.8,0.7,1.5,1.5,1.5s1.5-0.7,1.5-1.5v-3
			C48,9.3,43.7,5,38.5,5z"/>
		<path  stroke-width="param(outline-width) "  stroke-opacity="param(outline-opacity) "  stroke="param(outline) "  fill-opacity="param(fill-opacity) "  fill="param(fill) " class="st0" d="M40,26.7L25,15.3c-0.6-0.4-1.4-0.4-2.1,0L8,26.7c-0.3,0.2-0.6,0.6-0.6,1L5,45h18v-9.7c0-0.3,0.4-0.4,0.6-0.1
			L29,45h14l-2.4-17.3C40.6,27.3,40.3,26.9,40,26.7z"/>
	</g>
</g>
</svg>
