<?xml version="1.0" encoding="utf-8"?>
<!-- Generator: Adobe Illustrator 25.0.0, SVG Export Plug-In . SVG Version: 6.00 Build 0)  -->
<svg version="1.1" id="Layer_1" xmlns="http://www.w3.org/2000/svg" xmlns:xlink="http://www.w3.org/1999/xlink" x="0px" y="0px"
	 viewBox="0 0 48 32" style="enable-background:new 0 0 48 32;" xml:space="preserve">
<style type="text/css">
	.st0{fill:#011E41;}
</style>
<g id="Layer_2_1_">
	<g id="Icons">
		<path  stroke-width="param(outline-width) "  stroke-opacity="param(outline-opacity) "  stroke="param(outline) "  fill-opacity="param(fill-opacity) "  fill="param(fill) " class="st0" d="M12.2,17.8c0.2-1.4,0.7-2.7,1.4-3.8c0.4-0.6,0.8-1.2,1.3-1.8c0.2-0.2,0.3-0.4,0.5-0.6c-1.6-1-3.5-1.6-5.4-1.6
			C4.5,10,0,14.5,0,20c0,3.6,1.9,6.9,5,8.6V30c0,1.1,0.9,2,2,2h6c1.1,0,2-0.9,2-2c0,0,0,0,0,0v-2.1c-0.5-0.6-1-1.2-1.4-1.9
			C12.2,23.5,11.7,20.6,12.2,17.8z M3,20c0-1.8,0.7-3.6,2-4.9v9.8C3.7,23.6,3,21.8,3,20z"/>
		<circle class="st0" cx="10" cy="4" r="4"/>
		<circle class="st0" cx="38" cy="4" r="4"/>
		<path  stroke-width="param(outline-width) "  stroke-opacity="param(outline-opacity) "  stroke="param(outline) "  fill-opacity="param(fill-opacity) "  fill="param(fill) " class="st0" d="M38,10c-1.9,0-3.8,0.6-5.4,1.6c0.2,0.2,0.4,0.4,0.5,0.6c0.5,0.6,0.9,1.1,1.3,1.8c2.1,3.7,2.1,8.3,0,12
			c-0.4,0.7-0.9,1.3-1.4,1.9V30c0,1.1,0.9,2,2,2h6c1.1,0,2-0.9,2-2v-1.4c4.8-2.8,6.4-8.9,3.6-13.7C44.9,11.9,41.6,10,38,10z
			 M43,24.9v-9.8C45.7,17.8,45.7,22.2,43,24.9z"/>
		<circle class="st0" cx="24" cy="4" r="4"/>
		<path  stroke-width="param(outline-width) "  stroke-opacity="param(outline-opacity) "  stroke="param(outline) "  fill-opacity="param(fill-opacity) "  fill="param(fill) " class="st0" d="M34,20c0-1.5-0.3-3-1-4.3c-0.1-0.1-0.1-0.3-0.2-0.4c-0.5-0.9-1.1-1.7-1.8-2.4C29.1,11,26.6,10,24,10
			c-0.6,0-1.3,0.1-1.9,0.2c-1.9,0.4-3.7,1.3-5.1,2.7c-0.7,0.7-1.3,1.5-1.8,2.4c-0.1,0.1-0.1,0.2-0.2,0.4c-0.4,0.8-0.7,1.7-0.8,2.5
			c-0.4,2.1-0.1,4.2,0.8,6.1c0.1,0.1,0.1,0.3,0.2,0.4c0.9,1.6,2.2,3,3.8,3.9v0.5c0,0,0,0.1,0,0.1s0,0,0,0.1V30c0,1.1,0.9,2,2,2h6
			c1.1,0,2-0.9,2-2v-0.7c0,0,0,0,0-0.1s0-0.1,0-0.1v-0.5c0.7-0.4,1.4-0.9,2-1.5c0.7-0.7,1.3-1.5,1.8-2.4c0.1-0.1,0.1-0.3,0.2-0.4
			C33.6,23,34,21.5,34,20z M19,24.9c-0.1-0.1-0.1-0.1-0.2-0.2c-1.1-1.2-1.7-2.7-1.8-4.3c0-0.2,0-0.5,0-0.7c0.1-1.6,0.7-3.2,1.8-4.4
			c0-0.1,0.1-0.1,0.2-0.2V24.9z M29.2,24.7c-0.1,0.1-0.1,0.1-0.2,0.2v-9.8c0.1,0.1,0.1,0.1,0.2,0.2c1.1,1.2,1.8,2.8,1.8,4.4
			c0,0.2,0,0.4,0,0.5C30.9,21.9,30.3,23.5,29.2,24.7z"/>
	</g>
</g>
</svg>
