<?xml version="1.0" encoding="utf-8"?>
<!-- Generator: Adobe Illustrator 25.0.0, SVG Export Plug-In . SVG Version: 6.00 Build 0)  -->
<svg version="1.1" id="Layer_1" xmlns="http://www.w3.org/2000/svg" xmlns:xlink="http://www.w3.org/1999/xlink" x="0px" y="0px"
	 viewBox="0 0 44 44" style="enable-background:new 0 0 44 44;" xml:space="preserve">
<style type="text/css">
	.st0{fill:#011E41;}
</style>
<g id="Layer_2_1_">
	<g id="Icons">
		<path  stroke-width="param(outline-width) "  stroke-opacity="param(outline-opacity) "  stroke="param(outline) "  fill-opacity="param(fill-opacity) "  fill="param(fill) " class="st0" d="M43,7h-1V3.1C42,1.4,40.6,0,38.9,0H5.1C3.4,0,2,1.4,2,3.1V7H1C0.4,7,0,7.4,0,8v12c0,0.6,0.4,1,1,1h1v15.9
			c0,1.7,1.3,3,3,3.1v1.5C5,42.9,6.1,44,7.5,44s2.5-1.1,2.5-2.5V40h25v1.5c0,1.4,1.1,2.5,2.5,2.5s2.5-1.1,2.5-2.5v-1.7
			c1.2-0.5,2-1.6,2-2.9V21h1c0.6,0,1-0.4,1-1V8C44,7.4,43.6,7,43,7z M5,4c0-0.6,0.4-1,1-1h32c0.6,0,1,0.4,1,1v1c0,0.6-0.4,1-1,1H6
			C5.4,6,5,5.6,5,5V4z M9,35.5C8.6,35.8,8,36,7.5,36C7,36,6.4,35.8,6,35.5c-1.1-0.8-1.3-2.4-0.5-3.5c0.8-1.1,2.4-1.3,3.5-0.5
			c1.1,0.8,1.3,2.4,0.5,3.5C9.4,35.2,9.2,35.4,9,35.5z M20,23c0,0.6-0.4,1-1,1H6c-0.6,0-1-0.4-1-1V11c0-0.6,0.4-1,1-1h13
			c0.6,0,1,0.4,1,1V23z M24,23V11c0-0.6,0.4-1,1-1h13c0.6,0,1,0.4,1,1v12c0,0.6-0.4,1-1,1H25C24.4,24,24,23.6,24,23z M39,35.5
			c-0.4,0.3-1,0.5-1.5,0.5c-0.5,0-1.1-0.2-1.5-0.5c-1.1-0.8-1.3-2.4-0.5-3.5c0.8-1.1,2.4-1.3,3.5-0.5c1.1,0.8,1.3,2.4,0.5,3.5
			C39.4,35.2,39.2,35.4,39,35.5z"/>
	</g>
</g>
</svg>
