<?xml version="1.0" encoding="utf-8"?>
<!-- Generator: Adobe Illustrator 25.0.0, SVG Export Plug-In . SVG Version: 6.00 Build 0)  -->
<svg version="1.1" id="Layer_1" xmlns="http://www.w3.org/2000/svg" xmlns:xlink="http://www.w3.org/1999/xlink" x="0px" y="0px"
	 viewBox="0 0 48 48" style="enable-background:new 0 0 48 48;" xml:space="preserve">
<style type="text/css">
	.st0{fill:#011E41;}
</style>
<g id="Layer_2_1_">
	<g id="Icons">
		<path  stroke-width="param(outline-width) "  stroke-opacity="param(outline-opacity) "  stroke="param(outline) "  fill-opacity="param(fill-opacity) "  fill="param(fill) " class="st0" d="M40.6,25.5c0.5-0.9,0.5-2,0-2.9c-5.4-9.2-17.1-12.3-26.3-6.9c-2.9,1.7-5.2,4-6.9,6.9c-0.5,0.9-0.5,2,0,2.9
			c5.4,9.2,17.1,12.3,26.3,6.9C36.6,30.7,38.9,28.3,40.6,25.5z M24,30c-3.3,0-6-2.7-6-6s2.7-6,6-6s6,2.7,6,6C30,27.3,27.3,30,24,30z
			"/>
		<path  stroke-width="param(outline-width) "  stroke-opacity="param(outline-opacity) "  stroke="param(outline) "  fill-opacity="param(fill-opacity) "  fill="param(fill) " class="st0" d="M36.5,13h10c0.8,0,1.5-0.7,1.5-1.5S47.3,10,46.5,10h-6.4l7.4-7.4c0.6-0.6,0.6-1.5,0-2.1
			c-0.6-0.6-1.5-0.6-2.1,0c0,0,0,0,0,0L38,7.9V1.5C38,0.7,37.3,0,36.5,0S35,0.7,35,1.5v10C35,12.3,35.7,13,36.5,13z"/>
		<path  stroke-width="param(outline-width) "  stroke-opacity="param(outline-opacity) "  stroke="param(outline) "  fill-opacity="param(fill-opacity) "  fill="param(fill) " class="st0" d="M0,11.5C0,12.3,0.7,13,1.5,13h10c0.8,0,1.5-0.7,1.5-1.5v-10C13,0.7,12.3,0,11.5,0S10,0.7,10,1.5v6.4L2.6,0.5
			C2-0.1,1.1-0.1,0.5,0.5s-0.6,1.5,0,2.1L7.9,10H1.5C0.7,10,0,10.7,0,11.5z"/>
		<path  stroke-width="param(outline-width) "  stroke-opacity="param(outline-opacity) "  stroke="param(outline) "  fill-opacity="param(fill-opacity) "  fill="param(fill) " class="st0" d="M48,36.5c0-0.8-0.7-1.5-1.5-1.5h-10c-0.8,0-1.5,0.7-1.5,1.5v10c0,0.8,0.7,1.5,1.5,1.5s1.5-0.7,1.5-1.5v-6.4
			l7.4,7.4c0.6,0.6,1.5,0.6,2.1,0c0.6-0.6,0.6-1.5,0-2.1l0,0L40.1,38h6.4C47.3,38,48,37.3,48,36.5z"/>
		<path  stroke-width="param(outline-width) "  stroke-opacity="param(outline-opacity) "  stroke="param(outline) "  fill-opacity="param(fill-opacity) "  fill="param(fill) " class="st0" d="M11.5,35h-10C0.7,35,0,35.7,0,36.5S0.7,38,1.5,38h6.4l-7.4,7.4c-0.6,0.6-0.6,1.5,0,2.1c0.6,0.6,1.5,0.6,2.1,0
			l0,0l7.4-7.4v6.4c0,0.8,0.7,1.5,1.5,1.5s1.5-0.7,1.5-1.5v-10C13,35.7,12.3,35,11.5,35z"/>
	</g>
</g>
</svg>
