<?xml version="1.0" encoding="utf-8"?>
<!-- Generator: Adobe Illustrator 25.0.0, SVG Export Plug-In . SVG Version: 6.00 Build 0)  -->
<svg version="1.1" id="Layer_1" xmlns="http://www.w3.org/2000/svg" xmlns:xlink="http://www.w3.org/1999/xlink" x="0px" y="0px"
	 viewBox="0 0 30 48" style="enable-background:new 0 0 30 48;" xml:space="preserve">
<style type="text/css">
	.st0{fill:#011E41;}
</style>
<g id="Layer_2_1_">
	<g id="Icons">
		<path  stroke-width="param(outline-width) "  stroke-opacity="param(outline-opacity) "  stroke="param(outline) "  fill-opacity="param(fill-opacity) "  fill="param(fill) " class="st0" d="M28,13c0-7.2-5.8-13-13-13S2,5.8,2,13L0,47c0,0.6,0.4,1,1,1h28c0.6,0,1-0.4,1-1L28,13z M22,7c1.1,0,2,0.9,2,2
			s-0.9,2-2,2s-2-0.9-2-2C20,7.9,20.9,7,22,7z M15,3c1.1,0,2,0.9,2,2s-0.9,2-2,2s-2-0.9-2-2C13,3.9,13.9,3,15,3z M8,7
			c1.1,0,2,0.9,2,2s-0.9,2-2,2s-2-0.9-2-2C6,7.9,6.9,7,8,7z M4,44l2-27h18l2,27H4z"/>
		<circle class="st0" cx="9" cy="40" r="2"/>
		<circle class="st0" cx="15" cy="40" r="2"/>
		<circle class="st0" cx="21" cy="40" r="2"/>
		<circle class="st0" cx="9" cy="34" r="2"/>
		<circle class="st0" cx="15" cy="34" r="2"/>
		<circle class="st0" cx="9" cy="28" r="2"/>
	</g>
</g>
</svg>
