<?xml version="1.0" encoding="utf-8"?>
<!-- Generator: Adobe Illustrator 25.0.0, SVG Export Plug-In . SVG Version: 6.00 Build 0)  -->
<svg version="1.1" id="Layer_1" xmlns="http://www.w3.org/2000/svg" xmlns:xlink="http://www.w3.org/1999/xlink" x="0px" y="0px"
	 viewBox="0 0 48 48" style="enable-background:new 0 0 48 48;" xml:space="preserve">
<style type="text/css">
	.st0{fill:#011E41;}
</style>
<g id="Layer_2_1_">
	<g id="Text">
		<path  stroke-width="param(outline-width) "  stroke-opacity="param(outline-opacity) "  stroke="param(outline) "  fill-opacity="param(fill-opacity) "  fill="param(fill) " class="st0" d="M46.7,1.3c-1.8-1.8-4.6-1.8-6.4,0C40,1.6,39.7,2,39.5,2.4c0.9,0.7,1.6,1.7,2,2.7c0.6,1.6,0.6,3.4-0.1,5
			L39,15.6v27.9c0,2.5,2,4.5,4.5,4.5s4.5-2,4.5-4.5v-39C48,3.3,47.5,2.2,46.7,1.3z"/>
		<path  stroke-width="param(outline-width) "  stroke-opacity="param(outline-opacity) "  stroke="param(outline) "  fill-opacity="param(fill-opacity) "  fill="param(fill) " class="st0" d="M39.6,9.3c1-2.3,0-4.9-2.3-5.9c-2.3-1-4.9,0-5.9,2.3l-0.5,1c2.3,2.1,2.8,5.6,1,8.1L18.7,34.2l-3.3,7.5
			c-1,2.3,0,4.9,2.3,5.9c0.6,0.2,1.2,0.4,1.8,0.4c1.8,0,3.4-1.1,4.1-2.7L39,10.7L39.6,9.3z"/>
		<path  stroke-width="param(outline-width) "  stroke-opacity="param(outline-opacity) "  stroke="param(outline) "  fill-opacity="param(fill-opacity) "  fill="param(fill) " class="st0" d="M20.1,28.6l3.1-4.6l7-10.2c1.3-1.9,0.9-4.4-0.9-5.8c-0.1-0.1-0.2-0.1-0.3-0.2c-0.2-0.1-0.4-0.2-0.6-0.3
			c-2-0.9-4.5-0.3-5.7,1.5L0.8,41C0.3,41.7,0,42.6,0,43.5C0,46,2,48,4.5,48c1.5,0,2.9-0.7,3.7-2L17,33.2L20.1,28.6z"/>
	</g>
</g>
</svg>
