<?xml version="1.0" encoding="utf-8"?>
<!-- Generator: Adobe Illustrator 25.0.0, SVG Export Plug-In . SVG Version: 6.00 Build 0)  -->
<svg version="1.1" id="Layer_1" xmlns="http://www.w3.org/2000/svg" xmlns:xlink="http://www.w3.org/1999/xlink" x="0px" y="0px"
	 viewBox="0 0 34 48" style="enable-background:new 0 0 34 48;" xml:space="preserve">
<style type="text/css">
	.st0{fill:#011E41;}
</style>
<g id="Layer_2_1_">
	<g id="Icons">
		<path  stroke-width="param(outline-width) "  stroke-opacity="param(outline-opacity) "  stroke="param(outline) "  fill-opacity="param(fill-opacity) "  fill="param(fill) " class="st0" d="M17.4,0.2c-0.2-0.2-0.5-0.3-0.8-0.1c0,0-0.1,0.1-0.1,0.1C13.9,3.6,0,21.9,0,30.6C-0.1,40.1,7.5,47.9,17,48
			c9.5-0.1,17.1-7.9,17-17.4C34,21.9,20.1,3.6,17.4,0.2z M21.5,41c-0.8,0-1.5-0.7-1.5-1.5s0.7-1.5,1.5-1.5c2.5,0,4.5-2.5,4.5-5.5
			c0-0.8,0.7-1.5,1.5-1.5s1.5,0.7,1.5,1.5C29,37.2,25.6,41,21.5,41z"/>
	</g>
</g>
</svg>
