<?xml version="1.0" encoding="utf-8"?>
<!-- Generator: Adobe Illustrator 25.0.0, SVG Export Plug-In . SVG Version: 6.00 Build 0)  -->
<svg version="1.1" id="Layer_1" xmlns="http://www.w3.org/2000/svg" xmlns:xlink="http://www.w3.org/1999/xlink" x="0px" y="0px"
	 viewBox="0 0 42 42" style="enable-background:new 0 0 42 42;" xml:space="preserve">
<style type="text/css">
	.st0{fill:#011E41;}
</style>
<g id="Layer_2_1_">
	<g id="Icons">
		<path  stroke-width="param(outline-width) "  stroke-opacity="param(outline-opacity) "  stroke="param(outline) "  fill-opacity="param(fill-opacity) "  fill="param(fill) " class="st0" d="M37,0h-4v10c0,0.6-0.4,1-1,1H6c-0.6,0-1-0.4-1-1V0H2C0.9,0,0,0.9,0,2v38c0,1.1,0.9,2,2,2h38c1.1,0,2-0.9,2-2
			V5L37,0z M37,36c0,0.6-0.4,1-1,1H6c-0.6,0-1-0.4-1-1V18c0-0.6,0.4-1,1-1h30c0.6,0,1,0.4,1,1V36z"/>
		<rect x="7" y="0" class="st0" width="24" height="9"/>
	</g>
</g>
</svg>
