<?xml version="1.0" encoding="utf-8"?>
<!-- Generator: Adobe Illustrator 25.0.0, SVG Export Plug-In . SVG Version: 6.00 Build 0)  -->
<svg version="1.1" id="Layer_1" xmlns="http://www.w3.org/2000/svg" xmlns:xlink="http://www.w3.org/1999/xlink" x="0px" y="0px"
	 viewBox="0 0 47.9 48" style="enable-background:new 0 0 47.9 48;" xml:space="preserve">
<style type="text/css">
	.st0{fill:#011E41;}
</style>
<g id="Layer_2_1_">
	<g id="Icons">
		<path  stroke-width="param(outline-width) "  stroke-opacity="param(outline-opacity) "  stroke="param(outline) "  fill-opacity="param(fill-opacity) "  fill="param(fill) " class="st0" d="M36.9,44h-11V7h10.3l-4.7,12c-0.3,0.8,0.1,1.6,0.8,1.9c0.8,0.3,1.6-0.1,1.9-0.8l4.1-10.5l4.1,10.5
			c0.3,0.8,1.2,1.1,1.9,0.8s1.1-1.2,0.8-1.9c0,0,0,0,0,0l-5.5-14c-0.2-0.6-0.8-1-1.4-1H25.9V2c0-1.1-0.9-2-2-2s-2,0.9-2,2v2H9.4
			C8.8,4,8.3,4.4,8,4.9L2.5,19c-0.3,0.8,0.1,1.6,0.8,1.9c0.8,0.3,1.6-0.1,1.9-0.8L9.4,9.6l4.1,10.5c0.3,0.8,1.2,1.1,1.9,0.8
			c0.8-0.3,1.1-1.2,0.8-1.9c0,0,0,0,0,0L11.6,7h10.3v37h-11c-1.1,0-2,0.9-2,2s0.9,2,2,2h26c1.1,0,2-0.9,2-2S38,44,36.9,44z"/>
		<path  stroke-width="param(outline-width) "  stroke-opacity="param(outline-opacity) "  stroke="param(outline) "  fill-opacity="param(fill-opacity) "  fill="param(fill) " class="st0" d="M18.9,24.3c0-0.1-0.1-0.3-0.2-0.3c0,0,0,0-0.1,0H0.3C0.1,24,0,24.1,0,24.3c0,0,0,0,0,0.1
			c1.2,5.2,6.5,8.4,11.7,7.2C15.2,30.6,18,27.9,18.9,24.3z"/>
		<path  stroke-width="param(outline-width) "  stroke-opacity="param(outline-opacity) "  stroke="param(outline) "  fill-opacity="param(fill-opacity) "  fill="param(fill) " class="st0" d="M47.6,24H29.3c-0.1,0-0.3,0.1-0.3,0.3c0,0,0,0,0,0.1c1.2,5.2,6.5,8.4,11.7,7.2c3.6-0.8,6.3-3.6,7.2-7.2
			C47.9,24.2,47.8,24,47.6,24C47.7,24,47.6,24,47.6,24z"/>
	</g>
</g>
</svg>
