<?xml version="1.0" encoding="utf-8"?>
<!-- Generator: Adobe Illustrator 25.0.0, SVG Export Plug-In . SVG Version: 6.00 Build 0)  -->
<svg version="1.1" id="Layer_1" xmlns="http://www.w3.org/2000/svg" xmlns:xlink="http://www.w3.org/1999/xlink" x="0px" y="0px"
	 viewBox="0 0 48 33" style="enable-background:new 0 0 48 33;" xml:space="preserve">
<style type="text/css">
	.st0{fill:#011E41;}
</style>
<g id="Layer_2_1_">
	<g id="Icons">
		<path  stroke-width="param(outline-width) "  stroke-opacity="param(outline-opacity) "  stroke="param(outline) "  fill-opacity="param(fill-opacity) "  fill="param(fill) " class="st0" d="M31.9,0.2L14.5,9.5c-0.4,0.2-0.6,0.6-0.6,1v12c0,0.4,0.2,0.8,0.6,1l17.4,9.2c1,0.5,2.3,0.1,2.8-1
			c0.2-0.3,0.2-0.7,0.2-1V2.2C35,1.1,34.1,0.1,33,0C32.6,0,32.3,0.1,31.9,0.2z"/>
		<path  stroke-width="param(outline-width) "  stroke-opacity="param(outline-opacity) "  stroke="param(outline) "  fill-opacity="param(fill-opacity) "  fill="param(fill) " class="st0" d="M11,10H3c-1.7,0-3,1.3-3,3v7c0,1.7,1.3,3,3,3h1v6.5C4,30.9,5.1,32,6.5,32S9,30.9,9,29.5V23h2c0.6,0,1-0.4,1-1
			V11C12,10.4,11.5,10,11,10z"/>
		<path  stroke-width="param(outline-width) "  stroke-opacity="param(outline-opacity) "  stroke="param(outline) "  fill-opacity="param(fill-opacity) "  fill="param(fill) " class="st0" d="M46.5,15h-7c-0.8,0-1.5,0.7-1.5,1.5s0.7,1.5,1.5,1.5h7c0.8,0,1.5-0.7,1.5-1.5S47.3,15,46.5,15z"/>
		<path  stroke-width="param(outline-width) "  stroke-opacity="param(outline-opacity) "  stroke="param(outline) "  fill-opacity="param(fill-opacity) "  fill="param(fill) " class="st0" d="M40.2,10.8l6.1-3.5c0.7-0.4,1-1.3,0.5-2c-0.4-0.7-1.3-1-2-0.5l0,0l-6.1,3.5c-0.7,0.4-1,1.3-0.5,2
			C38.5,11,39.4,11.2,40.2,10.8z"/>
		<path  stroke-width="param(outline-width) "  stroke-opacity="param(outline-opacity) "  stroke="param(outline) "  fill-opacity="param(fill-opacity) "  fill="param(fill) " class="st0" d="M46.2,25.7l-6.1-3.5c-0.7-0.4-1.6-0.2-2,0.5c-0.4,0.7-0.2,1.6,0.5,2l6.1,3.5c0.7,0.4,1.6,0.2,2-0.5
			C47.2,27,46.9,26.1,46.2,25.7z"/>
	</g>
</g>
</svg>
