<?xml version="1.0" encoding="utf-8"?>
<!-- Generator: Adobe Illustrator 25.0.0, SVG Export Plug-In . SVG Version: 6.00 Build 0)  -->
<svg version="1.1" id="Layer_1" xmlns="http://www.w3.org/2000/svg" xmlns:xlink="http://www.w3.org/1999/xlink" x="0px" y="0px"
	 viewBox="0 0 22 48" style="enable-background:new 0 0 22 48;" xml:space="preserve">
<style type="text/css">
	.st0{fill:#011E41;}
</style>
<g id="Layer_2_1_">
	<g id="Icons">
		<path  stroke-width="param(outline-width) "  stroke-opacity="param(outline-opacity) "  stroke="param(outline) "  fill-opacity="param(fill-opacity) "  fill="param(fill) " class="st0" d="M0,43v3.5C0,47.3,0.7,48,1.5,48S3,47.3,3,46.5V45h16v1.5c0,0.8,0.7,1.5,1.5,1.5s1.5-0.7,1.5-1.5V8H0V43z
			 M17,25c0-0.6,0.4-1,1-1s1,0.4,1,1v3c0,0.6-0.4,1-1,1s-1-0.4-1-1V25z"/>
		<path  stroke-width="param(outline-width) "  stroke-opacity="param(outline-opacity) "  stroke="param(outline) "  fill-opacity="param(fill-opacity) "  fill="param(fill) " class="st0" d="M16,0H6C2.7,0,0,2.7,0,6h22C22,2.7,19.3,0,16,0z"/>
	</g>
</g>
</svg>
