<?xml version="1.0" encoding="utf-8"?>
<!-- Generator: Adobe Illustrator 25.0.0, SVG Export Plug-In . SVG Version: 6.00 Build 0)  -->
<svg version="1.1" id="Layer_1" xmlns="http://www.w3.org/2000/svg" xmlns:xlink="http://www.w3.org/1999/xlink" x="0px" y="0px"
	 viewBox="0 0 48 48" style="enable-background:new 0 0 48 48;" xml:space="preserve">
<style type="text/css">
	.st0{fill:#011E41;}
</style>
<g id="Layer_2_1_">
	<g id="Icons">
		<path  stroke-width="param(outline-width) "  stroke-opacity="param(outline-opacity) "  stroke="param(outline) "  fill-opacity="param(fill-opacity) "  fill="param(fill) " class="st0" d="M48,23v-3c0-1.1-0.9-2-2-2s-2,0.9-2,2v3c0,1.1-0.9,2-2,2V11c0-1.1-0.9-2-2-2V0.5C40,0.2,39.8,0,39.5,0H37
			c-0.6,0-1,0.4-1,1s0.4,1,1,1v7.3c-0.6,0.4-1,1-1,1.7v6h-1c-1.1,0-2,0.9-2,2v15c0,1.1,0.9,2,2,2h1v10c0,1.1,0.9,2,2,2h4.4
			c1.1,0,2-0.9,2-2c0-0.2,0-0.3-0.1-0.5l-2.3-9.3c0-0.1,0-0.2,0-0.2h4c1.1,0,2-0.9,2-2s-0.9-2-2-2h-4v-3C45.3,29,48,26.3,48,23z"/>
		<path  stroke-width="param(outline-width) "  stroke-opacity="param(outline-opacity) "  stroke="param(outline) "  fill-opacity="param(fill-opacity) "  fill="param(fill) " class="st0" d="M13,13C5.6,13,0,18.2,0,25c0,1.1,0.9,2,2,2s2-0.9,2-2c0-2.8,1.5-5.4,4-6.7V46c0,1.1,0.9,2,2,2h0
			c1.1,0,2-0.9,2-2V32h2v14c0,1.1,0.9,2,2,2h0c1.1,0,2-0.9,2-2V18.3c2.5,1.3,4,3.9,4,6.7c0,1.1,0.9,2,2,2s2-0.9,2-2
			C26,18.2,20.4,13,13,13z"/>
		<circle class="st0" cx="13" cy="6" r="5"/>
	</g>
</g>
</svg>
