<?xml version="1.0" encoding="utf-8"?>
<!-- Generator: Adobe Illustrator 25.0.0, SVG Export Plug-In . SVG Version: 6.00 Build 0)  -->
<svg version="1.1" id="Layer_1" xmlns="http://www.w3.org/2000/svg" xmlns:xlink="http://www.w3.org/1999/xlink" x="0px" y="0px"
	 viewBox="0 0 42 48" style="enable-background:new 0 0 42 48;" xml:space="preserve">
<style type="text/css">
	.st0{fill:#011E41;}
</style>
<g id="Layer_2_1_">
	<g id="Icons">
		<path  stroke-width="param(outline-width) "  stroke-opacity="param(outline-opacity) "  stroke="param(outline) "  fill-opacity="param(fill-opacity) "  fill="param(fill) " class="st0" d="M5.4,17.6C5.4,17.6,5.4,17.6,5.4,17.6c0.1,0.1,0.3,0.2,0.5,0.3c0,0,0,0,0,0C6.1,18,6.3,18,6.5,18l0,0l0,0
			c0.2,0,0.4,0,0.5-0.1c0,0,0,0,0,0c0.2-0.1,0.3-0.2,0.5-0.3l0,0l0,0l5-5c0.6-0.6,0.6-1.5,0-2.1s-1.5-0.6-2.1,0L8,12.9V1.5
			C8,0.7,7.3,0,6.5,0S5,0.7,5,1.5v11.4l-2.4-2.4C2,9.9,1,9.9,0.4,10.4s-0.6,1.5,0,2.1L5.4,17.6L5.4,17.6z"/>
		<path  stroke-width="param(outline-width) "  stroke-opacity="param(outline-opacity) "  stroke="param(outline) "  fill-opacity="param(fill-opacity) "  fill="param(fill) " class="st0" d="M41.6,10.4c-0.6-0.6-1.5-0.6-2.1,0L37,12.9V1.5C37,0.7,36.3,0,35.5,0S34,0.7,34,1.5v11.4l-2.4-2.4
			c-0.6-0.6-1.5-0.6-2.1,0s-0.6,1.5,0,2.1l5,5l0,0c0,0,0,0,0,0c0.1,0.1,0.3,0.2,0.5,0.3c0,0,0,0,0,0c0.2,0.1,0.3,0.1,0.5,0.1l0,0
			l0,0c0.2,0,0.4,0,0.5-0.1c0,0,0,0,0,0c0.2-0.1,0.3-0.2,0.5-0.3l0,0l0,0l5-5C42.1,12,42.2,11,41.6,10.4
			C41.6,10.4,41.6,10.4,41.6,10.4z"/>
		<path  stroke-width="param(outline-width) "  stroke-opacity="param(outline-opacity) "  stroke="param(outline) "  fill-opacity="param(fill-opacity) "  fill="param(fill) " class="st0" d="M37,29.7L22,18.3c-0.6-0.4-1.4-0.4-2.1,0L5,29.7c-0.3,0.2-0.6,0.6-0.6,1L2,48h18v-9.7c0-0.3,0.4-0.4,0.6-0.1
			l5.5,9.9H40l-2.4-17.3C37.6,30.3,37.3,29.9,37,29.7z"/>
	</g>
</g>
</svg>
