<?xml version="1.0" encoding="utf-8"?>
<!-- Generator: Adobe Illustrator 25.0.0, SVG Export Plug-In . SVG Version: 6.00 Build 0)  -->
<svg version="1.1" id="Layer_1" xmlns="http://www.w3.org/2000/svg" xmlns:xlink="http://www.w3.org/1999/xlink" x="0px" y="0px"
	 viewBox="0 0 48 48" style="enable-background:new 0 0 48 48;" xml:space="preserve">
<style type="text/css">
	.st0{fill:#011E41;}
</style>
<g id="Layer_2_1_">
	<g id="Icons">
		<path  stroke-width="param(outline-width) "  stroke-opacity="param(outline-opacity) "  stroke="param(outline) "  fill-opacity="param(fill-opacity) "  fill="param(fill) " class="st0" d="M18,22c4.4,0,8-3.6,8-8c0-4-6.6-12.4-7.8-13.9C18.1,0,18,0,17.8,0.1c0,0,0,0,0,0C16.6,1.6,10,10,10,14
			C10,18.4,13.6,22,18,22z"/>
		<path  stroke-width="param(outline-width) "  stroke-opacity="param(outline-opacity) "  stroke="param(outline) "  fill-opacity="param(fill-opacity) "  fill="param(fill) " class="st0" d="M39,29H25.5c-1.9,0-3.5,1.6-3.5,3.5c0,1.9,1.6,3.5,3.5,3.5H31c1.1,0,2,0.9,2,2c0,1.1-0.9,2-2,2h-9
			c-0.6,0-1.2-0.2-1.6-0.6L6.8,26.2c-1.6-1.6-4.1-1.6-5.7,0C1,26.3,1,26.4,0.9,26.5c-1.3,1.7-1.1,4,0.4,5.5l15.2,14.9
			c0.8,0.7,1.8,1.2,2.8,1.2H39c5,0,9-4,9-9v-1C48,33,44,29,39,29z"/>
	</g>
</g>
</svg>
