<?xml version="1.0" encoding="utf-8"?>
<!-- Generator: Adobe Illustrator 25.0.0, SVG Export Plug-In . SVG Version: 6.00 Build 0)  -->
<svg version="1.1" id="Layer_1" xmlns="http://www.w3.org/2000/svg" xmlns:xlink="http://www.w3.org/1999/xlink" x="0px" y="0px"
	 viewBox="0 0 48 40" style="enable-background:new 0 0 48 40;" xml:space="preserve">
<style type="text/css">
	.st0{fill:#011E41;}
</style>
<g id="Layer_2_1_">
	<g id="Icons">
		<path  stroke-width="param(outline-width) "  stroke-opacity="param(outline-opacity) "  stroke="param(outline) "  fill-opacity="param(fill-opacity) "  fill="param(fill) " class="st0" d="M45,0h-7v33h5c1.1,0,2,0.9,2,2c0,1.1-0.9,2-2,2H3V8h32V5H0v35h45c1.7,0,3-1.3,3-3c0,0,0,0,0,0V3
			C48,1.3,46.7,0,45,0C45,0,45,0,45,0z"/>
		<path  stroke-width="param(outline-width) "  stroke-opacity="param(outline-opacity) "  stroke="param(outline) "  fill-opacity="param(fill-opacity) "  fill="param(fill) " class="st0" d="M14,34c0,0.6,0.4,1,1,1h1c0.6,0,1-0.4,1-1v-2h1c0.6,0,1-0.4,1-1v-4h1c0.6,0,1-0.4,1-1v-1c0-0.6-0.4-1-1-1h-5
			v-2c0.6,0,1-0.4,1-1v-1h1c0.6,0,1-0.4,1-1v-2h1c0.6,0,1-0.4,1-1v-1c0-0.6-0.4-1-1-1h-5v-2c0-0.6-0.4-1-1-1h-3c-0.6,0-1,0.4-1,1v2
			H7c-0.6,0-1,0.4-1,1v1c0,0.6,0.4,1,1,1h2v2c0,0.6,0.4,1,1,1h1v1c0,0.6,0.4,1,1,1v2h-1c-0.6,0-1,0.4-1,1v1c0,0.6,0.4,1,1,1h1v2
			c0,0.6,0.4,1,1,1h1V34z"/>
		<path  stroke-width="param(outline-width) "  stroke-opacity="param(outline-opacity) "  stroke="param(outline) "  fill-opacity="param(fill-opacity) "  fill="param(fill) " class="st0" d="M32,24h3V12h-9c-0.6,0-1,0.4-1,1v2c0,0.6,0.4,1,1,1h1v2h-3c-0.6,0-1,0.4-1,1v1c0,0.6,0.4,1,1,1h1v3h-1
			c-0.6,0-1,0.4-1,1v1c0,0.6,0.4,1,1,1h1v2c0,0.6,0.4,1,1,1h1v2c0,0.6,0.4,1,1,1h3c0.6,0,1-0.4,1-1v-3h1c0.6,0,1-0.4,1-1v-1
			c0-0.6-0.4-1-1-1h-1V24z"/>
	</g>
</g>
</svg>
