<?xml version="1.0" encoding="utf-8"?>
<!-- Generator: Adobe Illustrator 25.0.0, SVG Export Plug-In . SVG Version: 6.00 Build 0)  -->
<svg version="1.1" id="Layer_1" xmlns="http://www.w3.org/2000/svg" xmlns:xlink="http://www.w3.org/1999/xlink" x="0px" y="0px"
	 viewBox="0 0 36 48" style="enable-background:new 0 0 36 48;" xml:space="preserve">
<style type="text/css">
	.st0{fill:#011E41;}
</style>
<g id="Layer_2_1_">
	<g id="Icons">
		<path  stroke-width="param(outline-width) "  stroke-opacity="param(outline-opacity) "  stroke="param(outline) "  fill-opacity="param(fill-opacity) "  fill="param(fill) " class="st0" d="M7,10h22c0.6,0,1-0.4,1-1c0-0.3-0.2-0.7-0.5-0.8l-11-8c-0.3-0.2-0.7-0.2-1.1,0l-11,8C6,8.4,5.9,9.1,6.2,9.5
			C6.3,9.8,6.7,10,7,10z"/>
		<path  stroke-width="param(outline-width) "  stroke-opacity="param(outline-opacity) "  stroke="param(outline) "  fill-opacity="param(fill-opacity) "  fill="param(fill) " class="st0" d="M34,44h-3.7l-3.7-21h0.3c1.2,0,2.1-0.9,2.1-2.1c0,0,0,0,0,0V12H7v8.9C7,22.1,7.9,23,9.1,23c0,0,0,0,0,0h0.2
			L5.6,44H2c-0.5,0-1,0.2-1.4,0.6C0.2,45,0,45.5,0,46c0,1.1,0.9,2,2,2h32c1.1,0,2-0.9,2-2C36,44.9,35.1,44,34,44z M18,37.3l6.7,6.7
			H11.3L18,37.3z M10.5,39.1l1.4-7.9l3.3,3.3L10.5,39.1z M25.4,39.1l-4.6-4.6l3.2-3.2L25.4,39.1z M11.5,16h13c0.8,0,1.5,0.7,1.5,1.5
			S25.3,19,24.5,19h-13c-0.8,0-1.5-0.7-1.5-1.5S10.7,16,11.5,16z M22.6,23l0.6,3.5L18,31.7l-5.2-5.2l0.6-3.5L22.6,23z"/>
	</g>
</g>
</svg>
