<?xml version="1.0" encoding="utf-8"?>
<!-- Generator: Adobe Illustrator 25.0.0, SVG Export Plug-In . SVG Version: 6.00 Build 0)  -->
<svg version="1.1" id="Layer_1" xmlns="http://www.w3.org/2000/svg" xmlns:xlink="http://www.w3.org/1999/xlink" x="0px" y="0px"
	 viewBox="0 0 48 48" style="enable-background:new 0 0 48 48;" xml:space="preserve">
<style type="text/css">
	.st0{fill:#011E41;}
</style>
<g id="Layer_2_1_">
	<g id="Icons">
		<path  stroke-width="param(outline-width) "  stroke-opacity="param(outline-opacity) "  stroke="param(outline) "  fill-opacity="param(fill-opacity) "  fill="param(fill) " class="st0" d="M46.5,45h-45C0.7,45,0,45.7,0,46.5S0.7,48,1.5,48h45c0.8,0,1.5-0.7,1.5-1.5S47.3,45,46.5,45z"/>
		<path  stroke-width="param(outline-width) "  stroke-opacity="param(outline-opacity) "  stroke="param(outline) "  fill-opacity="param(fill-opacity) "  fill="param(fill) " class="st0" d="M5.5,43h37c0.8,0,1.5-0.7,1.5-1.5S43.3,40,42.5,40h-37C4.7,40,4,40.7,4,41.5S4.7,43,5.5,43z"/>
		<path  stroke-width="param(outline-width) "  stroke-opacity="param(outline-opacity) "  stroke="param(outline) "  fill-opacity="param(fill-opacity) "  fill="param(fill) " class="st0" d="M12.9,20.2c0.3,0.3,0.7,0.6,1.1,0.9V38h7V27.3c0-1.8,3-3.3,3-3.3s3,1.5,3,3.3V38h7V21.1
			c0.4-0.3,0.7-0.5,1.1-0.9l0,0c2.6-2.6,2.6-6.8,0-9.3L24.4,0.2c-0.2-0.2-0.6-0.2-0.9,0L12.9,10.9C10.3,13.4,10.3,17.6,12.9,20.2
			L12.9,20.2z M24,9c0.3,0,0.5,0,0.8,0.1c-1.9,0.4-3.1,2.2-2.7,4.1c0.3,1.6,1.8,2.8,3.4,2.8c0.5,0,1-0.1,1.5-0.3
			c-0.8,0.9-1.8,1.3-3,1.3c-2.2,0-4-1.8-4-4S21.8,9,24,9z"/>
	</g>
</g>
</svg>
