<?xml version="1.0" encoding="utf-8"?>
<!-- Generator: Adobe Illustrator 25.0.0, SVG Export Plug-In . SVG Version: 6.00 Build 0)  -->
<svg version="1.1" id="Layer_1" xmlns="http://www.w3.org/2000/svg" xmlns:xlink="http://www.w3.org/1999/xlink" x="0px" y="0px"
	 viewBox="0 0 48 48" style="enable-background:new 0 0 48 48;" xml:space="preserve">
<style type="text/css">
	.st0{fill:#011E41;}
</style>
<g id="Layer_2_1_">
	<g id="Icons">
		<path  stroke-width="param(outline-width) "  stroke-opacity="param(outline-opacity) "  stroke="param(outline) "  fill-opacity="param(fill-opacity) "  fill="param(fill) " class="st0" d="M27,10h20c0.6,0,1,0.4,1,1v5c0,0.6-0.4,1-1,1H27c-0.6,0-1-0.4-1-1v-5C26,10.4,26.4,10,27,10z"/>
		<path  stroke-width="param(outline-width) "  stroke-opacity="param(outline-opacity) "  stroke="param(outline) "  fill-opacity="param(fill-opacity) "  fill="param(fill) " class="st0" d="M28,47c0,0.6,0.4,1,1,1h16c0.6,0,1-0.4,1-1V19H28V47z M31,25c0-0.6,0.4-1,1-1h10c0.6,0,1,0.4,1,1v7
			c0,0.6-0.4,1-1,1H32c-0.6,0-1-0.4-1-1V25z M32,36h10c0.6,0,1,0.4,1,1s-0.4,1-1,1H32c-0.6,0-1-0.4-1-1S31.4,36,32,36z"/>
		<path  stroke-width="param(outline-width) "  stroke-opacity="param(outline-opacity) "  stroke="param(outline) "  fill-opacity="param(fill-opacity) "  fill="param(fill) " class="st0" d="M19.5,8H14V3h2.5C17.3,3,18,2.3,18,1.5S17.3,0,16.5,0h-12C3.7,0,3,0.7,3,1.5S3.7,3,4.5,3H7v5H1.5
			C0.7,8,0,8.7,0,9.5S0.7,11,1.5,11H5v23c0,1.1,0.9,2,2,2v2c0,0.6,0.4,1,1,1h1v7.5c0,0.8,0.7,1.5,1.5,1.5s1.5-0.7,1.5-1.5V39h1
			c0.6,0,1-0.4,1-1v-2c1.1,0,2-0.9,2-2V11h3.5c0.8,0,1.5-0.7,1.5-1.5S20.3,8,19.5,8z M13,26H8V13h5V26z"/>
	</g>
</g>
</svg>
