<?xml version="1.0" encoding="utf-8"?>
<!-- Generator: Adobe Illustrator 25.0.0, SVG Export Plug-In . SVG Version: 6.00 Build 0)  -->
<svg version="1.1" id="Layer_1" xmlns="http://www.w3.org/2000/svg" xmlns:xlink="http://www.w3.org/1999/xlink" x="0px" y="0px"
	 viewBox="0 0 48 48" style="enable-background:new 0 0 48 48;" xml:space="preserve">
<style type="text/css">
	.st0{fill:#011E41;}
</style>
<g id="Layer_2_1_">
	<g id="Icons">
		<path  stroke-width="param(outline-width) "  stroke-opacity="param(outline-opacity) "  stroke="param(outline) "  fill-opacity="param(fill-opacity) "  fill="param(fill) " class="st0" d="M19.7,21.1l1.3,4.8c0.2,0.8,1,1.3,1.8,1.1c0.8-0.2,1.3-1,1.1-1.8l0,0l-1.5-5.5c-0.1-0.4-0.4-0.8-0.9-1
			L17,16.7v-3.5l3.7-2c0.4-0.2,0.7-0.6,0.8-1.1L22,6.7c0.1-0.8-0.4-1.6-1.3-1.7c-0.8-0.1-1.6,0.4-1.7,1.3l-0.4,2.6L16.6,10
			c-0.3-0.6-0.6-1.1-1.1-1.6l3.3-6.2c0.4-0.7,0.1-1.6-0.6-2s-1.6-0.1-2,0.6l0,0l-3.4,6.3C12.5,7,12.3,7,12,7c-0.3,0-0.5,0-0.8,0.1
			L7.8,0.8c-0.4-0.7-1.3-1-2-0.6s-1,1.3-0.6,2l3.3,6.2c-0.5,0.4-0.8,1-1.1,1.6L5.4,8.8L5,6.3C4.9,5.5,4.1,4.9,3.3,5
			C2.5,5.1,1.9,5.9,2,6.7L2.5,10c0.1,0.5,0.4,0.9,0.8,1.1l3.7,2v3.5l-4.6,1.9c-0.4,0.2-0.7,0.5-0.9,1l-1.5,5.5
			c-0.2,0.8,0.3,1.6,1.1,1.8c0.8,0.2,1.6-0.3,1.8-1.1l1.3-4.8L7,19.9V20c0,2.8,2.2,5,5,5s5-2.2,5-5v-0.1L19.7,21.1z"/>
		<path  stroke-width="param(outline-width) "  stroke-opacity="param(outline-opacity) "  stroke="param(outline) "  fill-opacity="param(fill-opacity) "  fill="param(fill) " class="st0" d="M47.4,27.9c-0.6-0.5-1.6-0.4-2.1,0.2c0,0,0,0,0,0l-1.6,2l-2.4,0c0.1-0.6,0-1.3-0.2-1.9l6-3.7
			c0.7-0.4,0.9-1.4,0.5-2.1c-0.4-0.7-1.4-0.9-2.1-0.5l-6.1,3.8c-0.4-0.4-0.9-0.6-1.4-0.8l0.2-7.1c0-0.8-0.6-1.5-1.4-1.6
			c-0.8,0-1.5,0.6-1.6,1.4c0,0,0,0,0,0l-0.2,7c-0.6,0.2-1.2,0.4-1.7,0.8l-1.2-2l0.9-2.4c0.3-0.8-0.1-1.6-0.8-1.9
			c-0.8-0.3-1.6,0.1-1.9,0.8l-1.2,3.1C29,23.5,29,24,29.3,24.4l2.2,3.6l-1.8,3.1l-4.9-0.6c-0.5-0.1-0.9,0.1-1.2,0.4l-4,4
			c-0.6,0.6-0.6,1.5,0,2.1c0.6,0.6,1.5,0.6,2.1,0c0,0,0,0,0,0l3.5-3.5l3,0.4l0,0c-1.4,2.4-0.6,5.4,1.8,6.8v0
			c2.4,1.4,5.4,0.6,6.8-1.8l0,0l1.8,2.4l-1.3,4.8c-0.2,0.8,0.3,1.6,1.1,1.8c0.8,0.2,1.6-0.3,1.8-1.1c0,0,0,0,0,0l1.5-5.5
			c0.1-0.4,0-0.9-0.3-1.3l-3-4l1.8-3.1l4.2,0.1l0,0c0.5,0,0.9-0.2,1.2-0.6l2.1-2.6C48.2,29.3,48.1,28.4,47.4,27.9z"/>
	</g>
</g>
</svg>
