<?xml version="1.0" encoding="utf-8"?>
<!-- Generator: Adobe Illustrator 25.0.0, SVG Export Plug-In . SVG Version: 6.00 Build 0)  -->
<svg version="1.1" id="Layer_1" xmlns="http://www.w3.org/2000/svg" xmlns:xlink="http://www.w3.org/1999/xlink" x="0px" y="0px"
	 viewBox="0 0 32 44" style="enable-background:new 0 0 32 44;" xml:space="preserve">
<style type="text/css">
	.st0{fill:#011E41;}
</style>
<g id="Layer_2_1_">
	<g id="Icons">
		<path  stroke-width="param(outline-width) "  stroke-opacity="param(outline-opacity) "  stroke="param(outline) "  fill-opacity="param(fill-opacity) "  fill="param(fill) " class="st0" d="M30,0h-5v3h-3v3h3v3h-3v3h3v9c0,0.6-0.4,1-1,1h-5c-0.6,0-1-0.4-1-1v-6h3v-3h-3V9h3V6h-3V3h3V0H2
			C0.9,0,0,0.9,0,2v40c0,1.1,0.9,2,2,2h19v-7c0-2.2,1.8-4,4-4c0,0,0,0,0,0h7V2C32,0.9,31.1,0,30,0z"/>
		<path  stroke-width="param(outline-width) "  stroke-opacity="param(outline-opacity) "  stroke="param(outline) "  fill-opacity="param(fill-opacity) "  fill="param(fill) " class="st0" d="M23,37v7l9-9h-7C23.9,35,23,35.9,23,37z"/>
		<rect x="20" y="17" class="st0" width="3" height="3"/>
	</g>
</g>
</svg>
