<?xml version="1.0" encoding="utf-8"?>
<!-- Generator: Adobe Illustrator 25.0.0, SVG Export Plug-In . SVG Version: 6.00 Build 0)  -->
<svg version="1.1" id="Layer_1" xmlns="http://www.w3.org/2000/svg" xmlns:xlink="http://www.w3.org/1999/xlink" x="0px" y="0px"
	 viewBox="0 0 48 40" style="enable-background:new 0 0 48 40;" xml:space="preserve">
<style type="text/css">
	.st0{fill:#011E41;}
</style>
<g id="Layer_2_1_">
	<g id="Icons">
		<path  stroke-width="param(outline-width) "  stroke-opacity="param(outline-opacity) "  stroke="param(outline) "  fill-opacity="param(fill-opacity) "  fill="param(fill) " class="st0" d="M41,0H27c-3.9,0-7,3.1-7,7v3h0c5,0,9,4,9,9v5h6l4.8,4.8c0.3,0.3,0.7,0.3,1,0c0.1-0.1,0.2-0.3,0.2-0.5l0-4.3
			c3.9,0,7-3.1,7-7V7C48,3.1,44.9,0,41,0z"/>
		<path  stroke-width="param(outline-width) "  stroke-opacity="param(outline-opacity) "  stroke="param(outline) "  fill-opacity="param(fill-opacity) "  fill="param(fill) " class="st0" d="M20,35h-8l-4.8,4.8c-0.3,0.3-0.7,0.3-1,0C6.1,39.7,6,39.5,6,39.3L6,35l0,0c-3.3,0-6-2.7-6-6c0,0,0,0,0,0V19
			c0-3.3,2.7-6,6-6c0,0,0,0,0,0h14c3.3,0,6,2.7,6,6c0,0,0,0,0,0v10C26,32.3,23.3,35,20,35L20,35z"/>
	</g>
</g>
</svg>
