<?xml version="1.0" encoding="utf-8"?>
<!-- Generator: Adobe Illustrator 25.0.0, SVG Export Plug-In . SVG Version: 6.00 Build 0)  -->
<svg version="1.1" id="Layer_1" xmlns="http://www.w3.org/2000/svg" xmlns:xlink="http://www.w3.org/1999/xlink" x="0px" y="0px"
	 viewBox="0 0 48 48" style="enable-background:new 0 0 48 48;" xml:space="preserve">
<style type="text/css">
	.st0{fill:#011E41;}
</style>
<g id="Layer_2_1_">
	<g id="Icons">
		<path  stroke-width="param(outline-width) "  stroke-opacity="param(outline-opacity) "  stroke="param(outline) "  fill-opacity="param(fill-opacity) "  fill="param(fill) " class="st0" d="M47.6,24.3L47.6,24.3c-0.9-1.5-2.7-2-4.1-1.2l-4.6,2.7c0.4-3.1-0.2-6.3-1.8-9.1c0-0.1-0.1-0.1-0.1-0.2l0,0
			l-8.7-15c-0.8-1.4-2.6-1.9-4-1.1l-0.1,0c-1.4,0.8-1.9,2.6-1.1,4l2.7,4.6c-3.2-0.4-6.5,0.3-9.3,1.9L16.4,11l-15,8.6
			c-1.4,0.8-1.9,2.6-1.1,4l0,0.1c0.8,1.4,2.6,1.9,4,1.1l4.7-2.7c-0.4,3.2,0.3,6.4,1.9,9.2c0,0,0,0,0,0.1l0,0l8.7,15
			c0.8,1.4,2.6,1.9,4,1.1l0.1,0c1.4-0.8,1.9-2.6,1.1-4l-2.7-4.6c3.1,0.4,6.2-0.2,8.9-1.7c0.1-0.1,0.2-0.1,0.4-0.2l0,0l15-8.7
			C48,27.5,48.4,25.7,47.6,24.3z M16.2,28.5C16.2,28.5,16.2,28.5,16.2,28.5c-2.5-4.3-1-9.7,3.2-12.3c0,0,0,0,0.1,0s0,0,0,0
			c4.3-2.4,9.7-1,12.2,3.3c0,0,0,0,0,0.1s0,0,0,0c2.4,4.3,1,9.8-3.3,12.3c0,0,0,0,0,0C24.2,34.3,18.7,32.8,16.2,28.5L16.2,28.5z"/>
	</g>
</g>
</svg>
