<?xml version="1.0" encoding="utf-8"?>
<!-- Generator: Adobe Illustrator 25.0.0, SVG Export Plug-In . SVG Version: 6.00 Build 0)  -->
<svg version="1.1" id="Layer_1" xmlns="http://www.w3.org/2000/svg" xmlns:xlink="http://www.w3.org/1999/xlink" x="0px" y="0px"
	 viewBox="0 0 48 48" style="enable-background:new 0 0 48 48;" xml:space="preserve">
<style type="text/css">
	.st0{fill:#011E41;}
</style>
<g id="Layer_2_1_">
	<g id="Icons">
		<path  stroke-width="param(outline-width) "  stroke-opacity="param(outline-opacity) "  stroke="param(outline) "  fill-opacity="param(fill-opacity) "  fill="param(fill) " class="st0" d="M47.9,19.5l-7.8-5.4c-0.1,0-0.2,0-0.3,0l-7.8,5.4c-0.1,0-0.1,0.1-0.1,0.2v6.4c-0.2,0-0.4,0-0.7,0
			c-1.6,0-3.2,0.4-4.6,1.2c-0.8,0.5-1.7,0.8-2.7,0.8c-3.3-0.1-5.9-2.7-6-6c-0.1-3.1,2.4-5.8,5.5-5.9c0.9,0,1.8,0.2,2.5,0.7
			c1,0.5,2.2,0.2,2.7-0.8c0.5-1,0.2-2.2-0.8-2.7c-1.4-0.8-2.9-1.2-4.5-1.2c-5.4,0.1-9.6,4.5-9.5,9.9c0.1,5.5,4.5,9.8,10,10l0,0l0,0
			l0,0l0,0c1.6,0,3.2-0.4,4.6-1.2c0.8-0.5,1.7-0.8,2.7-0.8c1,0,1.9,0.2,2.7,0.8c1.2,0.7,2.6,1.2,4,1.2c0.2,0,0.4,0,0.7,0
			c1.6,0,3.2-0.4,4.6-1.2c0.5-0.3,1.1-0.6,1.7-0.7c0.1,0,0.2,0,0.3,0c0.2,0,0.3,0,0.5,0c0.1,0,0.1,0,0.2,0c0.7,0,1.3,0.1,2,0.2V19.6
			C48,19.6,48,19.5,47.9,19.5z"/>
		<path  stroke-width="param(outline-width) "  stroke-opacity="param(outline-opacity) "  stroke="param(outline) "  fill-opacity="param(fill-opacity) "  fill="param(fill) " class="st0" d="M46,42c-1.6,0-3.2,0.4-4.6,1.2c-1.7,1-3.8,1-5.4,0c-1.4-0.8-3-1.3-4.6-1.2c-1.6,0-3.2,0.4-4.6,1.2
			C25.9,43.8,25,44,24,44c-1,0-1.9-0.2-2.7-0.8c-1.4-0.8-3-1.3-4.6-1.2c-1.6,0-3.2,0.4-4.6,1.2c-0.8,0.5-1.7,0.8-2.7,0.8
			c-1,0-1.9-0.2-2.7-0.8C5.2,42.4,3.6,42,2,42c-1.1,0-2,0.9-2,2s0.9,2,2,2c1,0,1.9,0.2,2.7,0.8c1.4,0.8,3,1.3,4.6,1.2
			c1.6,0,3.2-0.4,4.6-1.2c0.8-0.5,1.7-0.8,2.7-0.8c1,0,1.9,0.2,2.7,0.8c1.4,0.8,3,1.3,4.6,1.2c1.6,0,3.2-0.4,4.6-1.2
			c1.7-1,3.8-1,5.4,0c2.9,1.7,6.4,1.7,9.3,0C44.1,46.2,45,46,46,46c1.1,0,2-0.9,2-2S47.1,42,46,42z"/>
		<path  stroke-width="param(outline-width) "  stroke-opacity="param(outline-opacity) "  stroke="param(outline) "  fill-opacity="param(fill-opacity) "  fill="param(fill) " class="st0" d="M46,34c-1.6,0-3.2,0.4-4.6,1.2c-1.7,1-3.8,1-5.4,0c-1.4-0.8-3-1.3-4.6-1.2c-1.6,0-3.2,0.4-4.6,1.2
			C25.9,35.8,25,36,24,36c-1,0-1.9-0.2-2.7-0.8c-1.4-0.8-3-1.3-4.6-1.2c-1.6,0-3.2,0.4-4.6,1.2c-0.8,0.5-1.7,0.8-2.7,0.8
			c-1,0-1.9-0.2-2.7-0.8C5.2,34.4,3.6,34,2,34c-1.1,0-2,0.9-2,2s0.9,2,2,2c1,0,1.9,0.2,2.7,0.8c1.4,0.8,3,1.3,4.6,1.2
			c1.6,0,3.2-0.4,4.6-1.2c0.8-0.5,1.7-0.8,2.7-0.8c1,0,1.9,0.2,2.7,0.8c1.4,0.8,3,1.3,4.6,1.2c1.6,0,3.2-0.4,4.6-1.2
			c1.7-1,3.8-1,5.4,0c2.9,1.7,6.4,1.7,9.3,0C44.1,38.2,45,38,46,38c1.1,0,2-0.9,2-2S47.1,34,46,34z"/>
		<path  stroke-width="param(outline-width) "  stroke-opacity="param(outline-opacity) "  stroke="param(outline) "  fill-opacity="param(fill-opacity) "  fill="param(fill) " class="st0" d="M4.1,31.1c1.1,0,2-0.9,2-2c0-0.3-0.1-0.6-0.2-0.9c-4.2-8.1-1.1-18.1,7-22.3c2.4-1.2,5-1.9,7.6-1.9
			c4.2,0.1,8.1,1.7,11.1,4.5c0.8,0.7,2.1,0.7,2.8-0.1c0.7-0.8,0.7-2.1-0.1-2.8C30.6,2.1,25.7,0.1,20.5,0C9.2,0,0,9.2,0,20.5
			c0,3.3,0.8,6.6,2.3,9.5C2.7,30.7,3.4,31.1,4.1,31.1z"/>
	</g>
</g>
</svg>
