<?xml version="1.0" encoding="utf-8"?>
<!-- Generator: Adobe Illustrator 25.0.0, SVG Export Plug-In . SVG Version: 6.00 Build 0)  -->
<svg version="1.1" id="Layer_1" xmlns="http://www.w3.org/2000/svg" xmlns:xlink="http://www.w3.org/1999/xlink" x="0px" y="0px"
	 viewBox="0 0 48 48" style="enable-background:new 0 0 48 48;" xml:space="preserve">
<style type="text/css">
	.st0{fill:#011E41;}
</style>
<g id="Layer_2_1_">
	<g id="Icons">
		<path  stroke-width="param(outline-width) "  stroke-opacity="param(outline-opacity) "  stroke="param(outline) "  fill-opacity="param(fill-opacity) "  fill="param(fill) " class="st0" d="M42.3,31.2c1.2,1.7,5.7,8,5.7,10.8c0,3.3-2.7,6-6,6s-6-2.7-6-6c0-2.9,4.4-9.1,5.7-10.8
			C41.8,31,42,30.9,42.3,31.2C42.3,31.1,42.3,31.1,42.3,31.2z"/>
		<path  stroke-width="param(outline-width) "  stroke-opacity="param(outline-opacity) "  stroke="param(outline) "  fill-opacity="param(fill-opacity) "  fill="param(fill) " class="st0" d="M2,1h3c1.1,0,2,0.9,2,2v5h12V3h-4.5C13.7,3,13,2.3,13,1.5S13.7,0,14.5,0h14C29.3,0,30,0.7,30,1.5
			S29.3,3,28.5,3l0,0H24v5h10.1C40.7,8,46,13.3,46,19.9V22h1c0.6,0,1,0.4,1,1v3c0,0.6-0.4,1-1,1H37c-0.6,0-1-0.4-1-1v-3
			c0-0.6,0.4-1,1-1h1v-2.1c0-2.1-1.7-3.9-3.9-3.9H7v5c0,1.1-0.9,2-2,2H2c-1.1,0-2-0.9-2-2V3C0,1.9,0.9,1,2,1z"/>
	</g>
</g>
</svg>
