<?xml version="1.0" encoding="utf-8"?>
<!-- Generator: Adobe Illustrator 25.0.0, SVG Export Plug-In . SVG Version: 6.00 Build 0)  -->
<svg version="1.1" id="Layer_1" xmlns="http://www.w3.org/2000/svg" xmlns:xlink="http://www.w3.org/1999/xlink" x="0px" y="0px"
	 viewBox="0 0 42 42" style="enable-background:new 0 0 42 42;" xml:space="preserve">
<style type="text/css">
	.st0{fill:#011E41;}
</style>
<g id="Layer_2_1_">
	<g id="Icons">
		<path  stroke-width="param(outline-width) "  stroke-opacity="param(outline-opacity) "  stroke="param(outline) "  fill-opacity="param(fill-opacity) "  fill="param(fill) " class="st0" d="M21,0C9.4,0,0,9.4,0,21s9.4,21,21,21s21-9.4,21-21C42,9.4,32.6,0,21,0C21,0,21,0,21,0z M30.5,21.9l-6.2,3.8
			l-6.7,4.1c-0.5,0.3-1.2,0.1-1.5-0.4C16,29.3,16,29.1,16,28.9V13.1c0-0.6,0.5-1.1,1.1-1.1c0.2,0,0.4,0,0.5,0.1l6.7,4.1l6.2,3.8
			c0.5,0.3,0.7,0.9,0.4,1.4C30.8,21.7,30.6,21.8,30.5,21.9z"/>
	</g>
</g>
</svg>
