<?xml version="1.0" encoding="utf-8"?>
<!-- Generator: Adobe Illustrator 25.0.0, SVG Export Plug-In . SVG Version: 6.00 Build 0)  -->
<svg version="1.1" id="Layer_1" xmlns="http://www.w3.org/2000/svg" xmlns:xlink="http://www.w3.org/1999/xlink" x="0px" y="0px"
	 viewBox="0 0 48 48" style="enable-background:new 0 0 48 48;" xml:space="preserve">
<style type="text/css">
	.st0{fill:#011E41;}
</style>
<g id="Layer_2_1_">
	<g id="Icons">
		<path  stroke-width="param(outline-width) "  stroke-opacity="param(outline-opacity) "  stroke="param(outline) "  fill-opacity="param(fill-opacity) "  fill="param(fill) " class="st0" d="M20,10c0-5.5-4.5-10-10-10S0,4.5,0,10s4.5,10,10,10C15.5,20,20,15.5,20,10z M15.6,7.8l-7,6
			C8.5,13.9,8.2,14,8,14c-0.3,0-0.5-0.1-0.7-0.3l-3-3c-0.4-0.4-0.4-1,0-1.4s1-0.4,1.4,0l2.3,2.4l6.3-5.4c0.4-0.4,1.1-0.3,1.4,0.1
			C16.1,6.8,16.1,7.4,15.6,7.8L15.6,7.8z"/>
		<path  stroke-width="param(outline-width) "  stroke-opacity="param(outline-opacity) "  stroke="param(outline) "  fill-opacity="param(fill-opacity) "  fill="param(fill) " class="st0" d="M18.3,0c5.5,4.6,6.3,12.8,1.7,18.3c-1.1,1.3-2.5,2.4-4,3.2V48h32V0H18.3z M34,42c0,1.1-0.9,2-2,2
			c-1.1,0-2-0.9-2-2v-6c0-1.1,0.9-2,2-2c1.1,0,2,0.9,2,2V42z M34,27c0,1.1-0.9,2-2,2c-1.1,0-2-0.9-2-2v-6c0-1.1,0.9-2,2-2
			c1.1,0,2,0.9,2,2V27z M34,12c0,1.1-0.9,2-2,2c-1.1,0-2-0.9-2-2V6c0-1.1,0.9-2,2-2c1.1,0,2,0.9,2,2V12z"/>
	</g>
</g>
</svg>
