<?xml version="1.0" encoding="utf-8"?>
<!-- Generator: Adobe Illustrator 25.0.0, SVG Export Plug-In . SVG Version: 6.00 Build 0)  -->
<svg version="1.1" id="Layer_1" xmlns="http://www.w3.org/2000/svg" xmlns:xlink="http://www.w3.org/1999/xlink" x="0px" y="0px"
	 viewBox="0 0 44 44" style="enable-background:new 0 0 44 44;" xml:space="preserve">
<style type="text/css">
	.st0{fill:#011E41;}
</style>
<g id="Layer_2_1_">
	<g id="FINAL">
		<path  stroke-width="param(outline-width) "  stroke-opacity="param(outline-opacity) "  stroke="param(outline) "  fill-opacity="param(fill-opacity) "  fill="param(fill) " class="st0" d="M22,0C9.8,0,0,9.8,0,22s9.8,22,22,22s22-9.8,22-22S34.2,0,22,0z M34.7,13.5L25,23.2v8.7c0,1.7-1.3,3-3,3
			s-3-1.3-3-3V22c0-0.2,0-0.4,0.1-0.6c0-0.1,0.1-0.2,0.1-0.3c0-0.2,0.1-0.4,0.2-0.6c0-0.1,0.1-0.2,0.1-0.2c0.1-0.2,0.2-0.3,0.4-0.5
			L30.5,9.3c1.2-1.2,3.1-1.2,4.2,0S35.9,12.3,34.7,13.5L34.7,13.5z"/>
	</g>
</g>
</svg>
