<?xml version="1.0" encoding="utf-8"?>
<!-- Generator: Adobe Illustrator 25.0.0, SVG Export Plug-In . SVG Version: 6.00 Build 0)  -->
<svg version="1.1" id="Layer_1" xmlns="http://www.w3.org/2000/svg" xmlns:xlink="http://www.w3.org/1999/xlink" x="0px" y="0px"
	 viewBox="0 0 48 48" style="enable-background:new 0 0 48 48;" xml:space="preserve">
<style type="text/css">
	.st0{fill:#011E41;}
</style>
<g id="Layer_2_1_">
	<g id="Icons">
		<path  stroke-width="param(outline-width) "  stroke-opacity="param(outline-opacity) "  stroke="param(outline) "  fill-opacity="param(fill-opacity) "  fill="param(fill) " class="st0" d="M10,20c5.5,0,10-4.5,10-10S15.5,0,10,0S0,4.5,0,10C0,15.5,4.5,20,10,20z M9,4c0-0.6,0.4-1,1-1s1,0.4,1,1v8
			c0,0.6-0.4,1-1,1s-1-0.4-1-1V4z M10,15c0.6,0,1,0.4,1,1c0,0.6-0.4,1-1,1s-1-0.4-1-1C9,15.4,9.4,15,10,15z"/>
		<path  stroke-width="param(outline-width) "  stroke-opacity="param(outline-opacity) "  stroke="param(outline) "  fill-opacity="param(fill-opacity) "  fill="param(fill) " class="st0" d="M0,24v7c4.4,0,8,3.6,8,8c0,0,0,0,0,0v9h8v-9c0-4.4,3.6-8,8-8s8,3.6,8,8v9h8v-9c0-4.4,3.6-8,8-8c0,0,0,0,0,0
			v-7H0z"/>
	</g>
</g>
</svg>
