<?xml version="1.0" encoding="utf-8"?>
<!-- Generator: Adobe Illustrator 25.0.0, SVG Export Plug-In . SVG Version: 6.00 Build 0)  -->
<svg version="1.1" id="Layer_1" xmlns="http://www.w3.org/2000/svg" xmlns:xlink="http://www.w3.org/1999/xlink" x="0px" y="0px"
	 viewBox="0 0 48 38" style="enable-background:new 0 0 48 38;" xml:space="preserve">
<style type="text/css">
	.st0{fill:#011E41;}
</style>
<g id="Layer_2_1_">
	<g id="FINAL">
		<path  stroke-width="param(outline-width) "  stroke-opacity="param(outline-opacity) "  stroke="param(outline) "  fill-opacity="param(fill-opacity) "  fill="param(fill) " class="st0" d="M47,14H22.4c-0.7,2.1-1.9,4-3.5,5.5L29,26.2l14.2-9.4c0.7-0.5,1.6-0.3,2.1,0.4c0.5,0.7,0.3,1.6-0.4,2.1
			L29,29.8l-12.7-8.5C14.4,22.4,12.2,23,10,23v14c0,0.6,0.4,1,1,1h36c0.6,0,1-0.4,1-1V15C48,14.4,47.6,14,47,14z M20.1,30.1l-4,4
			c-0.6,0.6-1.5,0.6-2.1,0s-0.6-1.5,0-2.1l4-4c0.6-0.6,1.5-0.6,2.1,0S20.6,29.5,20.1,30.1z M44.1,34.1c-0.6,0.6-1.5,0.6-2.1,0
			c0,0,0,0,0,0l-4-4c-0.6-0.6-0.6-1.5,0-2.1c0.6-0.6,1.5-0.6,2.1,0l4,4C44.6,32.5,44.6,33.5,44.1,34.1
			C44.1,34.1,44.1,34.1,44.1,34.1z M10,0C4.5,0,0,4.5,0,10s4.5,10,10,10s10-4.5,10-10C20,4.5,15.5,0,10,0z M15.6,7.8l-7,6
			C8.5,13.9,8.2,14,8,14c-0.3,0-0.5-0.1-0.7-0.3l-3-3c-0.4-0.4-0.4-1,0-1.4s1-0.4,1.4,0l2.3,2.4l6.3-5.4c0.4-0.4,1.1-0.3,1.4,0.1
			C16.1,6.8,16.1,7.4,15.6,7.8L15.6,7.8z"/>
	</g>
</g>
</svg>
