<?xml version="1.0" encoding="utf-8"?>
<!-- Generator: Adobe Illustrator 25.0.0, SVG Export Plug-In . SVG Version: 6.00 Build 0)  -->
<svg version="1.1" id="Layer_1" xmlns="http://www.w3.org/2000/svg" xmlns:xlink="http://www.w3.org/1999/xlink" x="0px" y="0px"
	 viewBox="0 0 48 48" style="enable-background:new 0 0 48 48;" xml:space="preserve">
<style type="text/css">
	.st0{fill:#011E41;}
</style>
<g id="Layer_2_1_">
	<g id="Icons">
		<circle class="st0" cx="24" cy="24" r="5"/>
		<path  stroke-width="param(outline-width) "  stroke-opacity="param(outline-opacity) "  stroke="param(outline) "  fill-opacity="param(fill-opacity) "  fill="param(fill) " class="st0" d="M46,22h-8.2l1.6-1.6c0.8-0.8,0.8-2,0-2.8c-0.8-0.8-2-0.8-2.8,0l-5,5c-0.1,0.1-0.2,0.3-0.3,0.4
			c0,0,0,0.1-0.1,0.1c-0.1,0.2-0.1,0.3-0.2,0.5l0,0c0,0.2,0,0.3,0,0.5c0,0,0,0.1,0,0.1c0,0.2,0.1,0.3,0.1,0.5l0,0l0,0
			c0.1,0.2,0.2,0.3,0.3,0.4c0,0,0.1,0.1,0.1,0.1c0,0,0,0.1,0.1,0.1l5,5c0.8,0.8,2,0.8,2.8,0c0.8-0.8,0.8-2,0-2.8L37.8,26H46
			c1.1,0,2-0.9,2-2S47.1,22,46,22z"/>
		<path  stroke-width="param(outline-width) "  stroke-opacity="param(outline-opacity) "  stroke="param(outline) "  fill-opacity="param(fill-opacity) "  fill="param(fill) " class="st0" d="M17,24.1c0-0.2,0-0.3,0-0.5l0,0c0-0.2-0.1-0.3-0.2-0.5c0,0,0-0.1-0.1-0.1c-0.1-0.2-0.2-0.3-0.3-0.4l-5-5
			c-0.8-0.8-2-0.8-2.8,0s-0.8,2,0,2.8l1.6,1.6H2c-1.1,0-2,0.9-2,2s0.9,2,2,2h8.2l-1.6,1.6c-0.8,0.8-0.8,2,0,2.8s2,0.8,2.8,0l0,0l5-5
			c0,0,0-0.1,0.1-0.1c0,0,0.1-0.1,0.1-0.1c0.1-0.1,0.2-0.3,0.3-0.4l0,0l0,0c0.1-0.2,0.1-0.3,0.1-0.5C17,24.2,17,24.2,17,24.1z"/>
		<path  stroke-width="param(outline-width) "  stroke-opacity="param(outline-opacity) "  stroke="param(outline) "  fill-opacity="param(fill-opacity) "  fill="param(fill) " class="st0" d="M22.6,16.4c0.1,0.1,0.2,0.2,0.3,0.3c0.1,0.1,0.2,0.1,0.3,0.1c0,0,0,0,0.1,0c0.1,0,0.2,0.1,0.3,0.1
			c0,0,0,0,0.1,0c0.1,0,0.3,0,0.4,0h0c0,0,0,0,0,0c0.1,0,0.2,0,0.4,0c0,0,0,0,0,0c0.1,0,0.2-0.1,0.3-0.1l0,0l0,0
			c0.2-0.1,0.3-0.2,0.4-0.3c0,0,0.1-0.1,0.1-0.1c0,0,0.1,0,0.1-0.1l5-5c0.8-0.8,0.8-2,0-2.8s-2-0.8-2.8,0L26,10.2V2c0-1.1-0.9-2-2-2
			s-2,0.9-2,2v8.2l-1.6-1.6c-0.8-0.8-2-0.8-2.8,0s-0.8,2,0,2.8L22.6,16.4z"/>
		<path  stroke-width="param(outline-width) "  stroke-opacity="param(outline-opacity) "  stroke="param(outline) "  fill-opacity="param(fill-opacity) "  fill="param(fill) " class="st0" d="M25.4,31.6C25.4,31.6,25.3,31.5,25.4,31.6c-0.1-0.1-0.2-0.1-0.2-0.2c-0.1-0.1-0.3-0.2-0.4-0.3l0,0l0,0
			c-0.2-0.1-0.3-0.1-0.5-0.1c0,0-0.1,0-0.1,0c-0.2,0-0.3,0-0.5,0c0,0,0,0,0,0c-0.2,0-0.3,0.1-0.5,0.2c0,0-0.1,0-0.1,0.1
			c-0.2,0.1-0.3,0.2-0.4,0.3l-5,5c-0.8,0.8-0.8,2,0,2.8c0.8,0.8,2,0.8,2.8,0l1.6-1.6V46c0,1.1,0.9,2,2,2s2-0.9,2-2v-8.2l1.6,1.6
			c0.8,0.8,2,0.8,2.8,0c0.8-0.8,0.8-2,0-2.8l0,0L25.4,31.6z"/>
	</g>
</g>
</svg>
