<?xml version="1.0" encoding="utf-8"?>
<!-- Generator: Adobe Illustrator 25.0.0, SVG Export Plug-In . SVG Version: 6.00 Build 0)  -->
<svg version="1.1" id="Layer_1" xmlns="http://www.w3.org/2000/svg" xmlns:xlink="http://www.w3.org/1999/xlink" x="0px" y="0px"
	 viewBox="0 0 48 48" style="enable-background:new 0 0 48 48;" xml:space="preserve">
<style type="text/css">
	.st0{fill:#011E41;}
</style>
<g id="Layer_2_1_">
	<g id="Icons">
		<path  stroke-width="param(outline-width) "  stroke-opacity="param(outline-opacity) "  stroke="param(outline) "  fill-opacity="param(fill-opacity) "  fill="param(fill) " class="st0" d="M1.4,11.1l8.5,2.8l15.5,5c0.8,0.3,1.6-0.2,1.6-0.9V11h7v2h10.6c1.9,0,3.4-1.5,3.4-3.4s-1.5-3.4-3.4-3.4
			c0,0,0,0,0,0H34V8h-7V0.9c0-0.7-0.8-1.1-1.6-0.9l-15.5,5L1.4,7.9C0.5,8-0.1,8.9,0,9.8C0.1,10.5,0.7,11,1.4,11.1z"/>
		<path  stroke-width="param(outline-width) "  stroke-opacity="param(outline-opacity) "  stroke="param(outline) "  fill-opacity="param(fill-opacity) "  fill="param(fill) " class="st0" d="M26,37h21c0.6,0,1,0.4,1,1v9c0,0.6-0.4,1-1,1H26c-0.6,0-1-0.4-1-1v-9C25,37.4,25.4,37,26,37z"/>
		<path  stroke-width="param(outline-width) "  stroke-opacity="param(outline-opacity) "  stroke="param(outline) "  fill-opacity="param(fill-opacity) "  fill="param(fill) " class="st0" d="M13,24h22c0.6,0,1,0.4,1,1v9c0,0.6-0.4,1-1,1H13c-0.6,0-1-0.4-1-1v-9C12,24.4,12.4,24,13,24z"/>
		<path  stroke-width="param(outline-width) "  stroke-opacity="param(outline-opacity) "  stroke="param(outline) "  fill-opacity="param(fill-opacity) "  fill="param(fill) " class="st0" d="M1,37h21c0.6,0,1,0.4,1,1v9c0,0.6-0.4,1-1,1H1c-0.6,0-1-0.4-1-1v-9C0,37.4,0.4,37,1,37z"/>
		<path  stroke-width="param(outline-width) "  stroke-opacity="param(outline-opacity) "  stroke="param(outline) "  fill-opacity="param(fill-opacity) "  fill="param(fill) " class="st0" d="M39,24h8c0.6,0,1,0.4,1,1v9c0,0.6-0.4,1-1,1h-8c-0.6,0-1-0.4-1-1v-9C38,24.4,38.4,24,39,24z"/>
	</g>
</g>
</svg>
