<?xml version="1.0" encoding="utf-8"?>
<!-- Generator: Adobe Illustrator 25.0.0, SVG Export Plug-In . SVG Version: 6.00 Build 0)  -->
<svg version="1.1" id="Layer_1" xmlns="http://www.w3.org/2000/svg" xmlns:xlink="http://www.w3.org/1999/xlink" x="0px" y="0px"
	 viewBox="0 0 48 48" style="enable-background:new 0 0 48 48;" xml:space="preserve">
<style type="text/css">
	.st0{fill:#011E41;}
</style>
<path  stroke-width="param(outline-width) "  stroke-opacity="param(outline-opacity) "  stroke="param(outline) "  fill-opacity="param(fill-opacity) "  fill="param(fill) " class="st0" d="M47.9,19.4c-3-9.1-10.2-16.3-19.3-19.3c-1.1-0.3-2.2,0.2-2.5,1.3c-0.3,1,0.2,2.2,1.3,2.5
	c7.9,2.6,14.1,8.9,16.7,16.8c0.3,1.1,1.5,1.6,2.5,1.3C47.7,21.6,48.2,20.5,47.9,19.4C47.9,19.4,47.9,19.4,47.9,19.4z"/>
<path  stroke-width="param(outline-width) "  stroke-opacity="param(outline-opacity) "  stroke="param(outline) "  fill-opacity="param(fill-opacity) "  fill="param(fill) " class="st0" d="M25.8,7.2c-1-0.4-2.2,0.1-2.6,1.1s0.1,2.2,1.1,2.6c5.9,2.3,10.6,7,12.9,12.9c0.4,1,1.6,1.5,2.6,1.1
	s1.5-1.6,1.1-2.6C38.1,15.4,32.7,9.9,25.8,7.2z"/>
<path  stroke-width="param(outline-width) "  stroke-opacity="param(outline-opacity) "  stroke="param(outline) "  fill-opacity="param(fill-opacity) "  fill="param(fill) " class="st0" d="M23,14.3c-1-0.5-2.2-0.2-2.7,0.8c-0.5,1-0.2,2.2,0.8,2.7c3.9,2.1,7.1,5.3,9.2,9.2c0.5,1,1.8,1.3,2.7,0.8
	c1-0.5,1.3-1.8,0.8-2.7C31.3,20.5,27.5,16.8,23,14.3z"/>
<path  stroke-width="param(outline-width) "  stroke-opacity="param(outline-opacity) "  stroke="param(outline) "  fill-opacity="param(fill-opacity) "  fill="param(fill) " class="st0" d="M21.6,23.6L20.2,25l-7.7-6.8c-0.3-0.2-0.7-0.2-1,0l-11.3,10C0.1,28.3,0,28.4,0,28.5V48h9v-7.4
	c0-0.9,0.7-1.6,1.6-1.6c0,0,0,0,0,0h2.8c0.9,0,1.6,0.7,1.6,1.6c0,0,0,0,0,0V48h9V28.5c0-0.1-0.1-0.2-0.1-0.3l-0.6-0.5l1.2-1.2
	c0.8-0.8,0.8-2,0-2.8C23.6,22.9,22.4,22.9,21.6,23.6L21.6,23.6z"/>
</svg>
