<?xml version="1.0" encoding="utf-8"?>
<!-- Generator: Adobe Illustrator 25.0.0, SVG Export Plug-In . SVG Version: 6.00 Build 0)  -->
<svg version="1.1" id="Layer_1" xmlns="http://www.w3.org/2000/svg" xmlns:xlink="http://www.w3.org/1999/xlink" x="0px" y="0px"
	 viewBox="0 0 48 48" style="enable-background:new 0 0 48 48;" xml:space="preserve">
<style type="text/css">
	.st0{fill:#011E41;}
</style>
<g id="Layer_2_1_">
	<g id="Icons">
		<path  stroke-width="param(outline-width) "  stroke-opacity="param(outline-opacity) "  stroke="param(outline) "  fill-opacity="param(fill-opacity) "  fill="param(fill) " class="st0" d="M47.6,19.7c-0.4-1.1-1.3-2-2.4-2.4c-1.1-0.4-2.4-0.4-3.5,0c-0.7,0.3-1,1.2-0.6,1.8c0,0,0,0.1,0,0.1
			c0.3,0.6,1,0.9,1.7,0.7c0.4-0.1,0.8,0,1.2,0.1c0.3,0.1,0.6,0.4,0.8,0.8c0.4,1.1-0.1,2.4-1.2,2.9c-0.8,0.3-1.7,0.3-2.5,0
			c-0.8-0.3-1.4-0.9-1.7-1.7L32.9,7.9c-0.4-0.7-1.2-1.1-2-0.7c-0.7,0.4-1.1,1.2-0.7,2l0,0l6.5,14.1c0.6,1.5,1.8,2.7,3.3,3.3
			c0.7,0.3,1.6,0.5,2.4,0.5c0.8,0,1.6-0.2,2.4-0.5C47.4,25.4,48.7,22.4,47.6,19.7z"/>
		<path  stroke-width="param(outline-width) "  stroke-opacity="param(outline-opacity) "  stroke="param(outline) "  fill-opacity="param(fill-opacity) "  fill="param(fill) " class="st0" d="M21,7.3c-0.5-1.1-1.8-1.6-3-1.1c-0.5,0.2-0.9,0.6-1.1,1.1L0.2,44.8c-0.5,1.1,0,2.5,1.1,3
			C1.6,47.9,1.9,48,2.3,48h33.5c1.2,0,2.3-1,2.3-2.2c0-0.3-0.1-0.6-0.2-0.9L21,7.3z"/>
		<path  stroke-width="param(outline-width) "  stroke-opacity="param(outline-opacity) "  stroke="param(outline) "  fill-opacity="param(fill-opacity) "  fill="param(fill) " class="st0" d="M37.1,9.5C37.3,9.8,37.6,10,38,10h5c0.4,0,0.7-0.2,0.9-0.5l2-4c0.2-0.3,0.2-0.7,0-1l-2-4
			C43.7,0.2,43.4,0,43,0h-5c-0.4,0-0.7,0.2-0.9,0.5l-2,4c-0.2,0.3-0.2,0.7,0,1L37.1,9.5z"/>
	</g>
</g>
</svg>
