<?xml version="1.0" encoding="utf-8"?>
<!-- Generator: Adobe Illustrator 25.0.0, SVG Export Plug-In . SVG Version: 6.00 Build 0)  -->
<svg version="1.1" id="Layer_1" xmlns="http://www.w3.org/2000/svg" xmlns:xlink="http://www.w3.org/1999/xlink" x="0px" y="0px"
	 viewBox="0 0 48 48" style="enable-background:new 0 0 48 48;" xml:space="preserve">
<style type="text/css">
	.st0{fill:#011E41;}
</style>
<path  stroke-width="param(outline-width) "  stroke-opacity="param(outline-opacity) "  stroke="param(outline) "  fill-opacity="param(fill-opacity) "  fill="param(fill) " class="st0" d="M10,5C8.3,5,7,6.3,7,8h6C13,6.3,11.7,5,10,5z"/>
<path  stroke-width="param(outline-width) "  stroke-opacity="param(outline-opacity) "  stroke="param(outline) "  fill-opacity="param(fill-opacity) "  fill="param(fill) " class="st0" d="M20,10c0-5.5-4.5-10-10-10S0,4.5,0,10s4.5,10,10,10C15.5,20,20,15.5,20,10z M15,14c0,1.1-0.9,2-2,2H7
	c-1.1,0-2-0.9-2-2V8c0-2.8,2.2-5,5-5s5,2.2,5,5V14z"/>
<path  stroke-width="param(outline-width) "  stroke-opacity="param(outline-opacity) "  stroke="param(outline) "  fill-opacity="param(fill-opacity) "  fill="param(fill) " class="st0" d="M48,28.9c0-0.1,0-0.1,0-0.2c0-0.1,0-0.1-0.1-0.2c0-0.1,0-0.1,0-0.2c0-0.1-0.1-0.1-0.1-0.2c0-0.1,0-0.1-0.1-0.2
	c0-0.1-0.1-0.1-0.1-0.2c0-0.1-0.1-0.1-0.1-0.2c-0.1-0.1-0.1-0.1-0.2-0.2c0,0-0.1-0.1-0.1-0.1c-0.1-0.1-0.2-0.1-0.3-0.2c0,0,0,0,0,0
	l0,0l0,0L32,20v-7.9c0-1.3-0.8-2.5-2-2.9c-1.6-0.5-3.3,0.3-3.8,1.9c-0.1,0.3-0.2,0.6-0.2,1v8l-14.8,7.2l0,0l0,0c0,0,0,0-0.1,0
	c-0.1,0-0.2,0.1-0.3,0.2c0,0-0.1,0.1-0.1,0.1c-0.1,0-0.1,0.1-0.2,0.1c0,0.1-0.1,0.1-0.1,0.2c0,0-0.1,0.1-0.1,0.1
	c0,0.1-0.1,0.1-0.1,0.2c0,0.1-0.1,0.1-0.1,0.2c0,0.1,0,0.1,0,0.2c0,0.1,0,0.1-0.1,0.2c0,0.1,0,0.1,0,0.2c0,0.1,0,0.1,0,0.2
	c0,0.1,0,0.2,0,0.3c0,0,0,0.1,0,0.1l0,0c0,0,0,0,0,0.1c0,0.1,0.1,0.2,0.1,0.3c0,0,0,0,0,0c0,0,0,0,0,0c0.1,0.2,0.2,0.3,0.3,0.4
	c0,0,0,0,0,0c0.1,0.1,0.2,0.2,0.4,0.3c0,0,0.1,0,0.1,0.1c0.1,0.1,0.3,0.1,0.4,0.2c0,0,0.1,0,0.1,0c0.2,0,0.3,0.1,0.5,0.1l0,0l0,0
	c0.1,0,0.3,0,0.4-0.1l0,0L26,28v15c0,0-3.7,3.3-3.8,3.4C22.1,46.6,22,46.8,22,47c0,0.1,0,0.1,0,0.2c0,0,0,0.1,0,0.1
	c0,0.1,0.1,0.2,0.2,0.3c0,0,0.1,0.1,0.2,0.2c0,0,0,0,0,0c0,0,0,0,0,0c0.1,0.1,0.2,0.1,0.3,0.1c0.1,0,0.2,0,0.3,0.1
	c0.1,0,0.1,0,0.2,0c0,0,0.1,0,0.1,0l0.1,0L29,46l5.7,1.9l0,0c0.2,0.1,0.4,0.1,0.6,0c0,0,0.1,0,0.1-0.1c0.2-0.1,0.4-0.3,0.5-0.6
	c0,0,0-0.1,0-0.1c0-0.1,0-0.1,0-0.2c0-0.2,0-0.4-0.2-0.6C35.7,46.3,32,43,32,43V28l13.5,2.9l0,0l0,0c0,0,0,0,0.1,0
	c0.1,0,0.2,0,0.3,0c0,0,0,0,0,0c0.1,0,0.2,0,0.4,0c0,0,0,0,0,0c0.1,0,0.2-0.1,0.3-0.1c0,0,0,0,0,0c0.1,0,0.2-0.1,0.3-0.1
	c0,0,0,0,0.1,0c0.1-0.1,0.2-0.1,0.2-0.2c0,0,0.1-0.1,0.1-0.1c0.1-0.1,0.1-0.1,0.2-0.2c0.1-0.1,0.1-0.2,0.2-0.3c0,0,0,0,0-0.1l0,0
	c0-0.1,0.1-0.2,0.1-0.2c0,0,0-0.1,0.1-0.1l0,0c0,0,0-0.1,0-0.1c0-0.1,0-0.2,0-0.3C48,29,48,28.9,48,28.9z"/>
<path  stroke-width="param(outline-width) "  stroke-opacity="param(outline-opacity) "  stroke="param(outline) "  fill-opacity="param(fill-opacity) "  fill="param(fill) " class="st0" d="M11,10L11,10l-2,0c-0.6,0-1,0.4-1,1v2c0,0.6,0.4,1,1,1h2v0c0.6,0,1-0.4,1-1v-2C12,10.4,11.6,10,11,10z"/>
</svg>
