<?xml version="1.0" encoding="utf-8"?>
<!-- Generator: Adobe Illustrator 25.0.0, SVG Export Plug-In . SVG Version: 6.00 Build 0)  -->
<svg version="1.1" id="Layer_1" xmlns="http://www.w3.org/2000/svg" xmlns:xlink="http://www.w3.org/1999/xlink" x="0px" y="0px"
	 viewBox="0 0 48 48" style="enable-background:new 0 0 48 48;" xml:space="preserve">
<style type="text/css">
	.st0{fill:#011E41;}
</style>
<g id="Layer_2_1_">
	<g id="Icons">
		<path  stroke-width="param(outline-width) "  stroke-opacity="param(outline-opacity) "  stroke="param(outline) "  fill-opacity="param(fill-opacity) "  fill="param(fill) " class="st0" d="M2.5,26C3.9,26,5,24.9,5,23.5c0,0,0,0,0,0C5,17.1,10.3,12,16.6,12c0.1,0,0.2,0,0.2,0h22.6l-2.7,2.7
			c-1,1-1,2.6,0,3.5c1,1,2.6,1,3.5,0c0,0,0,0,0,0l7-7c1-1,1-2.6,0-3.5c0,0,0,0,0,0l-7-7c-1-1-2.6-1-3.5,0c-1,1-1,2.6,0,3.5L39.5,7
			H16.9C7.8,6.8,0.2,14,0,23.1c0,0.1,0,0.2,0,0.4C0,24.9,1.1,26,2.5,26C2.5,26,2.5,26,2.5,26z"/>
		<path  stroke-width="param(outline-width) "  stroke-opacity="param(outline-opacity) "  stroke="param(outline) "  fill-opacity="param(fill-opacity) "  fill="param(fill) " class="st0" d="M40.3,22.7c-1-1-2.6-1-3.5,0c-1,1-1,2.6,0,3.5l2.7,2.7H16.9C7.8,28.8,0.2,36,0,45.1c0,0.1,0,0.2,0,0.4
			C0,46.9,1.1,48,2.5,48S5,46.9,5,45.5C5,39.1,10.3,34,16.6,34c0.1,0,0.2,0,0.2,0h22.6l-2.7,2.7c-1,1-1,2.6,0,3.5s2.6,1,3.5,0
			c0,0,0,0,0,0l7-7c1-1,1-2.6,0-3.5c0,0,0,0,0,0L40.3,22.7z"/>
	</g>
</g>
</svg>
