<?xml version="1.0" encoding="utf-8"?>
<!-- Generator: Adobe Illustrator 25.0.0, SVG Export Plug-In . SVG Version: 6.00 Build 0)  -->
<svg version="1.1" id="Layer_1" xmlns="http://www.w3.org/2000/svg" xmlns:xlink="http://www.w3.org/1999/xlink" x="0px" y="0px"
	 viewBox="0 0 48 28" style="enable-background:new 0 0 48 28;" xml:space="preserve">
<style type="text/css">
	.st0{fill:#011E41;}
</style>
<g id="Layer_2_1_">
	<g id="Icons">
		<path  stroke-width="param(outline-width) "  stroke-opacity="param(outline-opacity) "  stroke="param(outline) "  fill-opacity="param(fill-opacity) "  fill="param(fill) " class="st0" d="M46,20v-3.9c0-2.8-2.3-5.1-5.1-5.1H38V8.6C38,3.9,34.1,0,29.4,0H9.2C6.3,0,4,2.3,4,5.2V6H3C1.3,6,0,7.3,0,9
			c0,0,0,0,0,0v7c0,1.1,0.9,2,2,2h2v2h0c-0.5,0-1,0.2-1.4,0.6c-0.8,0.8-0.8,2,0,2.8C2.9,23.8,3.5,24,4,24h4c0-0.1,0-0.2,0-0.3
			c0-0.1,0-0.1,0-0.2c0-3.6,2.9-6.5,6.5-6.5s6.5,2.9,6.5,6.5c0,0.1,0,0.1,0,0.2c0,0.1,0,0.2,0,0.3h9c0-0.1,0-0.2,0-0.3
			c0-0.1,0-0.1,0-0.2c0-3.6,2.9-6.5,6.5-6.5c3.6,0,6.5,2.9,6.5,6.5c0,0.1,0,0.1,0,0.2c0,0.1,0,0.2,0,0.3h3c1.1,0,2-0.9,2-2
			C48,20.9,47.1,20,46,20z M27,9.4V4h2.3c0.2,0,0.3,0,0.5,0c0.1,0,0.3,0,0.4,0.1c1.9,0.4,3.4,1.9,3.8,3.8C34,8,34,8.1,34,8.2
			c0,0.2,0,0.3,0,0.5V11h-7V9.4z M11,14c-0.7,0-1.3-0.2-1.9-0.6C9,13.3,9,13.2,8.9,13.1C8.4,12.6,8.1,12,8,11.4c0-0.1,0-0.2,0-0.4V5
			c0-0.6,0.4-1,1-1c0,0,0.1,0,0.1,0C9.6,4.1,10,4.5,10,5v6c0,0.1,0,0.2,0.1,0.4c0.2,0.5,0.8,0.8,1.3,0.6c0.3-0.1,0.5-0.3,0.6-0.6
			c0-0.1,0.1-0.2,0.1-0.4V5c0-0.6,0.4-1,1-1s1,0.4,1,1v6c0,0.1,0,0.2,0,0.4C13.8,12.9,12.5,14,11,14z M17,14c-0.4,0-0.8-0.3-0.9-0.6
			c0-0.1-0.1-0.2-0.1-0.4V5c0-0.4,0.3-0.8,0.7-1c0.1,0,0.2,0,0.3,0c0.3,0,0.7,0.2,0.9,0.5l3,4.9L21,9.5V5c0-0.6,0.4-1,1-1s1,0.4,1,1
			v8c0,0.4-0.3,0.8-0.7,1c-0.1,0-0.2,0-0.3,0c-0.3,0-0.7-0.2-0.9-0.5L21,13.4l-1.3-2L19.6,11l-1-1.6L18,8.5V13c0,0.1,0,0.2-0.1,0.4
			C17.8,13.7,17.4,14,17,14z"/>
		<path  stroke-width="param(outline-width) "  stroke-opacity="param(outline-opacity) "  stroke="param(outline) "  fill-opacity="param(fill-opacity) "  fill="param(fill) " class="st0" d="M17.3,20c-1.6-1.3-4-1.3-5.6,0c-1.1,0.9-1.7,2.1-1.7,3.5c0,0.1,0,0.1,0,0.2c0,0.1,0,0.2,0,0.3
			c0.3,2.5,2.5,4.2,5,4c2.1-0.2,3.7-1.9,4-4c0-0.1,0-0.2,0-0.3c0-0.1,0-0.1,0-0.2C19,22.1,18.4,20.9,17.3,20z"/>
		<path  stroke-width="param(outline-width) "  stroke-opacity="param(outline-opacity) "  stroke="param(outline) "  fill-opacity="param(fill-opacity) "  fill="param(fill) " class="st0" d="M39.3,20c-1.6-1.3-4-1.3-5.6,0c-1.1,0.9-1.7,2.1-1.7,3.5c0,0.1,0,0.1,0,0.2c0,0.1,0,0.2,0,0.3
			c0.3,2.5,2.5,4.2,5,4c2.1-0.2,3.7-1.9,4-4c0-0.1,0-0.2,0-0.3c0-0.1,0-0.1,0-0.2C41,22.1,40.4,20.9,39.3,20z"/>
	</g>
</g>
</svg>
