<?xml version="1.0" encoding="utf-8"?>
<!-- Generator: Adobe Illustrator 25.0.0, SVG Export Plug-In . SVG Version: 6.00 Build 0)  -->
<svg version="1.1" id="Layer_1" xmlns="http://www.w3.org/2000/svg" xmlns:xlink="http://www.w3.org/1999/xlink" x="0px" y="0px"
	 viewBox="0 0 32 48" style="enable-background:new 0 0 32 48;" xml:space="preserve">
<style type="text/css">
	.st0{fill:#011E41;}
</style>
<g id="Layer_2_1_">
	<g id="Icons">
		<path  stroke-width="param(outline-width) "  stroke-opacity="param(outline-opacity) "  stroke="param(outline) "  fill-opacity="param(fill-opacity) "  fill="param(fill) " class="st0" d="M30,6H2C0.9,6,0,6.9,0,8v22h32V8C32,6.9,31.1,6,30,6z M23,20c0,0.9-0.2,1.8-0.5,2.7c0,0,0,0,0,0
			c-1.5,3.6-5.6,5.2-9.2,3.7c-1.7-0.7-3-2-3.7-3.7c0,0,0,0,0,0C9.2,21.8,9,20.9,9,20v-8.2c0-0.4,0.3-0.8,0.7-1l6-1.7
			c0.2-0.1,0.4-0.1,0.5,0l6,1.7c0.4,0.1,0.7,0.5,0.7,1V20z"/>
		<path  stroke-width="param(outline-width) "  stroke-opacity="param(outline-opacity) "  stroke="param(outline) "  fill-opacity="param(fill-opacity) "  fill="param(fill) " class="st0" d="M6,4h20c1.1,0,2-0.9,2-2s-0.9-2-2-2H6C4.9,0,4,0.9,4,2S4.9,4,6,4z"/>
		<path  stroke-width="param(outline-width) "  stroke-opacity="param(outline-opacity) "  stroke="param(outline) "  fill-opacity="param(fill-opacity) "  fill="param(fill) " class="st0" d="M0,48h12V38c0-1.1,0.9-2,2-2h4c1.1,0,2,0.9,2,2v10h12V32H0V48z"/>
		<path  stroke-width="param(outline-width) "  stroke-opacity="param(outline-opacity) "  stroke="param(outline) "  fill-opacity="param(fill-opacity) "  fill="param(fill) " class="st0" d="M19.5,16.6l-1.9,0c-0.2,0-0.4-0.2-0.5-0.4l-0.6-1.8c-0.1-0.3-0.4-0.4-0.7-0.3c-0.2,0.1-0.3,0.2-0.3,0.3
			l-0.6,1.8c-0.1,0.2-0.3,0.4-0.5,0.4l-1.9,0c-0.3,0-0.5,0.3-0.5,0.6c0,0.2,0.1,0.3,0.2,0.4l1.5,1.2c0.2,0.1,0.2,0.4,0.2,0.6
			l-0.5,1.9c-0.1,0.3,0.1,0.6,0.3,0.7c0.2,0.1,0.3,0,0.5-0.1l1.5-1.1c0.2-0.1,0.4-0.1,0.6,0l1.5,1.1c0.2,0.2,0.6,0.1,0.7-0.1
			c0.1-0.1,0.1-0.3,0.1-0.5l-0.5-1.9c-0.1-0.2,0-0.5,0.2-0.6l1.5-1.2c0.2-0.2,0.3-0.5,0.1-0.8C19.8,16.7,19.6,16.6,19.5,16.6z"/>
	</g>
</g>
</svg>
