<?xml version="1.0" encoding="utf-8"?>
<!-- Generator: Adobe Illustrator 25.0.0, SVG Export Plug-In . SVG Version: 6.00 Build 0)  -->
<svg version="1.1" id="Layer_1" xmlns="http://www.w3.org/2000/svg" xmlns:xlink="http://www.w3.org/1999/xlink" x="0px" y="0px"
	 viewBox="0 0 48 48" style="enable-background:new 0 0 48 48;" xml:space="preserve">
<style type="text/css">
	.st0{fill:#011E41;}
</style>
<path  stroke-width="param(outline-width) "  stroke-opacity="param(outline-opacity) "  stroke="param(outline) "  fill-opacity="param(fill-opacity) "  fill="param(fill) " class="st0" d="M9.3,30c0,5,4,9,9,9c2.4,0,4.7-0.9,6.4-2.6L35.9,25c3.5-3.5,3.5-9.2,0-12.7s-9.2-3.5-12.7,0l0,0L11.9,23.6
	C10.2,25.3,9.3,27.6,9.3,30z M22.5,19c1.4,0,2.5,1.1,2.5,2.5S23.9,24,22.5,24S20,22.9,20,21.5C20,20.1,21.1,19,22.5,19
	C22.5,19,22.5,19,22.5,19z M19,27c2.2,0,4,1.8,4,4s-1.8,4-4,4s-4-1.8-4-4C15,28.8,16.8,27,19,27z"/>
<path  stroke-width="param(outline-width) "  stroke-opacity="param(outline-opacity) "  stroke="param(outline) "  fill-opacity="param(fill-opacity) "  fill="param(fill) " class="st0" d="M46,16l-2.7,0c-0.1-0.5-0.2-1-0.4-1.5c0-0.1-0.1-0.2-0.1-0.3c-0.1-0.4-0.3-0.8-0.4-1.2c0-0.1-0.1-0.2-0.1-0.3
	c-0.2-0.4-0.4-0.8-0.6-1.2c0,0-0.1-0.1-0.1-0.1c-0.3-0.4-0.6-0.9-0.9-1.3l1.7-1.7c0.8-0.8,0.8-2,0-2.8s-2-0.8-2.8,0l-1.8,1.8
	c-1.7-1.3-3.7-2.1-5.8-2.5l0,0V2c0-1.1-0.9-2-2-2s-2,0.9-2,2v2.8l0,0c-0.9,0.1-1.7,0.3-2.5,0.5c0,0,0,0,0,0
	c-0.4,0.1-0.8,0.3-1.2,0.4c-0.4,0.2-0.8,0.3-1.2,0.6l-2.7-2.7c-0.8-0.8-2-0.8-2.8,0c-0.8,0.8-0.8,2,0,2.8l2.2,2.2
	c0,0-0.1,0.1-0.1,0.1l-3.5,3.5l-3.7-3.7c-0.8-0.8-2-0.8-2.8,0s-0.8,2,0,2.8l3.7,3.7l-4.2,4.2l-2.7-2.7c-0.8-0.8-2-0.8-2.8,0
	c-0.8,0.8-0.8,2,0,2.8l2.9,2.9l0,0c-0.9,1.4-1.6,3-1.9,4.6l0,0H2c-1.1,0-2,0.9-2,2s0.9,2,2,2h2.3l0,0c0,0.3,0.1,0.6,0.1,0.8
	c0,0.1,0,0.2,0,0.2c0.1,0.9,0.4,1.8,0.7,2.6c0,0,0,0.1,0,0.1C5.6,36,6.2,37.2,7,38.2l-1.4,1.4c-0.8,0.8-0.8,2,0,2.8s2,0.8,2.8,0
	l1.3-1.3c0.5,0.4,1,0.7,1.6,1.1c0,0,0.1,0,0.1,0.1c0.2,0.1,0.5,0.3,0.7,0.4c0.1,0.1,0.2,0.1,0.3,0.2c0.2,0.1,0.5,0.2,0.7,0.3
	c0.3,0.1,0.6,0.2,0.9,0.3c0.2,0.1,0.3,0.1,0.5,0.1c0.2,0.1,0.5,0.1,0.7,0.2c0.2,0,0.3,0.1,0.5,0.1c0.3,0.1,0.6,0.1,0.9,0.1
	c0.1,0,0.2,0,0.3,0h0V46c0,1.1,0.9,2,2,2s2-0.9,2-2v-2.3c0,0,0,0,0,0c1.7-0.3,3.4-1,4.9-2l2.7,2.7c0.8,0.8,2,0.8,2.8,0s0.8-2,0-2.8
	l-2.5-2.5l4.2-4.2l3.5,3.5c0.8,0.8,2,0.8,2.8,0s0.8-2,0-2.8l-3.5-3.5l3.5-3.5c0,0,0.1-0.1,0.1-0.1l2,2c0.8,0.8,2,0.8,2.8,0
	c0.8-0.8,0.8-2,0-2.8L42,25.2c0.6-1.2,1.1-2.5,1.3-3.8l0,0c0.1-0.4,0.1-0.9,0.2-1.3l0,0l2.5,0h0c1.1,0,2-0.9,2-2S47.1,16,46,16z
	 M21.8,10.9c0,0,0.1-0.1,0.1-0.1c1-1,2.1-1.7,3.4-2.2l0,0c0.9-0.4,1.7-0.6,2.7-0.7c0.3,0,0.7-0.1,1-0.1h0c0.3,0,0.7,0,1,0l0,0
	c0.3,0,0.7,0,1,0.1l0,0c0.3,0,0.7,0.1,1,0.2c0.6,0.1,1.3,0.3,1.9,0.6c0,0,0.1,0,0.1,0.1c0.3,0.1,0.5,0.2,0.8,0.4
	C34.9,9,35,9.1,35.1,9.2c0.2,0.1,0.4,0.2,0.6,0.4c0.3,0.2,0.6,0.4,0.9,0.6c0.3,0.2,0.6,0.5,0.8,0.7c0.2,0.2,0.4,0.5,0.6,0.7
	c0.2,0.2,0.4,0.5,0.5,0.7c0.2,0.3,0.4,0.6,0.6,0.9l0,0c0.2,0.3,0.3,0.6,0.5,0.9l0,0c0.1,0.3,0.3,0.6,0.4,0.9l0,0
	c0.1,0.3,0.2,0.6,0.3,1c0.2,0.7,0.3,1.3,0.3,2l0,0c0,0.3,0,0.7,0,1l0,0c0,0.3,0,0.7-0.1,1l0,0c-0.1,0.5-0.1,0.9-0.3,1.4
	c0,0,0,0.1,0,0.1c-0.1,0.5-0.3,0.9-0.5,1.4c-0.5,1.3-1.3,2.4-2.2,3.4c0,0-0.1,0.1-0.1,0.1l-7.8,7.8L26.8,37L26,37.8
	c-0.3,0.3-0.7,0.6-1.1,0.9c-0.1,0-0.1,0.1-0.2,0.1c-0.4,0.3-0.7,0.5-1.1,0.7l0,0c-0.9,0.5-1.8,0.9-2.7,1.1c-0.4,0.1-0.8,0.2-1.3,0.2
	c0,0-0.1,0-0.1,0C19.1,41,18.7,41,18.3,41c-0.4,0-0.9,0-1.3-0.1l0,0c-0.4-0.1-0.9-0.1-1.3-0.2c0,0-0.1,0-0.1,0
	c-1.3-0.3-2.6-0.9-3.7-1.7c-0.2-0.2-0.5-0.3-0.7-0.5c-0.2-0.2-0.5-0.4-0.7-0.6c-0.5-0.5-1-1.1-1.4-1.7c-0.2-0.4-0.5-0.7-0.6-1.1
	c0-0.1-0.1-0.2-0.1-0.3c-0.1-0.3-0.3-0.6-0.4-0.9c0-0.1-0.1-0.2-0.1-0.3c-0.1-0.3-0.2-0.6-0.3-0.9c0-0.1,0-0.2-0.1-0.3
	c-0.4-1.7-0.3-3.5,0.2-5.2c0.2-0.9,0.6-1.7,1-2.5l0,0c0.2-0.4,0.5-0.8,0.7-1.1c0-0.1,0.1-0.1,0.1-0.2c0.3-0.4,0.6-0.7,0.9-1.1
	l0.8-0.8l4.2-4.2l2.8-2.8L21.8,10.9z"/>
</svg>
