<?xml version="1.0" encoding="utf-8"?>
<!-- Generator: Adobe Illustrator 25.0.0, SVG Export Plug-In . SVG Version: 6.00 Build 0)  -->
<svg version="1.1" id="Layer_1" xmlns="http://www.w3.org/2000/svg" xmlns:xlink="http://www.w3.org/1999/xlink" x="0px" y="0px"
	 viewBox="0 0 48 43" style="enable-background:new 0 0 48 43;" xml:space="preserve">
<style type="text/css">
	.st0{fill:#011E41;}
</style>
<g id="Layer_2_1_">
	<g id="Icons">
		<path  stroke-width="param(outline-width) "  stroke-opacity="param(outline-opacity) "  stroke="param(outline) "  fill-opacity="param(fill-opacity) "  fill="param(fill) " class="st0" d="M47.5,20.4l-6.9-6.9c-0.6-0.6-1.6-0.6-2.2,0c-0.6,0.6-0.6,1.6,0,2.2l0,0l4.3,4.3H29.5c-0.8,0-1.5,0.7-1.5,1.5
			s0.7,1.5,1.5,1.5h13.3l-4.4,4.3c-0.6,0.6-0.6,1.6,0,2.2c0.6,0.6,1.6,0.6,2.2,0l6.9-6.9C48.2,22,48.2,21,47.5,20.4
			C47.5,20.4,47.5,20.4,47.5,20.4z"/>
		<path  stroke-width="param(outline-width) "  stroke-opacity="param(outline-opacity) "  stroke="param(outline) "  fill-opacity="param(fill-opacity) "  fill="param(fill) " class="st0" d="M29.8,2.8c-0.7-2.1-3-3.2-5.1-2.5s-3.2,3-2.5,5.1c0.7,2.1,3,3.2,5.1,2.5c0,0,0,0,0,0
			C29.3,7.1,30.5,4.8,29.8,2.8z"/>
		<path  stroke-width="param(outline-width) "  stroke-opacity="param(outline-opacity) "  stroke="param(outline) "  fill-opacity="param(fill-opacity) "  fill="param(fill) " class="st0" d="M20.7,23.5l3.9-7.8c1.2-2.4,0.2-5.3-2.1-6.5L20,7.9c-0.1-0.1-0.3-0.1-0.4-0.2c-6.9-3-14.9-0.2-18.3,6.5
			c-0.5,1-0.1,2.3,0.9,2.8c1,0.5,2.3,0.1,2.8-0.9c1.9-3.8,6-5.9,10.2-5.4L0.2,40c-0.5,1-0.1,2.3,0.9,2.8c1,0.5,2.3,0.1,2.8-0.9
			c0,0,0,0,0,0l9-17.7l4.5,2.3c4.8,2.6,6.7,8.7,4.2,13.6c-0.5,1-0.1,2.3,0.9,2.8c1,0.5,2.3,0.1,2.8-0.9c0,0,0,0,0,0
			C28.6,35.5,26.7,27.6,20.7,23.5z"/>
	</g>
</g>
</svg>
