<?xml version="1.0" encoding="utf-8"?>
<!-- Generator: Adobe Illustrator 25.0.0, SVG Export Plug-In . SVG Version: 6.00 Build 0)  -->
<svg version="1.1" id="Layer_1" xmlns="http://www.w3.org/2000/svg" xmlns:xlink="http://www.w3.org/1999/xlink" x="0px" y="0px"
	 viewBox="0 0 48 42" style="enable-background:new 0 0 48 42;" xml:space="preserve">
<style type="text/css">
	.st0{fill:#011E41;}
</style>
<g id="Layer_2_1_">
	<g id="Icons">
		<path  stroke-width="param(outline-width) "  stroke-opacity="param(outline-opacity) "  stroke="param(outline) "  fill-opacity="param(fill-opacity) "  fill="param(fill) " class="st0" d="M16,21c0-4.4,3.6-8,8-8c0.3,0,0.6,0,0.9,0.1l6.3-6.3C28.8,6.2,26.4,6,24,6C14.2,6,6.1,9.8,0.6,18.8
			c-0.8,1.3-0.8,3,0,4.4c1.7,2.9,3.9,5.4,6.6,7.5l8.8-8.8C16,21.6,16,21.3,16,21z"/>
		<path  stroke-width="param(outline-width) "  stroke-opacity="param(outline-opacity) "  stroke="param(outline) "  fill-opacity="param(fill-opacity) "  fill="param(fill) " class="st0" d="M47.4,18.8c-1.7-2.9-3.9-5.4-6.6-7.5l-8.8,8.8c0.5,4.4-2.7,8.3-7,8.8c-0.6,0.1-1.2,0.1-1.8,0l-6.3,6.3
			c2.4,0.5,4.8,0.8,7.2,0.8c9.8,0,17.9-3.8,23.4-12.8C48.2,21.8,48.2,20.2,47.4,18.8z"/>
		<path  stroke-width="param(outline-width) "  stroke-opacity="param(outline-opacity) "  stroke="param(outline) "  fill-opacity="param(fill-opacity) "  fill="param(fill) " class="st0" d="M5,42c-1.1,0-2-0.9-2-2c0-0.5,0.2-1,0.6-1.4l38-38c0.8-0.8,2-0.8,2.8,0s0.8,2,0,2.8l-38,38
			C6,41.8,5.5,42,5,42z"/>
	</g>
</g>
</svg>
