<?xml version="1.0" encoding="utf-8"?>
<!-- Generator: Adobe Illustrator 25.0.0, SVG Export Plug-In . SVG Version: 6.00 Build 0)  -->
<svg version="1.1" id="Layer_1" xmlns="http://www.w3.org/2000/svg" xmlns:xlink="http://www.w3.org/1999/xlink" x="0px" y="0px"
	 viewBox="0 0 40 48" style="enable-background:new 0 0 40 48;" xml:space="preserve">
<style type="text/css">
	.st0{fill:#011E41;}
</style>
<g id="Layer_2_1_">
	<g id="Icons">
		<path  stroke-width="param(outline-width) "  stroke-opacity="param(outline-opacity) "  stroke="param(outline) "  fill-opacity="param(fill-opacity) "  fill="param(fill) " class="st0" d="M12,7h16c4,0,7.8,2,10,5.4V2c0-1.1-0.9-2-2-2c0,0,0,0,0,0H4C2.9,0,2,0.9,2,2c0,0,0,0,0,0v10.4C4.2,9,8,7,12,7
			z"/>
		<path  stroke-width="param(outline-width) "  stroke-opacity="param(outline-opacity) "  stroke="param(outline) "  fill-opacity="param(fill-opacity) "  fill="param(fill) " class="st0" d="M38.5,24.4c-0.2-0.1-0.3-0.2-0.5-0.2c-0.3-0.1-0.7-0.2-1-0.2v-5c0-5-4-9-9-9H12c-5,0-9,4-9,9v5
			c-0.3,0-0.7,0.1-1,0.2c-0.2,0.1-0.3,0.1-0.5,0.2C0.6,24.9,0,25.9,0,27v12c0,1.7,1.3,3,3,3c0,0,0,0,0,0v3.1C3,46.7,4.3,48,5.9,48
			h0.1C7.7,48,9,46.7,9,45.1V42h22v3.1c0,1.6,1.3,2.9,2.9,2.9h0.1c1.6,0,2.9-1.3,2.9-2.9V42c1.7,0,3-1.3,3-3c0,0,0,0,0,0V27
			C40,25.9,39.4,24.9,38.5,24.4z M5.5,34C4.1,34,3,32.9,3,31.5C3,30.1,4.1,29,5.5,29S8,30.1,8,31.5C8,32.9,6.9,34,5.5,34z M15,35
			c0,1.1-0.9,2-2,2s-2-0.9-2-2v-5c0-0.1,0-0.2,0-0.4c0.2-0.9,1-1.6,2-1.6c1,0,1.8,0.7,2,1.6c0,0.1,0,0.2,0,0.4V35z M22,35
			c0,1.1-0.9,2-2,2s-2-0.9-2-2v-5c0-0.1,0-0.2,0-0.4c0.2-0.9,1-1.6,2-1.6c1,0,1.8,0.7,2,1.6c0,0.1,0,0.2,0,0.4V35z M29,35
			c0,1.1-0.9,2-2,2s-2-0.9-2-2v-5c0-0.1,0-0.2,0-0.4c0.2-0.9,1-1.6,2-1.6c1,0,1.8,0.7,2,1.6c0,0.1,0,0.2,0,0.4V35z M31,24H9v-5
			c0-1.7,1.3-3,3-3h16c1.7,0,3,1.3,3,3V24z M34.5,34c-1.4,0-2.5-1.1-2.5-2.5c0-1.4,1.1-2.5,2.5-2.5s2.5,1.1,2.5,2.5
			C37,32.9,35.9,34,34.5,34z"/>
	</g>
</g>
</svg>
