<?xml version="1.0" encoding="utf-8"?>
<!-- Generator: Adobe Illustrator 25.0.0, SVG Export Plug-In . SVG Version: 6.00 Build 0)  -->
<svg version="1.1" id="Layer_1" xmlns="http://www.w3.org/2000/svg" xmlns:xlink="http://www.w3.org/1999/xlink" x="0px" y="0px"
	 viewBox="0 0 43.8 48" style="enable-background:new 0 0 43.8 48;" xml:space="preserve">
<style type="text/css">
	.st0{fill:#011E41;}
</style>
<g id="Layer_2_1_">
	<g id="Icons">
		<path  stroke-width="param(outline-width) "  stroke-opacity="param(outline-opacity) "  stroke="param(outline) "  fill-opacity="param(fill-opacity) "  fill="param(fill) " class="st0" d="M10,0C4.5,0,0,4.5,0,10s4.5,10,10,10s10-4.5,10-10C20,4.5,15.5,0,10,0C10,0,10,0,10,0z M10,17
			c-0.6,0-1-0.4-1-1c0-0.6,0.4-1,1-1s1,0.4,1,1C11,16.6,10.6,17,10,17z M11,12c0,0.6-0.4,1-1,1s-1-0.4-1-1V4c0-0.6,0.4-1,1-1
			s1,0.4,1,1V12z"/>
		<path  stroke-width="param(outline-width) "  stroke-opacity="param(outline-opacity) "  stroke="param(outline) "  fill-opacity="param(fill-opacity) "  fill="param(fill) " class="st0" d="M29.6,20.3l1,0.3l0.8-3c0.7-2.8-0.9-5.6-3.7-6.3l-1-0.3L26,14C25.3,16.8,26.9,19.6,29.6,20.3
			C29.6,20.3,29.6,20.3,29.6,20.3z"/>
		<path  stroke-width="param(outline-width) "  stroke-opacity="param(outline-opacity) "  stroke="param(outline) "  fill-opacity="param(fill-opacity) "  fill="param(fill) " class="st0" d="M27.2,29.3l1,0.3l0.8-3c0.7-2.8-0.9-5.6-3.7-6.3c0,0,0,0,0,0l-1-0.3l-0.8,3C22.8,25.7,24.5,28.6,27.2,29.3z"
			/>
		<path  stroke-width="param(outline-width) "  stroke-opacity="param(outline-opacity) "  stroke="param(outline) "  fill-opacity="param(fill-opacity) "  fill="param(fill) " class="st0" d="M25.8,38.6l0.8-3c0.7-2.8-0.9-5.6-3.7-6.3L22,29l-0.8,3c-0.7,2.8,0.9,5.6,3.7,6.3L25.8,38.6z"/>
		<path  stroke-width="param(outline-width) "  stroke-opacity="param(outline-opacity) "  stroke="param(outline) "  fill-opacity="param(fill-opacity) "  fill="param(fill) " class="st0" d="M34.4,18.4l-0.8,3l1,0.3c2.8,0.7,5.6-0.9,6.3-3.7l0.8-3l-1-0.3C38,14,35.2,15.7,34.4,18.4
			C34.4,18.4,34.4,18.4,34.4,18.4z"/>
		<path  stroke-width="param(outline-width) "  stroke-opacity="param(outline-opacity) "  stroke="param(outline) "  fill-opacity="param(fill-opacity) "  fill="param(fill) " class="st0" d="M32,27.4l-0.8,3l1,0.3c2.8,0.7,5.6-0.9,6.3-3.7l0.8-3l-1-0.3C35.6,23,32.8,24.6,32,27.4z"/>
		<path  stroke-width="param(outline-width) "  stroke-opacity="param(outline-opacity) "  stroke="param(outline) "  fill-opacity="param(fill-opacity) "  fill="param(fill) " class="st0" d="M29.6,36.4l-0.8,3l1,0.3c2.8,0.7,5.6-0.9,6.3-3.7l0.8-3l-1-0.3C33.2,32,30.4,33.6,29.6,36.4
			C29.6,36.4,29.6,36.4,29.6,36.4z"/>
		<path  stroke-width="param(outline-width) "  stroke-opacity="param(outline-opacity) "  stroke="param(outline) "  fill-opacity="param(fill-opacity) "  fill="param(fill) " class="st0" d="M23.8,46c-0.2,0.8,0.3,1.7,1.1,1.9c0.8,0.2,1.7-0.3,1.9-1.1l1.5-5.5l-3-0.8L23.8,46z"/>
		<path  stroke-width="param(outline-width) "  stroke-opacity="param(outline-opacity) "  stroke="param(outline) "  fill-opacity="param(fill-opacity) "  fill="param(fill) " class="st0" d="M28.8,9.4c0.8,0.2,1.7-0.3,1.9-1.1l1.1-4c0.2-0.8-0.3-1.7-1.1-1.9c-0.8-0.2-1.7,0.3-1.9,1.1c0,0,0,0,0,0
			l-1.1,4C27.5,8.4,28,9.2,28.8,9.4z"/>
		<path  stroke-width="param(outline-width) "  stroke-opacity="param(outline-opacity) "  stroke="param(outline) "  fill-opacity="param(fill-opacity) "  fill="param(fill) " class="st0" d="M42.7,5.6c-0.8-0.2-1.7,0.3-1.9,1.1l-1.1,4c-0.2,0.8,0.3,1.7,1.1,1.9c0.8,0.2,1.7-0.3,1.9-1.1l1.1-4
			C44,6.7,43.5,5.9,42.7,5.6z"/>
		<path  stroke-width="param(outline-width) "  stroke-opacity="param(outline-opacity) "  stroke="param(outline) "  fill-opacity="param(fill-opacity) "  fill="param(fill) " class="st0" d="M34,14c0.8,0.2,1.7-0.3,1.9-1.1l2.9-11c0.2-0.8-0.3-1.7-1.1-1.9s-1.7,0.3-1.9,1.1c0,0,0,0,0,0l-2.9,11
			C32.7,13,33.2,13.8,34,14C34,14,34,14,34,14z"/>
	</g>
</g>
</svg>
