<?xml version="1.0" encoding="utf-8"?>
<!-- Generator: Adobe Illustrator 25.0.0, SVG Export Plug-In . SVG Version: 6.00 Build 0)  -->
<svg version="1.1" id="Layer_1" xmlns="http://www.w3.org/2000/svg" xmlns:xlink="http://www.w3.org/1999/xlink" x="0px" y="0px"
	 viewBox="0 0 48 44.1" style="enable-background:new 0 0 48 44.1;" xml:space="preserve">
<style type="text/css">
	.st0{fill:#011E41;}
</style>
<g id="Layer_2_1_">
	<g id="Icons">
		<path  stroke-width="param(outline-width) "  stroke-opacity="param(outline-opacity) "  stroke="param(outline) "  fill-opacity="param(fill-opacity) "  fill="param(fill) " class="st0" d="M2,8h4.3c1.1,3.1,4.5,4.8,7.7,3.7c1.7-0.6,3.1-2,3.7-3.7H46c1.1,0,2-0.9,2-2s-0.9-2-2-2H17.7
			c-1.1-3.1-4.5-4.8-7.7-3.7C8.3,0.9,6.9,2.3,6.3,4H2C0.9,4,0,4.9,0,6S0.9,8,2,8z M12,4c1.1,0,2,0.9,2,2s-0.9,2-2,2
			c-1.1,0-2-0.9-2-2C10,4.9,10.9,4,12,4z"/>
		<path  stroke-width="param(outline-width) "  stroke-opacity="param(outline-opacity) "  stroke="param(outline) "  fill-opacity="param(fill-opacity) "  fill="param(fill) " class="st0" d="M46,36H25.7c-1.1-3.1-4.5-4.8-7.7-3.7c-1.7,0.6-3.1,2-3.7,3.7H2c-1.1,0-2,0.9-2,2s0.9,2,2,2h12.3
			c1.1,3.1,4.5,4.8,7.7,3.7c1.7-0.6,3.1-2,3.7-3.7H46c1.1,0,2-0.9,2-2S47.1,36,46,36z M20,40.1c-1.1,0-2-0.9-2-2c0-1.1,0.9-2,2-2
			c1.1,0,2,0.9,2,2c0,0,0,0,0,0C22,39.2,21.1,40.1,20,40.1z"/>
		<path  stroke-width="param(outline-width) "  stroke-opacity="param(outline-opacity) "  stroke="param(outline) "  fill-opacity="param(fill-opacity) "  fill="param(fill) " class="st0" d="M46,20h-4.3c-1.1-3.1-4.5-4.8-7.7-3.7c-1.7,0.6-3.1,2-3.7,3.7H2c-1.1,0-2,0.9-2,2s0.9,2,2,2h28.3
			c1.1,3.1,4.5,4.8,7.7,3.7c1.7-0.6,3.1-2,3.7-3.7H46c1.1,0,2-0.9,2-2S47.1,20,46,20z M36,24c-1.1,0-2-0.9-2-2c0-1.1,0.9-2,2-2
			c1.1,0,2,0.9,2,2C38,23.1,37.1,24,36,24z"/>
	</g>
</g>
</svg>
