<?xml version="1.0" encoding="utf-8"?>
<!-- Generator: Adobe Illustrator 25.0.0, SVG Export Plug-In . SVG Version: 6.00 Build 0)  -->
<svg version="1.1" id="Layer_1" xmlns="http://www.w3.org/2000/svg" xmlns:xlink="http://www.w3.org/1999/xlink" x="0px" y="0px"
	 viewBox="0 0 48 42" style="enable-background:new 0 0 48 42;" xml:space="preserve">
<style type="text/css">
	.st0{fill:#011E41;}
</style>
<g id="Layer_2_1_">
	<g id="Icons">
		<path  stroke-width="param(outline-width) "  stroke-opacity="param(outline-opacity) "  stroke="param(outline) "  fill-opacity="param(fill-opacity) "  fill="param(fill) " class="st0" d="M44,1c0-0.6-0.7-1-1.5-1H5.5C4.7,0,4,0.4,4,1v3h40V1z"/>
		<path  stroke-width="param(outline-width) "  stroke-opacity="param(outline-opacity) "  stroke="param(outline) "  fill-opacity="param(fill-opacity) "  fill="param(fill) " class="st0" d="M46,6H2C0.9,6,0,6.9,0,8v16c0,1.1,0.9,2,2,2h6V16h32v10h6c1.1,0,2-0.9,2-2V8C48,6.9,47.1,6,46,6z M31,13
			c-1.1,0-2-0.9-2-2s0.9-2,2-2c1.1,0,2,0.9,2,2C33,12.1,32.1,13,31,13z M38,13c-1.1,0-2-0.9-2-2s0.9-2,2-2s2,0.9,2,2
			C40,12.1,39.1,13,38,13z"/>
		<path  stroke-width="param(outline-width) "  stroke-opacity="param(outline-opacity) "  stroke="param(outline) "  fill-opacity="param(fill-opacity) "  fill="param(fill) " class="st0" d="M10,26v15c0,0.6,0.4,1,1,1h26c0.6,0,1-0.4,1-1V18H10V26z M34,35H14c-0.6,0-1-0.4-1-1s0.4-1,1-1h20
			c0.6,0,1,0.4,1,1S34.6,35,34,35z M34,29H14c-0.6,0-1-0.4-1-1s0.4-1,1-1h20c0.6,0,1,0.4,1,1S34.6,29,34,29z"/>
	</g>
</g>
</svg>
