<?xml version="1.0" encoding="utf-8"?>
<!-- Generator: Adobe Illustrator 25.0.0, SVG Export Plug-In . SVG Version: 6.00 Build 0)  -->
<svg version="1.1" id="Layer_1" xmlns="http://www.w3.org/2000/svg" xmlns:xlink="http://www.w3.org/1999/xlink" x="0px" y="0px"
	 viewBox="0 0 44 32" style="enable-background:new 0 0 44 32;" xml:space="preserve">
<style type="text/css">
	.st0{fill:#011E41;}
</style>
<g id="Layer_2_1_">
	<g id="FINAL">
		<path  stroke-width="param(outline-width) "  stroke-opacity="param(outline-opacity) "  stroke="param(outline) "  fill-opacity="param(fill-opacity) "  fill="param(fill) " class="st0" d="M37,0.9V0l7,7h-6.2C37.3,7,37,6.7,37,6.2V0.9z M44,9v21c0,1.1-0.9,2-2,2H2c-1.1,0-2-0.9-2-2V2
			c0-1.1,0.9-2,2-2h33v6.2C35,7.8,36.2,9,37.8,9H44z M11,21v-6c0-0.6,0.4-1,1-1h3c0.6,0,1-0.4,1-1s-0.4-1-1-1h-3c-1.7,0-3,1.3-3,3v6
			c0,1.7,1.3,3,3,3h3c0.6,0,1-0.4,1-1s-0.4-1-1-1h-3C11.4,22,11,21.6,11,21z M25,20c0-1.7-1.3-3-3-3h-1c-0.6,0-1-0.4-1-1v-1
			c0-0.6,0.4-1,1-1h2c0.6,0,1-0.4,1-1s-0.4-1-1-1h-2c-1.7,0-3,1.3-3,3v1c0,1.7,1.3,3,3,3h1c0.6,0,1,0.4,1,1v1c0,0.6-0.4,1-1,1h-3
			c-0.6,0-1,0.4-1,1s0.4,1,1,1h3c1.7,0,3-1.3,3-3V20z M33.3,12c-0.5-0.2-1.1,0.1-1.2,0.7l-2,6.8l-2-6.8c-0.2-0.5-0.7-0.8-1.2-0.7
			c-0.5,0.2-0.8,0.7-0.7,1.2l3,10c0.2,0.5,0.7,0.8,1.2,0.7c0.3-0.1,0.6-0.3,0.7-0.7l3-10C34.1,12.8,33.8,12.2,33.3,12z"/>
	</g>
</g>
</svg>
