<?xml version="1.0" encoding="utf-8"?>
<!-- Generator: Adobe Illustrator 25.0.0, SVG Export Plug-In . SVG Version: 6.00 Build 0)  -->
<svg version="1.1" id="Layer_1" xmlns="http://www.w3.org/2000/svg" xmlns:xlink="http://www.w3.org/1999/xlink" x="0px" y="0px"
	 viewBox="0 0 48 48" style="enable-background:new 0 0 48 48;" xml:space="preserve">
<style type="text/css">
	.st0{fill:#011E41;}
</style>
<g id="Layer_2_1_">
	<g id="Icons">
		<path  stroke-width="param(outline-width) "  stroke-opacity="param(outline-opacity) "  stroke="param(outline) "  fill-opacity="param(fill-opacity) "  fill="param(fill) " class="st0" d="M4,36h12c0.5,0,1-0.4,1-1c0,0,0,0,0,0V17c0-0.5-0.4-1-1-1c-0.3,0-0.6,0.2-0.8,0.4l-12,18
			c-0.3,0.5-0.2,1.1,0.3,1.4C3.6,35.9,3.8,36,4,36z"/>
		<path  stroke-width="param(outline-width) "  stroke-opacity="param(outline-opacity) "  stroke="param(outline) "  fill-opacity="param(fill-opacity) "  fill="param(fill) " class="st0" d="M20,36h24c0.6,0,1-0.4,1-1c0,0,0,0,0,0C44.6,16.6,32.8,0.8,20,0c-0.5,0-1,0.4-1,1c0,0,0,0,0,0v34
			C19,35.6,19.4,36,20,36z"/>
		<path  stroke-width="param(outline-width) "  stroke-opacity="param(outline-opacity) "  stroke="param(outline) "  fill-opacity="param(fill-opacity) "  fill="param(fill) " class="st0" d="M46,39H2c-1.1,0-2,0.9-2,2c0,3.9,3.1,7,7,7c0,0,0,0,0,0h34c3.9,0,7-3.1,7-7c0,0,0,0,0,0
			C48,39.9,47.1,39,46,39z"/>
	</g>
</g>
</svg>
