<?xml version="1.0" encoding="utf-8"?>
<!-- Generator: Adobe Illustrator 25.0.0, SVG Export Plug-In . SVG Version: 6.00 Build 0)  -->
<svg version="1.1" id="Layer_1" xmlns="http://www.w3.org/2000/svg" xmlns:xlink="http://www.w3.org/1999/xlink" x="0px" y="0px"
	 viewBox="0 0 48 47.7" style="enable-background:new 0 0 48 47.7;" xml:space="preserve">
<style type="text/css">
	.st0{fill:#011E41;}
</style>
<path  stroke-width="param(outline-width) "  stroke-opacity="param(outline-opacity) "  stroke="param(outline) "  fill-opacity="param(fill-opacity) "  fill="param(fill) " class="st0" d="M46.5,44.7H33.3l-6.8-25.2c0.7-0.7,1.2-1.6,1.4-2.5l9.9-2L40,25.7c0.2,0,0.4-0.1,0.6-0.1
	c4.5-0.9,7.4-5.2,6.5-9.6l-2-9.6c-1-4.4-5.4-7.3-9.8-6.3c-0.2,0-0.4,0.1-0.6,0.2L37,11.1l-10.2,2.1c-1.7-1.8-4.5-1.9-6.3-0.2
	c-0.5,0.5-0.9,1.1-1.2,1.8L7.9,17.1c-0.4-1-1.5-1.6-2.6-1.2c-0.8,0.3-1.3,1-1.3,1.9v21H2c-0.6,0-1,0.4-1,1v5.1
	c-0.8,0.3-1.2,1.1-0.9,1.9c0.2,0.6,0.8,1,1.4,1h45c0.8,0,1.5-0.7,1.5-1.5S47.3,44.7,46.5,44.7z M21.1,28.7h4.8l1.6,6h-8L21.1,28.7z
	 M18.4,38.7h10.1l1.6,6H16.8L18.4,38.7z M24.8,24.7h-2.6l1.1-4c0.1,0,0.2,0,0.2,0s0.2,0,0.2,0L24.8,24.7z M8,21.1c0.1,0,0.3,0,0.4,0
	l11.3-2.3c0.2,0.3,0.4,0.6,0.7,0.8l-6.8,25.2H11v-5c0-0.6-0.4-1-1-1H8V21.1z"/>
</svg>
