<?xml version="1.0" encoding="utf-8"?>
<!-- Generator: Adobe Illustrator 25.0.0, SVG Export Plug-In . SVG Version: 6.00 Build 0)  -->
<svg version="1.1" id="Layer_1" xmlns="http://www.w3.org/2000/svg" xmlns:xlink="http://www.w3.org/1999/xlink" x="0px" y="0px"
	 viewBox="0 0 34 48" style="enable-background:new 0 0 34 48;" xml:space="preserve">
<style type="text/css">
	.st0{fill:#011E41;}
</style>
<g id="Layer_2_1_">
	<g id="Icons">
		<path  stroke-width="param(outline-width) "  stroke-opacity="param(outline-opacity) "  stroke="param(outline) "  fill-opacity="param(fill-opacity) "  fill="param(fill) " class="st0" d="M17.4,0.2c-0.2-0.2-0.5-0.3-0.8-0.1c0,0-0.1,0.1-0.1,0.1C13.9,3.5,0,22.5,0,31c0,9.4,7.6,17,17,17
			s17-7.6,17-17C34,22.5,20.1,3.5,17.4,0.2z M17,43c-4.4,0-8-3.6-8-8c0-4,6.6-12.4,7.8-13.9c0.1-0.1,0.2-0.1,0.4,0c0,0,0,0,0,0
			C18.4,22.6,25,31,25,35C25,39.4,21.4,43,17,43z"/>
	</g>
</g>
</svg>
