<?xml version="1.0" encoding="utf-8"?>
<!-- Generator: Adobe Illustrator 25.0.0, SVG Export Plug-In . SVG Version: 6.00 Build 0)  -->
<svg version="1.1" id="Layer_1" xmlns="http://www.w3.org/2000/svg" xmlns:xlink="http://www.w3.org/1999/xlink" x="0px" y="0px"
	 viewBox="0 0 48 48" style="enable-background:new 0 0 48 48;" xml:space="preserve">
<style type="text/css">
	.st0{fill:#011E41;}
</style>
<g id="Layer_2_1_">
	<g id="Icons">
		<path  stroke-width="param(outline-width) "  stroke-opacity="param(outline-opacity) "  stroke="param(outline) "  fill-opacity="param(fill-opacity) "  fill="param(fill) " class="st0" d="M13.2,31c1.1-0.6,2.2-0.9,3.4-1c1.6,0,3.2,0.4,4.6,1.2C22.1,31.8,23,32,24,32c1,0,1.9-0.2,2.7-0.8
			c0.6-0.3,1.2-0.6,1.9-0.9c1-0.3,2.1-0.4,3.2-0.4H32c-0.8-3.9-2.8-7.5-5.7-10.3l0,0c-4.3-4.2-4.3-11-0.2-15.2c0,0,0.1-0.1,0.1-0.1
			C27.1,3.5,27.2,2,26.5,1C25.6-0.1,24-0.3,23,0.5c-0.1,0.1-0.2,0.1-0.2,0.2c-3,3-4.7,7-4.7,11.3c0,3.2,1.1,6.4,3,9l-0.1,0.1
			L13,30.7c-0.1,0.1,0,0.2,0,0.2C13.1,31,13.2,31,13.2,31z"/>
		<path  stroke-width="param(outline-width) "  stroke-opacity="param(outline-opacity) "  stroke="param(outline) "  fill-opacity="param(fill-opacity) "  fill="param(fill) " class="st0" d="M46,42c-1.6,0-3.2,0.4-4.6,1.2c-1.7,1-3.8,1-5.4,0c-1.4-0.8-3-1.3-4.6-1.2c-1.1,0-2.2,0.2-3.2,0.6
			c-0.5,0.2-1,0.4-1.4,0.7c-0.3,0.1-0.5,0.3-0.7,0.4h0c-0.6,0.3-1.3,0.4-2,0.4c-1,0-1.9-0.2-2.7-0.8c-1.4-0.8-3-1.3-4.6-1.2
			c-1.6,0-3.2,0.4-4.6,1.2c-0.8,0.5-1.8,0.8-2.7,0.8c-1,0-1.9-0.2-2.7-0.8C5.2,42.4,3.6,42,2,42c-1.1,0-2,0.9-2,2s0.9,2,2,2
			c1,0,1.9,0.2,2.7,0.8c1.4,0.8,3,1.3,4.6,1.2c1.6,0,3.2-0.4,4.6-1.2c0.8-0.5,1.8-0.8,2.7-0.8c1,0,1.9,0.2,2.7,0.8
			c1.4,0.8,3,1.3,4.6,1.2c1.6,0,3.2-0.4,4.6-1.2c1.7-1,3.8-1,5.4,0c2.9,1.7,6.4,1.7,9.3,0C44.1,46.2,45,46,46,46c1.1,0,2-0.9,2-2
			S47.1,42,46,42L46,42z"/>
		<path  stroke-width="param(outline-width) "  stroke-opacity="param(outline-opacity) "  stroke="param(outline) "  fill-opacity="param(fill-opacity) "  fill="param(fill) " class="st0" d="M2,38c1,0,1.9,0.2,2.7,0.8c1.4,0.8,3,1.3,4.6,1.2c1.6,0,3.2-0.4,4.6-1.2c0.8-0.5,1.7-0.8,2.7-0.8
			c1,0,1.9,0.2,2.7,0.8c1.4,0.8,3,1.3,4.6,1.2c1.6,0,3.2-0.4,4.6-1.2c1.7-1,3.8-1,5.4,0c2.9,1.7,6.4,1.7,9.3,0
			C44.1,38.2,45,38,46,38c1.1,0,2-0.9,2-2s-0.9-2-2-2c-1.6,0-3.2,0.4-4.6,1.2c-1.7,1-3.8,1-5.4,0c-1.4-0.8-3-1.3-4.6-1.2
			c-1.6,0-3.2,0.4-4.6,1.2C25.9,35.8,25,36,24,36c-1,0-1.9-0.2-2.7-0.8c-1.4-0.8-3-1.3-4.6-1.2c-1.6,0-3.2,0.4-4.6,1.2
			c-0.8,0.5-1.7,0.8-2.7,0.8c-1,0-1.9-0.2-2.7-0.8C5.2,34.4,3.6,34,2,34c-1.1,0-2,0.9-2,2S0.9,38,2,38z"/>
		<circle class="st0" cx="35" cy="19" r="5"/>
	</g>
</g>
</svg>
