<?xml version="1.0" encoding="utf-8"?>
<!-- Generator: Adobe Illustrator 25.0.0, SVG Export Plug-In . SVG Version: 6.00 Build 0)  -->
<svg version="1.1" id="Layer_1" xmlns="http://www.w3.org/2000/svg" xmlns:xlink="http://www.w3.org/1999/xlink" x="0px" y="0px"
	 viewBox="0 0 48 48" style="enable-background:new 0 0 48 48;" xml:space="preserve">
<style type="text/css">
	.st0{fill:#011E41;}
</style>
<g id="Layer_2_1_">
	<g id="Icons">
		<path  stroke-width="param(outline-width) "  stroke-opacity="param(outline-opacity) "  stroke="param(outline) "  fill-opacity="param(fill-opacity) "  fill="param(fill) " class="st0" d="M48,28.9c0-0.1,0-0.1,0-0.2c0-0.1,0-0.1-0.1-0.2c0-0.1,0-0.1,0-0.2c0-0.1-0.1-0.1-0.1-0.2
			c0-0.1,0-0.1-0.1-0.2c0-0.1-0.1-0.1-0.1-0.2c0-0.1-0.1-0.1-0.1-0.2c-0.1-0.1-0.1-0.1-0.2-0.2c0,0-0.1-0.1-0.1-0.1
			c-0.1-0.1-0.2-0.1-0.3-0.2c0,0,0,0,0,0l0,0l0,0L32,20v-8c0-1.7-1.3-3-3-3s-3,1.3-3,3v8l-14.8,7.2l0,0l0,0c0,0,0,0-0.1,0
			c-0.1,0-0.2,0.1-0.3,0.2c0,0-0.1,0.1-0.1,0.1c-0.1,0-0.1,0.1-0.2,0.1c0,0.1-0.1,0.1-0.1,0.2c0,0-0.1,0.1-0.1,0.1
			c0,0.1-0.1,0.1-0.1,0.2c0,0.1-0.1,0.1-0.1,0.2c0,0.1,0,0.1,0,0.2c0,0.1,0,0.1-0.1,0.2c0,0.1,0,0.1,0,0.2c0,0.1,0,0.1,0,0.2
			c0,0.1,0,0.2,0,0.3c0,0,0,0.1,0,0.1l0,0c0,0,0,0,0,0.1c0,0.1,0.1,0.2,0.1,0.3c0,0,0,0,0,0c0,0,0,0,0,0c0.1,0.2,0.2,0.3,0.3,0.4
			c0,0,0,0,0,0c0.1,0.1,0.2,0.2,0.4,0.3c0,0,0.1,0,0.1,0.1c0.1,0.1,0.3,0.1,0.4,0.2c0,0,0.1,0,0.1,0c0.2,0,0.3,0.1,0.5,0.1l0,0l0,0
			c0.1,0,0.3,0,0.4-0.1l0,0L26,28v15c0,0-3.7,3.3-3.8,3.4C22.1,46.6,22,46.8,22,47c0,0.1,0,0.1,0,0.2c0,0,0,0.1,0,0.1
			c0,0.1,0.1,0.2,0.2,0.3c0,0,0.1,0.1,0.2,0.2c0,0,0,0,0,0c0,0,0,0,0,0c0.1,0.1,0.2,0.1,0.3,0.1c0.1,0,0.2,0,0.3,0
			c0.1,0,0.1,0,0.2,0c0,0,0.1,0,0.1,0l0.1,0L29,46l5.7,1.9l0,0c0.2,0.1,0.4,0.1,0.6,0c0,0,0.1,0,0.1-0.1c0.2-0.1,0.4-0.3,0.5-0.6
			c0,0,0-0.1,0-0.1c0-0.1,0-0.1,0-0.2c0-0.2,0-0.4-0.2-0.6C35.7,46.3,32,43,32,43V28l13.5,2.9l0,0l0,0c0,0,0,0,0.1,0
			c0.1,0,0.2,0,0.3,0c0,0,0,0,0,0c0.1,0,0.2,0,0.4,0c0,0,0,0,0,0c0.1,0,0.2-0.1,0.3-0.1c0,0,0,0,0,0c0.1,0,0.2-0.1,0.3-0.1
			c0,0,0,0,0.1,0c0.1-0.1,0.2-0.1,0.2-0.2c0,0,0.1-0.1,0.1-0.1c0.1-0.1,0.1-0.1,0.2-0.2c0.1-0.1,0.1-0.2,0.2-0.3c0,0,0,0,0-0.1l0,0
			c0-0.1,0.1-0.2,0.1-0.2c0,0,0-0.1,0.1-0.1l0,0c0,0,0-0.1,0-0.1c0-0.1,0-0.2,0-0.3C48,29,48,28.9,48,28.9z"/>
		<path  stroke-width="param(outline-width) "  stroke-opacity="param(outline-opacity) "  stroke="param(outline) "  fill-opacity="param(fill-opacity) "  fill="param(fill) " class="st0" d="M20,10c0-5.5-4.5-10-10-10S0,4.5,0,10s4.5,10,10,10C15.5,20,20,15.5,20,10z M15.6,7.8l-7,6
			C8.5,13.9,8.2,14,8,14c-0.3,0-0.5-0.1-0.7-0.3l-3-3c-0.4-0.4-0.4-1,0-1.4s1-0.4,1.4,0l2.3,2.4l6.3-5.4c0.4-0.4,1.1-0.3,1.4,0.1
			C16.1,6.8,16.1,7.4,15.6,7.8L15.6,7.8z"/>
	</g>
</g>
</svg>
