<?xml version="1.0" encoding="utf-8"?>
<!-- Generator: Adobe Illustrator 25.0.0, SVG Export Plug-In . SVG Version: 6.00 Build 0)  -->
<svg version="1.1" id="Layer_1" xmlns="http://www.w3.org/2000/svg" xmlns:xlink="http://www.w3.org/1999/xlink" x="0px" y="0px"
	 viewBox="0 0 48 45" style="enable-background:new 0 0 48 45;" xml:space="preserve">
<style type="text/css">
	.st0{fill:#011E41;}
</style>
<g id="Layer_2_1_">
	<g id="Icons">
		<polygon class="st0" points="22.7,17 20.3,19.5 25.5,24.7 28.5,21.7 23.3,16.5 		"/>
		<path  stroke-width="param(outline-width) "  stroke-opacity="param(outline-opacity) "  stroke="param(outline) "  fill-opacity="param(fill-opacity) "  fill="param(fill) " class="st0" d="M0.6,39.1c-0.8,0.8-0.8,2,0,2.8c0,0,0,0,0,0L3,44.4c0.8,0.8,2,0.8,2.8,0c0,0,0,0,0,0L24,26.2L18.8,21
			L0.6,39.1z"/>
		<path  stroke-width="param(outline-width) "  stroke-opacity="param(outline-opacity) "  stroke="param(outline) "  fill-opacity="param(fill-opacity) "  fill="param(fill) " class="st0" d="M47.4,16.5l-3.8-3.8c-0.4-0.4-1.1-0.4-1.5,0l-1.5,1.5L38.3,12l1.4-1.4c0.4-0.4,0.4-1.1,0-1.5L35.6,5l-0.4-0.4
			l-1.1-1.1C31.9,1.3,28.9,0,25.8,0c-2.7,0-5.3,0.9-7.4,2.6c-0.5,0.4-0.5,1-0.2,1.5c0,0,0.1,0.1,0.1,0.1l6.8,6.8
			c0.3,0.3,0.5,0.6,0.7,1c0.2,0.9,0,1.9-0.6,2.6L24.8,15l2,2l3.2,3.2l2.3-2.3l2.3,2.3l-1.5,1.5c-0.4,0.4-0.4,1.1,0,1.5c0,0,0,0,0,0
			l3.8,3.8c0.8,0.8,2.2,0.8,3,0l7.5-7.5C48.2,18.6,48.2,17.3,47.4,16.5C47.4,16.5,47.4,16.5,47.4,16.5z"/>
	</g>
</g>
</svg>
