<?xml version="1.0" encoding="utf-8"?>
<!-- Generator: Adobe Illustrator 25.0.0, SVG Export Plug-In . SVG Version: 6.00 Build 0)  -->
<svg version="1.1" id="Layer_1" xmlns="http://www.w3.org/2000/svg" xmlns:xlink="http://www.w3.org/1999/xlink" x="0px" y="0px"
	 viewBox="0 0 48 30" style="enable-background:new 0 0 48 30;" xml:space="preserve">
<style type="text/css">
	.st0{fill-rule:evenodd;clip-rule:evenodd;fill:#011E41;}
	.st1{fill:#011E41;}
</style>
<g id="Layer_2_1_">
	<g id="Icons">
		<path  stroke-width="param(outline-width) "  stroke-opacity="param(outline-opacity) "  stroke="param(outline) "  fill-opacity="param(fill-opacity) "  fill="param(fill) " class="st0" d="M43.4,14H43v-3c0-2.8-2.2-5-5-5h-5V3c0-1.7-1.3-3-3-3H3C1.3,0,0,1.3,0,3v23h5c0-3.3,2.7-6,6-6s6,2.7,6,6h12
			c0-2.5,1.6-4.8,4-5.6c0.6-0.2,1.3-0.4,2-0.4c3.3,0,6,2.7,6,6h5.5c0.8,0,1.5-0.7,1.5-1.5c0,0,0,0,0,0v-5.9C48,16.1,46,14,43.4,14
			C43.4,14,43.4,14,43.4,14z M37.1,9c1.6,0,2.9,1.3,2.9,2.9c0,0,0,0,0,0V14h-7V9H37.1z M21,12h-2v2c0,1.1-0.9,2-2,2
			c-1.1,0-2-0.9-2-2v-2h-2c-1.1,0-2-0.9-2-2c0-1.1,0.9-2,2-2h2V6c0-1.1,0.9-2,2-2c1.1,0,2,0.9,2,2v2h2c1.1,0,2,0.9,2,2
			C23,11.1,22.1,12,21,12z"/>
		<circle class="st1" cx="11" cy="26" r="4"/>
		<path  stroke-width="param(outline-width) "  stroke-opacity="param(outline-opacity) "  stroke="param(outline) "  fill-opacity="param(fill-opacity) "  fill="param(fill) " class="st0" d="M35,22c-2.2,0-4,1.8-4,4s1.8,4,4,4s4-1.8,4-4C39,23.8,37.2,22,35,22C35,22,35,22,35,22z"/>
	</g>
</g>
</svg>
