<?xml version="1.0" encoding="utf-8"?>
<!-- Generator: Adobe Illustrator 25.0.0, SVG Export Plug-In . SVG Version: 6.00 Build 0)  -->
<svg version="1.1" id="Layer_1" xmlns="http://www.w3.org/2000/svg" xmlns:xlink="http://www.w3.org/1999/xlink" x="0px" y="0px"
	 viewBox="0 0 48 39" style="enable-background:new 0 0 48 39;" xml:space="preserve">
<style type="text/css">
	.st0{fill:#011E41;}
</style>
<g id="Layer_2_1_">
	<g id="Icons">
		<path  stroke-width="param(outline-width) "  stroke-opacity="param(outline-opacity) "  stroke="param(outline) "  fill-opacity="param(fill-opacity) "  fill="param(fill) " class="st0" d="M45,10H16.8l22.7-6.1c1.1-0.3,1.7-1.4,1.4-2.4c-0.3-1.1-1.4-1.7-2.4-1.4l-37,9.9C0.6,10.2-0.1,11,0,12h0v24
			c0,1.7,1.3,3,3,3h42c1.7,0,3-1.3,3-3V13C48,11.3,46.7,10,45,10z M9,33.5C9,34.3,8.3,35,7.5,35S6,34.3,6,33.5v-9
			C6,23.7,6.7,23,7.5,23S9,23.7,9,24.5V33.5z M16,33.5c0,0.8-0.7,1.5-1.5,1.5S13,34.3,13,33.5v-9c0-0.8,0.7-1.5,1.5-1.5
			s1.5,0.7,1.5,1.5V33.5z M23,33.5c0,0.8-0.7,1.5-1.5,1.5S20,34.3,20,33.5v-9c0-0.8,0.7-1.5,1.5-1.5s1.5,0.7,1.5,1.5V33.5z M36,35
			c-3.3,0-6-2.7-6-6s2.7-6,6-6s6,2.7,6,6C42,32.3,39.3,35,36,35z M40.5,18h-33C6.7,18,6,17.3,6,16.5S6.7,15,7.5,15h33
			c0.8,0,1.5,0.7,1.5,1.5S41.3,18,40.5,18z"/>
	</g>
</g>
</svg>
