<?xml version="1.0" encoding="utf-8"?>
<!-- Generator: Adobe Illustrator 25.0.0, SVG Export Plug-In . SVG Version: 6.00 Build 0)  -->
<svg version="1.1" id="Layer_1" xmlns="http://www.w3.org/2000/svg" xmlns:xlink="http://www.w3.org/1999/xlink" x="0px" y="0px"
	 viewBox="0 0 48 48" style="enable-background:new 0 0 48 48;" xml:space="preserve">
<style type="text/css">
	.st0{fill:#011E41;}
</style>
<g id="Layer_2_1_">
	<g id="Icons">
		<path  stroke-width="param(outline-width) "  stroke-opacity="param(outline-opacity) "  stroke="param(outline) "  fill-opacity="param(fill-opacity) "  fill="param(fill) " class="st0" d="M10,0C4.5,0,0,4.5,0,10s4.5,10,10,10s10-4.5,10-10C20,4.5,15.5,0,10,0z M10,17c-0.6,0-1-0.4-1-1
			c0-0.6,0.4-1,1-1s1,0.4,1,1C11,16.6,10.6,17,10,17z M11,12c0,0.6-0.4,1-1,1s-1-0.4-1-1V4c0-0.6,0.4-1,1-1s1,0.4,1,1V12z"/>
		<path  stroke-width="param(outline-width) "  stroke-opacity="param(outline-opacity) "  stroke="param(outline) "  fill-opacity="param(fill-opacity) "  fill="param(fill) " class="st0" d="M47.8,22.8L33.6,10.2c-0.4-0.3-0.9-0.3-1.3,0L18.2,22.8c-0.1,0.1-0.2,0.2-0.2,0.4V48h11V38c0-1.1,0.9-2,2-2h4
			c1.1,0,2,0.9,2,2v10h11V23.2C48,23.1,47.9,22.9,47.8,22.8z"/>
	</g>
</g>
</svg>
