<?xml version="1.0" encoding="utf-8"?>
<!-- Generator: Adobe Illustrator 25.0.0, SVG Export Plug-In . SVG Version: 6.00 Build 0)  -->
<svg version="1.1" id="Layer_1" xmlns="http://www.w3.org/2000/svg" xmlns:xlink="http://www.w3.org/1999/xlink" x="0px" y="0px"
	 viewBox="0 0 36 48" style="enable-background:new 0 0 36 48;" xml:space="preserve">
<style type="text/css">
	.st0{fill:#011E41;}
</style>
<g id="Layer_2_1_">
	<g id="Icons">
		<path  stroke-width="param(outline-width) "  stroke-opacity="param(outline-opacity) "  stroke="param(outline) "  fill-opacity="param(fill-opacity) "  fill="param(fill) " class="st0" d="M34.5,41c0.8,0,1.5-0.7,1.5-1.5S35.3,38,34.5,38H31v-2h3.5c0.8,0,1.5-0.7,1.5-1.5S35.3,33,34.5,33H31v-2h2
			c1.1,0,2-0.9,2-2V2c0-1.1-0.9-2-2-2H3C1.9,0,1,0.9,1,2v27c0,1.1,0.9,2,2,2h2v2H1.5C0.7,33,0,33.7,0,34.5S0.7,36,1.5,36H5v2H1.5
			C0.7,38,0,38.7,0,39.5S0.7,41,1.5,41H5v2H1.5C0.7,43,0,43.7,0,44.5S0.7,46,1.5,46H5v0.5C5,47.3,5.7,48,6.5,48S8,47.3,8,46.5V46h20
			v0.5c0,0.8,0.7,1.5,1.5,1.5s1.5-0.7,1.5-1.5V46h3.5c0.8,0,1.5-0.7,1.5-1.5S35.3,43,34.5,43H31v-2H34.5z M28,31v2H8v-2H28z M28,36
			v2H8v-2H28z M28,41v2H8v-2H28z M30,28c-1.1,0-2-0.9-2-2s0.9-2,2-2s2,0.9,2,2C32,27.1,31.1,28,30,28z M4,7c0-0.6,0.4-1,1-1h26
			c0.6,0,1,0.4,1,1v12c0,0.6-0.4,1-1,1H5c-0.6,0-1-0.4-1-1V7z M4,26c0-1.1,0.9-2,2-2s2,0.9,2,2s-0.9,2-2,2C4.9,28,4,27.1,4,26z"/>
	</g>
</g>
</svg>
