<?xml version="1.0" encoding="utf-8"?>
<!-- Generator: Adobe Illustrator 25.0.0, SVG Export Plug-In . SVG Version: 6.00 Build 0)  -->
<svg version="1.1" id="Layer_1" xmlns="http://www.w3.org/2000/svg" xmlns:xlink="http://www.w3.org/1999/xlink" x="0px" y="0px"
	 viewBox="0 0 48 48" style="enable-background:new 0 0 48 48;" xml:space="preserve">
<style type="text/css">
	.st0{fill:#011E41;}
</style>
<g id="Layer_2_1_">
	<g id="Icons">
		<path  stroke-width="param(outline-width) "  stroke-opacity="param(outline-opacity) "  stroke="param(outline) "  fill-opacity="param(fill-opacity) "  fill="param(fill) " class="st0" d="M46,14H2c-0.5,0-1,0.4-1,1c0,0,0,0,0,0V33c0,0.5,0.4,1,1,1c0,0,0,0,0,0H46c0.5,0,1-0.4,1-1c0,0,0,0,0,0V15
			C47,14.4,46.6,14,46,14C46,14,46,14,46,14z M8,27c-1.7,0-3-1.3-3-3s1.3-3,3-3s3,1.3,3,3C11,25.7,9.7,27,8,27C8,27,8,27,8,27z
			 M24,31c-3.9,0-7-3.1-7-7s3.1-7,7-7s7,3.1,7,7C31,27.9,27.9,31,24,31C24,31,24,31,24,31z M40,27c-1.7,0-3-1.3-3-3s1.3-3,3-3
			s3,1.3,3,3C43,25.7,41.7,27,40,27C40,27,40,27,40,27z"/>
		<path  stroke-width="param(outline-width) "  stroke-opacity="param(outline-opacity) "  stroke="param(outline) "  fill-opacity="param(fill-opacity) "  fill="param(fill) " class="st0" d="M44.5,41H5.1l1.4-1.4c0.6-0.6,0.6-1.5,0-2.1s-1.5-0.6-2.1,0c0,0,0,0,0,0l-4,4c-0.1,0.1-0.3,0.3-0.3,0.5l0,0
			c-0.1,0.4-0.1,0.7,0,1.1l0,0c0.1,0.2,0.2,0.4,0.3,0.5l4,4c0.6,0.6,1.5,0.6,2.1,0c0.6-0.6,0.6-1.5,0-2.1l0,0L5.1,44h39.4
			c0.8,0,1.5-0.7,1.5-1.5S45.3,41,44.5,41z"/>
		<path  stroke-width="param(outline-width) "  stroke-opacity="param(outline-opacity) "  stroke="param(outline) "  fill-opacity="param(fill-opacity) "  fill="param(fill) " class="st0" d="M47.9,4.9L47.9,4.9c-0.1-0.2-0.2-0.4-0.3-0.5l-4-4c-0.6-0.6-1.5-0.6-2.1,0c-0.6,0.6-0.6,1.5,0,2.1L42.9,4H3.5
			C2.7,4,2,4.6,2,5.5S2.7,7,3.5,7h39.4l-1.4,1.4c-0.6,0.6-0.6,1.5,0,2.1c0.6,0.6,1.5,0.6,2.1,0l4-4c0.1-0.1,0.3-0.3,0.3-0.5l0,0
			C48,5.7,48,5.3,47.9,4.9z"/>
	</g>
</g>
</svg>
