<?xml version="1.0" encoding="utf-8"?>
<!-- Generator: Adobe Illustrator 25.0.0, SVG Export Plug-In . SVG Version: 6.00 Build 0)  -->
<svg version="1.1" id="Layer_1" xmlns="http://www.w3.org/2000/svg" xmlns:xlink="http://www.w3.org/1999/xlink" x="0px" y="0px"
	 viewBox="0 0 48 48" style="enable-background:new 0 0 48 48;" xml:space="preserve">
<style type="text/css">
	.st0{fill:#011E41;}
</style>
<g id="Layer_2_1_">
	<g id="Icons">
		<path  stroke-width="param(outline-width) "  stroke-opacity="param(outline-opacity) "  stroke="param(outline) "  fill-opacity="param(fill-opacity) "  fill="param(fill) " class="st0" d="M33,22.6V44H4V20h16.1l9-9H2.2C1,11,0,12,0,13.2c0,0,0,0,0,0v32.6C0,47,1,48,2.2,48c0,0,0,0,0,0h32.6
			c1.2,0,2.2-1,2.2-2.2c0,0,0,0,0,0V18.6L33,22.6z M11.5,14c0.8,0,1.5,0.7,1.5,1.5c0,0.8-0.7,1.5-1.5,1.5S10,16.3,10,15.5
			C10,14.7,10.7,14,11.5,14C11.5,14,11.5,14,11.5,14z M5.5,14C6.3,14,7,14.7,7,15.5C7,16.3,6.3,17,5.5,17S4,16.3,4,15.5
			C4,14.7,4.7,14,5.5,14C5.5,14,5.5,14,5.5,14z"/>
		<path  stroke-width="param(outline-width) "  stroke-opacity="param(outline-opacity) "  stroke="param(outline) "  fill-opacity="param(fill-opacity) "  fill="param(fill) " class="st0" d="M46,0H25c-1.1,0-2,0.9-2,2s0.9,2,2,2h16L18.5,26.5c-0.8,0.8-0.8,2.2,0,3c0.8,0.8,2.1,0.8,3,0L44,7v16
			c0,1.1,0.9,2,2,2s2-0.9,2-2V2C48,0.9,47.1,0,46,0z"/>
	</g>
</g>
</svg>
