<?xml version="1.0" encoding="utf-8"?>
<!-- Generator: Adobe Illustrator 25.0.0, SVG Export Plug-In . SVG Version: 6.00 Build 0)  -->
<svg version="1.1" id="Layer_1" xmlns="http://www.w3.org/2000/svg" xmlns:xlink="http://www.w3.org/1999/xlink" x="0px" y="0px"
	 viewBox="0 0 48 48" style="enable-background:new 0 0 48 48;" xml:space="preserve">
<style type="text/css">
	.st0{fill:#011E41;}
</style>
<g id="Layer_2_1_">
	<g id="Expanded_Icons">
		<path  stroke-width="param(outline-width) "  stroke-opacity="param(outline-opacity) "  stroke="param(outline) "  fill-opacity="param(fill-opacity) "  fill="param(fill) " class="st0" d="M43.8,17.1C42.2,6.2,32.1-1.4,21.2,0.2C12.4,1.5,5.6,8.3,4.3,17.1C1.8,17.4,0,19.5,0,22v9c0,2.8,2.2,5,5,5h4
			c1.1,0,2-0.9,2-2V19c0-1.1-0.9-2-2-2H8.3C10,8.3,18.4,2.6,27,4.3c6.4,1.2,11.5,6.3,12.7,12.7H39c-1.1,0-2,0.9-2,2v15
			c0,1.1,0.9,2,2,2H40c-0.5,3.5-3.5,6-7,6h-3.5c-1.1-1.9-3.6-2.6-5.5-1.5c-1.9,1.1-2.6,3.6-1.5,5.5c1.1,1.9,3.6,2.6,5.5,1.5
			c0.6-0.4,1.1-0.9,1.5-1.5h3.5c5.7,0,10.5-4.4,11.1-10.1c2.3-0.5,4-2.5,4-4.9v-9C48,19.6,46.2,17.5,43.8,17.1z"/>
	</g>
</g>
</svg>
