<?xml version="1.0" encoding="utf-8"?>
<!-- Generator: Adobe Illustrator 25.0.0, SVG Export Plug-In . SVG Version: 6.00 Build 0)  -->
<svg version="1.1" id="Layer_1" xmlns="http://www.w3.org/2000/svg" xmlns:xlink="http://www.w3.org/1999/xlink" x="0px" y="0px"
	 viewBox="0 0 48 48" style="enable-background:new 0 0 48 48;" xml:space="preserve">
<style type="text/css">
	.st0{fill:#011E41;}
</style>
<g id="Layer_2_1_">
	<g id="Icons">
		<path  stroke-width="param(outline-width) "  stroke-opacity="param(outline-opacity) "  stroke="param(outline) "  fill-opacity="param(fill-opacity) "  fill="param(fill) " class="st0" d="M20.5,9.6l8.9,8.9c0.3,0.3,0.7,0.4,1.1,0.4c0.4,0,0.7-0.1,1-0.4L45,5.1v6.4c0,0.8,0.7,1.5,1.5,1.5
			s1.5-0.7,1.5-1.5v-10C48,0.7,47.3,0,46.5,0h-10C35.7,0,35,0.7,35,1.5S35.7,3,36.5,3h6.4L30.5,15.4l-8.9-8.9
			c-0.6-0.6-1.6-0.6-2.2,0L0.4,25.4c-0.6,0.6-0.6,1.5,0,2.1c0.6,0.6,1.5,0.6,2.1,0L20.5,9.6z"/>
		<path  stroke-width="param(outline-width) "  stroke-opacity="param(outline-opacity) "  stroke="param(outline) "  fill-opacity="param(fill-opacity) "  fill="param(fill) " class="st0" d="M47.2,25H10.9c-0.5,0-0.9,0.4-0.9,0.9V28h34c0.5,0,0.9,0.4,1,0.9c0,0,0,0,0,0v14h2.2c0.5,0,0.8-0.4,0.8-0.8
			c0,0,0,0,0,0V25.9C48,25.4,47.6,25,47.2,25z"/>
		<path  stroke-width="param(outline-width) "  stroke-opacity="param(outline-opacity) "  stroke="param(outline) "  fill-opacity="param(fill-opacity) "  fill="param(fill) " class="st0" d="M42.2,30H5.8C5.4,30,5,30.4,5,30.8c0,0,0,0,0,0v16.3C5,47.6,5.4,48,5.8,48h36.3c0.5,0,0.9-0.4,0.8-0.9V30.8
			C43,30.4,42.6,30,42.2,30C42.2,30,42.2,30,42.2,30z M11,41c-1.1,0-2-0.9-2-2s0.9-2,2-2s2,0.9,2,2C13,40.1,12.1,41,11,41z M24,45
			c-3.3,0-6-2.7-6-6s2.7-6,6-6s6,2.7,6,6C30,42.3,27.3,45,24,45z M37,41c-1.1,0-2-0.9-2-2s0.9-2,2-2s2,0.9,2,2
			C39,40.1,38.1,41,37,41z"/>
	</g>
</g>
</svg>
