<?xml version="1.0" encoding="utf-8"?>
<!-- Generator: Adobe Illustrator 25.0.0, SVG Export Plug-In . SVG Version: 6.00 Build 0)  -->
<svg version="1.1" id="Layer_1" xmlns="http://www.w3.org/2000/svg" xmlns:xlink="http://www.w3.org/1999/xlink" x="0px" y="0px"
	 viewBox="0 0 48 42" style="enable-background:new 0 0 48 42;" xml:space="preserve">
<style type="text/css">
	.st0{fill:#011E41;}
</style>
<g id="Layer_2_1_">
	<g id="Icons">
		<path  stroke-width="param(outline-width) "  stroke-opacity="param(outline-opacity) "  stroke="param(outline) "  fill-opacity="param(fill-opacity) "  fill="param(fill) " class="st0" d="M48,29.5V29h0l0,0h0v0l0,0c0-7-5.5-12.7-12.5-13c0-0.1-0.1-0.1-0.1-0.2c2.7-4.8,1.9-10.8-1.9-14.7l0,0
			l-0.4-0.4l0,0c-0.9-0.9-2.5-1-3.4,0c0,0,0,0,0,0c-0.9,1-1,2.5,0,3.5l0,0L30,4.6c1.4,1.4,2.1,3.4,2,5.4c0,0.5-0.1,1.1-0.2,1.6
			c-4.6-3.5-10.9-3.5-15.5,0C16.1,11.1,16,10.5,16,10c-0.1-2,0.6-3.9,1.9-5.4l0,0l0,0l0,0l0.3-0.4l0,0c1-1,0.9-2.5,0-3.5
			c-0.9-1-2.5-1-3.4,0c0,0,0,0,0,0l0,0l0,0l0,0l-0.3,0.3l0,0h0l0,0l0,0l0,0c-3.8,4-4.6,9.9-1.9,14.7c0,0.1-0.1,0.1-0.1,0.2
			C5.5,16.3,0,22,0,29l0,0v0h0l0,0h0v0.5l0,0l0,0v0h0C0,30.9,1.1,32,2.5,32C3.9,32,5,30.9,5,29.5h0L5,29H4.9l0,0H5
			c0-3.7,2.5-6.8,6-7.7c0,0.2,0,0.5,0,0.7c0,5.3,3.2,10.1,8.2,12.1C17.7,35.9,15.4,37,13,37h-0.5v0c-1.4,0-2.5,1.1-2.5,2.5
			c0,1.4,1.1,2.5,2.5,2.5v0H13v0c4.5,0,8.6-2.3,11-6.1c2.4,3.8,6.5,6.1,11,6.1v0h0.6v0c1.4,0,2.5-1.1,2.5-2.5c0-1.4-1.1-2.5-2.5-2.5
			v0H35c-2.4,0-4.7-1.1-6.2-2.9c4.9-2,8.2-6.7,8.2-12.1c0-0.2,0-0.5,0-0.7c3.5,0.9,6,4.1,6,7.7h0.1l0,0H43l0,0.5h0
			c0,1.4,1.1,2.5,2.5,2.5S48,30.9,48,29.5L48,29.5L48,29.5L48,29.5L48,29.5z M24,13c2.2,0,4.3,0.8,5.9,2.2c-0.1,0.1-0.2,0.3-0.4,0.4
			c-3,3.1-7.8,3.1-10.9,0.2c-0.1-0.1-0.1-0.1-0.2-0.2c-0.1-0.1-0.3-0.3-0.4-0.4C19.7,13.8,21.8,13,24,13z M15,22c0-0.2,0-0.5,0-0.7
			c4,1,6.6,5,5.8,9.1C17.3,29.1,15,25.8,15,22z M27.1,30.4c-0.8-4.1,1.8-8.1,5.8-9.1c0,0.2,0,0.5,0,0.7C33,25.8,30.7,29.1,27.1,30.4
			z"/>
	</g>
</g>
</svg>
