<?xml version="1.0" encoding="utf-8"?>
<!-- Generator: Adobe Illustrator 25.0.0, SVG Export Plug-In . SVG Version: 6.00 Build 0)  -->
<svg version="1.1" id="Layer_1" xmlns="http://www.w3.org/2000/svg" xmlns:xlink="http://www.w3.org/1999/xlink" x="0px" y="0px"
	 viewBox="0 0 48 48" style="enable-background:new 0 0 48 48;" xml:space="preserve">
<style type="text/css">
	.st0{fill-rule:evenodd;clip-rule:evenodd;fill:#011E41;}
</style>
<g id="Layer_2_1_">
	<g id="Icons">
		<path  stroke-width="param(outline-width) "  stroke-opacity="param(outline-opacity) "  stroke="param(outline) "  fill-opacity="param(fill-opacity) "  fill="param(fill) " class="st0" d="M13.4,35.6c-0.8-0.8-2-0.8-2.8,0c0,0,0,0,0,0l-3.1,3.1l-3.1-3.1c-0.8-0.8-2-0.8-2.8,0s-0.8,2,0,2.8l3.1,3.1
			l-3.1,3.1c-0.8,0.8-0.8,2,0,2.8s2,0.8,2.8,0l0,0l3.1-3.1l3.1,3.1c0.8,0.8,2,0.8,2.8,0s0.8-2,0-2.8l0,0l-3.1-3.1l3.1-3.1
			C14.2,37.6,14.2,36.4,13.4,35.6z"/>
		<path  stroke-width="param(outline-width) "  stroke-opacity="param(outline-opacity) "  stroke="param(outline) "  fill-opacity="param(fill-opacity) "  fill="param(fill) " class="st0" d="M12.6,17.6L6,24.2l-2.6-2.6c-0.8-0.8-2-0.8-2.8,0s-0.8,2,0,2.8l4,4c0.8,0.8,2,0.8,2.8,0c0,0,0,0,0,0l8-8
			c0.8-0.8,0.8-2,0-2.8C14.6,16.8,13.4,16.8,12.6,17.6C12.6,17.6,12.6,17.6,12.6,17.6z"/>
		<path  stroke-width="param(outline-width) "  stroke-opacity="param(outline-opacity) "  stroke="param(outline) "  fill-opacity="param(fill-opacity) "  fill="param(fill) " class="st0" d="M45,22H23c-1.7,0-3,1.3-3,3s1.3,3,3,3h22c1.7,0,3-1.3,3-3S46.7,22,45,22z"/>
		<path  stroke-width="param(outline-width) "  stroke-opacity="param(outline-opacity) "  stroke="param(outline) "  fill-opacity="param(fill-opacity) "  fill="param(fill) " class="st0" d="M12.6,0.6L6,7.2L3.4,4.6c-0.8-0.8-2-0.8-2.8,0s-0.8,2,0,2.8l4,4c0.8,0.8,2,0.8,2.8,0c0,0,0,0,0,0l8-8
			c0.8-0.8,0.8-2,0-2.8S13.4-0.2,12.6,0.6z"/>
		<path  stroke-width="param(outline-width) "  stroke-opacity="param(outline-opacity) "  stroke="param(outline) "  fill-opacity="param(fill-opacity) "  fill="param(fill) " class="st0" d="M23,11h22c1.7,0,3-1.3,3-3s-1.3-3-3-3H23c-1.7,0-3,1.3-3,3S21.3,11,23,11z"/>
		<path  stroke-width="param(outline-width) "  stroke-opacity="param(outline-opacity) "  stroke="param(outline) "  fill-opacity="param(fill-opacity) "  fill="param(fill) " class="st0" d="M45,39H23c-1.7,0-3,1.3-3,3s1.3,3,3,3h22c1.7,0,3-1.3,3-3S46.7,39,45,39z"/>
	</g>
</g>
</svg>
