<?xml version="1.0" encoding="utf-8"?>
<!-- Generator: Adobe Illustrator 25.0.0, SVG Export Plug-In . SVG Version: 6.00 Build 0)  -->
<svg version="1.1" id="Layer_1" xmlns="http://www.w3.org/2000/svg" xmlns:xlink="http://www.w3.org/1999/xlink" x="0px" y="0px"
	 viewBox="0 0 48 44" style="enable-background:new 0 0 48 44;" xml:space="preserve">
<style type="text/css">
	.st0{fill:#011E41;}
</style>
<g id="Layer_2_1_">
	<g id="Icons">
		<path  stroke-width="param(outline-width) "  stroke-opacity="param(outline-opacity) "  stroke="param(outline) "  fill-opacity="param(fill-opacity) "  fill="param(fill) " class="st0" d="M4.5,17.6L24,6.5l19.5,11.1c1.4,0.8,3.3,0.3,4.1-1.1c0.8-1.4,0.3-3.3-1.1-4.1l0,0l-21-12
			c-0.9-0.5-2.1-0.5-3,0l-21,12c-1.4,0.8-1.9,2.7-1.1,4.1S3.1,18.4,4.5,17.6L4.5,17.6z"/>
		<path  stroke-width="param(outline-width) "  stroke-opacity="param(outline-opacity) "  stroke="param(outline) "  fill-opacity="param(fill-opacity) "  fill="param(fill) " class="st0" d="M38,27c-3.5-0.1-6.8,1.6-8.7,4.6c-2.2-3-6.4-3.5-9.4-1.3c-0.5,0.4-0.9,0.8-1.3,1.3c-1.9-2.9-5.2-4.7-8.7-4.6
			c-5.7,0-10,4.1-10,9.5C0,37.3,0.7,38,1.5,38S3,37.3,3,36.5c0-2.2,1.1-4.2,3-5.4V40c0,2.2,1.8,4,4,4s4-1.8,4-4v-8.9
			c1.9,1.1,3,3.2,3,5.4c0,0.8,0.7,1.5,1.5,1.5s1.5-0.7,1.5-1.5l0,0l0,0c0-1.1,0.4-2.1,1-2.9V37c0,1.7,1.3,3,3,3c1.7,0,3-1.3,3-3
			c0,0,0,0,0,0v-3.5c0.7,0.8,1,1.9,1,2.9c0,0,0,0,0,0c0,0.8,0.7,1.5,1.5,1.5s1.5-0.7,1.5-1.5c0-2.4,1.4-4.7,3.6-5.7L33,38
			c-0.5,2.8,1.3,5.4,4.1,5.9c2.8,0.5,5.4-1.3,5.9-4.1c0.1-0.6,0.1-1.2,0-1.8l-1.6-7.2c2.2,1,3.6,3.3,3.6,5.7c0,0.8,0.7,1.5,1.5,1.5
			s1.5-0.7,1.5-1.5C48,31.1,43.7,27,38,27z"/>
		<circle class="st0" cx="38" cy="22" r="3"/>
		<circle class="st0" cx="10" cy="22" r="3"/>
		<path  stroke-width="param(outline-width) "  stroke-opacity="param(outline-opacity) "  stroke="param(outline) "  fill-opacity="param(fill-opacity) "  fill="param(fill) " class="st0" d="M21.5,24.5c0,1.4,1.1,2.5,2.5,2.5s2.5-1.1,2.5-2.5c0-1.4-1.1-2.5-2.5-2.5C22.6,22,21.5,23.1,21.5,24.5
			C21.5,24.5,21.5,24.5,21.5,24.5z"/>
	</g>
</g>
</svg>
