<?xml version="1.0" encoding="utf-8"?>
<!-- Generator: Adobe Illustrator 25.0.0, SVG Export Plug-In . SVG Version: 6.00 Build 0)  -->
<svg version="1.1" id="Layer_1" xmlns="http://www.w3.org/2000/svg" xmlns:xlink="http://www.w3.org/1999/xlink" x="0px" y="0px"
	 viewBox="0 0 48 48" style="enable-background:new 0 0 48 48;" xml:space="preserve">
<style type="text/css">
	.st0{fill:#011E41;}
</style>
<g id="Layer_2_1_">
	<g id="FINAL">
		<path  stroke-width="param(outline-width) "  stroke-opacity="param(outline-opacity) "  stroke="param(outline) "  fill-opacity="param(fill-opacity) "  fill="param(fill) " class="st0" d="M4,0c1.1,0,2.1,0.4,2.8,1.2l19,20c1.6,1.6,1.6,4.1,0,5.7l-19,20c-1.6,1.6-4.1,1.6-5.7,0
			c-1.6-1.6-1.6-4.1,0-5.6L17,24L1.2,6.8c-1.6-1.6-1.6-4.1,0-5.7C1.9,0.4,2.9,0,4,0z M22.2,1.2c-1.6,1.6-1.6,4.1,0,5.7L38,24
			L22.2,41.2c-1.6,1.6-1.6,4.1,0,5.7c1.6,1.6,4.1,1.6,5.6,0l19-20c1.6-1.6,1.6-4.1,0-5.7l-19-20C26.3-0.4,23.7-0.4,22.2,1.2z"/>
	</g>
</g>
</svg>
