<?xml version="1.0" encoding="utf-8"?>
<!-- Generator: Adobe Illustrator 25.0.0, SVG Export Plug-In . SVG Version: 6.00 Build 0)  -->
<svg version="1.1" id="Layer_1" xmlns="http://www.w3.org/2000/svg" xmlns:xlink="http://www.w3.org/1999/xlink" x="0px" y="0px"
	 viewBox="0 0 48 48" style="enable-background:new 0 0 48 48;" xml:space="preserve">
<style type="text/css">
	.st0{fill:#011E41;}
</style>
<g id="Layer_2_1_">
	<g id="Icons">
		<path  stroke-width="param(outline-width) "  stroke-opacity="param(outline-opacity) "  stroke="param(outline) "  fill-opacity="param(fill-opacity) "  fill="param(fill) " class="st0" d="M47.9,24c-0.1-0.1-0.2-0.3-0.3-0.3L32,11L16.4,23.7c-0.2,0.2-0.4,0.5-0.4,0.8V48h32V24.5
			C48,24.3,48,24.2,47.9,24z M41,35c0,0.6-0.4,1-1,1h-5v5c0,0.6-0.4,1-1,1h-4c-0.6,0-1-0.4-1-1v-5h-5c-0.6,0-1-0.4-1-1v-4
			c0-0.6,0.4-1,1-1h5v-5c0-0.6,0.4-1,1-1h4c0.6,0,1,0.4,1,1v5h5c0.6,0,1,0.4,1,1V35z"/>
		<path  stroke-width="param(outline-width) "  stroke-opacity="param(outline-opacity) "  stroke="param(outline) "  fill-opacity="param(fill-opacity) "  fill="param(fill) " class="st0" d="M20,10c0-5.5-4.5-10-10-10S0,4.5,0,10s4.5,10,10,10C15.5,20,20,15.5,20,10C20,10,20,10,20,10z M15.7,7.8l-7,6
			c-0.4,0.3-1,0.3-1.4-0.1l-3-3c-0.4-0.4-0.4-1,0-1.4c0.4-0.4,1-0.4,1.4,0l2.3,2.3l6.3-5.4c0.4-0.4,1.1-0.3,1.4,0.1
			C16.1,6.8,16.1,7.4,15.7,7.8L15.7,7.8z"/>
	</g>
</g>
</svg>
