<?xml version="1.0" encoding="utf-8"?>
<!-- Generator: Adobe Illustrator 25.0.0, SVG Export Plug-In . SVG Version: 6.00 Build 0)  -->
<svg version="1.1" id="Layer_1" xmlns="http://www.w3.org/2000/svg" xmlns:xlink="http://www.w3.org/1999/xlink" x="0px" y="0px"
	 viewBox="0 0 48 48" style="enable-background:new 0 0 48 48;" xml:space="preserve">
<style type="text/css">
	.st0{fill:#011E41;}
</style>
<g id="Layer_2_1_">
	<g id="Icons">
		<path  stroke-width="param(outline-width) "  stroke-opacity="param(outline-opacity) "  stroke="param(outline) "  fill-opacity="param(fill-opacity) "  fill="param(fill) " class="st0" d="M46,26c-1.1,0-2,0.9-2,2v3l-12-9v-4.5c0-1.4-1.1-2.5-2.5-2.5c-0.5,0-1.1,0.2-1.5,0.5v-4.9
			c0-0.4-0.1-0.8-0.2-1.1l-2.7-8.8c-0.2-0.6-0.9-0.9-1.5-0.7c-0.3,0.1-0.5,0.4-0.7,0.7l-2.7,8.8c-0.1,0.4-0.2,0.7-0.2,1.1v4.9
			c-1.1-0.8-2.7-0.6-3.5,0.5c-0.3,0.4-0.5,1-0.5,1.5V22L4,31v-3c0-1.1-0.9-2-2-2s-2,0.9-2,2v14c0,1.1,0.9,2,2,2s2-0.9,2-2v-2l16-4v5
			l-4.4,3.8c-0.7,0.7-0.7,1.9,0,2.6c0.4,0.4,0.8,0.5,1.3,0.5l7.1-1l7.1,1c1,0,1.9-0.8,1.9-1.9c0-0.5-0.2-1-0.5-1.3L28,41v-5l16,4v2
			c0,1.1,0.9,2,2,2s2-0.9,2-2V28C48,26.9,47.1,26,46,26z"/>
	</g>
</g>
</svg>
