<?xml version="1.0" encoding="utf-8"?>
<!-- Generator: Adobe Illustrator 25.0.0, SVG Export Plug-In . SVG Version: 6.00 Build 0)  -->
<svg version="1.1" id="Layer_1" xmlns="http://www.w3.org/2000/svg" xmlns:xlink="http://www.w3.org/1999/xlink" x="0px" y="0px"
	 viewBox="0 0 48 48" style="enable-background:new 0 0 48 48;" xml:space="preserve">
<style type="text/css">
	.st0{fill:#011E41;}
</style>
<g id="Layer_2_1_">
	<g id="Icons">
		<path  stroke-width="param(outline-width) "  stroke-opacity="param(outline-opacity) "  stroke="param(outline) "  fill-opacity="param(fill-opacity) "  fill="param(fill) " class="st0" d="M47.8,21L32.6,8.2c-0.4-0.3-0.9-0.3-1.3,0L25,13.6c1.2,2.3,1.9,4.9,2,7.5c0.1,6.9-4.4,13.1-11,15.3V47
			c0,0.6,0.4,1,1,1h11V36c0-0.6,0.4-1,1-1h6c0.6,0,1,0.4,1,1v12h12V21.4C48,21.2,47.9,21.1,47.8,21z"/>
		<path  stroke-width="param(outline-width) "  stroke-opacity="param(outline-opacity) "  stroke="param(outline) "  fill-opacity="param(fill-opacity) "  fill="param(fill) " class="st0" d="M23,21.1c-0.1-1.7-0.5-3.3-1.2-4.8C19.2,10,13.2,2,11.8,0.1C11.7,0,11.5,0,11.3,0.1c0,0-0.1,0.1-0.1,0.1
			C9.4,2.5,0,15.1,0,21.1C-0.1,27.5,5,32.9,11.5,33c1.5,0,3.1-0.3,4.5-1C20.3,30.1,23,25.8,23,21.1z M11.5,30C8.4,30,6,27.4,6,24.3
			c0-2.8,4.5-9.2,5.4-10.3c0.1-0.1,0.2-0.1,0.3,0c0,0,0,0,0,0c1.7,2.2,3.2,4.6,4.4,7.1v0c0.5,1,0.8,2,1,3.2c0,1.2-0.3,2.3-1,3.3
			C15,29.1,13.3,30,11.5,30z"/>
	</g>
</g>
</svg>
