<?xml version="1.0" encoding="utf-8"?>
<!-- Generator: Adobe Illustrator 25.0.0, SVG Export Plug-In . SVG Version: 6.00 Build 0)  -->
<svg version="1.1" id="Layer_1" xmlns="http://www.w3.org/2000/svg" xmlns:xlink="http://www.w3.org/1999/xlink" x="0px" y="0px"
	 viewBox="0 0 38 48" style="enable-background:new 0 0 38 48;" xml:space="preserve">
<style type="text/css">
	.st0{fill:#011E41;}
</style>
<g id="Layer_2_1_">
	<g id="Icons">
		<path  stroke-width="param(outline-width) "  stroke-opacity="param(outline-opacity) "  stroke="param(outline) "  fill-opacity="param(fill-opacity) "  fill="param(fill) " class="st0" d="M37.1,32.9c-1.2-1.2-3.1-1.2-4.2,0c0,0,0,0,0,0c-3,2.8-6.8,4.6-10.9,5.1V24h7c1.7,0,3-1.3,3-3s-1.3-3-3-3l0,0
			h-7v-6.8c2.9-1.7,3.9-5.3,2.2-8.2c-1.7-2.9-5.3-3.9-8.2-2.2S12.1,6.1,13.8,9c0.5,0.9,1.3,1.7,2.2,2.2V18H9c-1.7,0-3,1.3-3,3
			s1.3,3,3,3h7v14c-4.1-0.5-7.9-2.3-10.9-5.1c-1.2-1.2-3.1-1.2-4.2,0c-1.2,1.2-1.2,3.1,0,4.2c4.1,4,9.4,6.4,15.1,6.9v1
			c0,1.7,1.3,3,3,3s3-1.3,3-3v-1c5.7-0.5,11-2.9,15.1-6.9C38.3,36,38.3,34.1,37.1,32.9C37.1,32.9,37.1,32.9,37.1,32.9z M19,4
			c1.1,0,2,0.9,2,2s-0.9,2-2,2s-2-0.9-2-2C17,4.9,17.9,4,19,4z"/>
	</g>
</g>
</svg>
