<?xml version="1.0" encoding="utf-8"?>
<!-- Generator: Adobe Illustrator 25.0.0, SVG Export Plug-In . SVG Version: 6.00 Build 0)  -->
<svg version="1.1" id="Layer_1" xmlns="http://www.w3.org/2000/svg" xmlns:xlink="http://www.w3.org/1999/xlink" x="0px" y="0px"
	 viewBox="0 0 48 48" style="enable-background:new 0 0 48 48;" xml:space="preserve">
<style type="text/css">
	.st0{fill:#011E41;}
</style>
<g id="Layer_2_1_">
	<g id="Icons">
		<path  stroke-width="param(outline-width) "  stroke-opacity="param(outline-opacity) "  stroke="param(outline) "  fill-opacity="param(fill-opacity) "  fill="param(fill) " class="st0" d="M25,22.5C25,10.1,14.9,0,2.5,0H0v10.5C0,22.9,10.1,33,22.5,33H25V22.5z"/>
		<path  stroke-width="param(outline-width) "  stroke-opacity="param(outline-opacity) "  stroke="param(outline) "  fill-opacity="param(fill-opacity) "  fill="param(fill) " class="st0" d="M43.7,0C35,0,28,7,28,15.7c0,0,0,0,0,0V25h4.3C41,25,48,18,48,9.3c0,0,0,0,0,0V0H43.7z"/>
		<path  stroke-width="param(outline-width) "  stroke-opacity="param(outline-opacity) "  stroke="param(outline) "  fill-opacity="param(fill-opacity) "  fill="param(fill) " class="st0" d="M30,28c-1.1,0-2,0.9-2,2v11c0,1.7-1.3,3-3,3c-1.1,0-2,0.9-2,2s0.9,2,2,2c3.9,0,7-3.1,7-7V30
			C32,28.9,31.1,28,30,28z"/>
	</g>
</g>
</svg>
