<?xml version="1.0" encoding="utf-8"?>
<!-- Generator: Adobe Illustrator 25.0.0, SVG Export Plug-In . SVG Version: 6.00 Build 0)  -->
<svg version="1.1" id="Layer_1" xmlns="http://www.w3.org/2000/svg" xmlns:xlink="http://www.w3.org/1999/xlink" x="0px" y="0px"
	 viewBox="0 0 48 48" style="enable-background:new 0 0 48 48;" xml:space="preserve">
<style type="text/css">
	.st0{fill:#011E41;}
</style>
<g id="Layer_2_1_">
	<g id="Icons">
		<path  stroke-width="param(outline-width) "  stroke-opacity="param(outline-opacity) "  stroke="param(outline) "  fill-opacity="param(fill-opacity) "  fill="param(fill) " class="st0" d="M46.9,16H45v-2.9c0-0.6-0.5-1.1-1-1.1c0,0,0,0,0,0H42V1.5C42,0.7,41.3,0,40.5,0S39,0.7,39,1.5V12h-1.9
			c-0.6,0-1.1,0.5-1.1,1c0,0,0,0,0,0V16h-1.9c-0.6,0-1.1,0.5-1.1,1.1V45h-4V3c0-0.6-0.4-1-1-1H16c-0.6,0-1,0.4-1,1v42H8v-6.2
			c2.9-0.8,4.6-3.9,3.8-6.8C11,29.1,7.9,27.4,5,28.2C2.1,29,0.4,32.1,1.2,35c0.5,1.8,2,3.3,3.8,3.8V45H0v3h48V17.1
			C48,16.5,47.5,16,46.9,16z M42,31.5c0-0.3,0.2-0.5,0.5-0.5c0,0,0,0,0,0h2c0.3,0,0.5,0.2,0.5,0.5c0,0,0,0,0,0v2
			c0,0.3-0.2,0.5-0.5,0.5c0,0,0,0,0,0h-2c-0.3,0-0.5-0.2-0.5-0.5c0,0,0,0,0,0V31.5z M44.5,28h-2c-0.3,0-0.5-0.2-0.5-0.5c0,0,0,0,0,0
			v-2c0-0.3,0.2-0.5,0.5-0.5c0,0,0,0,0,0h2c0.3,0,0.5,0.2,0.5,0.5c0,0,0,0,0,0v2C45,27.8,44.8,28,44.5,28C44.5,28,44.5,28,44.5,28z
			 M44.5,22h-2c-0.3,0-0.5-0.2-0.5-0.5c0,0,0,0,0,0v-2c0-0.3,0.2-0.5,0.5-0.5c0,0,0,0,0,0h2c0.3,0,0.5,0.2,0.5,0.5c0,0,0,0,0,0v2
			C45,21.8,44.8,22,44.5,22C44.5,22,44.5,22,44.5,22z M36,19.5c0-0.3,0.2-0.5,0.5-0.5c0,0,0,0,0,0h2c0.3,0,0.5,0.2,0.5,0.5
			c0,0,0,0,0,0v2c0,0.3-0.2,0.5-0.5,0.5c0,0,0,0,0,0h-2c-0.3,0-0.5-0.2-0.5-0.5c0,0,0,0,0,0V19.5z M36,25.5c0-0.3,0.2-0.5,0.5-0.5
			c0,0,0,0,0,0h2c0.3,0,0.5,0.2,0.5,0.5c0,0,0,0,0,0v2c0,0.3-0.2,0.5-0.5,0.5c0,0,0,0,0,0h-2c-0.3,0-0.5-0.2-0.5-0.5c0,0,0,0,0,0
			V25.5z M36,31.5c0-0.3,0.2-0.5,0.5-0.5c0,0,0,0,0,0h2c0.3,0,0.5,0.2,0.5,0.5c0,0,0,0,0,0v2c0,0.3-0.2,0.5-0.5,0.5c0,0,0,0,0,0h-2
			c-0.3,0-0.5-0.2-0.5-0.5c0,0,0,0,0,0V31.5z M19,8c0-0.6,0.4-1,1-1h4c0.6,0,1,0.4,1,1v1c0,0.6-0.4,1-1,1h-4c-0.6,0-1-0.4-1-1V8z
			 M19,16c0-0.6,0.4-1,1-1h4c0.6,0,1,0.4,1,1v1c0,0.6-0.4,1-1,1h-4c-0.6,0-1-0.4-1-1V16z M19,24c0-0.6,0.4-1,1-1h4c0.6,0,1,0.4,1,1
			v1c0,0.6-0.4,1-1,1h-4c-0.6,0-1-0.4-1-1V24z M19,45v-5c0-0.6,0.4-1,1-1h4c0.6,0,1,0.4,1,1v5H19z M42,45v-5c0-0.6,0.4-1,1-1h1
			c0.6,0,1,0.4,1,1v5H42z"/>
	</g>
</g>
</svg>
