<?xml version="1.0" encoding="utf-8"?>
<!-- Generator: Adobe Illustrator 25.0.0, SVG Export Plug-In . SVG Version: 6.00 Build 0)  -->
<svg version="1.1" id="Layer_1" xmlns="http://www.w3.org/2000/svg" xmlns:xlink="http://www.w3.org/1999/xlink" x="0px" y="0px"
	 viewBox="0 0 48 48" style="enable-background:new 0 0 48 48;" xml:space="preserve">
<style type="text/css">
	.st0{fill:#011E41;}
</style>
<g id="Layer_2_1_">
	<g id="Icons">
		<path  stroke-width="param(outline-width) "  stroke-opacity="param(outline-opacity) "  stroke="param(outline) "  fill-opacity="param(fill-opacity) "  fill="param(fill) " class="st0" d="M45,21h-1.3c-0.5-3.2-1.7-6.2-3.7-8.8l0.9-0.9c1.2-1.2,1.2-3.1,0-4.2c-1.2-1.2-3.1-1.2-4.2,0l-0.9,0.9
			C33.2,6,30.2,4.7,27,4.3V3c0-1.7-1.3-3-3-3s-3,1.3-3,3v1.3c-3.2,0.5-6.2,1.7-8.8,3.7L11.3,7C10.1,5.9,8.2,5.9,7,7s-1.2,3.1,0,4.2
			l0.9,0.9C6,14.8,4.7,17.8,4.3,21H3c-1.7,0-3,1.3-3,3s1.3,3,3,3h1.3c0.5,3.2,1.7,6.2,3.7,8.8L7,36.7c-1.2,1.2-1.2,3.1,0,4.2
			c1.2,1.2,3.1,1.2,4.2,0l0.9-0.9c2.6,1.9,5.6,3.2,8.8,3.7V45c0,1.7,1.3,3,3,3s3-1.3,3-3v-1.3c3.2-0.5,6.2-1.7,8.8-3.7l0.9,0.9
			c1.2,1.2,3.1,1.2,4.2,0c1.2-1.2,1.2-3.1,0-4.2l0,0l-0.9-0.9c1.9-2.6,3.2-5.6,3.7-8.8H45c1.7,0,3-1.3,3-3S46.7,21,45,21z M24,38
			c-7.7,0-14-6.3-14-14s6.3-14,14-14s14,6.3,14,14C38,31.7,31.7,38,24,38z"/>
	</g>
</g>
</svg>
