<?xml version="1.0" encoding="utf-8"?>
<!-- Generator: Adobe Illustrator 25.0.0, SVG Export Plug-In . SVG Version: 6.00 Build 0)  -->
<svg version="1.1" id="Layer_1" xmlns="http://www.w3.org/2000/svg" xmlns:xlink="http://www.w3.org/1999/xlink" x="0px" y="0px"
	 viewBox="0 0 42 42" style="enable-background:new 0 0 42 42;" xml:space="preserve">
<style type="text/css">
	.st0{fill:#011E41;}
</style>
<g id="Layer_2_1_">
	<g id="Icons">
		<path  stroke-width="param(outline-width) "  stroke-opacity="param(outline-opacity) "  stroke="param(outline) "  fill-opacity="param(fill-opacity) "  fill="param(fill) " class="st0" d="M38,0H4C1.8,0,0,1.8,0,4l0,0v34c0,2.2,1.8,4,4,4h34c2.2,0,4-1.8,4-4V4C42,1.8,40.2,0,38,0L38,0z M24,35h-4
			c-1.1,0-2-0.9-2-2V18h4c1.1,0,2,0.9,2,2V35z M21,13c-1.7,0-3-1.3-3-3s1.3-3,3-3s3,1.3,3,3S22.7,13,21,13z"/>
	</g>
</g>
</svg>
