<?xml version="1.0" encoding="utf-8"?>
<!-- Generator: Adobe Illustrator 25.0.0, SVG Export Plug-In . SVG Version: 6.00 Build 0)  -->
<svg version="1.1" id="Layer_1" xmlns="http://www.w3.org/2000/svg" xmlns:xlink="http://www.w3.org/1999/xlink" x="0px" y="0px"
	 viewBox="0 0 44 48" style="enable-background:new 0 0 44 48;" xml:space="preserve">
<style type="text/css">
	.st0{fill:#011E41;}
</style>
<g id="Layer_2_1_">
	<g id="Icons">
		<path  stroke-width="param(outline-width) "  stroke-opacity="param(outline-opacity) "  stroke="param(outline) "  fill-opacity="param(fill-opacity) "  fill="param(fill) " class="st0" d="M23.5,45h-22C0.7,45,0,45.7,0,46.5S0.7,48,1.5,48h22c0.8,0,1.5-0.7,1.5-1.5S24.3,45,23.5,45z"/>
		<path  stroke-width="param(outline-width) "  stroke-opacity="param(outline-opacity) "  stroke="param(outline) "  fill-opacity="param(fill-opacity) "  fill="param(fill) " class="st0" d="M43.4,4.6c-0.8-0.8-2-0.8-2.8,0c0,0,0,0,0,0l-6,6C34.2,11,34,11.5,34,12v25.5c0,0.8-0.7,1.5-1.5,1.5
			c-0.8,0-1.5-0.7-1.5-1.5V27c0-3.9-3.1-7-7-7V2c0-1.1-0.9-2-2-2H3C1.9,0,1,0.9,1,2v39c0,1.1,0.9,2,2,2h19c1.1,0,2-0.9,2-2V24
			c1.7,0,3,1.3,3,3v10.5c0,3,2.5,5.5,5.5,5.5s5.5-2.5,5.5-5.5V16h3c1.1,0,2-0.9,2-2s-0.9-2-2-2h-2.2l4.6-4.6
			C44.2,6.6,44.2,5.4,43.4,4.6C43.4,4.6,43.4,4.6,43.4,4.6z M21,17c0,0.6-0.4,1-1,1H5c-0.6,0-1-0.4-1-1V5c0-0.6,0.4-1,1-1h15
			c0.6,0,1,0.4,1,1V17z"/>
	</g>
</g>
</svg>
