<?xml version="1.0" encoding="utf-8"?>
<!-- Generator: Adobe Illustrator 25.0.0, SVG Export Plug-In . SVG Version: 6.00 Build 0)  -->
<svg version="1.1" id="Layer_1" xmlns="http://www.w3.org/2000/svg" xmlns:xlink="http://www.w3.org/1999/xlink" x="0px" y="0px"
	 viewBox="0 0 30 48" style="enable-background:new 0 0 30 48;" xml:space="preserve">
<style type="text/css">
	.st0{fill:#011E41;}
</style>
<g id="Layer_2_1_">
	<g id="Icons">
		<path  stroke-width="param(outline-width) "  stroke-opacity="param(outline-opacity) "  stroke="param(outline) "  fill-opacity="param(fill-opacity) "  fill="param(fill) " class="st0" d="M14,12H8c-4.4,0-8,3.6-8,8c0,0,0,0,0,0v26c0,1.1,0.9,2,2,2h26c1.1,0,2-0.9,2-2V28C30,19.2,22.8,12,14,12
			C14,12,14,12,14,12z M26,34.5c0,1.4-1.1,2.5-2.5,2.5S21,35.9,21,34.5v-9c0-1.4,1.1-2.5,2.5-2.5s2.5,1.1,2.5,2.5V34.5z"/>
		<path  stroke-width="param(outline-width) "  stroke-opacity="param(outline-opacity) "  stroke="param(outline) "  fill-opacity="param(fill-opacity) "  fill="param(fill) " class="st0" d="M4.5,10h12c0.8,0,1.5-0.7,1.5-1.5S17.3,7,16.5,7H16V2c0-1.1-0.9-2-2-2H7C5.9,0,5,0.9,5,2v5H4.5
			C3.7,7,3,7.7,3,8.5S3.7,10,4.5,10z"/>
	</g>
</g>
</svg>
