<?xml version="1.0" encoding="utf-8"?>
<!-- Generator: Adobe Illustrator 25.0.0, SVG Export Plug-In . SVG Version: 6.00 Build 0)  -->
<svg version="1.1" id="Layer_1" xmlns="http://www.w3.org/2000/svg" xmlns:xlink="http://www.w3.org/1999/xlink" x="0px" y="0px"
	 viewBox="0 0 27.9 48" style="enable-background:new 0 0 27.9 48;" xml:space="preserve">
<style type="text/css">
	.st0{fill:#011E41;}
</style>
<g id="Layer_2_1_">
	<g id="Icons">
		<path  stroke-width="param(outline-width) "  stroke-opacity="param(outline-opacity) "  stroke="param(outline) "  fill-opacity="param(fill-opacity) "  fill="param(fill) " class="st0" d="M27.9,26.6c0-0.4-0.3-0.6-0.6-0.6c0,0,0,0,0,0H0.7C0.3,26,0,26.2,0,26.6c0,0,0,0,0,0c0.5,5.2,4,9.6,9,11.4v6
			H8c-1.1,0-2,0.9-2,2s0.9,2,2,2h12c1.1,0,2-0.9,2-2s-0.9-2-2-2h-1v-6C23.9,36.3,27.4,31.8,27.9,26.6z"/>
		<path  stroke-width="param(outline-width) "  stroke-opacity="param(outline-opacity) "  stroke="param(outline) "  fill-opacity="param(fill-opacity) "  fill="param(fill) " class="st0" d="M3,4v19c0,0.6,0.4,1,1,1h20c0.6,0,1-0.4,1-1V4c1.1,0,2-0.9,2-2s-0.9-2-2-2H3C1.9,0,1,0.9,1,2S1.9,4,3,4z
			 M7.5,6H11c0.6,0,1,0.4,1,1s-0.4,1-1,1H8.9C8.6,8.8,7.7,9.2,7,8.9C6.2,8.6,5.8,7.8,6,7C6.3,6.4,6.8,6,7.5,6z"/>
	</g>
</g>
</svg>
