<?xml version="1.0" encoding="utf-8"?>
<!-- Generator: Adobe Illustrator 25.0.0, SVG Export Plug-In . SVG Version: 6.00 Build 0)  -->
<svg version="1.1" id="Layer_1" xmlns="http://www.w3.org/2000/svg" xmlns:xlink="http://www.w3.org/1999/xlink" x="0px" y="0px"
	 viewBox="0 0 44 48" style="enable-background:new 0 0 44 48;" xml:space="preserve">
<style type="text/css">
	.st0{fill:#011E41;}
</style>
<g id="Layer_2_1_">
	<g id="FINAL">
		<path  stroke-width="param(outline-width) "  stroke-opacity="param(outline-opacity) "  stroke="param(outline) "  fill-opacity="param(fill-opacity) "  fill="param(fill) " class="st0" d="M44,10v20.2C44,40,36.7,48,28,48s-16-8-16-17.9v-7.3c7.1-1.1,11.9-7.7,10.9-14.7c-0.1-0.4-0.1-0.7-0.2-1.1
			l5.2-1c0.1,0,0.3,0,0.4,0l15,2.9C43.7,9.1,44,9.5,44,10z M0,10C0,4.5,4.5,0,10,0s10,4.5,10,10s-4.5,10-10,10C4.5,20,0,15.5,0,10z
			 M4.3,10.7l3,3C7.5,13.9,7.7,14,8,14c0.2,0,0.5-0.1,0.6-0.2l7-6c0.4-0.4,0.5-1,0.1-1.4c-0.4-0.4-1-0.5-1.4-0.1l-6.3,5.4L5.7,9.3
			c-0.4-0.4-1-0.4-1.4,0S3.9,10.3,4.3,10.7z"/>
	</g>
</g>
</svg>
