<?xml version="1.0" encoding="utf-8"?>
<!-- Generator: Adobe Illustrator 25.0.0, SVG Export Plug-In . SVG Version: 6.00 Build 0)  -->
<svg version="1.1" id="Layer_1" xmlns="http://www.w3.org/2000/svg" xmlns:xlink="http://www.w3.org/1999/xlink" x="0px" y="0px"
	 viewBox="0 0 48 48" style="enable-background:new 0 0 48 48;" xml:space="preserve">
<style type="text/css">
	.st0{fill:#011E41;}
</style>
<g id="Layer_2_1_">
	<g id="Icons">
		<path  stroke-width="param(outline-width) "  stroke-opacity="param(outline-opacity) "  stroke="param(outline) "  fill-opacity="param(fill-opacity) "  fill="param(fill) " class="st0" d="M38.1,32.1l-0.2-0.2c-2,3.5-5.2,6.1-9.1,7.4c-0.6,0.2-1.2,0.3-1.8,0.5h0c-0.8,0.2-1.6,0.2-2.3,0.3l0.5-0.4
			c0.9-0.7,1-1.9,0.3-2.8c-0.4-0.5-1-0.7-1.6-0.7c-0.5,0-0.9,0.2-1.3,0.4l-3.5,2.8l-1.5,1.2c-0.5,0.4-0.7,1-0.8,1.6
			c0,0.3,0.1,0.5,0.2,0.8c0.1,0.3,0.3,0.6,0.6,0.8l5,4c0.4,0.3,0.8,0.4,1.3,0.4c1.1,0,2-0.9,2-2c0-0.6-0.3-1.2-0.7-1.6L24.7,44
			c0.7,0,1.4-0.1,2-0.2c0.5-0.1,1.1-0.2,1.6-0.3c5.5-1.2,10.2-4.7,13-9.6C40.1,33.8,38.9,33.1,38.1,32.1z"/>
		<path  stroke-width="param(outline-width) "  stroke-opacity="param(outline-opacity) "  stroke="param(outline) "  fill-opacity="param(fill-opacity) "  fill="param(fill) " class="st0" d="M9.9,15.9l0.2,0.2c2-3.5,5.2-6.1,9.1-7.4c0.6-0.2,1.2-0.3,1.8-0.4h0c0.8-0.2,1.6-0.2,2.3-0.3l-0.5,0.4
			c-0.9,0.7-1,1.9-0.3,2.8c0.4,0.5,1,0.7,1.6,0.7c0.5,0,0.9-0.2,1.3-0.4l3.5-2.8l1.5-1.2C30.7,7.2,31,6.6,31,6
			c0-0.3-0.1-0.5-0.2-0.8c-0.1-0.3-0.3-0.6-0.6-0.8l-5-4C24.9,0.2,24.5,0,24,0c-1.1,0-2,0.9-2,2c0,0.6,0.3,1.2,0.7,1.6L23.3,4
			c-0.7,0-1.4,0.1-2.1,0.2c-0.5,0.1-1.1,0.2-1.6,0.3c-5.5,1.2-10.2,4.7-13,9.6C7.9,14.2,9.1,14.9,9.9,15.9z"/>
		<path  stroke-width="param(outline-width) "  stroke-opacity="param(outline-opacity) "  stroke="param(outline) "  fill-opacity="param(fill-opacity) "  fill="param(fill) " class="st0" d="M8.7,28.8c-0.4-1.3-0.7-2.7-0.7-4.1l0.4,0.5c0.4,0.5,1,0.8,1.6,0.8c0.5,0,0.9-0.2,1.3-0.4
			c0.9-0.7,1-1.9,0.3-2.8l-2.8-3.5l-1.2-1.5C7.2,17.3,6.6,17,6,17c-0.3,0-0.6,0.1-0.8,0.2c-0.3,0.1-0.6,0.3-0.8,0.5l-4,5
			c-0.7,0.9-0.6,2.1,0.3,2.8C1.1,25.8,1.5,26,2,26c0.6,0,1.2-0.3,1.6-0.8L4,24.7c0,0.7,0.1,1.4,0.2,2c0.1,0.5,0.2,1.1,0.3,1.6
			c1.2,5.5,4.7,10.2,9.6,13c0.2-1.3,0.8-2.4,1.8-3.2l0.2-0.2C12.6,35.9,10,32.7,8.7,28.8z"/>
		<path  stroke-width="param(outline-width) "  stroke-opacity="param(outline-opacity) "  stroke="param(outline) "  fill-opacity="param(fill-opacity) "  fill="param(fill) " class="st0" d="M47.2,22.4C46.9,22.2,46.5,22,46,22c-0.6,0-1.2,0.3-1.6,0.8L44,23.3c0-0.7-0.1-1.4-0.2-2
			c-0.1-0.5-0.2-1.1-0.3-1.6c-1.2-5.5-4.7-10.2-9.6-13c-0.2,1.3-0.8,2.4-1.8,3.2l-0.2,0.2c3.5,2,6.1,5.2,7.4,9.1
			c0.4,1.3,0.7,2.7,0.7,4.1l-0.4-0.5c-0.4-0.5-1-0.8-1.6-0.7c-0.5,0-0.9,0.2-1.3,0.4c-0.9,0.7-1,1.9-0.3,2.8l2.8,3.5l1.2,1.5
			c0.4,0.5,1,0.7,1.6,0.8c0.3,0,0.5-0.1,0.8-0.2c0.3-0.1,0.6-0.3,0.8-0.6l4-5C48.2,24.4,48.1,23.1,47.2,22.4z"/>
	</g>
</g>
</svg>
