<?xml version="1.0" encoding="utf-8"?>
<!-- Generator: Adobe Illustrator 25.0.0, SVG Export Plug-In . SVG Version: 6.00 Build 0)  -->
<svg version="1.1" id="Layer_1" xmlns="http://www.w3.org/2000/svg" xmlns:xlink="http://www.w3.org/1999/xlink" x="0px" y="0px"
	 viewBox="0 0 48 42" style="enable-background:new 0 0 48 42;" xml:space="preserve">
<style type="text/css">
	.st0{fill:#011E41;}
</style>
<g id="Layer_2_1_">
	<g id="Text">
		<path  stroke-width="param(outline-width) "  stroke-opacity="param(outline-opacity) "  stroke="param(outline) "  fill-opacity="param(fill-opacity) "  fill="param(fill) " class="st0" d="M44.5,3.9l-0.4-0.4c-4.5-4.6-11.9-4.8-16.5-0.3c-0.1,0.1-0.2,0.2-0.3,0.3L24,7l-3.3-3.4
			C16.2-1.1,8.8-1.2,4.1,3.3C4,3.4,3.9,3.5,3.9,3.6L3.5,3.9c-4.6,4.8-4.6,12.4,0,17.2l19.6,20.4c0.5,0.5,1.2,0.5,1.7,0.1
			c0,0,0,0,0.1-0.1l19.6-20.4C49.2,16.4,49.2,8.8,44.5,3.9z M31.4,22.4C31,22.8,30.5,23,30,23h-4v4c0,1.1-0.9,2-2,2s-2-0.9-2-2v-4
			h-4c-1.1,0-2-0.9-2-2s0.9-2,2-2h4v-4c0-1.1,0.9-2,2-2c0.5,0,1,0.2,1.4,0.6C25.8,14,26,14.5,26,15v4h4c1.1,0,2,0.9,2,2c0,0,0,0,0,0
			C32,21.5,31.8,22,31.4,22.4L31.4,22.4z"/>
	</g>
</g>
</svg>
