<?xml version="1.0" encoding="utf-8"?>
<!-- Generator: Adobe Illustrator 25.0.0, SVG Export Plug-In . SVG Version: 6.00 Build 0)  -->
<svg version="1.1" id="Layer_1" xmlns="http://www.w3.org/2000/svg" xmlns:xlink="http://www.w3.org/1999/xlink" x="0px" y="0px"
	 viewBox="0 0 48 39" style="enable-background:new 0 0 48 39;" xml:space="preserve">
<style type="text/css">
	.st0{fill:#011E41;}
</style>
<g id="Layer_2_1_">
	<g id="Icons">
		<path  stroke-width="param(outline-width) "  stroke-opacity="param(outline-opacity) "  stroke="param(outline) "  fill-opacity="param(fill-opacity) "  fill="param(fill) " class="st0" d="M45.5,19H43C41.6,7.2,30.8-1.3,19,0.2C8.2,1.4,0,10.6,0,21.5V27c0,2.2,1.8,4,4,4c0,0,0,0,0,0h17l8,8h7.5
			c0.8,0,1.5-0.7,1.5-1.5S37.3,36,36.5,36H32V24h13.5c1.4,0,2.5-1.1,2.5-2.5S46.9,19,45.5,19z M20,16.5c0,1.9-1.6,3.5-3.5,3.5
			S13,18.4,13,16.5V9c0-0.6,0.4-1,1-1s1,0.4,1,1v7.5c0,0.8,0.7,1.5,1.5,1.5c0.8,0,1.5-0.7,1.5-1.5V9c0-0.6,0.4-1,1-1s1,0.4,1,1V16.5
			z M24,19c0,0.6-0.4,1-1,1s-1-0.4-1-1V9c0-0.6,0.4-1,1-1c0.4,0,0.7,0.2,0.9,0.5l3.1,6.2V9c0-0.6,0.4-1,1-1s1,0.4,1,1v10
			c0,0.5-0.3,0.9-0.8,1c-0.1,0-0.2,0-0.2,0c-0.4,0-0.7-0.2-0.9-0.5L24,13.2V19z M29,33l-5-5l4-4h1V33z"/>
	</g>
</g>
</svg>
