<?xml version="1.0" encoding="utf-8"?>
<!-- Generator: Adobe Illustrator 25.0.0, SVG Export Plug-In . SVG Version: 6.00 Build 0)  -->
<svg version="1.1" id="Layer_1" xmlns="http://www.w3.org/2000/svg" xmlns:xlink="http://www.w3.org/1999/xlink" x="0px" y="0px"
	 viewBox="0 0 48 36" style="enable-background:new 0 0 48 36;" xml:space="preserve">
<style type="text/css">
	.st0{fill:#011E41;}
</style>
<g id="Layer_2_1_">
	<g id="Icons">
		<path  stroke-width="param(outline-width) "  stroke-opacity="param(outline-opacity) "  stroke="param(outline) "  fill-opacity="param(fill-opacity) "  fill="param(fill) " class="st0" d="M44,14H13.7l7.2-7.2c1.6-1.6,1.6-4.1,0-5.7c-1.6-1.6-4.1-1.6-5.6,0l-14,14c-1.6,1.6-1.6,4.1,0,5.7
			c0,0,0,0,0,0l14,14c1.6,1.6,4.1,1.6,5.7,0c1.6-1.6,1.6-4.1,0-5.7c0,0,0,0,0,0L13.7,22H44c2.2,0,4-1.8,4-4S46.2,14,44,14z"/>
	</g>
</g>
</svg>
