<?xml version="1.0" encoding="utf-8"?>
<!-- Generator: Adobe Illustrator 25.0.0, SVG Export Plug-In . SVG Version: 6.00 Build 0)  -->
<svg version="1.1" id="Layer_1" xmlns="http://www.w3.org/2000/svg" xmlns:xlink="http://www.w3.org/1999/xlink" x="0px" y="0px"
	 viewBox="0 0 42 48" style="enable-background:new 0 0 42 48;" xml:space="preserve">
<style type="text/css">
	.st0{fill:#011E41;}
</style>
<g id="Layer_2_1_">
	<g id="Icons">
		<path  stroke-width="param(outline-width) "  stroke-opacity="param(outline-opacity) "  stroke="param(outline) "  fill-opacity="param(fill-opacity) "  fill="param(fill) " class="st0" d="M22,0c-3.9,0-7,3.1-7,7v2.3C8.2,10.6,3,16.3,3,21h30c0-4.7-5.2-10.4-12-11.7V7c0-0.6,0.4-1,1-1h20V0H22z"/>
		<path  stroke-width="param(outline-width) "  stroke-opacity="param(outline-opacity) "  stroke="param(outline) "  fill-opacity="param(fill-opacity) "  fill="param(fill) " class="st0" d="M33.8,23H2.2c-1.1-0.1-2.1,0.7-2.2,1.8c-0.1,1.1,0.7,2.1,1.8,2.2c0.1,0,0.2,0,0.3,0h31.6
			c1.1,0.1,2.1-0.7,2.2-1.8c0.1-1.1-0.7-2.1-1.8-2.2C34.1,23,33.9,23,33.8,23z"/>
		<path  stroke-width="param(outline-width) "  stroke-opacity="param(outline-opacity) "  stroke="param(outline) "  fill-opacity="param(fill-opacity) "  fill="param(fill) " class="st0" d="M17.9,30c-0.5,0.6-2.9,3.6-2.9,5.1c0.1,1.7,1.4,3,3.1,2.9c1.6-0.1,2.8-1.3,2.9-2.9c0-1.4-2.5-4.5-2.9-5.1
			C18,30,18,30,17.9,30C17.9,30,17.9,30,17.9,30z"/>
		<path  stroke-width="param(outline-width) "  stroke-opacity="param(outline-opacity) "  stroke="param(outline) "  fill-opacity="param(fill-opacity) "  fill="param(fill) " class="st0" d="M10.9,40C10.5,40.6,8,43.7,8,45.1c0.1,1.7,1.4,3,3.1,2.9c1.6-0.1,2.8-1.3,2.9-2.9c0-1.4-2.5-4.5-2.9-5.1
			C11,40,11,40,10.9,40C10.9,40,10.9,40,10.9,40z"/>
		<path  stroke-width="param(outline-width) "  stroke-opacity="param(outline-opacity) "  stroke="param(outline) "  fill-opacity="param(fill-opacity) "  fill="param(fill) " class="st0" d="M24.9,40c-0.5,0.6-2.9,3.6-2.9,5.1c0.1,1.7,1.4,3,3.1,2.9c1.6-0.1,2.8-1.3,2.9-2.9c0-1.4-2.5-4.5-2.9-5.1
			C25,40,25,40,24.9,40C24.9,40,24.9,40,24.9,40z"/>
		<path  stroke-width="param(outline-width) "  stroke-opacity="param(outline-opacity) "  stroke="param(outline) "  fill-opacity="param(fill-opacity) "  fill="param(fill) " class="st0" d="M3.9,30C3.5,30.6,1,33.7,1,35.1C1,36.7,2.4,38,4,38c1.6,0,3-1.3,3-2.9c0-1.4-2.5-4.5-2.9-5.1
			C4,30,4,30,3.9,30C3.9,30,3.9,30,3.9,30z"/>
		<path  stroke-width="param(outline-width) "  stroke-opacity="param(outline-opacity) "  stroke="param(outline) "  fill-opacity="param(fill-opacity) "  fill="param(fill) " class="st0" d="M31.9,30c-0.5,0.6-2.9,3.6-2.9,5.1c0.1,1.7,1.4,3,3.1,2.9c1.6-0.1,2.8-1.3,2.9-2.9c0-1.4-2.5-4.5-2.9-5.1
			C32,30,32,30,31.9,30C31.9,30,31.9,30,31.9,30z"/>
	</g>
</g>
</svg>
