<?xml version="1.0" encoding="utf-8"?>
<!-- Generator: Adobe Illustrator 25.0.0, SVG Export Plug-In . SVG Version: 6.00 Build 0)  -->
<svg version="1.1" id="Layer_1" xmlns="http://www.w3.org/2000/svg" xmlns:xlink="http://www.w3.org/1999/xlink" x="0px" y="0px"
	 viewBox="0 0 48 32" style="enable-background:new 0 0 48 32;" xml:space="preserve">
<style type="text/css">
	.st0{fill:#011E41;}
</style>
<g id="Layer_2_1_">
	<g id="Icons">
		<path  stroke-width="param(outline-width) "  stroke-opacity="param(outline-opacity) "  stroke="param(outline) "  fill-opacity="param(fill-opacity) "  fill="param(fill) " class="st0" d="M45,0H3C1.3,0,0,1.3,0,3v26c0,1.7,1.3,3,3,3h42c1.7,0,3-1.3,3-3V3C48,1.3,46.7,0,45,0z M8.5,5.5
			c2-2,5.1-2,7.1,0s2,5.1,0,7.1s-5.1,2-7.1,0C7.5,11.6,7,10.3,7,9C7,7.7,7.5,6.4,8.5,5.5z M20,26H4v-1c0-4.4,3.6-8,8-8s8,3.6,8,8V26
			z M40.5,24h-15c-0.8,0-1.5-0.7-1.5-1.5s0.7-1.5,1.5-1.5h15c0.8,0,1.5,0.7,1.5,1.5S41.3,24,40.5,24z M40.5,18h-15
			c-0.8,0-1.5-0.7-1.5-1.5s0.7-1.5,1.5-1.5h15c0.8,0,1.5,0.7,1.5,1.5S41.3,18,40.5,18z M40.5,12h-15c-0.8,0-1.5-0.7-1.5-1.5
			S24.7,9,25.5,9h15c0.8,0,1.5,0.7,1.5,1.5S41.3,12,40.5,12z"/>
	</g>
</g>
</svg>
