<?xml version="1.0" encoding="utf-8"?>
<!-- Generator: Adobe Illustrator 25.0.0, SVG Export Plug-In . SVG Version: 6.00 Build 0)  -->
<svg version="1.1" id="Layer_1" xmlns="http://www.w3.org/2000/svg" xmlns:xlink="http://www.w3.org/1999/xlink" x="0px" y="0px"
	 viewBox="0 0 48 48" style="enable-background:new 0 0 48 48;" xml:space="preserve">
<style type="text/css">
	.st0{fill:#011E41;}
</style>
<g id="Layer_2_1_">
	<g id="Icons">
		<path  stroke-width="param(outline-width) "  stroke-opacity="param(outline-opacity) "  stroke="param(outline) "  fill-opacity="param(fill-opacity) "  fill="param(fill) " class="st0" d="M31.5,14.5c3.3-3.3,3.3-8.7,0-12s-8.7-3.3-12,0c0,0,0,0,0,0L11,11l-8.5,8.5c-3.3,3.3-3.3,8.7,0,12
			s8.7,3.3,12,0c0,0,0,0,0,0L23,23L31.5,14.5z M13.1,13.1l8.5-8.5c2.1-2.1,5.6-2.1,7.8,0c2.1,2.2,2.1,5.6,0,7.8l-8.5,8.5L13.1,13.1z
			"/>
		<path  stroke-width="param(outline-width) "  stroke-opacity="param(outline-opacity) "  stroke="param(outline) "  fill-opacity="param(fill-opacity) "  fill="param(fill) " class="st0" d="M35,22c-7.2,0-13,5.8-13,13c0,2.8,0.9,5.5,2.5,7.7l18.1-18.1C40.4,22.9,37.8,22,35,22z"/>
		<path  stroke-width="param(outline-width) "  stroke-opacity="param(outline-opacity) "  stroke="param(outline) "  fill-opacity="param(fill-opacity) "  fill="param(fill) " class="st0" d="M45.5,27.3L27.3,45.5c5.8,4.2,13.9,3,18.1-2.8C48.8,38.1,48.8,31.9,45.5,27.3z"/>
	</g>
</g>
</svg>
