<?xml version="1.0" encoding="utf-8"?>
<!-- Generator: Adobe Illustrator 25.0.0, SVG Export Plug-In . SVG Version: 6.00 Build 0)  -->
<svg version="1.1" id="Layer_1" xmlns="http://www.w3.org/2000/svg" xmlns:xlink="http://www.w3.org/1999/xlink" x="0px" y="0px"
	 viewBox="0 0 28 48" style="enable-background:new 0 0 28 48;" xml:space="preserve">
<style type="text/css">
	.st0{fill:#011E41;}
</style>
<g id="Layer_2_1_">
	<g id="Icons">
		<path  stroke-width="param(outline-width) "  stroke-opacity="param(outline-opacity) "  stroke="param(outline) "  fill-opacity="param(fill-opacity) "  fill="param(fill) " class="st0" d="M8.5,41.5C7.5,40.6,7,39.3,7,38c0-2.8,2.2-5,5-5h4c0.1,0,0.2,0,0.3,0L19,18H6c-3.3,0-6,2.7-6,6v20
			c0,2.2,1.8,4,4,4c0,0,0,0,0,0h14c2.2,0,4-1.8,4-4c0,0,0,0,0,0v-1H12C10.7,43,9.4,42.5,8.5,41.5z"/>
		<path  stroke-width="param(outline-width) "  stroke-opacity="param(outline-opacity) "  stroke="param(outline) "  fill-opacity="param(fill-opacity) "  fill="param(fill) " class="st0" d="M9,38c0,1.7,1.3,3,3,3h3l1-6h-4C10.3,35,9,36.3,9,38C9,38,9,38,9,38z"/>
		<path  stroke-width="param(outline-width) "  stroke-opacity="param(outline-opacity) "  stroke="param(outline) "  fill-opacity="param(fill-opacity) "  fill="param(fill) " class="st0" d="M24,18l0,17v6h1c1.7,0,3-1.3,3-3c0,0,0,0,0,0V22C28,19.8,26.2,18,24,18z"/>
		<circle class="st0" cx="14" cy="7" r="7"/>
	</g>
</g>
</svg>
