<?xml version="1.0" encoding="utf-8"?>
<!-- Generator: Adobe Illustrator 25.0.0, SVG Export Plug-In . SVG Version: 6.00 Build 0)  -->
<svg version="1.1" id="Layer_1" xmlns="http://www.w3.org/2000/svg" xmlns:xlink="http://www.w3.org/1999/xlink" x="0px" y="0px"
	 viewBox="0 0 36 44" style="enable-background:new 0 0 36 44;" xml:space="preserve">
<style type="text/css">
	.st0{fill:#011E41;}
</style>
<g id="Layer_2_1_">
	<g id="Icons">
		<path  stroke-width="param(outline-width) "  stroke-opacity="param(outline-opacity) "  stroke="param(outline) "  fill-opacity="param(fill-opacity) "  fill="param(fill) " class="st0" d="M18.7,0.3c-0.4-0.3-0.9-0.3-1.3,0l-17,15.4C0.1,15.9,0,16.2,0,16.4V44h36V16.4c0-0.3-0.1-0.6-0.3-0.7
			L18.7,0.3z M25,29h-4v4c0,1.7-1.3,3-3,3s-3-1.3-3-3v-4h-4c-1.7,0-3-1.3-3-3s1.3-3,3-3h4v-4c0-1.7,1.3-3,3-3s3,1.3,3,3v4h4
			c1.7,0,3,1.3,3,3S26.7,29,25,29z"/>
	</g>
</g>
</svg>
