<?xml version="1.0" encoding="utf-8"?>
<!-- Generator: Adobe Illustrator 25.0.0, SVG Export Plug-In . SVG Version: 6.00 Build 0)  -->
<svg version="1.1" id="Layer_1" xmlns="http://www.w3.org/2000/svg" xmlns:xlink="http://www.w3.org/1999/xlink" x="0px" y="0px"
	 viewBox="0 0 48 30" style="enable-background:new 0 0 48 30;" xml:space="preserve">
<style type="text/css">
	.st0{fill:#011E41;}
</style>
<g id="Layer_2_1_">
	<g id="Icons">
		<path  stroke-width="param(outline-width) "  stroke-opacity="param(outline-opacity) "  stroke="param(outline) "  fill-opacity="param(fill-opacity) "  fill="param(fill) " class="st0" d="M47.4,0.6C47,0.2,46.5,0,46,0c-1.1,0-2,0.9-2,2v6l-3,6h3v14c0,1.1,0.9,2,2,2s2-0.9,2-2V2
			C48,1.5,47.8,1,47.4,0.6z"/>
		<path  stroke-width="param(outline-width) "  stroke-opacity="param(outline-opacity) "  stroke="param(outline) "  fill-opacity="param(fill-opacity) "  fill="param(fill) " class="st0" d="M10,4H6L4,8V2c0-1.1-0.9-2-2-2S0,0.9,0,2v26c0,1.1,0.9,2,2,2s2-0.9,2-2V14h1L10,4z"/>
		<polygon class="st0" points="14,4 9,14 13,14 18,4 		"/>
		<polygon class="st0" points="22,4 17,14 21,14 26,4 		"/>
		<polygon class="st0" points="30,4 25,14 29,14 34,4 		"/>
		<polygon class="st0" points="38,4 33,14 37,14 42,4 		"/>
	</g>
</g>
</svg>
