<?xml version="1.0" encoding="utf-8"?>
<!-- Generator: Adobe Illustrator 25.0.0, SVG Export Plug-In . SVG Version: 6.00 Build 0)  -->
<svg version="1.1" id="Layer_1" xmlns="http://www.w3.org/2000/svg" xmlns:xlink="http://www.w3.org/1999/xlink" x="0px" y="0px"
	 viewBox="0 0 48 30" style="enable-background:new 0 0 48 30;" xml:space="preserve">
<style type="text/css">
	.st0{fill-rule:evenodd;clip-rule:evenodd;fill:#011E41;}
	.st1{fill:#011E41;}
</style>
<g id="Layer_2_1_">
	<g id="Icons">
		<path  stroke-width="param(outline-width) "  stroke-opacity="param(outline-opacity) "  stroke="param(outline) "  fill-opacity="param(fill-opacity) "  fill="param(fill) " class="st0" d="M43,14v-2c0-3.3-2.7-6-6-6h-4V3c0-1.7-1.3-3-3-3c0,0,0,0,0,0H3C1.3,0,0,1.3,0,3c0,0,0,0,0,0v23h5
			c0-3.3,2.7-6,6-6s6,2.7,6,6h12c0-3.3,2.7-6,6-6s6,2.7,6,6h5c1.1,0,2-0.9,2-2v-5C48,16.2,45.8,14,43,14z M17,16c-2.2,0-4-1.8-4-4
			c0,0,0,0,0,0c0-2,3.3-6.2,3.9-7C16.9,5,17,5,17.1,5c0,0,0,0,0,0c0.6,0.8,3.9,5,3.9,7C21,14.2,19.2,16,17,16C17,16,17,16,17,16z
			 M37,9c1.7,0,3,1.3,3,3c0,0,0,0,0,0v2h-7V9H37z"/>
		<circle class="st1" cx="11" cy="26" r="4"/>
		<circle class="st1" cx="35" cy="26" r="4"/>
	</g>
</g>
</svg>
