<?xml version="1.0" encoding="utf-8"?>
<!-- Generator: Adobe Illustrator 25.0.0, SVG Export Plug-In . SVG Version: 6.00 Build 0)  -->
<svg version="1.1" id="Layer_1" xmlns="http://www.w3.org/2000/svg" xmlns:xlink="http://www.w3.org/1999/xlink" x="0px" y="0px"
	 viewBox="0 0 48 30" style="enable-background:new 0 0 48 30;" xml:space="preserve">
<style type="text/css">
	.st0{fill:#011E41;}
</style>
<g id="Layer_2_1_">
	<g id="Icons">
		<path  stroke-width="param(outline-width) "  stroke-opacity="param(outline-opacity) "  stroke="param(outline) "  fill-opacity="param(fill-opacity) "  fill="param(fill) " class="st0" d="M47,0H6C5.4,0,5,0.4,5,1v6h16c1.9-3,6-3.9,9-2c0.8,0.5,1.5,1.2,2,2h10c1.7,0,3,1.3,3,3v11h2c0.6,0,1-0.4,1-1
			V1C48,0.4,47.6,0,47,0z"/>
		<path  stroke-width="param(outline-width) "  stroke-opacity="param(outline-opacity) "  stroke="param(outline) "  fill-opacity="param(fill-opacity) "  fill="param(fill) " class="st0" d="M42,9H1c-0.6,0-1,0.4-1,1v19c0,0.6,0.4,1,1,1h41c0.6,0,1-0.4,1-1V10C43,9.4,42.6,9,42,9z M6,23
			c-1.7,0-3-1.3-3-3c0-1.3,0.8-2.4,2-2.8C5.3,17.1,5.7,17,6,17c1.7,0,3,1.3,3,3c0,0,0,0,0,0c0,0.3-0.1,0.7-0.2,1
			C8.4,22.2,7.3,23,6,23z M21.5,26c-3,0-5.6-2.1-6.3-5c-0.1-0.5-0.2-1-0.2-1.5c0-3.2,2.4-5.9,5.5-6.4c0.3-0.1,0.6-0.1,1-0.1
			c3.6,0,6.5,2.9,6.5,6.5c0,0,0,0,0,0c0,0.5-0.1,1-0.2,1.5C27.1,23.9,24.5,26,21.5,26z M37,22.5c-1.7,0-3-1.3-3-3c0-1.7,1.3-3,3-3
			c1.7,0,3,1.3,3,3c0,0.5-0.1,1-0.4,1.5C39.1,21.9,38.1,22.5,37,22.5z"/>
	</g>
</g>
</svg>
