<?xml version="1.0" encoding="utf-8"?>
<!-- Generator: Adobe Illustrator 25.0.0, SVG Export Plug-In . SVG Version: 6.00 Build 0)  -->
<svg version="1.1" id="Layer_1" xmlns="http://www.w3.org/2000/svg" xmlns:xlink="http://www.w3.org/1999/xlink" x="0px" y="0px"
	 viewBox="0 0 48 32" style="enable-background:new 0 0 48 32;" xml:space="preserve">
<style type="text/css">
	.st0{fill:#011E41;}
</style>
<g id="Layer_2_1_">
	<g id="Icons">
		<path  stroke-width="param(outline-width) "  stroke-opacity="param(outline-opacity) "  stroke="param(outline) "  fill-opacity="param(fill-opacity) "  fill="param(fill) " class="st0" d="M39,15h-2c-1.3,0-2.5,0.3-3.7,0.8C36.9,18.4,39,22.6,39,27h9v-3C48,19,44,15,39,15z"/>
		<path  stroke-width="param(outline-width) "  stroke-opacity="param(outline-opacity) "  stroke="param(outline) "  fill-opacity="param(fill-opacity) "  fill="param(fill) " class="st0" d="M14.7,15.8C13.5,15.3,12.3,15,11,15H9c-5,0-9,4-9,9v3h9C9,22.6,11.1,18.4,14.7,15.8z"/>
		<path  stroke-width="param(outline-width) "  stroke-opacity="param(outline-opacity) "  stroke="param(outline) "  fill-opacity="param(fill-opacity) "  fill="param(fill) " class="st0" d="M25,16h-2c-6.1,0-11,4.9-11,11v5h24v-5C36,20.9,31.1,16,25,16z"/>
		<circle class="st0" cx="24" cy="7" r="7"/>
		<circle class="st0" cx="10" cy="8" r="5"/>
		<circle class="st0" cx="38" cy="8" r="5"/>
	</g>
</g>
</svg>
