<?xml version="1.0" encoding="utf-8"?>
<!-- Generator: Adobe Illustrator 25.0.0, SVG Export Plug-In . SVG Version: 6.00 Build 0)  -->
<svg version="1.1" id="Layer_1" xmlns="http://www.w3.org/2000/svg" xmlns:xlink="http://www.w3.org/1999/xlink" x="0px" y="0px"
	 viewBox="0 0 48 29" style="enable-background:new 0 0 48 29;" xml:space="preserve">
<style type="text/css">
	.st0{fill:#011E41;}
</style>
<g id="Layer_2_1_">
	<g id="Icons">
		<path  stroke-width="param(outline-width) "  stroke-opacity="param(outline-opacity) "  stroke="param(outline) "  fill-opacity="param(fill-opacity) "  fill="param(fill) " class="st0" d="M5.5,13l2,0C8.3,13,9,12.3,9,11.5C9,10.7,8.3,10,7.5,10l-2,0C4.7,10,4,10.7,4,11.5C4,12.3,4.7,13,5.5,13z"/>
		<path  stroke-width="param(outline-width) "  stroke-opacity="param(outline-opacity) "  stroke="param(outline) "  fill-opacity="param(fill-opacity) "  fill="param(fill) " class="st0" d="M12.5,13l2,0c0.8,0,1.5-0.7,1.5-1.5c0-0.8-0.7-1.5-1.5-1.5l-2,0c-0.8,0-1.5,0.7-1.5,1.5
			C11,12.3,11.7,13,12.5,13z"/>
		<path  stroke-width="param(outline-width) "  stroke-opacity="param(outline-opacity) "  stroke="param(outline) "  fill-opacity="param(fill-opacity) "  fill="param(fill) " class="st0" d="M19.5,13l2,0c0.8,0,1.5-0.7,1.5-1.5c0-0.8-0.7-1.5-1.5-1.5l-2,0c-0.8,0-1.5,0.7-1.5,1.5
			C18,12.3,18.7,13,19.5,13z"/>
		<path  stroke-width="param(outline-width) "  stroke-opacity="param(outline-opacity) "  stroke="param(outline) "  fill-opacity="param(fill-opacity) "  fill="param(fill) " class="st0" d="M26.5,13l2,0c0.8,0,1.5-0.7,1.5-1.5c0-0.8-0.7-1.5-1.5-1.5l-2,0c-0.8,0-1.5,0.7-1.5,1.5
			C25,12.3,25.7,13,26.5,13z"/>
		<path  stroke-width="param(outline-width) "  stroke-opacity="param(outline-opacity) "  stroke="param(outline) "  fill-opacity="param(fill-opacity) "  fill="param(fill) " class="st0" d="M33.5,13l2,0c0.8,0,1.5-0.7,1.5-1.5c0-0.8-0.7-1.5-1.5-1.5l-2,0c-0.8,0-1.5,0.7-1.5,1.5
			C32,12.3,32.7,13,33.5,13C33.5,13,33.5,13,33.5,13z"/>
		<path  stroke-width="param(outline-width) "  stroke-opacity="param(outline-opacity) "  stroke="param(outline) "  fill-opacity="param(fill-opacity) "  fill="param(fill) " class="st0" d="M12.5,8l2,0C15.3,8,16,7.3,16,6.5C16,5.7,15.3,5,14.5,5l-2,0C11.7,5,11,5.7,11,6.5C11,7.3,11.7,8,12.5,8
			C12.5,8,12.5,8,12.5,8z"/>
		<path  stroke-width="param(outline-width) "  stroke-opacity="param(outline-opacity) "  stroke="param(outline) "  fill-opacity="param(fill-opacity) "  fill="param(fill) " class="st0" d="M19.5,8l2,0C22.3,8,23,7.3,23,6.5C23,5.7,22.3,5,21.5,5l-2,0C18.7,5,18,5.7,18,6.5S18.7,8,19.5,8
			C19.5,8,19.5,8,19.5,8z"/>
		<path  stroke-width="param(outline-width) "  stroke-opacity="param(outline-opacity) "  stroke="param(outline) "  fill-opacity="param(fill-opacity) "  fill="param(fill) " class="st0" d="M26.5,8l2,0C29.3,8,30,7.3,30,6.5C30,5.7,29.3,5,28.5,5l-2,0C25.7,5,25,5.7,25,6.5C25,7.3,25.7,8,26.5,8z"/>
		<path  stroke-width="param(outline-width) "  stroke-opacity="param(outline-opacity) "  stroke="param(outline) "  fill-opacity="param(fill-opacity) "  fill="param(fill) " class="st0" d="M19.5,3l2,0C22.3,3,23,2.3,23,1.5C23,0.7,22.3,0,21.5,0l-2,0C18.7,0,18,0.7,18,1.5C18,2.3,18.7,3,19.5,3z"/>
		<path  stroke-width="param(outline-width) "  stroke-opacity="param(outline-opacity) "  stroke="param(outline) "  fill-opacity="param(fill-opacity) "  fill="param(fill) " class="st0" d="M26.5,3l2,0C29.3,3,30,2.3,30,1.5C30,0.7,29.3,0,28.5,0l-2,0C25.7,0,25,0.7,25,1.5C25,2.3,25.7,3,26.5,3z"/>
		<path  stroke-width="param(outline-width) "  stroke-opacity="param(outline-opacity) "  stroke="param(outline) "  fill-opacity="param(fill-opacity) "  fill="param(fill) " class="st0" d="M33.5,8l2,0C36.3,8,37,7.3,37,6.5C37,5.7,36.3,5,35.5,5l-2,0C32.7,5,32,5.7,32,6.5S32.7,8,33.5,8
			C33.5,8,33.5,8,33.5,8z"/>
		<path  stroke-width="param(outline-width) "  stroke-opacity="param(outline-opacity) "  stroke="param(outline) "  fill-opacity="param(fill-opacity) "  fill="param(fill) " class="st0" d="M40.5,13l2,0c0.8,0,1.5-0.7,1.5-1.5c0-0.8-0.7-1.5-1.5-1.5l-2,0c-0.8,0-1.5,0.7-1.5,1.5S39.7,13,40.5,13
			C40.5,13,40.5,13,40.5,13z"/>
		<path  stroke-width="param(outline-width) "  stroke-opacity="param(outline-opacity) "  stroke="param(outline) "  fill-opacity="param(fill-opacity) "  fill="param(fill) " class="st0" d="M47,15H1c-0.6,0-1,0.4-1,1c0,7.2,5.8,13,13,13h22c7.2,0,13-5.8,13-13C48,15.4,47.6,15,47,15z"/>
	</g>
</g>
</svg>
