<?xml version="1.0" encoding="utf-8"?>
<!-- Generator: Adobe Illustrator 25.0.0, SVG Export Plug-In . SVG Version: 6.00 Build 0)  -->
<svg version="1.1" id="Layer_1" xmlns="http://www.w3.org/2000/svg" xmlns:xlink="http://www.w3.org/1999/xlink" x="0px" y="0px"
	 viewBox="0 0 44 32" style="enable-background:new 0 0 44 32;" xml:space="preserve">
<style type="text/css">
	.st0{fill:#011E41;}
</style>
<g id="Layer_2_1_">
	<g id="FINAL">
		<path  stroke-width="param(outline-width) "  stroke-opacity="param(outline-opacity) "  stroke="param(outline) "  fill-opacity="param(fill-opacity) "  fill="param(fill) " class="st0" d="M37,0.9V0l7,7h-6.2C37.3,7,37,6.7,37,6.2V0.9z M18,14h-1c-0.6,0-1,0.4-1,1v6c0,0.6,0.4,1,1,1h1
			c0.6,0,1-0.4,1-1v-6C19,14.4,18.6,14,18,14z M9,14H7v8h2c0.6,0,1-0.4,1-1v-6C10,14.4,9.6,14,9,14z M44,9v21c0,1.1-0.9,2-2,2H2
			c-1.1,0-2-0.9-2-2V2c0-1.1,0.9-2,2-2h33v6.2C35,7.8,36.2,9,37.8,9H44z M12,15c0-1.7-1.3-3-3-3H6c-0.6,0-1,0.4-1,1c0,0,0,0,0,0v10
			c0,0.6,0.4,1,1,1c0,0,0,0,0,0h3c1.7,0,3-1.3,3-3V15z M21,15c0-1.7-1.3-3-3-3h-1c-1.7,0-3,1.3-3,3v6c0,1.7,1.3,3,3,3h1
			c1.7,0,3-1.3,3-3V15z M25,21v-6c0-0.6,0.4-1,1-1h3c0.6,0,1-0.4,1-1s-0.4-1-1-1h-3c-1.7,0-3,1.3-3,3v6c0,1.7,1.3,3,3,3h3
			c0.6,0,1-0.4,1-1s-0.4-1-1-1h-3C25.4,22,25,21.6,25,21z M36.6,18l2.3-4.6c0.2-0.5,0-1.1-0.4-1.3c-0.5-0.2-1.1,0-1.3,0.4
			c0,0,0,0,0,0l-1.6,3.2l-1.6-3.2c-0.2-0.5-0.8-0.7-1.3-0.5s-0.7,0.8-0.5,1.3c0,0,0,0,0,0l2.3,4.6l-2.3,4.6c-0.2,0.5,0,1.1,0.5,1.3
			c0.5,0.2,1.1,0,1.3-0.4l1.6-3.2l1.6,3.2c0.2,0.5,0.8,0.7,1.3,0.4c0.5-0.2,0.7-0.8,0.4-1.3L36.6,18z"/>
	</g>
</g>
</svg>
