<?xml version="1.0" encoding="utf-8"?>
<!-- Generator: Adobe Illustrator 25.0.0, SVG Export Plug-In . SVG Version: 6.00 Build 0)  -->
<svg version="1.1" id="Layer_1" xmlns="http://www.w3.org/2000/svg" xmlns:xlink="http://www.w3.org/1999/xlink" x="0px" y="0px"
	 viewBox="0 0 48 48" style="enable-background:new 0 0 48 48;" xml:space="preserve">
<style type="text/css">
	.st0{fill:#011E41;}
</style>
<g id="Layer_2_1_">
	<g id="Icons">
		<path  stroke-width="param(outline-width) "  stroke-opacity="param(outline-opacity) "  stroke="param(outline) "  fill-opacity="param(fill-opacity) "  fill="param(fill) " class="st0" d="M16.6,8.2c-0.4-0.3-0.9-0.3-1.3,0l-15,12.5C0.1,20.9,0,21.2,0,21.5V48h32V21.5c0-0.3-0.1-0.6-0.4-0.8
			L16.6,8.2z M23,33h-4v4c0,1.7-1.3,3-3,3s-3-1.3-3-3v-4H9c-1.7,0-3-1.3-3-3s1.3-3,3-3h4v-4c0-1.7,1.3-3,3-3s3,1.3,3,3v4h4
			c1.7,0,3,1.3,3,3S24.7,33,23,33z"/>
		<path  stroke-width="param(outline-width) "  stroke-opacity="param(outline-opacity) "  stroke="param(outline) "  fill-opacity="param(fill-opacity) "  fill="param(fill) " class="st0" d="M37,2V1.5C37,0.7,36.3,0,35.5,0S34,0.7,34,1.5V48h3V10h11V2H37z"/>
	</g>
</g>
</svg>
