<?xml version="1.0" encoding="utf-8"?>
<!-- Generator: Adobe Illustrator 25.0.0, SVG Export Plug-In . SVG Version: 6.00 Build 0)  -->
<svg version="1.1" id="Layer_1" xmlns="http://www.w3.org/2000/svg" xmlns:xlink="http://www.w3.org/1999/xlink" x="0px" y="0px"
	 viewBox="0 0 48 42" style="enable-background:new 0 0 48 42;" xml:space="preserve">
<style type="text/css">
	.st0{fill:#011E41;}
</style>
<g id="Layer_2_1_">
	<g id="Icons">
		<path  stroke-width="param(outline-width) "  stroke-opacity="param(outline-opacity) "  stroke="param(outline) "  fill-opacity="param(fill-opacity) "  fill="param(fill) " class="st0" d="M24,5c2.8,0,5-2.2,5-5H19C19,2.8,21.2,5,24,5z"/>
		<path  stroke-width="param(outline-width) "  stroke-opacity="param(outline-opacity) "  stroke="param(outline) "  fill-opacity="param(fill-opacity) "  fill="param(fill) " class="st0" d="M47.7,10.3L38,1l-0.8-0.7C37.1,0.1,36.8,0,36.6,0H31c0,3.9-3.1,7-7,7c-3.9,0-7-3.1-7-7h-5.6
			c-0.3,0-0.5,0.1-0.7,0.3L10,1l-9.7,9.3c-0.4,0.4-0.4,1,0,1.4c0,0,0,0,0,0l6.1,6c0.4,0.4,1,0.4,1.4,0L12,14v27c0,0.6,0.4,1,1,1h22
			c0.6,0,1-0.4,1-1V14l4.2,3.7c0.4,0.4,1,0.4,1.4,0l6.1-6C48.1,11.4,48.1,10.7,47.7,10.3C47.7,10.3,47.7,10.3,47.7,10.3z"/>
	</g>
</g>
</svg>
