<?xml version="1.0" encoding="utf-8"?>
<!-- Generator: Adobe Illustrator 25.0.0, SVG Export Plug-In . SVG Version: 6.00 Build 0)  -->
<svg version="1.1" id="Layer_1" xmlns="http://www.w3.org/2000/svg" xmlns:xlink="http://www.w3.org/1999/xlink" x="0px" y="0px"
	 viewBox="0 0 48 48" style="enable-background:new 0 0 48 48;" xml:space="preserve">
<style type="text/css">
	.st0{fill:#011E41;}
</style>
<g id="Layer_2_1_">
	<g id="Icons">
		<path  stroke-width="param(outline-width) "  stroke-opacity="param(outline-opacity) "  stroke="param(outline) "  fill-opacity="param(fill-opacity) "  fill="param(fill) " class="st0" d="M46.9,16H45v-2.9c0-0.6-0.5-1.1-1-1.1c0,0,0,0,0,0H42V1.5C42,0.7,41.3,0,40.5,0S39,0.7,39,1.5V12H37
			c-0.6,0-1.1,0.5-1.1,1c0,0,0,0,0,0V16h-1.9c-0.6,0-1.1,0.5-1.1,1.1V36l6.3,11l0.6,1h7.6c0.3,0,0.5-0.2,0.5-0.5c0,0,0,0,0,0V17.1
			C48,16.5,47.5,16,46.9,16z M36,19.5c0-0.3,0.2-0.5,0.5-0.5c0,0,0,0,0,0h2c0.3,0,0.5,0.2,0.5,0.5c0,0,0,0,0,0v2
			c0,0.3-0.2,0.5-0.5,0.5c0,0,0,0,0,0h-2c-0.3,0-0.5-0.2-0.5-0.5c0,0,0,0,0,0V19.5z M36,25.5c0-0.3,0.2-0.5,0.5-0.5c0,0,0,0,0,0h2
			c0.3,0,0.5,0.2,0.5,0.5c0,0,0,0,0,0v2c0,0.3-0.2,0.5-0.5,0.5c0,0,0,0,0,0h-2c-0.3,0-0.5-0.2-0.5-0.5c0,0,0,0,0,0V25.5z M39,33.5
			c0,0.3-0.2,0.5-0.5,0.5c0,0,0,0,0,0h-2c-0.3,0-0.5-0.2-0.5-0.5c0,0,0,0,0,0v-2c0-0.3,0.2-0.5,0.5-0.5c0,0,0,0,0,0h2
			c0.3,0,0.5,0.2,0.5,0.5c0,0,0,0,0,0V33.5z M45,45h-3v-5c0-0.6,0.4-1,1-1h1c0.6,0,1,0.4,1,1V45z M45,33.5c0,0.3-0.2,0.5-0.5,0.5
			c0,0,0,0,0,0h-2c-0.3,0-0.5-0.2-0.5-0.5c0,0,0,0,0,0v-2c0-0.3,0.2-0.5,0.5-0.5c0,0,0,0,0,0h2c0.3,0,0.5,0.2,0.5,0.5c0,0,0,0,0,0
			V33.5z M45,27.5c0,0.3-0.2,0.5-0.5,0.5c0,0,0,0,0,0h-2c-0.3,0-0.5-0.2-0.5-0.5c0,0,0,0,0,0v-2c0-0.3,0.2-0.5,0.5-0.5c0,0,0,0,0,0
			h2c0.3,0,0.5,0.2,0.5,0.5c0,0,0,0,0,0V27.5z M45,21.5c0,0.3-0.2,0.5-0.5,0.5c0,0,0,0,0,0h-2c-0.3,0-0.5-0.2-0.5-0.5c0,0,0,0,0,0
			v-2c0-0.3,0.2-0.5,0.5-0.5c0,0,0,0,0,0h2c0.3,0,0.5,0.2,0.5,0.5c0,0,0,0,0,0V21.5z"/>
		<path  stroke-width="param(outline-width) "  stroke-opacity="param(outline-opacity) "  stroke="param(outline) "  fill-opacity="param(fill-opacity) "  fill="param(fill) " class="st0" d="M23,22.6c-1.4-2.5-4.6-3.4-7.1-2c-0.8,0.5-1.5,1.1-2,2L0.1,46.7c-0.2,0.4-0.1,0.9,0.3,1.2
			C0.6,48,0.7,48,0.9,48h36.7L33,40L23,22.6z"/>
	</g>
</g>
</svg>
