<?xml version="1.0" encoding="utf-8"?>
<!-- Generator: Adobe Illustrator 25.0.0, SVG Export Plug-In . SVG Version: 6.00 Build 0)  -->
<svg version="1.1" id="Layer_1" xmlns="http://www.w3.org/2000/svg" xmlns:xlink="http://www.w3.org/1999/xlink" x="0px" y="0px"
	 viewBox="0 0 48 48" style="enable-background:new 0 0 48 48;" xml:space="preserve">
<style type="text/css">
	.st0{fill:#011E41;}
</style>
<g id="Layer_2_1_">
	<g id="Icons">
		<path  stroke-width="param(outline-width) "  stroke-opacity="param(outline-opacity) "  stroke="param(outline) "  fill-opacity="param(fill-opacity) "  fill="param(fill) " class="st0" d="M2,11h2.2c1.1,4.8,5.9,7.9,10.8,6.8c3.4-0.8,6-3.4,6.8-6.8h4.5c1.1,4.8,5.9,7.9,10.8,6.8
			c3.4-0.8,6-3.4,6.8-6.8H46c1.1,0,2-0.9,2-2s-0.9-2-2-2h-2.2C42.7,2.2,37.9-0.9,33,0.2C29.6,1,27,3.6,26.2,7h-4.5
			C20.7,2.2,15.9-0.9,11,0.2C7.6,1,5,3.6,4.2,7H2C0.9,7,0,7.9,0,9S0.9,11,2,11z M30.4,7c1.1-2.5,4-3.6,6.5-2.5
			c2.5,1.1,3.6,4,2.5,6.5c-1.1,2.5-4,3.6-6.5,2.5C31.1,12.7,30,10.9,30,9C30,8.3,30.1,7.6,30.4,7z M8.4,7c1.1-2.5,4-3.6,6.5-2.5
			s3.6,4,2.5,6.5s-4,3.6-6.5,2.5C9.1,12.7,8,10.9,8,9C8,8.3,8.1,7.6,8.4,7z"/>
		<path  stroke-width="param(outline-width) "  stroke-opacity="param(outline-opacity) "  stroke="param(outline) "  fill-opacity="param(fill-opacity) "  fill="param(fill) " class="st0" d="M47,23H17c-0.6,0-1,0.4-1,1v4h15c1.7,0,3,1.3,3,3v17h14V24C48,23.4,47.6,23,47,23z"/>
		<path  stroke-width="param(outline-width) "  stroke-opacity="param(outline-opacity) "  stroke="param(outline) "  fill-opacity="param(fill-opacity) "  fill="param(fill) " class="st0" d="M30,30H2c-1.1,0-2,0.9-2,2v15.9L0.1,48H32l0,0V32C32,30.9,31.1,30,30,30z M25.5,45h-19C5.7,45,5,44.3,5,43.5
			S5.7,42,6.5,42h19c0.8,0,1.5,0.7,1.5,1.5S26.3,45,25.5,45z M25.5,39h-19C5.7,39,5,38.3,5,37.5S5.7,36,6.5,36h19
			c0.8,0,1.5,0.7,1.5,1.5S26.3,39,25.5,39z"/>
	</g>
</g>
</svg>
