<?xml version="1.0" encoding="utf-8"?>
<!-- Generator: Adobe Illustrator 25.0.0, SVG Export Plug-In . SVG Version: 6.00 Build 0)  -->
<svg version="1.1" id="Layer_1" xmlns="http://www.w3.org/2000/svg" xmlns:xlink="http://www.w3.org/1999/xlink" x="0px" y="0px"
	 viewBox="0 0 38 48" style="enable-background:new 0 0 38 48;" xml:space="preserve">
<style type="text/css">
	.st0{fill:#011E41;}
</style>
<g id="Layer_2_1_">
	<g id="Icons">
		<path  stroke-width="param(outline-width) "  stroke-opacity="param(outline-opacity) "  stroke="param(outline) "  fill-opacity="param(fill-opacity) "  fill="param(fill) " class="st0" d="M2.1,27.4l4.8,19.2C7.2,47.5,8,48,8.9,48h19.8c0.9,0,1.7-0.5,2-1.3L36,27H2L2.1,27.4z"/>
		<path  stroke-width="param(outline-width) "  stroke-opacity="param(outline-opacity) "  stroke="param(outline) "  fill-opacity="param(fill-opacity) "  fill="param(fill) " class="st0" d="M36,21H2c-1.1,0-2,0.9-2,2s0.9,2,2,2h34c1.1,0,2-0.9,2-2S37.1,21,36,21z"/>
		<path  stroke-width="param(outline-width) "  stroke-opacity="param(outline-opacity) "  stroke="param(outline) "  fill-opacity="param(fill-opacity) "  fill="param(fill) " class="st0" d="M4,19c1.1,0,2-0.9,2-2C6,9.8,11.8,4,19,4s13,5.8,13,13c0,1.1,0.9,2,2,2s2-0.9,2-2c0-9.4-7.6-17-17-17
			S2,7.6,2,17C2,18.1,2.9,19,4,19z"/>
	</g>
</g>
</svg>
