<?xml version="1.0" encoding="utf-8"?>
<!-- Generator: Adobe Illustrator 25.0.0, SVG Export Plug-In . SVG Version: 6.00 Build 0)  -->
<svg version="1.1" id="Layer_1" xmlns="http://www.w3.org/2000/svg" xmlns:xlink="http://www.w3.org/1999/xlink" x="0px" y="0px"
	 viewBox="0 0 44 44" style="enable-background:new 0 0 44 44;" xml:space="preserve">
<style type="text/css">
	.st0{fill:#011E41;}
</style>
<g id="Layer_2_1_">
	<g id="Icons">
		<path  stroke-width="param(outline-width) "  stroke-opacity="param(outline-opacity) "  stroke="param(outline) "  fill-opacity="param(fill-opacity) "  fill="param(fill) " class="st0" d="M22,0C9.8,0,0,9.8,0,22s9.8,22,22,22s22-9.8,22-22C44,9.8,34.2,0,22,0z M36.1,16.1l-15.5,16
			c-0.6,0.6-1.3,0.9-2.1,0.9h0c-0.8,0-1.6-0.3-2.2-0.9l-8.5-9c-1.1-1.2-1.1-3.1,0.1-4.2c1.2-1.1,3.1-1.1,4.2,0.1l6.4,6.7l13.3-13.7
			c1.2-1.2,3.1-1.2,4.2-0.1C37.3,13,37.3,14.9,36.1,16.1L36.1,16.1z"/>
	</g>
</g>
</svg>
