<?xml version="1.0" encoding="utf-8"?>
<!-- Generator: Adobe Illustrator 25.0.0, SVG Export Plug-In . SVG Version: 6.00 Build 0)  -->
<svg version="1.1" id="Layer_1" xmlns="http://www.w3.org/2000/svg" xmlns:xlink="http://www.w3.org/1999/xlink" x="0px" y="0px"
	 viewBox="0 0 48 48" style="enable-background:new 0 0 48 48;" xml:space="preserve">
<style type="text/css">
	.st0{fill:#011E41;}
</style>
<g id="Layer_2_1_">
	<g id="Icons">
		<path  stroke-width="param(outline-width) "  stroke-opacity="param(outline-opacity) "  stroke="param(outline) "  fill-opacity="param(fill-opacity) "  fill="param(fill) " class="st0" d="M46.8,41.2l-8.4-8.4c6.5-9.6,4-22.7-5.7-29.2s-22.7-4-29.2,5.7s-4,22.7,5.7,29.2c7.1,4.8,16.4,4.8,23.5,0
			l8.4,8.4c1.6,1.6,4.1,1.6,5.7,0C48.4,45.3,48.4,42.7,46.8,41.2L46.8,41.2z M8,21c0-7.2,5.8-13,13-13c7.2,0,13,5.8,13,13
			c0,3.4-1.3,6.6-3.7,9.1c0,0-0.1,0.1-0.2,0.1s-0.1,0.1-0.1,0.2c-5.1,5-13.4,4.9-18.4-0.3C9.3,27.6,8,24.4,8,21z"/>
	</g>
</g>
</svg>
