<?xml version="1.0" encoding="utf-8"?>
<!-- Generator: Adobe Illustrator 25.0.0, SVG Export Plug-In . SVG Version: 6.00 Build 0)  -->
<svg version="1.1" id="Layer_1" xmlns="http://www.w3.org/2000/svg" xmlns:xlink="http://www.w3.org/1999/xlink" x="0px" y="0px"
	 viewBox="0 0 32 47" style="enable-background:new 0 0 32 47;" xml:space="preserve">
<style type="text/css">
	.st0{fill:#011E41;}
</style>
<g id="Layer_2_1_">
	<g id="Icons">
		<path  stroke-width="param(outline-width) "  stroke-opacity="param(outline-opacity) "  stroke="param(outline) "  fill-opacity="param(fill-opacity) "  fill="param(fill) " class="st0" d="M26,21c0-6.8-5.6-12-13-12S0,14.2,0,21c0,1.1,0.9,2,2,2s2-0.9,2-2c-0.1-2.8,1.5-5.4,4-6.7V45c0,1.1,0.9,2,2,2
			s2-0.9,2-2V31h2v14c0,1.1,0.9,2,2,2s2-0.9,2-2V14.3c2.5,1.3,4.1,3.9,4,6.7c0,1.1,0.9,2,2,2S26,22.1,26,21z"/>
		<circle class="st0" cx="19" cy="4" r="4"/>
		<path  stroke-width="param(outline-width) "  stroke-opacity="param(outline-opacity) "  stroke="param(outline) "  fill-opacity="param(fill-opacity) "  fill="param(fill) " class="st0" d="M28,27.5c-2.2,0-4,1.7-4,3.9c0,0,0,0.1,0,0.1c0,0.8,0.7,1.5,1.5,1.5s1.5-0.7,1.5-1.5l0,0c0-0.6,0.5-1,1-1
			c0.5,0,1,0.5,1,1v14c0,0.8,0.7,1.5,1.5,1.5s1.5-0.7,1.5-1.5v-14C32,29.3,30.3,27.5,28,27.5C28,27.5,28,27.5,28,27.5z"/>
	</g>
</g>
</svg>
