<?xml version="1.0" encoding="utf-8"?>
<!-- Generator: Adobe Illustrator 25.0.0, SVG Export Plug-In . SVG Version: 6.00 Build 0)  -->
<svg version="1.1" id="Layer_1" xmlns="http://www.w3.org/2000/svg" xmlns:xlink="http://www.w3.org/1999/xlink" x="0px" y="0px"
	 viewBox="0 0 42 48" style="enable-background:new 0 0 42 48;" xml:space="preserve">
<style type="text/css">
	.st0{fill:#011E41;}
</style>
<g id="Layer_2_1_">
	<g id="Icons">
		<path  stroke-width="param(outline-width) "  stroke-opacity="param(outline-opacity) "  stroke="param(outline) "  fill-opacity="param(fill-opacity) "  fill="param(fill) " class="st0" d="M29,10c-7.4,0-13,5.2-13,12c0,1.1,0.9,2,2,2s2-0.9,2-2c-0.1-2.8,1.5-5.4,4-6.7V46c0,1.1,0.9,2,2,2s2-0.9,2-2
			V31h2v15c0,1.1,0.9,2,2,2c1.1,0,2-0.9,2-2V15.3c2.5,1.3,4.1,3.9,4,6.7c0,1.1,0.9,2,2,2s2-0.9,2-2C42,15.2,36.4,10,29,10z"/>
		<circle class="st0" cx="29" cy="4" r="4"/>
		<path  stroke-width="param(outline-width) "  stroke-opacity="param(outline-opacity) "  stroke="param(outline) "  fill-opacity="param(fill-opacity) "  fill="param(fill) " class="st0" d="M8,0C3.6,0,0,3.6,0,8s3.6,8,8,8s8-3.6,8-8C16,3.6,12.4,0,8,0C8,0,8,0,8,0z M8,14.1c-0.6,0-1.1-0.5-1.1-1.1
			c0-0.6,0.5-1.1,1.1-1.1s1.1,0.5,1.1,1.1C9.1,13.6,8.6,14.1,8,14.1z M10.9,5.8C10.7,6.8,10,7.7,9,8v1.6c0,0.6-0.4,1-1,1s-1-0.4-1-1
			V7.2c0-0.6,0.4-1,1-1c0.1,0,0.1,0,0.2,0C8.6,6.1,8.9,5.8,9,5.4c0-0.1,0-0.1,0-0.2C9,5.1,9,5.1,9,5C8.9,4.6,8.6,4.3,8.2,4.2
			c-0.1,0-0.3,0-0.4,0C7.4,4.3,7.2,4.5,7.1,4.9C6.9,5.4,6.3,5.7,5.8,5.5C5.3,5.3,5,4.7,5.2,4.2c0.3-1,1.2-1.7,2.2-2
			c0.4-0.1,0.8-0.1,1.2,0c1.2,0.2,2.1,1.2,2.3,2.3C11,4.8,11,5,11,5.2C11,5.4,11,5.6,10.9,5.8z"/>
	</g>
</g>
</svg>
