<?xml version="1.0" encoding="utf-8"?>
<!-- Generator: Adobe Illustrator 25.0.0, SVG Export Plug-In . SVG Version: 6.00 Build 0)  -->
<svg version="1.1" id="Layer_1" xmlns="http://www.w3.org/2000/svg" xmlns:xlink="http://www.w3.org/1999/xlink" x="0px" y="0px"
	 viewBox="0 0 48 48" style="enable-background:new 0 0 48 48;" xml:space="preserve">
<style type="text/css">
	.st0{fill:#011E41;}
</style>
<g id="Layer_2_1_">
	<g id="Icons">
		<path  stroke-width="param(outline-width) "  stroke-opacity="param(outline-opacity) "  stroke="param(outline) "  fill-opacity="param(fill-opacity) "  fill="param(fill) " class="st0" d="M40,23h-2.1c-0.5-3.8-4.1-6.5-7.9-5.9c-3.1,0.4-5.5,2.9-5.9,5.9H8c-4.4,0-8,3.6-8,8v9c0,4.4,3.6,8,8,8h32
			c4.4,0,8-3.6,8-8v-9C48,26.6,44.4,23,40,23z M27.1,23c0.6-2.1,2.7-3.4,4.9-2.9c1.4,0.4,2.5,1.5,2.9,2.9c0.1,0.3,0.1,0.7,0.1,1
			c0,2.2-1.8,4-4,4s-4-1.8-4-4C27,23.7,27,23.3,27.1,23z M20.5,36c-1.9,0-3.5-1.6-3.5-3.5s1.6-3.5,3.5-3.5s3.5,1.6,3.5,3.5
			C24,34.4,22.4,36,20.5,36z"/>
		<path  stroke-width="param(outline-width) "  stroke-opacity="param(outline-opacity) "  stroke="param(outline) "  fill-opacity="param(fill-opacity) "  fill="param(fill) " class="st0" d="M18.5,17c4.7,0,8.5-3.8,8.5-8.5S23.2,0,18.5,0S10,3.8,10,8.5C10,13.2,13.8,17,18.5,17z M18.5,3
			c3,0,5.5,2.5,5.5,5.5S21.5,14,18.5,14S13,11.5,13,8.5C13,5.5,15.5,3,18.5,3C18.5,3,18.5,3,18.5,3z"/>
	</g>
</g>
</svg>
