<?xml version="1.0" encoding="utf-8"?>
<!-- Generator: Adobe Illustrator 25.0.0, SVG Export Plug-In . SVG Version: 6.00 Build 0)  -->
<svg version="1.1" id="Layer_1" xmlns="http://www.w3.org/2000/svg" xmlns:xlink="http://www.w3.org/1999/xlink" x="0px" y="0px"
	 viewBox="0 0 48 43" style="enable-background:new 0 0 48 43;" xml:space="preserve">
<style type="text/css">
	.st0{fill:#011E41;}
</style>
<g id="Layer_2_1_">
	<g id="Icons">
		<path  stroke-width="param(outline-width) "  stroke-opacity="param(outline-opacity) "  stroke="param(outline) "  fill-opacity="param(fill-opacity) "  fill="param(fill) " class="st0" d="M47,0H1C0.4,0,0,0.4,0,1v31c0,0.6,0.4,1,1,1h18v6h-9c-1.1,0-2,0.9-2,2v1.5C8,42.8,8.2,43,8.5,43c0,0,0,0,0,0
			h31c0.3,0,0.5-0.2,0.5-0.5c0,0,0,0,0,0V41c0-1.1-0.9-2-2-2h-9v-6h18c0.6,0,1-0.4,1-1V1C48,0.4,47.6,0,47,0z M25.9,31.5
			c-0.3,1-1.4,1.7-2.4,1.4c-0.7-0.2-1.2-0.7-1.4-1.4c0-0.2-0.1-0.4-0.1-0.5c0-0.3,0.1-0.7,0.3-1c0.5-0.9,1.7-1.3,2.7-0.7
			c0.3,0.2,0.6,0.4,0.7,0.7c0.2,0.3,0.3,0.6,0.3,1C26,31.1,25.9,31.3,25.9,31.5z M4,27V4h40v23H4z"/>
	</g>
</g>
</svg>
