<?xml version="1.0" encoding="utf-8"?>
<!-- Generator: Adobe Illustrator 25.0.0, SVG Export Plug-In . SVG Version: 6.00 Build 0)  -->
<svg version="1.1" id="Layer_1" xmlns="http://www.w3.org/2000/svg" xmlns:xlink="http://www.w3.org/1999/xlink" x="0px" y="0px"
	 viewBox="0 0 48 48" style="enable-background:new 0 0 48 48;" xml:space="preserve">
<style type="text/css">
	.st0{fill:#011E41;}
</style>
<path  stroke-width="param(outline-width) "  stroke-opacity="param(outline-opacity) "  stroke="param(outline) "  fill-opacity="param(fill-opacity) "  fill="param(fill) " class="st0" d="M10,5C8.3,5,7,6.3,7,8h6C13,6.3,11.7,5,10,5z"/>
<path  stroke-width="param(outline-width) "  stroke-opacity="param(outline-opacity) "  stroke="param(outline) "  fill-opacity="param(fill-opacity) "  fill="param(fill) " class="st0" d="M10,0C4.5,0,0,4.5,0,10s4.5,10,10,10s10-4.5,10-10C20,4.5,15.5,0,10,0z M15,14c0,1.1-0.9,2-2,2H7
	c-1.1,0-2-0.9-2-2V8c0-2.8,2.2-5,5-5s5,2.2,5,5V14z"/>
<path  stroke-width="param(outline-width) "  stroke-opacity="param(outline-opacity) "  stroke="param(outline) "  fill-opacity="param(fill-opacity) "  fill="param(fill) " class="st0" d="M34,6c-7.7,0-14,6.7-14,14.9c0,7.1,10.4,22.5,13.3,26.7c0.3,0.4,0.8,0.5,1.2,0.3c0.1-0.1,0.2-0.2,0.3-0.3
	C37.6,43.4,48,28,48,20.9C48,12.7,41.7,6,34,6z M34,25c-3.3,0-6-2.7-6-6s2.7-6,6-6s6,2.7,6,6C40,22.3,37.3,25,34,25z"/>
<path  stroke-width="param(outline-width) "  stroke-opacity="param(outline-opacity) "  stroke="param(outline) "  fill-opacity="param(fill-opacity) "  fill="param(fill) " class="st0" d="M9,10h2c0.6,0,1,0.4,1,1v2c0,0.6-0.4,1-1,1H9c-0.6,0-1-0.4-1-1v-2C8,10.4,8.4,10,9,10z"/>
</svg>
