<?xml version="1.0" encoding="utf-8"?>
<!-- Generator: Adobe Illustrator 25.0.0, SVG Export Plug-In . SVG Version: 6.00 Build 0)  -->
<svg version="1.1" id="Layer_1" xmlns="http://www.w3.org/2000/svg" xmlns:xlink="http://www.w3.org/1999/xlink" x="0px" y="0px"
	 viewBox="0 0 48 48" style="enable-background:new 0 0 48 48;" xml:space="preserve">
<style type="text/css">
	.st0{fill:#011E41;}
</style>
<g id="Layer_2_1_">
	<g id="Icons">
		<path  stroke-width="param(outline-width) "  stroke-opacity="param(outline-opacity) "  stroke="param(outline) "  fill-opacity="param(fill-opacity) "  fill="param(fill) " class="st0" d="M47.9,16.2l-4-14c-0.5-1.6-2.1-2.5-3.7-2.1l-14,4c-1.6,0.5-2.5,2.1-2.1,3.7c0.5,1.6,2.1,2.5,3.7,2.1
			c0,0,0,0,0,0l5.4-1.5L23.1,26.4l-4.3-4.3c-1.6-1.6-4.1-1.6-5.7,0c-0.2,0.2-0.4,0.4-0.6,0.7l-12,19c-1.2,1.9-0.6,4.3,1.2,5.5
			c1.9,1.2,4.3,0.6,5.5-1.2l0,0l9.3-14.8l4.5,4.5c1.6,1.6,4.1,1.6,5.7,0c0.3-0.3,0.5-0.6,0.7-0.9l12.9-23.1l1.7,6
			c0.5,1.6,2.1,2.5,3.7,2.1S48.3,17.8,47.9,16.2L47.9,16.2z"/>
	</g>
</g>
</svg>
