<?xml version="1.0" encoding="utf-8"?>
<!-- Generator: Adobe Illustrator 25.0.0, SVG Export Plug-In . SVG Version: 6.00 Build 0)  -->
<svg version="1.1" id="Layer_1" xmlns="http://www.w3.org/2000/svg" xmlns:xlink="http://www.w3.org/1999/xlink" x="0px" y="0px"
	 viewBox="0 0 48 41" style="enable-background:new 0 0 48 41;" xml:space="preserve">
<style type="text/css">
	.st0{fill:#011E41;}
</style>
<g id="Layer_2_1_">
	<g id="Icons">
		<path  stroke-width="param(outline-width) "  stroke-opacity="param(outline-opacity) "  stroke="param(outline) "  fill-opacity="param(fill-opacity) "  fill="param(fill) " class="st0" d="M11.5,18c3,0,5.5-2.5,5.5-5.5S14.5,7,11.5,7S6,9.5,6,12.5C6,15.5,8.5,18,11.5,18C11.5,18,11.5,18,11.5,18z
			 M11.5,11c0.8,0,1.5,0.7,1.5,1.5S12.3,14,11.5,14S10,13.3,10,12.5C10,11.7,10.7,11,11.5,11C11.5,11,11.5,11,11.5,11z"/>
		<path  stroke-width="param(outline-width) "  stroke-opacity="param(outline-opacity) "  stroke="param(outline) "  fill-opacity="param(fill-opacity) "  fill="param(fill) " class="st0" d="M28.5,17c4.7,0,8.5-3.8,8.5-8.5S33.2,0,28.5,0S20,3.8,20,8.5C20,13.2,23.8,17,28.5,17z M28.5,6
			C29.9,6,31,7.1,31,8.5S29.9,11,28.5,11S26,9.9,26,8.5C26,7.1,27.1,6,28.5,6z"/>
		<path  stroke-width="param(outline-width) "  stroke-opacity="param(outline-opacity) "  stroke="param(outline) "  fill-opacity="param(fill-opacity) "  fill="param(fill) " class="st0" d="M46.8,24L38,26v-3c0-1.1-0.9-2-2-2H6c-1.1,0-2,0.9-2,2v1H2c-1.1,0-2,0.9-2,2v0.6c0,1.1,0.9,2,2,2h2V39
			c0,1.1,0.9,2,2,2h30c1.1,0,2-0.9,2-2v-4l8.8,2c0.5,0.1,1.1-0.2,1.2-0.8c0-0.1,0-0.1,0-0.2V25c0-0.6-0.4-1-1-1
			C46.9,24,46.9,24,46.8,24z M18,34c0,1.1-0.9,2-2,2h-6c-1.1,0-2-0.9-2-2v-2c0-1.1,0.9-2,2-2h6c1.1,0,2,0.9,2,2V34z"/>
	</g>
</g>
</svg>
