<?xml version="1.0" encoding="utf-8"?>
<!-- Generator: Adobe Illustrator 25.0.0, SVG Export Plug-In . SVG Version: 6.00 Build 0)  -->
<svg version="1.1" id="Layer_1" xmlns="http://www.w3.org/2000/svg" xmlns:xlink="http://www.w3.org/1999/xlink" x="0px" y="0px"
	 viewBox="0 0 43 48" style="enable-background:new 0 0 43 48;" xml:space="preserve">
<style type="text/css">
	.st0{fill:#011E41;}
</style>
<path  stroke-width="param(outline-width) "  stroke-opacity="param(outline-opacity) "  stroke="param(outline) "  fill-opacity="param(fill-opacity) "  fill="param(fill) " class="st0" d="M42.5,1.9C31.7-1.2,20.8,5.3,10,2v20c10.8,3.3,21.7-3.1,32.5,0c0.2,0.1,0.4,0,0.5-0.2c0,0,0-0.1,0-0.2V2.5
	C43,2.2,42.8,1.9,42.5,1.9z"/>
<path  stroke-width="param(outline-width) "  stroke-opacity="param(outline-opacity) "  stroke="param(outline) "  fill-opacity="param(fill-opacity) "  fill="param(fill) " class="st0" d="M10,45H8V2c0-1.1-0.9-2-2-2S4,0.9,4,2v43H2c-1.1,0-2,0.9-2,2v1h12v-1C12,45.9,11.1,45,10,45z"/>
</svg>
