<?xml version="1.0" encoding="utf-8"?>
<!-- Generator: Adobe Illustrator 25.0.0, SVG Export Plug-In . SVG Version: 6.00 Build 0)  -->
<svg version="1.1" id="Layer_1" xmlns="http://www.w3.org/2000/svg" xmlns:xlink="http://www.w3.org/1999/xlink" x="0px" y="0px"
	 viewBox="0 0 48 35.6" style="enable-background:new 0 0 48 35.6;" xml:space="preserve">
<style type="text/css">
	.st0{fill:#011E41;}
</style>
<g id="Layer_2_1_">
	<g id="Icons">
		<path  stroke-width="param(outline-width) "  stroke-opacity="param(outline-opacity) "  stroke="param(outline) "  fill-opacity="param(fill-opacity) "  fill="param(fill) " class="st0" d="M46.7,10.7l-6.2-4.9l1.3-1.3c1-1,1-2.7,0-3.7s-2.7-1-3.7,0l0,0l-2.1,2.1l-0.4-0.4c-1-1-2.7-1-3.7,0
			s-1,2.7,0,3.7c0,0,0,0,0,0l0.4,0.4l-1,1H5.5c-3,0-5.5,2.5-5.5,5.5v9.1c0,1.1,0.9,2,2,2s2-0.9,2-2v-9.1c0-0.8,0.7-1.5,1.5-1.5
			l0.5,0v21c0,1.7,1.3,3,3,3s3-1.3,3-3v-6h1.8c4.1,4.8,11.4,5.4,16.2,1.2c0.4-0.4,0.9-0.8,1.2-1.2H33v6c0,1.7,1.3,3,3,3s3-1.3,3-3
			v-16h5.7c1.8,0,3.3-1.5,3.3-3.3C48,12.3,47.5,11.3,46.7,10.7z"/>
	</g>
</g>
</svg>
