<?xml version="1.0" encoding="utf-8"?>
<!-- Generator: Adobe Illustrator 25.0.0, SVG Export Plug-In . SVG Version: 6.00 Build 0)  -->
<svg version="1.1" id="Layer_1" xmlns="http://www.w3.org/2000/svg" xmlns:xlink="http://www.w3.org/1999/xlink" x="0px" y="0px"
	 viewBox="0 0 48 48" style="enable-background:new 0 0 48 48;" xml:space="preserve">
<style type="text/css">
	.st0{fill:#011E41;}
</style>
<g id="Layer_2_1_">
	<g id="Text">
		<path  stroke-width="param(outline-width) "  stroke-opacity="param(outline-opacity) "  stroke="param(outline) "  fill-opacity="param(fill-opacity) "  fill="param(fill) " class="st0" d="M47,13h-4V2c0-1.1-0.9-2-2-2s-2,0.9-2,2v11h-8V2c0-1.1-0.9-2-2-2s-2,0.9-2,2v11h-4c-0.6,0-1,0.4-1,1v8
			c0,5,2.7,9.5,7,12v3c0,0.6,0.4,1,1,1h2v10h6V38h2c0.6,0,1-0.4,1-1v-3c4.3-2.5,7-7,7-12v-8C48,13.4,47.6,13,47,13z"/>
		<path  stroke-width="param(outline-width) "  stroke-opacity="param(outline-opacity) "  stroke="param(outline) "  fill-opacity="param(fill-opacity) "  fill="param(fill) " class="st0" d="M10,0C4.5,0,0,4.5,0,10s4.5,10,10,10s10-4.5,10-10C20,4.5,15.5,0,10,0z M14.7,13.3c0.4,0.4,0.4,1,0,1.4
			c-0.4,0.4-1,0.4-1.4,0L10,11.4l-3.3,3.3c-0.4,0.4-1,0.4-1.4,0c-0.4-0.4-0.4-1,0-1.4L8.6,10L5.3,6.7c-0.4-0.4-0.4-1,0-1.4
			s1-0.4,1.4,0l0,0L10,8.6l3.3-3.3c0.4-0.4,1-0.4,1.4,0s0.4,1,0,1.4l0,0L11.4,10L14.7,13.3z"/>
	</g>
</g>
</svg>
