<?xml version="1.0" encoding="utf-8"?>
<!-- Generator: Adobe Illustrator 25.0.0, SVG Export Plug-In . SVG Version: 6.00 Build 0)  -->
<svg version="1.1" id="Layer_1" xmlns="http://www.w3.org/2000/svg" xmlns:xlink="http://www.w3.org/1999/xlink" x="0px" y="0px"
	 viewBox="0 0 40 48" style="enable-background:new 0 0 40 48;" xml:space="preserve">
<style type="text/css">
	.st0{fill:#011E41;}
</style>
<g id="Layer_2_1_">
	<g id="Icons">
		<path  stroke-width="param(outline-width) "  stroke-opacity="param(outline-opacity) "  stroke="param(outline) "  fill-opacity="param(fill-opacity) "  fill="param(fill) " class="st0" d="M39.6,18L20.7,0.3c-0.4-0.4-1-0.4-1.4,0L0.4,18C0.2,18.3,0,18.6,0,19v28c0,0.6,0.4,1,1,1h13.2l8.9-8.9
			l-8.4-7.6C14.2,31.1,14,30.6,14,30c0-0.6,0.3-1.1,0.7-1.5l5.4-4.6l-3.5-3.5c-0.8-0.8-0.8-2,0-2.8c0,0,0,0,0,0l4-4
			c0.8-0.8,2-0.8,2.8,0s0.8,2,0,2.8L20.8,19l3.6,3.6c0.4,0.4,0.6,0.9,0.6,1.5c0,0.6-0.3,1.1-0.7,1.4L19,30l8.3,7.5
			c0.8,0.7,0.9,2,0.1,2.8c0,0-0.1,0.1-0.1,0.1L19.8,48H39c0.6,0,1-0.4,1-1V19C40,18.6,39.8,18.3,39.6,18z"/>
	</g>
</g>
</svg>
