<?xml version="1.0" encoding="utf-8"?>
<!-- Generator: Adobe Illustrator 25.0.0, SVG Export Plug-In . SVG Version: 6.00 Build 0)  -->
<svg version="1.1" id="Layer_1" xmlns="http://www.w3.org/2000/svg" xmlns:xlink="http://www.w3.org/1999/xlink" x="0px" y="0px"
	 viewBox="0 0 36 48" style="enable-background:new 0 0 36 48;" xml:space="preserve">
<style type="text/css">
	.st0{fill:#011E41;}
</style>
<g id="Layer_2_1_">
	<g id="Icons">
		<path  stroke-width="param(outline-width) "  stroke-opacity="param(outline-opacity) "  stroke="param(outline) "  fill-opacity="param(fill-opacity) "  fill="param(fill) " class="st0" d="M34.8,28.5L27,13H9L1.1,28.5C-1.1,33.7,0,39.7,4,43.8c2.6,2.7,6.2,4.2,10,4.2h8c3.8,0,7.4-1.5,10-4.2
			C36,39.7,37.1,33.7,34.8,28.5z M19,38v1.5c0,0.8-0.7,1.5-1.5,1.5S16,40.3,16,39.5V38h-0.5c-0.8,0-1.5-0.7-1.5-1.5s0.7-1.5,1.5-1.5
			h3c0.8,0,1.5-0.6,1.5-1.5c0-0.8-0.6-1.5-1.5-1.5c0,0-0.1,0-0.1,0h-0.9c-2.5,0-4.5-1.9-4.6-4.4c0-1.9,1.2-3.7,3-4.3v-1.8
			c0-0.8,0.7-1.5,1.5-1.5c0.8,0,1.5,0.7,1.5,1.5V23h1.5c0.8,0,1.5,0.7,1.5,1.5S21.3,26,20.5,26h-2.9c-0.8,0-1.5,0.6-1.6,1.4
			c0,0.8,0.6,1.5,1.4,1.6c0,0,0.1,0,0.1,0h0.9c2.5,0,4.5,2,4.6,4.5C23,35.8,21.3,37.7,19,38L19,38z"/>
		<path  stroke-width="param(outline-width) "  stroke-opacity="param(outline-opacity) "  stroke="param(outline) "  fill-opacity="param(fill-opacity) "  fill="param(fill) " class="st0" d="M9,11h8l-1.6-7.4c-0.2-0.9-1-1.6-2-1.6H8C7.4,2,7,2.4,7,3c0,0.1,0,0.1,0,0.2L9,11z"/>
		<path  stroke-width="param(outline-width) "  stroke-opacity="param(outline-opacity) "  stroke="param(outline) "  fill-opacity="param(fill-opacity) "  fill="param(fill) " class="st0" d="M23,11h4l2-9.8c0.1-0.5-0.3-1.1-0.8-1.2C28.1,0,28,0,28,0h-3c-1.1,0-2,0.9-2,2c0-1.1-0.9-2-2-2h-3
			c-0.6,0-1,0.4-1,1c0,0.1,0,0.1,0,0.2l2,9.8H23z"/>
	</g>
</g>
</svg>
