<?xml version="1.0" encoding="utf-8"?>
<!-- Generator: Adobe Illustrator 25.0.0, SVG Export Plug-In . SVG Version: 6.00 Build 0)  -->
<svg version="1.1" id="Layer_1" xmlns="http://www.w3.org/2000/svg" xmlns:xlink="http://www.w3.org/1999/xlink" x="0px" y="0px"
	 viewBox="0 0 48 48" style="enable-background:new 0 0 48 48;" xml:space="preserve">
<style type="text/css">
	.st0{fill:#011E41;}
</style>
<g id="Layer_2_1_">
	<g id="Icons">
		<path  stroke-width="param(outline-width) "  stroke-opacity="param(outline-opacity) "  stroke="param(outline) "  fill-opacity="param(fill-opacity) "  fill="param(fill) " class="st0" d="M48,8c0-4.4-3.6-8-8-8c-4.3,0-7.8,3.3-8,7.6l-18,6.2c-2.9-3.3-8-3.7-11.3-0.8s-3.7,8-0.8,11.3
			c2.4,2.7,6.3,3.5,9.6,1.9l12.9,11.3c-1.4,4.2,0.8,8.7,5,10.2s8.7-0.8,10.2-5c1.1-3.3,0-7-2.8-9l4.4-17.7C45.1,15.3,48,12,48,8z
			 M28.4,32.9L15.5,21.7c0.3-0.7,0.4-1.5,0.4-2.3l18-6.2c0.4,0.5,0.9,0.9,1.4,1.2l-4.4,17.6C30,32.2,29.2,32.5,28.4,32.9z"/>
	</g>
</g>
</svg>
