<?xml version="1.0" encoding="utf-8"?>
<!-- Generator: Adobe Illustrator 25.0.0, SVG Export Plug-In . SVG Version: 6.00 Build 0)  -->
<svg version="1.1" id="Layer_1" xmlns="http://www.w3.org/2000/svg" xmlns:xlink="http://www.w3.org/1999/xlink" x="0px" y="0px"
	 viewBox="0 0 48 30" style="enable-background:new 0 0 48 30;" xml:space="preserve">
<style type="text/css">
	.st0{fill:#011E41;}
</style>
<g id="Layer_2_1_">
	<g id="Icons">
		<path  stroke-width="param(outline-width) "  stroke-opacity="param(outline-opacity) "  stroke="param(outline) "  fill-opacity="param(fill-opacity) "  fill="param(fill) " class="st0" d="M46,0H2C0.9,0,0,0.9,0,2v26c0,1.1,0.9,2,2,2h44c1.1,0,2-0.9,2-2V2C48,0.9,47.1,0,46,0z M13.3,20.5l-7,6
			c-0.8,0.7-2.1,0.6-2.8-0.2c-0.7-0.8-0.6-2.1,0.2-2.8l7-6c0.8-0.7,2.1-0.6,2.8,0.2C14.2,18.5,14.1,19.8,13.3,20.5z M44.5,26.3
			c-0.7,0.8-2,0.9-2.8,0.2l-7-6c-0.8-0.7-0.9-2-0.2-2.8c0.7-0.8,2-0.9,2.8-0.2l7,6C45.1,24.2,45.2,25.5,44.5,26.3
			C44.5,26.3,44.5,26.3,44.5,26.3z M44.2,6.6l-19,14c-0.7,0.5-1.7,0.5-2.4,0l-19-14C2.9,6,2.7,4.7,3.4,3.8s1.9-1.1,2.8-0.4
			c0,0,0,0,0,0L24,16.5L41.8,3.4c0.9-0.7,2.1-0.5,2.8,0.4S45.1,5.9,44.2,6.6C44.2,6.6,44.2,6.6,44.2,6.6z"/>
	</g>
</g>
</svg>
