<?xml version="1.0" encoding="utf-8"?>
<!-- Generator: Adobe Illustrator 25.0.0, SVG Export Plug-In . SVG Version: 6.00 Build 0)  -->
<svg version="1.1" id="Layer_1" xmlns="http://www.w3.org/2000/svg" xmlns:xlink="http://www.w3.org/1999/xlink" x="0px" y="0px"
	 viewBox="0 0 32 42" style="enable-background:new 0 0 32 42;" xml:space="preserve">
<style type="text/css">
	.st0{fill:#011E41;}
</style>
<g id="Layer_2_1_">
	<g id="Icons">
		<path  stroke-width="param(outline-width) "  stroke-opacity="param(outline-opacity) "  stroke="param(outline) "  fill-opacity="param(fill-opacity) "  fill="param(fill) " class="st0" d="M31.2,3L16.2,0c-0.1,0-0.3,0-0.4,0l-15,3C0.3,3.1,0,3.5,0,4v20.2C0,34,7.3,42,16,42s16-8,16-17.9V4
			C32,3.5,31.7,3.1,31.2,3z M22.7,21.3L22,22l-5.6,5.9c-0.2,0.2-0.5,0.2-0.7,0c0,0,0,0,0,0L10,22l-0.7-0.7c-1.7-1.7-1.8-4.4-0.1-6.1
			c0,0,0,0,0,0c0.8-0.7,1.8-1.1,2.9-1.1c1.1,0,2.2,0.4,3,1.2L16,16l0.9-0.8c0.8-0.8,1.9-1.2,3-1.2c1.1,0,2.1,0.4,2.9,1.1
			C24.4,16.8,24.4,19.5,22.7,21.3C22.7,21.2,22.7,21.3,22.7,21.3z"/>
	</g>
</g>
</svg>
