<?xml version="1.0" encoding="utf-8"?>
<!-- Generator: Adobe Illustrator 25.0.0, SVG Export Plug-In . SVG Version: 6.00 Build 0)  -->
<svg version="1.1" id="Layer_1" xmlns="http://www.w3.org/2000/svg" xmlns:xlink="http://www.w3.org/1999/xlink" x="0px" y="0px"
	 viewBox="0 0 42 48" style="enable-background:new 0 0 42 48;" xml:space="preserve">
<style type="text/css">
	.st0{fill:#011E41;}
</style>
<g id="Layer_2_1_">
	<g id="Icons">
		<circle class="st0" cx="4" cy="14" r="4"/>
		<path  stroke-width="param(outline-width) "  stroke-opacity="param(outline-opacity) "  stroke="param(outline) "  fill-opacity="param(fill-opacity) "  fill="param(fill) " class="st0" d="M40.2,27.4c-5.2-4-12.4-4.4-18-0.9l-8.5-7.7c1.6-2.4,2.4-5.2,2.3-8.1c-0.2-3.8-1.8-7.4-4.6-10.1
			c-0.8-0.8-2-0.8-2.8,0s-0.8,2,0,2.8c0,0,0,0,0,0c2,1.9,3.2,4.5,3.4,7.3c0,3-0.8,5.3-2.4,6.9c0,0,0,0-0.1,0.1l-2.2,2.3
			C4.6,22.6,3,26.2,3,30.1c0.3,3.6,2,6.9,4.6,9.3c0.8,0.8,2,0.8,2.8,0c0.8-0.8,0.8-2,0-2.8c-1.9-1.7-3.1-4.1-3.4-6.7
			c0-1.7,0.4-3.4,1.4-4.8l24.3,22.4c0.8,0.7,2.1,0.7,2.8-0.1s0.7-2.1-0.1-2.8l0,0L21.8,32c3.6-4.1,10.8-5.6,16-1.5
			c0.9,0.7,2.1,0.5,2.8-0.3C41.2,29.4,41.1,28.1,40.2,27.4L40.2,27.4z"/>
		<path  stroke-width="param(outline-width) "  stroke-opacity="param(outline-opacity) "  stroke="param(outline) "  fill-opacity="param(fill-opacity) "  fill="param(fill) " class="st0" d="M25.5,10c0.8,0,1.5-0.7,1.5-1.5v-7C27,0.7,26.3,0,25.5,0S24,0.7,24,1.5v7C24,9.3,24.7,10,25.5,10z"/>
		<path  stroke-width="param(outline-width) "  stroke-opacity="param(outline-opacity) "  stroke="param(outline) "  fill-opacity="param(fill-opacity) "  fill="param(fill) " class="st0" d="M40.5,15h-7c-0.8,0-1.5,0.7-1.5,1.5s0.7,1.5,1.5,1.5h7c0.8,0,1.5-0.7,1.5-1.5S41.3,15,40.5,15z"/>
		<path  stroke-width="param(outline-width) "  stroke-opacity="param(outline-opacity) "  stroke="param(outline) "  fill-opacity="param(fill-opacity) "  fill="param(fill) " class="st0" d="M32.6,11.6l5-5c0.6-0.6,0.6-1.5,0-2.1s-1.5-0.6-2.1,0l-5,5c-0.6,0.6-0.6,1.5,0,2.1C31,12.1,32,12.1,32.6,11.6
			z"/>
	</g>
</g>
</svg>
