<?xml version="1.0" encoding="utf-8"?>
<!-- Generator: Adobe Illustrator 25.0.0, SVG Export Plug-In . SVG Version: 6.00 Build 0)  -->
<svg version="1.1" id="Layer_1" xmlns="http://www.w3.org/2000/svg" xmlns:xlink="http://www.w3.org/1999/xlink" x="0px" y="0px"
	 viewBox="0 0 48 48" style="enable-background:new 0 0 48 48;" xml:space="preserve">
<style type="text/css">
	.st0{fill:#011E41;}
</style>
<g id="Layer_2_1_">
	<g id="Icons">
		<path  stroke-width="param(outline-width) "  stroke-opacity="param(outline-opacity) "  stroke="param(outline) "  fill-opacity="param(fill-opacity) "  fill="param(fill) " class="st0" d="M10,20c5.5,0,10-4.5,10-10S15.5,0,10,0S0,4.5,0,10C0,15.5,4.5,20,10,20z M9,4c0-0.6,0.4-1,1-1s1,0.4,1,1v8
			c0,0.6-0.4,1-1,1s-1-0.4-1-1V4z M10,15c0.6,0,1,0.4,1,1c0,0.6-0.4,1-1,1s-1-0.4-1-1C9,15.4,9.4,15,10,15z"/>
		<path  stroke-width="param(outline-width) "  stroke-opacity="param(outline-opacity) "  stroke="param(outline) "  fill-opacity="param(fill-opacity) "  fill="param(fill) " class="st0" d="M46.5,45h-45C0.7,45,0,45.7,0,46.5S0.7,48,1.5,48h45c0.8,0,1.5-0.7,1.5-1.5S47.3,45,46.5,45z"/>
		<path  stroke-width="param(outline-width) "  stroke-opacity="param(outline-opacity) "  stroke="param(outline) "  fill-opacity="param(fill-opacity) "  fill="param(fill) " class="st0" d="M13,22.6V27c0,0.6-0.4,1-1,1h-2c-0.6,0-1-0.4-1-1v-4c-1.7-0.1-3.4-0.6-5-1.4V43h16V33c0-1.1,0.9-2,2-2h4
			c1.1,0,2,0.9,2,2v10h16V18c0-0.6-0.4-1-1-1H33l-7-5.2V8h9V2h-9c0-1.1-0.9-2-2-2s-2,0.9-2,2v3c2.8,6.6-0.4,14.3-7,17
			C14.3,22.3,13.7,22.5,13,22.6z M13,38c0,0.6-0.4,1-1,1h-2c-0.6,0-1-0.4-1-1v-5c0-0.6,0.4-1,1-1h2c0.6,0,1,0.4,1,1V38z M35,22
			c0-0.6,0.4-1,1-1h2c0.6,0,1,0.4,1,1v5c0,0.6-0.4,1-1,1h-2c-0.6,0-1-0.4-1-1V22z M35,33c0-0.6,0.4-1,1-1h2c0.6,0,1,0.4,1,1v5
			c0,0.6-0.4,1-1,1h-2c-0.6,0-1-0.4-1-1V33z M28,21c0,2.2-1.8,4-4,4s-4-1.8-4-4s1.8-4,4-4C26.2,17,28,18.8,28,21C28,21,28,21,28,21z
			"/>
	</g>
</g>
</svg>
