<?xml version="1.0" encoding="utf-8"?>
<!-- Generator: Adobe Illustrator 25.0.0, SVG Export Plug-In . SVG Version: 6.00 Build 0)  -->
<svg version="1.1" id="Layer_1" xmlns="http://www.w3.org/2000/svg" xmlns:xlink="http://www.w3.org/1999/xlink" x="0px" y="0px"
	 viewBox="0 0 48 36" style="enable-background:new 0 0 48 36;" xml:space="preserve">
<style type="text/css">
	.st0{fill:#011E41;}
</style>
<g id="Layer_2_1_">
	<g id="Icons">
		<path  stroke-width="param(outline-width) "  stroke-opacity="param(outline-opacity) "  stroke="param(outline) "  fill-opacity="param(fill-opacity) "  fill="param(fill) " class="st0" d="M18,30H6V6h12c1.7,0,3-1.3,3-3s-1.3-3-3-3H5C2.2,0,0,2.2,0,5v26c0,2.8,2.2,5,5,5h13c1.7,0,3-1.3,3-3
			C21,31.3,19.7,30,18,30z"/>
		<path  stroke-width="param(outline-width) "  stroke-opacity="param(outline-opacity) "  stroke="param(outline) "  fill-opacity="param(fill-opacity) "  fill="param(fill) " class="st0" d="M47.1,15.9l-13-13c-1.2-1.2-3.1-1.2-4.2,0s-1.2,3.1,0,4.2l7.9,7.9H14c-1.7,0-3,1.3-3,3s1.3,3,3,3h23.8
			l-7.9,7.9c-1.2,1.2-1.2,3.1,0,4.2c1.2,1.2,3.1,1.2,4.2,0l13-13C48.3,19,48.3,17.1,47.1,15.9z"/>
	</g>
</g>
</svg>
