<?xml version="1.0" encoding="utf-8"?>
<!-- Generator: Adobe Illustrator 25.0.0, SVG Export Plug-In . SVG Version: 6.00 Build 0)  -->
<svg version="1.1" id="Layer_1" xmlns="http://www.w3.org/2000/svg" xmlns:xlink="http://www.w3.org/1999/xlink" x="0px" y="0px"
	 viewBox="0 0 48 48" style="enable-background:new 0 0 48 48;" xml:space="preserve">
<style type="text/css">
	.st0{fill:#011E41;}
</style>
<g id="Layer_2_1_">
	<g id="Icons">
		<path  stroke-width="param(outline-width) "  stroke-opacity="param(outline-opacity) "  stroke="param(outline) "  fill-opacity="param(fill-opacity) "  fill="param(fill) " class="st0" d="M12,28c0,2.2,1.8,4,4,4h16c2.2,0,4-1.8,4-4s-1.8-4-4-4H16C13.8,24,12,25.8,12,28z"/>
		<path  stroke-width="param(outline-width) "  stroke-opacity="param(outline-opacity) "  stroke="param(outline) "  fill-opacity="param(fill-opacity) "  fill="param(fill) " class="st0" d="M24,15c1.1,0,2-0.9,2-2V2c0-1.1-0.9-2-2-2s-2,0.9-2,2v11C22,14.1,22.9,15,24,15z"/>
		<path  stroke-width="param(outline-width) "  stroke-opacity="param(outline-opacity) "  stroke="param(outline) "  fill-opacity="param(fill-opacity) "  fill="param(fill) " class="st0" d="M36,19c0.5,0,1-0.2,1.4-0.6l7-7c0.8-0.8,0.8-2,0-2.8s-2-0.8-2.8,0l-7,7c-0.8,0.8-0.8,2,0,2.8
			C35,18.8,35.5,19,36,19z"/>
		<path  stroke-width="param(outline-width) "  stroke-opacity="param(outline-opacity) "  stroke="param(outline) "  fill-opacity="param(fill-opacity) "  fill="param(fill) " class="st0" d="M10.6,18.4c0.8,0.8,2,0.8,2.8,0s0.8-2,0-2.8l-7-7c-0.8-0.8-2-0.8-2.8,0s-0.8,2,0,2.8l0,0L10.6,18.4z"/>
		<path  stroke-width="param(outline-width) "  stroke-opacity="param(outline-opacity) "  stroke="param(outline) "  fill-opacity="param(fill-opacity) "  fill="param(fill) " class="st0" d="M2,35h44c1.1,0,2,0.9,2,2v9c0,1.1-0.9,2-2,2H2c-1.1,0-2-0.9-2-2v-9C0,35.9,0.9,35,2,35z"/>
	</g>
</g>
</svg>
