<?xml version="1.0" encoding="utf-8"?>
<!-- Generator: Adobe Illustrator 25.0.0, SVG Export Plug-In . SVG Version: 6.00 Build 0)  -->
<svg version="1.1" id="Layer_1" xmlns="http://www.w3.org/2000/svg" xmlns:xlink="http://www.w3.org/1999/xlink" x="0px" y="0px"
	 viewBox="0 0 48 48" style="enable-background:new 0 0 48 48;" xml:space="preserve">
<style type="text/css">
	.st0{fill:#011E41;}
</style>
<g id="Layer_2_1_">
	<g id="Icons">
		<path  stroke-width="param(outline-width) "  stroke-opacity="param(outline-opacity) "  stroke="param(outline) "  fill-opacity="param(fill-opacity) "  fill="param(fill) " class="st0" d="M46.1,29H23.9c-0.5,0-0.9,0.4-0.9,0.9v12.7c0,3,2.4,5.4,5.4,5.4h13.3c3,0,5.4-2.4,5.4-5.4V29.9
			C47,29.4,46.6,29,46.1,29C46.1,29,46.1,29,46.1,29z"/>
		<circle class="st0" cx="11.5" cy="11.5" r="6.5"/>
		<path  stroke-width="param(outline-width) "  stroke-opacity="param(outline-opacity) "  stroke="param(outline) "  fill-opacity="param(fill-opacity) "  fill="param(fill) " class="st0" d="M46,23h-8c0-1.7-1.3-3-3-3s-3,1.3-3,3h-8c-1.1,0-2,0.9-2,2s0.9,2,2,2h22c1.1,0,2-0.9,2-2S47.1,23,46,23z"/>
		<path  stroke-width="param(outline-width) "  stroke-opacity="param(outline-opacity) "  stroke="param(outline) "  fill-opacity="param(fill-opacity) "  fill="param(fill) " class="st0" d="M17.5,45h-16C0.7,45,0,45.7,0,46.5S0.7,48,1.5,48h16c0.8,0,1.5-0.7,1.5-1.5S18.3,45,17.5,45z"/>
		<path  stroke-width="param(outline-width) "  stroke-opacity="param(outline-opacity) "  stroke="param(outline) "  fill-opacity="param(fill-opacity) "  fill="param(fill) " class="st0" d="M32,13c0,0.6,0.4,1,1,1h12.5c1.4,0,2.5-1.1,2.5-2.5S46.9,9,45.5,9H33c-0.6,0-1,0.4-1,1h-9.1
			C22.1,3.7,16.3-0.7,10,0.1S-0.7,6.7,0.1,13S6.7,23.7,13,22.9c5.2-0.7,9.2-4.7,9.9-9.9H32z M11.5,20C6.8,20,3,16.2,3,11.5
			S6.8,3,11.5,3S20,6.8,20,11.5C20,16.2,16.2,20,11.5,20z"/>
		<path  stroke-width="param(outline-width) "  stroke-opacity="param(outline-opacity) "  stroke="param(outline) "  fill-opacity="param(fill-opacity) "  fill="param(fill) " class="st0" d="M17,33h-1v-2.1c0-0.5-0.4-0.9-0.9-0.9c0,0,0,0,0,0H2.9C2.4,30,2,30.4,2,30.9v6.7c0,3,2.4,5.4,5.4,5.4h3.3
			c3,0,5.4-2.4,5.4-5.4V37h1c1.1,0,2-0.9,2-2S18.1,33,17,33z"/>
	</g>
</g>
</svg>
