<?xml version="1.0" encoding="utf-8"?>
<!-- Generator: Adobe Illustrator 25.0.0, SVG Export Plug-In . SVG Version: 6.00 Build 0)  -->
<svg version="1.1" id="Layer_1" xmlns="http://www.w3.org/2000/svg" xmlns:xlink="http://www.w3.org/1999/xlink" x="0px" y="0px"
	 viewBox="0 0 32 48" style="enable-background:new 0 0 32 48;" xml:space="preserve">
<style type="text/css">
	.st0{fill:#011E41;}
</style>
<g id="Layer_2_1_">
	<g id="Icons">
		<path  stroke-width="param(outline-width) "  stroke-opacity="param(outline-opacity) "  stroke="param(outline) "  fill-opacity="param(fill-opacity) "  fill="param(fill) " class="st0" d="M28,7H4c-2.2,0-4,1.8-4,4v33c0,2.2,1.8,4,4,4h24c2.2,0,4-1.8,4-4V11C32,8.8,30.2,7,28,7z M14,12
			c0-1.1,0.9-2,2-2c1.1,0,2,0.9,2,2v3c0,1.1-0.9,2-2,2s-2-0.9-2-2V12z M9,16h0.2c2.7,0,4.8,2.1,4.8,4.8V23h-0.2
			C11.1,23,9,20.9,9,18.2V16z M9,24h0.2c2.7,0,4.8,2.1,4.8,4.8V31h-0.2C11.1,31,9,28.9,9,26.2V24z M9,34.2V32h0.2
			c2.7,0,4.8,2.1,4.8,4.8V39h-0.2C11.1,39,9,36.9,9,34.2z M18,43c0,1.1-0.9,2-2,2s-2-0.9-2-2v-1.5c0-0.3,0.2-0.5,0.5-0.5
			c0,0,0,0,0,0h3c0.3,0,0.5,0.2,0.5,0.5c0,0,0,0,0,0V43z M23,34.2c0,2.7-2.1,4.8-4.8,4.8H18v-2.2c0-2.7,2.1-4.8,4.8-4.8H23V34.2z
			 M23,26.2c0,2.7-2.1,4.8-4.8,4.8H18v-2.2c0-2.7,2.1-4.8,4.8-4.8H23V26.2z M23,18.2c0,2.7-2.1,4.8-4.8,4.8H18v-2.2
			c0-2.7,2.1-4.8,4.8-4.8H23V18.2z"/>
		<path  stroke-width="param(outline-width) "  stroke-opacity="param(outline-opacity) "  stroke="param(outline) "  fill-opacity="param(fill-opacity) "  fill="param(fill) " class="st0" d="M4.5,5h23C28.9,5,30,3.9,30,2.5S28.9,0,27.5,0h-23C3.1,0,2,1.1,2,2.5S3.1,5,4.5,5z"/>
	</g>
</g>
</svg>
