<?xml version="1.0" encoding="utf-8"?>
<!-- Generator: Adobe Illustrator 25.0.0, SVG Export Plug-In . SVG Version: 6.00 Build 0)  -->
<svg version="1.1" id="Layer_1" xmlns="http://www.w3.org/2000/svg" xmlns:xlink="http://www.w3.org/1999/xlink" x="0px" y="0px"
	 viewBox="0 0 48 48" style="enable-background:new 0 0 48 48;" xml:space="preserve">
<style type="text/css">
	.st0{fill:#011E41;}
</style>
<g id="Layer_2_1_">
	<g id="Icons">
		<path  stroke-width="param(outline-width) "  stroke-opacity="param(outline-opacity) "  stroke="param(outline) "  fill-opacity="param(fill-opacity) "  fill="param(fill) " class="st0" d="M24,14c1.1,0,2-0.9,2-2V2c0-1.1-0.9-2-2-2s-2,0.9-2,2v10C22,13.1,22.9,14,24,14z"/>
		<path  stroke-width="param(outline-width) "  stroke-opacity="param(outline-opacity) "  stroke="param(outline) "  fill-opacity="param(fill-opacity) "  fill="param(fill) " class="st0" d="M47.5,5.7c-0.7-0.8-2-0.9-2.8-0.2c0,0,0,0,0,0l-8,7c-0.8,0.7-0.9,2-0.2,2.8c0.7,0.8,2,0.9,2.8,0.2l8-7
			C48.1,7.8,48.2,6.5,47.5,5.7z"/>
		<path  stroke-width="param(outline-width) "  stroke-opacity="param(outline-opacity) "  stroke="param(outline) "  fill-opacity="param(fill-opacity) "  fill="param(fill) " class="st0" d="M10,16c1.1,0,2-0.9,2-2c0-0.6-0.2-1.1-0.7-1.5l-8-7C2.5,4.8,1.2,4.9,0.5,5.7s-0.6,2.1,0.2,2.8l8,7
			C9,15.8,9.5,16,10,16z"/>
		<path  stroke-width="param(outline-width) "  stroke-opacity="param(outline-opacity) "  stroke="param(outline) "  fill-opacity="param(fill-opacity) "  fill="param(fill) " class="st0" d="M40,30h-2v-4.5c0-4.7-3.8-8.5-8.5-8.5l0,0h-11c-4.7,0-8.5,3.8-8.5,8.5l0,0V30H8c-1.1,0-2,0.9-2,2v9
			c0,1.1,0.9,2,2,2h2v1.9c0,1.5,1,2.7,2.4,3.1c1.6,0.3,3.2-0.7,3.5-2.4c0-0.2,0.1-0.4,0.1-0.6v-2h16v1.9c0,1.5,1,2.7,2.4,3.1
			c1.6,0.3,3.2-0.7,3.5-2.4c0-0.2,0.1-0.4,0.1-0.6v-2h2c1.1,0,2-0.9,2-2v-9C42,30.9,41.1,30,40,30z M15,25.5c0-1.9,1.6-3.5,3.5-3.5
			h11c1.9,0,3.5,1.6,3.5,3.5V30H15V25.5z M13.5,39c-1.4,0-2.5-1.1-2.5-2.5s1.1-2.5,2.5-2.5s2.5,1.1,2.5,2.5C16,37.9,14.9,39,13.5,39
			z M34.5,34c1.4,0,2.5,1.1,2.5,2.5S35.9,39,34.5,39S32,37.9,32,36.5C32,35.1,33.1,34,34.5,34z"/>
	</g>
</g>
</svg>
