<?xml version="1.0" encoding="utf-8"?>
<!-- Generator: Adobe Illustrator 25.0.0, SVG Export Plug-In . SVG Version: 6.00 Build 0)  -->
<svg version="1.1" id="Layer_1" xmlns="http://www.w3.org/2000/svg" xmlns:xlink="http://www.w3.org/1999/xlink" x="0px" y="0px"
	 viewBox="0 0 48 48" style="enable-background:new 0 0 48 48;" xml:space="preserve">
<style type="text/css">
	.st0{fill:#011E41;}
</style>
<path  stroke-width="param(outline-width) "  stroke-opacity="param(outline-opacity) "  stroke="param(outline) "  fill-opacity="param(fill-opacity) "  fill="param(fill) " class="st0" d="M46.5,19c-0.8,0-1.5,0.7-1.5,1.5c0,0,0,0,0,0V22h-4.1c-0.4-3.1-1.6-6.1-3.5-8.5l2.9-2.9l1.2,1
	c0.6,0.6,1.5,0.6,2.1,0c0.6-0.6,0.6-1.5,0-2.1c0,0,0,0,0,0l-5-5c-0.6-0.6-1.5-0.6-2.1,0c-0.6,0.6-0.6,1.5,0,2.1l0,0l1,1.2l-2.9,2.9
	c-2.5-1.9-5.4-3.2-8.5-3.5V3h1.5C28.3,3,29,2.3,29,1.5S28.3,0,27.5,0l0,0h-7C19.7,0,19,0.7,19,1.5S19.7,3,20.5,3H22v4.1
	c-3.1,0.4-6.1,1.6-8.5,3.5l-2.9-2.9l1-1.2c0.6-0.6,0.6-1.5,0-2.1s-1.5-0.6-2.1,0l0,0l-4.9,5C4,10,4,11,4.6,11.6
	c0.6,0.6,1.5,0.6,2.1,0l1.1-1l2.9,2.9c-1.9,2.5-3.2,5.4-3.5,8.5H3v-1.5C3,19.7,2.3,19,1.5,19S0,19.7,0,20.5v7C0,28.3,0.7,29,1.5,29
	S3,28.3,3,27.5l0,0V26h4.1c0.4,3.1,1.6,6.1,3.5,8.5l-2.9,2.9l-1.2-1c-0.6-0.6-1.5-0.6-2.1,0c-0.6,0.6-0.6,1.5,0,2.1l5,5
	c0.6,0.6,1.5,0.6,2.1,0c0.6-0.6,0.6-1.5,0-2.1l0,0l-1-1.2l2.9-2.9c2.5,1.9,5.4,3.2,8.5,3.5V45h-1.5c-0.8,0-1.5,0.7-1.5,1.5
	s0.7,1.5,1.5,1.5h7c0.8,0,1.5-0.7,1.5-1.5S28.3,45,27.5,45l0,0H26v-4.1c3.1-0.4,6.1-1.6,8.5-3.5l2.9,2.9l-1,1.2
	c-0.6,0.6-0.6,1.5,0,2.1s1.5,0.6,2.1,0l5-5c0.6-0.6,0.6-1.5,0-2.1c-0.6-0.6-1.5-0.6-2.1,0l-1.2,1l-2.9-2.9c1.9-2.5,3.2-5.4,3.5-8.5
	H45v1.5c0,0.8,0.7,1.5,1.5,1.5s1.5-0.7,1.5-1.5l0,0v-7C48,19.7,47.3,19,46.5,19C46.5,19,46.5,19,46.5,19z M18.5,20
	c-1.9,0-3.5-1.6-3.5-3.5s1.6-3.5,3.5-3.5s3.5,1.6,3.5,3.5C22,18.4,20.4,20,18.5,20C18.5,20,18.5,20,18.5,20z M30,33
	c-1.1,0-2-0.9-2-2c0-1.1,0.9-2,2-2s2,0.9,2,2C32,32.1,31.1,33,30,33z"/>
</svg>
