<?xml version="1.0" encoding="utf-8"?>
<!-- Generator: Adobe Illustrator 25.0.0, SVG Export Plug-In . SVG Version: 6.00 Build 0)  -->
<svg version="1.1" id="Layer_1" xmlns="http://www.w3.org/2000/svg" xmlns:xlink="http://www.w3.org/1999/xlink" x="0px" y="0px"
	 viewBox="0 0 48 48" style="enable-background:new 0 0 48 48;" xml:space="preserve">
<style type="text/css">
	.st0{fill:#011E41;}
</style>
<g id="Layer_2_1_">
	<g id="Icons">
		<path  stroke-width="param(outline-width) "  stroke-opacity="param(outline-opacity) "  stroke="param(outline) "  fill-opacity="param(fill-opacity) "  fill="param(fill) " class="st0" d="M32,21c1.1,0,2-0.9,2-2V2c0-1.1-0.9-2-2-2H2C0.9,0,0,0.9,0,2v17c0,1.1,0.9,2,2,2h6.2l4.1,3.7
			c0.4,0.4,1,0.3,1.4-0.1c0.2-0.2,0.3-0.4,0.3-0.7v-3H32z M6.5,5h21C28.3,5,29,5.7,29,6.5S28.3,8,27.5,8l0,0h-21C5.7,8,5,7.3,5,6.5
			S5.7,5,6.5,5z M5,13.5C5,12.7,5.7,12,6.5,12c0,0,0,0,0,0h21c0.8,0,1.5,0.7,1.5,1.5S28.3,15,27.5,15l0,0h-21C5.7,15,5,14.3,5,13.5
			C5,13.5,5,13.5,5,13.5z"/>
		<path  stroke-width="param(outline-width) "  stroke-opacity="param(outline-opacity) "  stroke="param(outline) "  fill-opacity="param(fill-opacity) "  fill="param(fill) " class="st0" d="M45.2,27.8C43.4,26,41,25,38.5,25h-12c-5.2,0-9.5,4.3-9.5,9.5s4.3,9.5,9.5,9.5H33v3c0,0.6,0.4,1,1,1
			c0.2,0,0.5-0.1,0.7-0.2L39,44c0.4,0,0.7-0.1,1.1-0.1h0c5.2-0.9,8.7-5.8,7.8-11C47.5,31,46.6,29.2,45.2,27.8z M40.5,39h-16
			c-0.8,0-1.5-0.7-1.5-1.5s0.7-1.5,1.5-1.5h16c0.8,0,1.5,0.7,1.5,1.5S41.3,39,40.5,39z M40.5,33h-16c-0.8,0-1.5-0.7-1.5-1.5
			s0.7-1.5,1.5-1.5h16c0.8,0,1.5,0.7,1.5,1.5S41.3,33,40.5,33z"/>
	</g>
</g>
</svg>
