<?xml version="1.0" encoding="utf-8"?>
<!-- Generator: Adobe Illustrator 25.0.0, SVG Export Plug-In . SVG Version: 6.00 Build 0)  -->
<svg version="1.1" id="Layer_1" xmlns="http://www.w3.org/2000/svg" xmlns:xlink="http://www.w3.org/1999/xlink" x="0px" y="0px"
	 viewBox="0 0 26 48" style="enable-background:new 0 0 26 48;" xml:space="preserve">
<style type="text/css">
	.st0{fill:#011E41;}
</style>
<g id="Layer_2_1_">
	<g id="Text">
		<path  stroke-width="param(outline-width) "  stroke-opacity="param(outline-opacity) "  stroke="param(outline) "  fill-opacity="param(fill-opacity) "  fill="param(fill) " class="st0" d="M25,13h-4V2c0-1.1-0.9-2-2-2s-2,0.9-2,2v11H9V2c0-1.1-0.9-2-2-2S5,0.9,5,2v11H1c-0.6,0-1,0.4-1,1v8
			c0,5,2.7,9.5,7,12v3c0,0.6,0.4,1,1,1h2v10h6V38h2c0.6,0,1-0.4,1-1v-3c4.3-2.5,7-7,7-12v-8C26,13.4,25.6,13,25,13z"/>
	</g>
</g>
</svg>
