<?xml version="1.0" encoding="utf-8"?>
<!-- Generator: Adobe Illustrator 25.0.0, SVG Export Plug-In . SVG Version: 6.00 Build 0)  -->
<svg version="1.1" id="Layer_1" xmlns="http://www.w3.org/2000/svg" xmlns:xlink="http://www.w3.org/1999/xlink" x="0px" y="0px"
	 viewBox="0 0 28 48" style="enable-background:new 0 0 28 48;" xml:space="preserve">
<style type="text/css">
	.st0{fill:#011E41;}
</style>
<g id="Layer_2_1_">
	<g id="Icons">
		<circle class="st0" cx="14" cy="44" r="4"/>
		<path  stroke-width="param(outline-width) "  stroke-opacity="param(outline-opacity) "  stroke="param(outline) "  fill-opacity="param(fill-opacity) "  fill="param(fill) " class="st0" d="M28,14c0-7.7-6.3-14-14-14S0,6.3,0,14c0,2.2,1.8,4,4,4s4-1.8,4-4c0-3.3,2.7-6,6-6s6,2.7,6,6s-2.7,6-6,6
			c-2.2,0-4,1.8-4,4v9c0,2.2,1.8,4,4,4s4-1.8,4-4v-5.6C23.9,25.6,28,20.2,28,14z"/>
	</g>
</g>
</svg>
