<?xml version="1.0" encoding="utf-8"?>
<!-- Generator: Adobe Illustrator 25.0.0, SVG Export Plug-In . SVG Version: 6.00 Build 0)  -->
<svg version="1.1" id="Layer_1" xmlns="http://www.w3.org/2000/svg" xmlns:xlink="http://www.w3.org/1999/xlink" x="0px" y="0px"
	 viewBox="0 0 48 48" style="enable-background:new 0 0 48 48;" xml:space="preserve">
<style type="text/css">
	.st0{fill:#011E41;}
</style>
<g id="Layer_2_1_">
	<g id="Icons">
		<path  stroke-width="param(outline-width) "  stroke-opacity="param(outline-opacity) "  stroke="param(outline) "  fill-opacity="param(fill-opacity) "  fill="param(fill) " class="st0" d="M12.5,41c-0.8,0-1.5,0.7-1.5,1.5v4c0,0.8,0.7,1.5,1.5,1.5s1.5-0.7,1.5-1.5v-4C14,41.7,13.3,41,12.5,41z"/>
		<path  stroke-width="param(outline-width) "  stroke-opacity="param(outline-opacity) "  stroke="param(outline) "  fill-opacity="param(fill-opacity) "  fill="param(fill) " class="st0" d="M23.5,34h-4c-0.8,0-1.5,0.7-1.5,1.5c0,0,0,0,0,0l0,0c0,0.8,0.7,1.5,1.5,1.5h4c0.8,0,1.5-0.7,1.5-1.5l0,0
			C25,34.7,24.3,34,23.5,34C23.5,34,23.5,34,23.5,34z"/>
		<path  stroke-width="param(outline-width) "  stroke-opacity="param(outline-opacity) "  stroke="param(outline) "  fill-opacity="param(fill-opacity) "  fill="param(fill) " class="st0" d="M12.5,23c-0.8,0-1.5,0.7-1.5,1.5v4c0,0.8,0.7,1.5,1.5,1.5s1.5-0.7,1.5-1.5v-4C14,23.7,13.3,23,12.5,23z"/>
		<path  stroke-width="param(outline-width) "  stroke-opacity="param(outline-opacity) "  stroke="param(outline) "  fill-opacity="param(fill-opacity) "  fill="param(fill) " class="st0" d="M7,35.5C7,34.7,6.3,34,5.5,34h-4C0.7,34,0,34.7,0,35.5S0.7,37,1.5,37h4C6.3,37,7,36.3,7,35.5
			C7,35.5,7,35.5,7,35.5z"/>
		<path  stroke-width="param(outline-width) "  stroke-opacity="param(outline-opacity) "  stroke="param(outline) "  fill-opacity="param(fill-opacity) "  fill="param(fill) " class="st0" d="M18.6,39.4c-0.6-0.6-1.5-0.6-2.1,0c-0.6,0.6-0.6,1.5,0,2.1l3,3c0.6,0.6,1.5,0.6,2.1,0c0.6-0.6,0.6-1.5,0-2.1
			c0,0,0,0,0,0L18.6,39.4z"/>
		<path  stroke-width="param(outline-width) "  stroke-opacity="param(outline-opacity) "  stroke="param(outline) "  fill-opacity="param(fill-opacity) "  fill="param(fill) " class="st0" d="M18.6,31.6l3-3c0.6-0.6,0.6-1.5,0-2.1c-0.6-0.6-1.5-0.6-2.1,0l-3,3c-0.6,0.6-0.6,1.5,0,2.1
			C17,32.1,18,32.1,18.6,31.6z"/>
		<path  stroke-width="param(outline-width) "  stroke-opacity="param(outline-opacity) "  stroke="param(outline) "  fill-opacity="param(fill-opacity) "  fill="param(fill) " class="st0" d="M6.4,31.6c0.6,0.6,1.5,0.6,2.1,0c0.6-0.6,0.6-1.5,0-2.1l-3-3c-0.6-0.6-1.5-0.6-2.1,0c-0.6,0.6-0.6,1.5,0,2.1
			L6.4,31.6z"/>
		<path  stroke-width="param(outline-width) "  stroke-opacity="param(outline-opacity) "  stroke="param(outline) "  fill-opacity="param(fill-opacity) "  fill="param(fill) " class="st0" d="M6.4,39.4l-3,3c-0.6,0.6-0.6,1.5,0,2.1c0.6,0.6,1.5,0.6,2.1,0l3-3c0.6-0.6,0.6-1.5,0-2.1
			C8,38.9,7,38.9,6.4,39.4z"/>
		<path  stroke-width="param(outline-width) "  stroke-opacity="param(outline-opacity) "  stroke="param(outline) "  fill-opacity="param(fill-opacity) "  fill="param(fill) " class="st0" d="M35,10c-7.4,0-13,5.2-13,12c0,1.1,0.9,2,2,2s2-0.9,2-2c-0.1-2.8,1.5-5.4,4-6.7V46c0,1.1,0.9,2,2,2
			c1.1,0,2-0.9,2-2V31h2v15c0,1.1,0.9,2,2,2s2-0.9,2-2V15.3c2.5,1.3,4.1,3.9,4,6.7c0,1.1,0.9,2,2,2s2-0.9,2-2C48,15.2,42.4,10,35,10
			z"/>
		<circle class="st0" cx="35" cy="4" r="4"/>
	</g>
</g>
</svg>
