<?xml version="1.0" encoding="utf-8"?>
<!-- Generator: Adobe Illustrator 25.0.0, SVG Export Plug-In . SVG Version: 6.00 Build 0)  -->
<svg version="1.1" id="Layer_1" xmlns="http://www.w3.org/2000/svg" xmlns:xlink="http://www.w3.org/1999/xlink" x="0px" y="0px"
	 viewBox="0 0 48 48" style="enable-background:new 0 0 48 48;" xml:space="preserve">
<style type="text/css">
	.st0{fill:#011E41;}
</style>
<g id="Layer_2_1_">
	<g id="Icons">
		<path  stroke-width="param(outline-width) "  stroke-opacity="param(outline-opacity) "  stroke="param(outline) "  fill-opacity="param(fill-opacity) "  fill="param(fill) " class="st0" d="M24,0C10.7,0,0,10.7,0,24s10.7,24,24,24s24-10.7,24-24C48,10.7,37.3,0,24,0C24,0,24,0,24,0z M24,42
			c-9.9,0-18-8.1-18-18S14.1,6,24,6s18,8.1,18,18C42,33.9,33.9,42,24,42z"/>
		<path  stroke-width="param(outline-width) "  stroke-opacity="param(outline-opacity) "  stroke="param(outline) "  fill-opacity="param(fill-opacity) "  fill="param(fill) " class="st0" d="M34.1,13.9c-1.2-1.2-3.1-1.2-4.2,0c0,0,0,0,0,0L24,20l-5.9-6.1c-1.2-1.2-3.1-1.2-4.2,0s-1.2,3.1,0,4.2L20,24
			l-6.1,5.9c-1.2,1.2-1.2,3.1,0,4.2s3.1,1.2,4.2,0L24,28l5.9,6.1c1.2,1.2,3.1,1.2,4.2,0s1.2-3.1,0-4.2L28,24l6.1-5.9
			C35.3,17,35.3,15.1,34.1,13.9C34.1,13.9,34.1,13.9,34.1,13.9z"/>
	</g>
</g>
</svg>
