<?xml version="1.0" encoding="utf-8"?>
<!-- Generator: Adobe Illustrator 25.0.0, SVG Export Plug-In . SVG Version: 6.00 Build 0)  -->
<svg version="1.1" id="Layer_1" xmlns="http://www.w3.org/2000/svg" xmlns:xlink="http://www.w3.org/1999/xlink" x="0px" y="0px"
	 viewBox="0 0 44 48" style="enable-background:new 0 0 44 48;" xml:space="preserve">
<style type="text/css">
	.st0{fill:#011E41;}
</style>
<g id="Layer_2_1_">
	<g id="FINAL">
		<path  stroke-width="param(outline-width) "  stroke-opacity="param(outline-opacity) "  stroke="param(outline) "  fill-opacity="param(fill-opacity) "  fill="param(fill) " class="st0" d="M10,20c5.5,0,10-4.5,10-10S15.5,0,10,0S0,4.5,0,10C0,15.5,4.5,20,10,20z M5.3,6.7c-0.4-0.4-0.4-1,0-1.4
			s1-0.4,1.4,0l0,0L10,8.6l3.3-3.3c0.4-0.4,1-0.4,1.4,0s0.4,1,0,1.4l0,0L11.4,10l3.3,3.3c0.4,0.4,0.4,1,0,1.4c-0.4,0.4-1,0.4-1.4,0
			L10,11.4l-3.3,3.3c-0.4,0.4-1,0.4-1.4,0c-0.4-0.4-0.4-1,0-1.4L8.6,10L5.3,6.7z M44,10v20.2C44,40,36.7,48,28,48s-16-8-16-17.9
			v-7.3c7.1-1.1,11.9-7.7,10.9-14.7c-0.1-0.4-0.1-0.7-0.2-1.1l5.2-1c0.1,0,0.3,0,0.4,0l15,2.9C43.7,9.1,44,9.5,44,10z"/>
	</g>
</g>
</svg>
