<?xml version="1.0" encoding="utf-8"?>
<!-- Generator: Adobe Illustrator 25.0.0, SVG Export Plug-In . SVG Version: 6.00 Build 0)  -->
<svg version="1.1" id="Layer_1" xmlns="http://www.w3.org/2000/svg" xmlns:xlink="http://www.w3.org/1999/xlink" x="0px" y="0px"
	 viewBox="0 0 24 48" style="enable-background:new 0 0 24 48;" xml:space="preserve">
<style type="text/css">
	.st0{fill:#011E41;}
</style>
<g id="Layer_2_1_">
	<g id="Icons">
		<path  stroke-width="param(outline-width) "  stroke-opacity="param(outline-opacity) "  stroke="param(outline) "  fill-opacity="param(fill-opacity) "  fill="param(fill) " class="st0" d="M1,8h22c0.6,0,1,0.4,1,1v30c0,0.6-0.4,1-1,1H1c-0.6,0-1-0.4-1-1V9C0,8.4,0.4,8,1,8z"/>
		<path  stroke-width="param(outline-width) "  stroke-opacity="param(outline-opacity) "  stroke="param(outline) "  fill-opacity="param(fill-opacity) "  fill="param(fill) " class="st0" d="M24,3V1.5C24,0.7,23.3,0,22.5,0S21,0.7,21,1.5V3h-4V1.5C17,0.7,16.3,0,15.5,0C14.7,0,14,0.7,14,1.5V3l-4,0
			V1.5C10,0.7,9.3,0,8.5,0S7,0.7,7,1.5V3L3,3V1.5C3,0.7,2.3,0,1.5,0S0,0.7,0,1.5v2l0,0V5c0,0.6,0.4,1,1,1l22,0c0.6,0,1-0.4,1-1L24,3
			L24,3z"/>
		<path  stroke-width="param(outline-width) "  stroke-opacity="param(outline-opacity) "  stroke="param(outline) "  fill-opacity="param(fill-opacity) "  fill="param(fill) " class="st0" d="M24,43c0-0.6-0.4-1-1-1L1,42c-0.6,0-1,0.4-1,1v2h0v1.5C0,47.3,0.7,48,1.5,48S3,47.3,3,46.5V45h4v1.5
			C7,47.3,7.7,48,8.5,48s1.5-0.7,1.5-1.5V45h4v1.5c0,0.8,0.7,1.5,1.5,1.5c0.8,0,1.5-0.7,1.5-1.5V45l4,0v1.5c0,0.8,0.7,1.5,1.5,1.5
			s1.5-0.7,1.5-1.5v-2l0,0V43z"/>
	</g>
</g>
</svg>
