<?xml version="1.0" encoding="utf-8"?>
<!-- Generator: Adobe Illustrator 25.0.0, SVG Export Plug-In . SVG Version: 6.00 Build 0)  -->
<svg version="1.1" id="Layer_1" xmlns="http://www.w3.org/2000/svg" xmlns:xlink="http://www.w3.org/1999/xlink" x="0px" y="0px"
	 viewBox="0 0 42 42" style="enable-background:new 0 0 42 42;" xml:space="preserve">
<style type="text/css">
	.st0{fill:#011E41;}
</style>
<g id="Layer_2_1_">
	<g id="Icons">
		<path  stroke-width="param(outline-width) "  stroke-opacity="param(outline-opacity) "  stroke="param(outline) "  fill-opacity="param(fill-opacity) "  fill="param(fill) " class="st0" d="M38,0H4C1.8,0,0,1.8,0,4c0,0,0,0,0,0v34c0,2.2,1.8,4,4,4c0,0,0,0,0,0h34c2.2,0,4-1.8,4-4c0,0,0,0,0,0V4
			C42,1.8,40.2,0,38,0C38,0,38,0,38,0z M18,29.5c0,0.7-0.5,1.3-1.1,1.5c-0.1,0-0.2,0-0.4,0c-0.6,0-1.1-0.3-1.3-0.8L9,18.5v11
			C9,30.3,8.3,31,7.5,31S6,30.3,6,29.5v-17c0-0.7,0.5-1.3,1.1-1.5c0.7-0.2,1.4,0.2,1.7,0.8L15,23.5v-11c0-0.8,0.7-1.5,1.5-1.5
			c0.8,0,1.5,0.7,1.5,1.5V29.5z M28.5,19c0.8,0,1.5,0.7,1.5,1.5S29.3,22,28.5,22H24v7.5c0,0.8-0.7,1.5-1.5,1.5S21,30.3,21,29.5v-17
			c0-0.8,0.7-1.5,1.5-1.5c0,0,0,0,0,0h6c0.8,0,1.5,0.7,1.5,1.5S29.3,14,28.5,14H24v5H28.5z M36,29.5c0,0.8-0.7,1.5-1.5,1.5
			S33,30.3,33,29.5v-17c0-0.8,0.7-1.5,1.5-1.5s1.5,0.7,1.5,1.5V29.5z"/>
	</g>
</g>
</svg>
