<?xml version="1.0" encoding="utf-8"?>
<!-- Generator: Adobe Illustrator 25.0.0, SVG Export Plug-In . SVG Version: 6.00 Build 0)  -->
<svg version="1.1" id="Layer_1" xmlns="http://www.w3.org/2000/svg" xmlns:xlink="http://www.w3.org/1999/xlink" x="0px" y="0px"
	 viewBox="0 0 48 48" style="enable-background:new 0 0 48 48;" xml:space="preserve">
<style type="text/css">
	.st0{fill:#011E41;}
</style>
<g id="Layer_2_1_">
	<g id="Icons">
		<path  stroke-width="param(outline-width) "  stroke-opacity="param(outline-opacity) "  stroke="param(outline) "  fill-opacity="param(fill-opacity) "  fill="param(fill) " class="st0" d="M1.5,11h11.4l-3.5,3.5c-0.6,0.6-0.6,1.5,0,2.1c0.3,0.3,0.7,0.4,1.1,0.4l0,0c0.4,0,0.8-0.2,1.1-0.4l6-6
			c0.2-0.1,0.3-0.3,0.4-0.5l0,0v0l0,0c0-0.1,0.1-0.2,0.1-0.3c0-0.1,0-0.2,0-0.3v0c0-0.1,0-0.2,0-0.3c0-0.1,0-0.2-0.1-0.3l0,0l0,0
			l0,0v0l0,0c-0.1-0.2-0.2-0.4-0.4-0.5l0,0L14,4.9l-2.4-2.4C11,1.9,10,1.8,9.4,2.4s-0.6,1.5,0,2.1c0,0,0,0,0,0L12.9,8H1.5
			C0.7,8,0,8.7,0,9.5S0.7,11,1.5,11z"/>
		<path  stroke-width="param(outline-width) "  stroke-opacity="param(outline-opacity) "  stroke="param(outline) "  fill-opacity="param(fill-opacity) "  fill="param(fill) " class="st0" d="M46.9,16H45v-2.9c0-0.6-0.5-1.1-1-1.1c0,0,0,0,0,0H42V1.5C42,0.7,41.3,0,40.5,0S39,0.7,39,1.5V12h-1.9
			c-0.6,0-1.1,0.5-1.1,1c0,0,0,0,0,0V16h-1.9c-0.6,0-1.1,0.5-1.1,1.1V45h-9v-6.2c3.5-0.8,5.7-4.3,4.8-7.8c-0.8-3.5-4.3-5.7-7.8-4.8
			s-5.7,4.3-4.8,7.8c0.6,2.4,2.4,4.3,4.8,4.8V45H0v3h48V17.1C48,16.5,47.5,16,46.9,16z M42,31.5c0-0.3,0.2-0.5,0.5-0.5c0,0,0,0,0,0
			h2c0.3,0,0.5,0.2,0.5,0.5c0,0,0,0,0,0v2c0,0.3-0.2,0.5-0.5,0.5c0,0,0,0,0,0h-2c-0.3,0-0.5-0.2-0.5-0.5c0,0,0,0,0,0V31.5z M44.5,28
			h-2c-0.3,0-0.5-0.2-0.5-0.5c0,0,0,0,0,0v-2c0-0.3,0.2-0.5,0.5-0.5c0,0,0,0,0,0h2c0.3,0,0.5,0.2,0.5,0.5c0,0,0,0,0,0v2
			C45,27.8,44.8,28,44.5,28C44.5,28,44.5,28,44.5,28z M44.5,22h-2c-0.3,0-0.5-0.2-0.5-0.5c0,0,0,0,0,0v-2c0-0.3,0.2-0.5,0.5-0.5
			c0,0,0,0,0,0h2c0.3,0,0.5,0.2,0.5,0.5c0,0,0,0,0,0v2C45,21.8,44.8,22,44.5,22C44.5,22,44.5,22,44.5,22z M36,19.5
			c0-0.3,0.2-0.5,0.5-0.5c0,0,0,0,0,0h2c0.3,0,0.5,0.2,0.5,0.5c0,0,0,0,0,0v2c0,0.3-0.2,0.5-0.5,0.5c0,0,0,0,0,0h-2
			c-0.3,0-0.5-0.2-0.5-0.5c0,0,0,0,0,0V19.5z M36,25.5c0-0.3,0.2-0.5,0.5-0.5c0,0,0,0,0,0h2c0.3,0,0.5,0.2,0.5,0.5c0,0,0,0,0,0v2
			c0,0.3-0.2,0.5-0.5,0.5c0,0,0,0,0,0h-2c-0.3,0-0.5-0.2-0.5-0.5c0,0,0,0,0,0V25.5z M36,31.5c0-0.3,0.2-0.5,0.5-0.5c0,0,0,0,0,0h2
			c0.3,0,0.5,0.2,0.5,0.5c0,0,0,0,0,0v2c0,0.3-0.2,0.5-0.5,0.5c0,0,0,0,0,0h-2c-0.3,0-0.5-0.2-0.5-0.5c0,0,0,0,0,0V31.5z M42,45v-5
			c0-0.6,0.4-1,1-1h1c0.6,0,1,0.4,1,1v5H42z"/>
	</g>
</g>
</svg>
