<?xml version="1.0" encoding="utf-8"?>
<!-- Generator: Adobe Illustrator 25.0.0, SVG Export Plug-In . SVG Version: 6.00 Build 0)  -->
<svg version="1.1" id="Layer_1" xmlns="http://www.w3.org/2000/svg" xmlns:xlink="http://www.w3.org/1999/xlink" x="0px" y="0px"
	 viewBox="0 0 48 39" style="enable-background:new 0 0 48 39;" xml:space="preserve">
<style type="text/css">
	.st0{fill:#011E41;}
</style>
<g id="Layer_2_1_">
	<g id="Icons">
		<path  stroke-width="param(outline-width) "  stroke-opacity="param(outline-opacity) "  stroke="param(outline) "  fill-opacity="param(fill-opacity) "  fill="param(fill) " class="st0" d="M26,37.9c0-0.1,0-0.1-0.1-0.2c0-0.1,0-0.1-0.1-0.2c0,0-0.1-0.1-0.1-0.1c0-0.1-0.1-0.1-0.2-0.2l0,0l-3.7-3
			V18.8l3,0.7v-6.8l-3-1.4V3c0-1.7-1.3-3-3-3c-1.6,0-3,1.3-3,3v8.2l-14.8,7c-0.4,0.2-0.7,0.5-0.9,0.8c0,0-0.1,0.1-0.1,0.1
			c0,0,0,0.1,0,0.1c0,0.1-0.1,0.1-0.1,0.2c-0.1,0.3-0.1,0.7,0,1c0,0,0,0,0,0c0,0.1,0,0.1,0.1,0.2c0,0.1,0,0.1,0.1,0.2
			c0.2,0.4,0.4,0.7,0.8,0.9c0,0,0.1,0.1,0.1,0.1c0,0,0.1,0,0.1,0c0.1,0,0.1,0.1,0.2,0.1C1.6,22,1.8,22,2,22c0.1,0,0.3,0,0.4,0h0
			L16,18.8v15.4l-3.6,3l0,0c-0.1,0.1-0.1,0.1-0.2,0.2c0,0-0.1,0.1-0.1,0.1c0,0.1-0.1,0.2-0.1,0.4c0,0,0,0.1,0,0.1c0,0.1,0,0.2,0,0.3
			l0,0c0.1,0.1,0.1,0.2,0.2,0.3l0,0c0.1,0.1,0.1,0.1,0.2,0.1c0,0,0.1,0.1,0.1,0.1c0,0,0.1,0,0.1,0c0.1,0,0.2,0.1,0.3,0.1
			c0,0,0.1,0,0.1,0c0.1,0,0.2,0,0.3,0l0,0l5.7-1.9l5.7,1.9l0,0l0,0c0.2,0.1,0.5,0.1,0.7,0c0,0,0.1,0,0.1,0c0.1-0.1,0.2-0.1,0.3-0.2
			c0,0,0,0,0,0c0,0,0,0,0,0c0.1-0.1,0.1-0.2,0.2-0.3l0,0c0-0.1,0-0.2,0-0.3C26,38,26,37.9,26,37.9z"/>
		<path  stroke-width="param(outline-width) "  stroke-opacity="param(outline-opacity) "  stroke="param(outline) "  fill-opacity="param(fill-opacity) "  fill="param(fill) " class="st0" d="M30.2,16.6c0.7-0.3,1.4-0.5,2.1-0.5h0c0.2,0,0.5,0,0.7,0h9c1.9,0,3.7,0.8,5,2.1V12c0-1.1-0.9-2-2-2
			c0,0,0,0,0,0H30c-1.1,0-2,0.9-2,2c0,0,0,0,0,0v6.1c0.6-0.6,1.3-1.1,2-1.4C30.1,16.6,30.1,16.6,30.2,16.6z"/>
		<path  stroke-width="param(outline-width) "  stroke-opacity="param(outline-opacity) "  stroke="param(outline) "  fill-opacity="param(fill-opacity) "  fill="param(fill) " class="st0" d="M47,26v-3c0-2.8-2.2-5-5-5h-9c-1.1,0-2.1,0.3-3,1c-0.1,0.1-0.2,0.2-0.3,0.3C28.6,20.2,28,21.6,28,23v3
			c-0.6,0-1,0.4-1,1v8c0,0.6,0.4,1,1,1h1v1.5c0,0.8,0.7,1.5,1.5,1.5s1.5-0.7,1.5-1.5V36h11v1.5c0,0.8,0.7,1.5,1.5,1.5
			s1.5-0.7,1.5-1.5V36h1c0.6,0,1-0.4,1-1v-8C48,26.5,47.5,26,47,26z M31,23c0-0.8,0.5-1.5,1.2-1.8h0c0.2-0.1,0.5-0.2,0.8-0.2h9
			c0.9,0,1.7,0.6,1.9,1.5c0,0.2,0.1,0.3,0.1,0.5v3H31L31,23z M31.5,32c-0.8,0-1.5-0.7-1.5-1.5s0.7-1.5,1.5-1.5s1.5,0.7,1.5,1.5l0,0
			C33,31.3,32.3,32,31.5,32C31.5,32,31.5,32,31.5,32z M43.5,32c-0.8,0-1.5-0.7-1.5-1.5s0.7-1.5,1.5-1.5s1.5,0.7,1.5,1.5l0,0
			C45,31.3,44.3,32,43.5,32C43.5,32,43.5,32,43.5,32z"/>
	</g>
</g>
</svg>
