<?xml version="1.0" encoding="utf-8"?>
<!-- Generator: Adobe Illustrator 25.0.0, SVG Export Plug-In . SVG Version: 6.00 Build 0)  -->
<svg version="1.1" id="Layer_1" xmlns="http://www.w3.org/2000/svg" xmlns:xlink="http://www.w3.org/1999/xlink" x="0px" y="0px"
	 viewBox="0 0 48 48" style="enable-background:new 0 0 48 48;" xml:space="preserve">
<style type="text/css">
	.st0{fill:#011E41;}
</style>
<g id="Layer_2_1_">
	<g id="FINAL">
		<path  stroke-width="param(outline-width) "  stroke-opacity="param(outline-opacity) "  stroke="param(outline) "  fill-opacity="param(fill-opacity) "  fill="param(fill) " class="st0" d="M0,44c0-1.1,0.4-2.1,1.2-2.8l20-19c1.6-1.6,4.1-1.6,5.7,0l20,19c1.6,1.6,1.6,4.1,0,5.7
			c-1.6,1.6-4.1,1.6-5.6,0L24,31L6.8,46.8c-1.6,1.6-4.1,1.6-5.7,0C0.4,46.1,0,45.1,0,44z M1.2,25.8c1.6,1.6,4.1,1.6,5.7,0L24,10
			l17.2,15.8c1.6,1.6,4.1,1.6,5.7,0c1.6-1.6,1.6-4.1,0-5.6l-20-19c-1.6-1.6-4.1-1.6-5.7,0l-20,19C-0.4,21.7-0.4,24.3,1.2,25.8z"/>
	</g>
</g>
</svg>
