<?xml version="1.0" encoding="utf-8"?>
<!-- Generator: Adobe Illustrator 25.0.0, SVG Export Plug-In . SVG Version: 6.00 Build 0)  -->
<svg version="1.1" id="Layer_1" xmlns="http://www.w3.org/2000/svg" xmlns:xlink="http://www.w3.org/1999/xlink" x="0px" y="0px"
	 viewBox="0 0 48 48" style="enable-background:new 0 0 48 48;" xml:space="preserve">
<style type="text/css">
	.st0{fill:#011E41;}
</style>
<g id="Layer_2_1_">
	<g id="Icons">
		<path  stroke-width="param(outline-width) "  stroke-opacity="param(outline-opacity) "  stroke="param(outline) "  fill-opacity="param(fill-opacity) "  fill="param(fill) " class="st0" d="M46.5,45h-45C0.7,45,0,45.7,0,46.5S0.7,48,1.5,48h45c0.8,0,1.5-0.7,1.5-1.5S47.3,45,46.5,45z"/>
		<path  stroke-width="param(outline-width) "  stroke-opacity="param(outline-opacity) "  stroke="param(outline) "  fill-opacity="param(fill-opacity) "  fill="param(fill) " class="st0" d="M5.5,43h37c0.8,0,1.5-0.7,1.5-1.5S43.3,40,42.5,40h-37C4.7,40,4,40.7,4,41.5S4.7,43,5.5,43z"/>
		<rect x="10" y="17" class="st0" width="4" height="21"/>
		<rect x="18" y="17" class="st0" width="4" height="21"/>
		<rect x="26" y="17" class="st0" width="4" height="21"/>
		<rect x="34" y="17" class="st0" width="4" height="21"/>
		<path  stroke-width="param(outline-width) "  stroke-opacity="param(outline-opacity) "  stroke="param(outline) "  fill-opacity="param(fill-opacity) "  fill="param(fill) " class="st0" d="M8,15h32c1.1,0,2-0.9,2-2s-0.9-2-2-2H25V8h9V2h-9V1.5C25,0.7,24.3,0,23.5,0S22,0.7,22,1.5V11H8
			c-1.1,0-2,0.9-2,2S6.9,15,8,15z"/>
	</g>
</g>
</svg>
