<?xml version="1.0" encoding="utf-8"?>
<!-- Generator: Adobe Illustrator 25.0.0, SVG Export Plug-In . SVG Version: 6.00 Build 0)  -->
<svg version="1.1" id="Layer_1" xmlns="http://www.w3.org/2000/svg" xmlns:xlink="http://www.w3.org/1999/xlink" x="0px" y="0px"
	 viewBox="0 0 48 48" style="enable-background:new 0 0 48 48;" xml:space="preserve">
<style type="text/css">
	.st0{fill:#011E41;}
</style>
<g id="Layer_2_1_">
	<g id="Icons">
		<rect x="40" y="19" class="st0" width="8" height="9"/>
		<rect x="20" y="19" class="st0" width="8" height="9"/>
		<rect y="19" class="st0" width="8" height="9"/>
		<path  stroke-width="param(outline-width) "  stroke-opacity="param(outline-opacity) "  stroke="param(outline) "  fill-opacity="param(fill-opacity) "  fill="param(fill) " class="st0" d="M40.9,14.1c1.2,1.2,3.1,1.2,4.2,0s1.2-3.1,0-4.2l0,0l-9-9c-0.1-0.1-0.3-0.3-0.5-0.4c-0.1,0-0.1-0.1-0.2-0.1
			c-0.1-0.1-0.2-0.1-0.3-0.2c-0.1,0-0.2-0.1-0.3-0.1c-0.1,0-0.2-0.1-0.3-0.1c-0.4-0.1-0.8-0.1-1.2,0c-0.1,0-0.2,0.1-0.3,0.1
			c-0.1,0-0.2,0.1-0.3,0.1c-0.1,0-0.2,0.1-0.3,0.2c-0.1,0-0.1,0.1-0.2,0.1c-0.2,0.1-0.3,0.2-0.5,0.4l-9,9c-1.2,1.2-1.2,3.1,0,4.2
			s3.1,1.2,4.2,0l3.9-3.9V45c0,1.7,1.3,3,3,3s3-1.3,3-3V10.2L40.9,14.1z"/>
		<path  stroke-width="param(outline-width) "  stroke-opacity="param(outline-opacity) "  stroke="param(outline) "  fill-opacity="param(fill-opacity) "  fill="param(fill) " class="st0" d="M20.9,33.9L17,37.8V3c0-1.7-1.3-3-3-3s-3,1.3-3,3v34.8l-3.9-3.9c-1.2-1.2-3.1-1.2-4.2,0s-1.2,3.1,0,4.2l9,9
			c0.1,0.1,0.3,0.3,0.5,0.4c0.1,0,0.1,0.1,0.2,0.1c0.1,0.1,0.2,0.1,0.3,0.2c0.1,0,0.2,0.1,0.3,0.1c0.1,0,0.2,0.1,0.3,0.1
			c0.4,0.1,0.8,0.1,1.2,0c0.1,0,0.2-0.1,0.3-0.1c0.1,0,0.2-0.1,0.3-0.1c0.1,0,0.2-0.1,0.3-0.2c0.1,0,0.1-0.1,0.2-0.1
			c0.2-0.1,0.3-0.2,0.5-0.4l9-9c1.2-1.2,1.2-3.1,0-4.2S22.1,32.7,20.9,33.9L20.9,33.9z"/>
	</g>
</g>
</svg>
