<?xml version="1.0" encoding="utf-8"?>
<!-- Generator: Adobe Illustrator 25.0.0, SVG Export Plug-In . SVG Version: 6.00 Build 0)  -->
<svg version="1.1" id="Layer_1" xmlns="http://www.w3.org/2000/svg" xmlns:xlink="http://www.w3.org/1999/xlink" x="0px" y="0px"
	 viewBox="0 0 42 44" style="enable-background:new 0 0 42 44;" xml:space="preserve">
<style type="text/css">
	.st0{fill:#011E41;}
</style>
<g id="Layer_2_1_">
	<g id="Icons">
		<path  stroke-width="param(outline-width) "  stroke-opacity="param(outline-opacity) "  stroke="param(outline) "  fill-opacity="param(fill-opacity) "  fill="param(fill) " class="st0" d="M34,0H8C3.6,0,0,3.6,0,8v19c0,4.4,3.6,8,8,8h14l8.8,8.8c0.3,0.3,0.7,0.3,1,0c0.1-0.1,0.2-0.3,0.2-0.5l0-8.3h2
			c4.4,0,8-3.6,8-8V8C42,3.6,38.4,0,34,0z M32.5,27h-23C8.7,27,8,26.3,8,25.5S8.7,24,9.5,24h23c0.8,0,1.5,0.7,1.5,1.5
			S33.3,27,32.5,27z M32.5,19h-23C8.7,19,8,18.3,8,17.5S8.7,16,9.5,16h23c0.8,0,1.5,0.7,1.5,1.5S33.3,19,32.5,19z M32.5,11h-23
			C8.7,11,8,10.3,8,9.5S8.7,8,9.5,8h23C33.3,8,34,8.7,34,9.5S33.3,11,32.5,11z"/>
	</g>
</g>
</svg>
