<?xml version="1.0" encoding="utf-8"?>
<!-- Generator: Adobe Illustrator 25.0.0, SVG Export Plug-In . SVG Version: 6.00 Build 0)  -->
<svg version="1.1" id="Layer_1" xmlns="http://www.w3.org/2000/svg" xmlns:xlink="http://www.w3.org/1999/xlink" x="0px" y="0px"
	 viewBox="0 0 48 48" style="enable-background:new 0 0 48 48;" xml:space="preserve">
<style type="text/css">
	.st0{fill:#011E41;}
</style>
<g id="Layer_2_1_">
	<g id="Icons">
		<path  stroke-width="param(outline-width) "  stroke-opacity="param(outline-opacity) "  stroke="param(outline) "  fill-opacity="param(fill-opacity) "  fill="param(fill) " class="st0" d="M15.9,25.4c-0.6-0.6-1.5-0.6-2.1,0l-12,12c-2.3,2.3-2.3,6.1,0,8.5l0.4,0.4c2.3,2.3,6.1,2.3,8.5,0l12-12
			c0.6-0.6,0.6-1.5,0-2.1L15.9,25.4z"/>
		<path  stroke-width="param(outline-width) "  stroke-opacity="param(outline-opacity) "  stroke="param(outline) "  fill-opacity="param(fill-opacity) "  fill="param(fill) " class="st0" d="M30.5,21.1l7.9-7.9l5.4-0.8c0.6-0.1,1.1-0.4,1.4-1l2.6-5c0.4-0.7,0.2-1.5-0.3-2.1l-3.7-3.7
			c-0.6-0.6-1.4-0.7-2.1-0.3l-5,2.6c-0.5,0.3-0.9,0.8-1,1.4l-0.8,5.4l-7.9,7.9L30.5,21.1z"/>
		<path  stroke-width="param(outline-width) "  stroke-opacity="param(outline-opacity) "  stroke="param(outline) "  fill-opacity="param(fill-opacity) "  fill="param(fill) " class="st0" d="M35.9,30.5L17.4,12.1c1.7-4.7-0.7-9.8-5.4-11.5C10.7,0,9.2-0.1,7.7,0.1C7.2,0.2,6.8,0.7,6.9,1.2
			c0,0.2,0.1,0.4,0.3,0.6L11,5.7c1.4,1.4,1.4,3.7,0,5.2L10.8,11c-1.4,1.4-3.7,1.4-5.2,0c0,0,0,0,0,0L1.8,7.2c-0.4-0.4-1-0.4-1.4,0
			C0.2,7.3,0.1,7.5,0.1,7.7c-0.7,4.9,2.7,9.5,7.6,10.2c1.5,0.2,2.9,0,4.3-0.5l18.5,18.5c-1.7,4.7,0.7,9.8,5.4,11.5
			c1.4,0.5,2.9,0.7,4.3,0.5c0.5-0.1,0.9-0.6,0.8-1.1c0-0.2-0.1-0.4-0.3-0.6l-3.4-3.4c-1.4-1.4-1.4-3.6,0-5c0,0,0,0,0,0l0.4-0.4
			c1.4-1.4,3.6-1.4,5,0l3.4,3.4c0.4,0.4,1,0.4,1.4,0c0.2-0.2,0.2-0.3,0.3-0.6c0.7-4.9-2.7-9.5-7.6-10.2C38.8,29.9,37.3,30,35.9,30.5
			z"/>
	</g>
</g>
</svg>
