<?xml version="1.0" encoding="utf-8"?>
<!-- Generator: Adobe Illustrator 25.0.0, SVG Export Plug-In . SVG Version: 6.00 Build 0)  -->
<svg version="1.1" id="Layer_1" xmlns="http://www.w3.org/2000/svg" xmlns:xlink="http://www.w3.org/1999/xlink" x="0px" y="0px"
	 viewBox="0 0 43.6 48" style="enable-background:new 0 0 43.6 48;" xml:space="preserve">
<style type="text/css">
	.st0{fill:#011E41;}
</style>
<g id="Layer_2_1_">
	<g id="Icons">
		<path  stroke-width="param(outline-width) "  stroke-opacity="param(outline-opacity) "  stroke="param(outline) "  fill-opacity="param(fill-opacity) "  fill="param(fill) " class="st0" d="M41.1,20.3c0.2,0,0.3,0.1,0.5,0.1c1.1,0,2-0.9,2-2c0-0.9-0.6-1.7-1.5-1.9L40,15.8l1.9-1.1
			c1-0.5,1.3-1.8,0.7-2.7s-1.8-1.3-2.7-0.7c0,0,0,0,0,0L38,12.3l0.6-2.2c0.3-1.1-0.3-2.2-1.4-2.5S35,8.1,34.7,9.1l-1.6,6l-6.5,3.7
			c-0.8-0.8-1.8-1.3-2.8-1.6v-6.5l4.4-4.4c0.8-0.8,0.8-2,0-2.8c-0.8-0.8-2-0.8-2.8,0l-1.6,1.6V2c0-1.1-0.9-2-2-2s-2,0.9-2,2v3.2
			l-1.6-1.6c-0.8-0.8-2-0.8-2.8,0s-0.8,2,0,2.8c0,0,0,0,0,0l4.4,4.4v6.5c-1,0.3-2,0.9-2.8,1.6l-6.5-3.7l-1.6-6
			C8.6,8.1,7.5,7.5,6.5,7.7C5.4,8,4.8,9.1,5.1,10.2l0.6,2.2l-1.9-1.1C2.8,10.7,1.6,11,1,12s-0.2,2.2,0.7,2.7c0,0,0,0,0,0l1.9,1.1
			l-2.2,0.6c-1.1,0.3-1.7,1.4-1.4,2.5c0.2,0.9,1,1.5,1.9,1.5c0.2,0,0.4,0,0.5-0.1l6-1.6l6.5,3.7c-0.3,1.1-0.3,2.2,0,3.2l-5.6,3.2
			l-6-1.6c-1.1-0.3-2.2,0.3-2.4,1.4s0.3,2.2,1.4,2.4c0,0,0,0,0,0l2.2,0.6l-2.7,1.6C0.8,33.8,0.5,35,1,36c0,0,0,0,0,0
			c0.6,1,1.8,1.3,2.7,0.7l2.7-1.6l-0.6,2.2c-0.3,1.1,0.4,2.2,1.4,2.4c0,0,0,0,0,0c0.2,0,0.3,0.1,0.5,0.1c0.9,0,1.7-0.6,1.9-1.5
			l1.6-6l5.6-3.2c0.8,0.8,1.8,1.3,2.8,1.6v7.5l-4.4,4.4c-0.8,0.8-0.8,2,0,2.8c0.8,0.8,2,0.8,2.8,0l1.6-1.6V46c0,1.1,0.9,2,2,2
			s2-0.9,2-2v-2.2l1.6,1.6c0.8,0.8,2,0.8,2.8,0c0.8-0.8,0.8-2,0-2.8l-4.4-4.4v-7.5c1-0.3,2-0.9,2.8-1.6l5.6,3.2l1.6,6
			c0.2,0.9,1,1.5,1.9,1.5c0.2,0,0.4,0,0.5-0.1c1.1-0.3,1.7-1.4,1.4-2.4c0,0,0,0,0,0l-0.6-2.2l2.7,1.6c1,0.6,2.2,0.2,2.7-0.7
			c0.5-1,0.2-2.2-0.7-2.7c0,0,0,0,0,0l-2.7-1.6l2.2-0.6c1.1-0.3,1.7-1.4,1.4-2.4c-0.3-1.1-1.4-1.7-2.4-1.4c0,0,0,0,0,0l-6,1.6
			l-5.6-3.2c0.3-1.1,0.3-2.2,0-3.2l6.5-3.7L41.1,20.3z M21.8,27c-1.7,0-3-1.3-3-3s1.3-3,3-3s3,1.3,3,3C24.8,25.7,23.5,27,21.8,27
			C21.8,27,21.8,27,21.8,27z"/>
	</g>
</g>
</svg>
