<?xml version="1.0" encoding="utf-8"?>
<!-- Generator: Adobe Illustrator 25.0.0, SVG Export Plug-In . SVG Version: 6.00 Build 0)  -->
<svg version="1.1" id="Layer_1" xmlns="http://www.w3.org/2000/svg" xmlns:xlink="http://www.w3.org/1999/xlink" x="0px" y="0px"
	 viewBox="0 0 48 48" style="enable-background:new 0 0 48 48;" xml:space="preserve">
<style type="text/css">
	.st0{fill:#011E41;}
</style>
<g id="Layer_2_1_">
	<g id="Icons">
		<path  stroke-width="param(outline-width) "  stroke-opacity="param(outline-opacity) "  stroke="param(outline) "  fill-opacity="param(fill-opacity) "  fill="param(fill) " class="st0" d="M4,30h40c1.1,0,2-0.9,2-2V2c0-1.1-0.9-2-2-2H4C2.9,0,2,0.9,2,2v26C2,29.1,2.9,30,4,30z M6,4h36v22H6V4z"/>
		<path  stroke-width="param(outline-width) "  stroke-opacity="param(outline-opacity) "  stroke="param(outline) "  fill-opacity="param(fill-opacity) "  fill="param(fill) " class="st0" d="M45.8,33H2.3C1,33,0,34,0,35.2v10.6C0,47,1,48,2.3,48h43.5c1.2,0,2.2-1,2.3-2.2V35.2C48,34,47,33,45.8,33z
			 M19.5,41h-14C4.7,41,4,40.3,4,39.5S4.7,38,5.5,38h14c0.8,0,1.5,0.7,1.5,1.5S20.3,41,19.5,41z M41.5,42c-1.4,0-2.5-1.1-2.5-2.5
			s1.1-2.5,2.5-2.5s2.5,1.1,2.5,2.5C44,40.9,42.9,42,41.5,42z"/>
	</g>
</g>
</svg>
