<?xml version="1.0" encoding="utf-8"?>
<!-- Generator: Adobe Illustrator 25.0.0, SVG Export Plug-In . SVG Version: 6.00 Build 0)  -->
<svg version="1.1" id="Layer_1" xmlns="http://www.w3.org/2000/svg" xmlns:xlink="http://www.w3.org/1999/xlink" x="0px" y="0px"
	 viewBox="0 0 48 48" style="enable-background:new 0 0 48 48;" xml:space="preserve">
<style type="text/css">
	.st0{fill:#011E41;}
</style>
<g id="Layer_2_1_">
	<g id="Icons">
		<path  stroke-width="param(outline-width) "  stroke-opacity="param(outline-opacity) "  stroke="param(outline) "  fill-opacity="param(fill-opacity) "  fill="param(fill) " class="st0" d="M27.5,40h-7c-0.8,0-1.5,0.7-1.5,1.5s0.7,1.5,1.5,1.5h7c0.8,0,1.5-0.7,1.5-1.5S28.3,40,27.5,40L27.5,40z"/>
		<path  stroke-width="param(outline-width) "  stroke-opacity="param(outline-opacity) "  stroke="param(outline) "  fill-opacity="param(fill-opacity) "  fill="param(fill) " class="st0" d="M24,14c-6.1,0-11,4.9-11,11c0,4.1,2.3,7.9,6,9.8V37c0,0.6,0.4,1,1,1h8c0.6,0,1-0.4,1-1v-2.2
			c5.4-2.8,7.6-9.4,4.8-14.8C31.9,16.3,28.1,14,24,14z"/>
		<path  stroke-width="param(outline-width) "  stroke-opacity="param(outline-opacity) "  stroke="param(outline) "  fill-opacity="param(fill-opacity) "  fill="param(fill) " class="st0" d="M24,10c1.1,0,2-0.9,2-2V2c0-1.1-0.9-2-2-2s-2,0.9-2,2v6C22,9.1,22.9,10,24,10z"/>
		<path  stroke-width="param(outline-width) "  stroke-opacity="param(outline-opacity) "  stroke="param(outline) "  fill-opacity="param(fill-opacity) "  fill="param(fill) " class="st0" d="M8,22H2c-1.1,0-2,0.9-2,2s0.9,2,2,2h6c1.1,0,2-0.9,2-2S9.1,22,8,22z"/>
		<path  stroke-width="param(outline-width) "  stroke-opacity="param(outline-opacity) "  stroke="param(outline) "  fill-opacity="param(fill-opacity) "  fill="param(fill) " class="st0" d="M46,22h-6c-1.1,0-2,0.9-2,2s0.9,2,2,2h6c1.1,0,2-0.9,2-2S47.1,22,46,22z"/>
		<path  stroke-width="param(outline-width) "  stroke-opacity="param(outline-opacity) "  stroke="param(outline) "  fill-opacity="param(fill-opacity) "  fill="param(fill) " class="st0" d="M13.9,10.7l-3.8-4.7c-0.7-0.9-2-1-2.8-0.3c-0.9,0.7-1,2-0.3,2.8l3.8,4.7c0.7,0.9,2,1,2.8,0.3
			C14.5,12.8,14.6,11.6,13.9,10.7z"/>
		<path  stroke-width="param(outline-width) "  stroke-opacity="param(outline-opacity) "  stroke="param(outline) "  fill-opacity="param(fill-opacity) "  fill="param(fill) " class="st0" d="M40.7,5.8c-0.9-0.7-2.1-0.6-2.8,0.3c0,0,0,0,0,0l-3.8,4.7c-0.7,0.9-0.6,2.1,0.3,2.8c0.9,0.7,2.1,0.6,2.8-0.3
			l3.8-4.7C41.6,7.8,41.5,6.5,40.7,5.8z"/>
		<path  stroke-width="param(outline-width) "  stroke-opacity="param(outline-opacity) "  stroke="param(outline) "  fill-opacity="param(fill-opacity) "  fill="param(fill) " class="st0" d="M27,45h-6c-0.6,0-1,0.4-1,1c0,1.1,0.9,2,2,2h4c1.1,0,2-0.9,2-2C28,45.4,27.6,45,27,45z"/>
	</g>
</g>
</svg>
