<?xml version="1.0" encoding="utf-8"?>
<!-- Generator: Adobe Illustrator 25.0.0, SVG Export Plug-In . SVG Version: 6.00 Build 0)  -->
<svg version="1.1" id="Layer_1" xmlns="http://www.w3.org/2000/svg" xmlns:xlink="http://www.w3.org/1999/xlink" x="0px" y="0px"
	 viewBox="0 0 48 41" style="enable-background:new 0 0 48 41;" xml:space="preserve">
<style type="text/css">
	.st0{fill:#011E41;}
</style>
<g id="Layer_2_1_">
	<g id="Icons">
		<path  stroke-width="param(outline-width) "  stroke-opacity="param(outline-opacity) "  stroke="param(outline) "  fill-opacity="param(fill-opacity) "  fill="param(fill) " class="st0" d="M46,9H35V2c0-1.1-0.9-2-2-2H15c-1.1,0-2,0.9-2,2v7H2c-1.1,0-2,0.9-2,2v28c0,1.1,0.9,2,2,2h44c1.1,0,2-0.9,2-2
			V11C48,9.9,47.1,9,46,9z M18,5h12v4H18V5z M20.3,27.3c-0.5,0.5-1.1,0.7-1.8,0.7H16v2.5c0,1.4-1.1,2.5-2.5,2.5S11,31.9,11,30.5V28
			H8.5C7.1,28,6,26.9,6,25.5S7.1,23,8.5,23H11v-2.5c0-1.4,1.1-2.5,2.5-2.5s2.5,1.1,2.5,2.5V23h2.5c1.4,0,2.5,1.1,2.5,2.5
			C21,26.2,20.7,26.8,20.3,27.3z"/>
	</g>
</g>
</svg>
