<?xml version="1.0" encoding="utf-8"?>
<!-- Generator: Adobe Illustrator 25.0.0, SVG Export Plug-In . SVG Version: 6.00 Build 0)  -->
<svg version="1.1" id="Layer_1" xmlns="http://www.w3.org/2000/svg" xmlns:xlink="http://www.w3.org/1999/xlink" x="0px" y="0px"
	 viewBox="0 0 37 48" style="enable-background:new 0 0 37 48;" xml:space="preserve">
<style type="text/css">
	.st0{fill:#011E41;}
</style>
<g id="Layer_2_1_">
	<g id="Icons">
		<path  stroke-width="param(outline-width) "  stroke-opacity="param(outline-opacity) "  stroke="param(outline) "  fill-opacity="param(fill-opacity) "  fill="param(fill) " class="st0" d="M12.5,7C13.3,7,14,6.3,14,5.5v-4C14,0.7,13.3,0,12.5,0S11,0.7,11,1.5v4C11,6.3,11.7,7,12.5,7z"/>
		<path  stroke-width="param(outline-width) "  stroke-opacity="param(outline-opacity) "  stroke="param(outline) "  fill-opacity="param(fill-opacity) "  fill="param(fill) " class="st0" d="M5.5,11h-4C0.7,11,0,11.7,0,12.5S0.7,14,1.5,14h4C6.3,14,7,13.3,7,12.5S6.3,11,5.5,11z"/>
		<path  stroke-width="param(outline-width) "  stroke-opacity="param(outline-opacity) "  stroke="param(outline) "  fill-opacity="param(fill-opacity) "  fill="param(fill) " class="st0" d="M5.6,3.4C5,2.9,4,2.9,3.4,3.4S2.9,5,3.4,5.6l3,3C7,9.2,8,9.2,8.6,8.6C9.2,8,9.2,7,8.6,6.5c0,0,0,0,0,0
			L5.6,3.4z"/>
		<path  stroke-width="param(outline-width) "  stroke-opacity="param(outline-opacity) "  stroke="param(outline) "  fill-opacity="param(fill-opacity) "  fill="param(fill) " class="st0" d="M11,22c0,1.1,0.9,2,2,2s2-0.9,2-2c0-3.2,2-6,5-7l-4,19c-0.1,0.5,0.3,1,0.8,1c0.1,0,0.1,0,0.2,0h2v11
			c0,1.1,0.9,2,2,2s2-0.9,2-2V10C16,10.4,11,15.4,11,22z"/>
		<path  stroke-width="param(outline-width) "  stroke-opacity="param(outline-opacity) "  stroke="param(outline) "  fill-opacity="param(fill-opacity) "  fill="param(fill) " class="st0" d="M20,4c0,1.9,1.2,3.5,3,4V0C21.2,0.5,20,2.1,20,4z"/>
		<path  stroke-width="param(outline-width) "  stroke-opacity="param(outline-opacity) "  stroke="param(outline) "  fill-opacity="param(fill-opacity) "  fill="param(fill) " class="st0" d="M25,10v36c0,1.1,0.9,2,2,2s2-0.9,2-2V15c2.5,1.4,4,4.1,4,7c0,1.1,0.9,2,2,2s2-0.9,2-2C37,15.4,32,10.4,25,10z
			"/>
		<path  stroke-width="param(outline-width) "  stroke-opacity="param(outline-opacity) "  stroke="param(outline) "  fill-opacity="param(fill-opacity) "  fill="param(fill) " class="st0" d="M28,4c0-1.9-1.2-3.5-3-4v8C26.8,7.5,28,5.9,28,4z"/>
	</g>
</g>
</svg>
