<?xml version="1.0" encoding="utf-8"?>
<!-- Generator: Adobe Illustrator 25.0.0, SVG Export Plug-In . SVG Version: 6.00 Build 0)  -->
<svg version="1.1" id="Layer_1" xmlns="http://www.w3.org/2000/svg" xmlns:xlink="http://www.w3.org/1999/xlink" x="0px" y="0px"
	 viewBox="0 0 48 48" style="enable-background:new 0 0 48 48;" xml:space="preserve">
<style type="text/css">
	.st0{fill:#011E41;}
</style>
<g id="Layer_2_1_">
	<g id="Icons">
		<path  stroke-width="param(outline-width) "  stroke-opacity="param(outline-opacity) "  stroke="param(outline) "  fill-opacity="param(fill-opacity) "  fill="param(fill) " class="st0" d="M43.4,32H43v-3c0-2.8-2.2-5-5-5h-5v-3c0-1.7-1.3-3-3-3H3c-1.7,0-3,1.3-3,3v23h5c0-2,1-3.9,2.7-5
			c2.8-1.8,6.5-1,8.3,1.8c0.6,1,1,2.1,1,3.3h12c0-3.3,2.7-6,6-6s6,2.7,6,6h5.5c0.8,0,1.5-0.7,1.5-1.5c0,0,0,0,0,0v-5.9
			C48,34.1,46,32,43.4,32C43.4,32,43.4,32,43.4,32z M40,32h-7v-5h4.1c1.6,0,2.9,1.3,2.9,2.9c0,0,0,0,0,0V32z"/>
		<path  stroke-width="param(outline-width) "  stroke-opacity="param(outline-opacity) "  stroke="param(outline) "  fill-opacity="param(fill-opacity) "  fill="param(fill) " class="st0" d="M11,40c-2.2,0-4,1.8-4,4s1.8,4,4,4s4-1.8,4-4C15,41.8,13.2,40,11,40C11,40,11,40,11,40z"/>
		<path  stroke-width="param(outline-width) "  stroke-opacity="param(outline-opacity) "  stroke="param(outline) "  fill-opacity="param(fill-opacity) "  fill="param(fill) " class="st0" d="M35,40c-2.2,0-4,1.8-4,4s1.8,4,4,4s4-1.8,4-4C39,41.8,37.2,40,35,40C35,40,35,40,35,40z"/>
		<path  stroke-width="param(outline-width) "  stroke-opacity="param(outline-opacity) "  stroke="param(outline) "  fill-opacity="param(fill-opacity) "  fill="param(fill) " class="st0" d="M1.5,10h41.3l-4.4,4.3c-0.6,0.6-0.6,1.6,0,2.2c0.6,0.6,1.6,0.6,2.2,0l6.9-6.9c0.6-0.6,0.6-1.6,0-2.2
			c0,0,0,0,0,0l-6.9-6.9c-0.6-0.6-1.6-0.6-2.2,0c-0.6,0.6-0.6,1.6,0,2.2L42.8,7H1.5C0.7,7,0,7.7,0,8.5S0.7,10,1.5,10z"/>
	</g>
</g>
</svg>
