<?xml version="1.0" encoding="utf-8"?>
<!-- Generator: Adobe Illustrator 25.0.0, SVG Export Plug-In . SVG Version: 6.00 Build 0)  -->
<svg version="1.1" id="Layer_1" xmlns="http://www.w3.org/2000/svg" xmlns:xlink="http://www.w3.org/1999/xlink" x="0px" y="0px"
	 viewBox="0 0 32 48" style="enable-background:new 0 0 32 48;" xml:space="preserve">
<style type="text/css">
	.st0{fill:#011E41;}
</style>
<g id="Layer_2_1_">
	<g id="Icons">
		<path  stroke-width="param(outline-width) "  stroke-opacity="param(outline-opacity) "  stroke="param(outline) "  fill-opacity="param(fill-opacity) "  fill="param(fill) " class="st0" d="M18.5,14.6c-0.9,1.4-2.8,1.8-4.1,0.9c-0.3-0.2-0.6-0.5-0.9-0.9C11.9,15.5,11,17.2,11,19c0,0.1,0,0.1,0,0.2
			c1.2,0.4,2,1.5,2,2.8c0,0.3,0,0.6-0.1,0.9c1.8,1.5,4.4,1.5,6.3,0C19,22.6,19,22.3,19,22c0-1.3,0.8-2.4,2-2.8c0-0.1,0-0.1,0-0.2
			C21,17.2,20.1,15.5,18.5,14.6z"/>
		<path  stroke-width="param(outline-width) "  stroke-opacity="param(outline-opacity) "  stroke="param(outline) "  fill-opacity="param(fill-opacity) "  fill="param(fill) " class="st0" d="M30,6H2C0.9,6,0,6.9,0,8v22h32V8C32,6.9,31.1,6,30,6z M22,25c-0.6,0-1.2-0.2-1.7-0.5c-2.5,2-6.1,2-8.6,0
			c-1.4,0.9-3.2,0.6-4.2-0.8C7.2,23.2,7,22.6,7,22c0-1.3,0.8-2.4,2-2.8C9,19.1,9,19,9,19c0-2.7,1.6-5.2,4.1-6.4
			c0.2-1.6,1.7-2.8,3.3-2.6c1.4,0.2,2.4,1.2,2.6,2.6c2.5,1.1,4.1,3.6,4.1,6.4c0,0.1,0,0.1,0,0.2c1.6,0.6,2.4,2.3,1.8,3.8
			C24.4,24.2,23.3,25,22,25z"/>
		<path  stroke-width="param(outline-width) "  stroke-opacity="param(outline-opacity) "  stroke="param(outline) "  fill-opacity="param(fill-opacity) "  fill="param(fill) " class="st0" d="M6,4h20c1.1,0,2-0.9,2-2s-0.9-2-2-2H6C4.9,0,4,0.9,4,2S4.9,4,6,4z"/>
		<path  stroke-width="param(outline-width) "  stroke-opacity="param(outline-opacity) "  stroke="param(outline) "  fill-opacity="param(fill-opacity) "  fill="param(fill) " class="st0" d="M0,48h12V38c0-1.1,0.9-2,2-2h4c1.1,0,2,0.9,2,2v10h12V32H0V48z"/>
	</g>
</g>
</svg>
