<?xml version="1.0" encoding="utf-8"?>
<!-- Generator: Adobe Illustrator 25.0.0, SVG Export Plug-In . SVG Version: 6.00 Build 0)  -->
<svg version="1.1" id="Layer_1" xmlns="http://www.w3.org/2000/svg" xmlns:xlink="http://www.w3.org/1999/xlink" x="0px" y="0px"
	 viewBox="0 0 48 36" style="enable-background:new 0 0 48 36;" xml:space="preserve">
<style type="text/css">
	.st0{fill:#011E41;}
</style>
<g id="Layer_2_1_">
	<g id="Icons">
		<circle class="st0" cx="36" cy="10" r="6"/>
		<path  stroke-width="param(outline-width) "  stroke-opacity="param(outline-opacity) "  stroke="param(outline) "  fill-opacity="param(fill-opacity) "  fill="param(fill) " class="st0" d="M37,19h-1c-3.1,0-6,1.3-8.1,3.5c2,2.7,3.1,6.1,3.1,9.5v1h17v-3C48,23.9,43.1,19,37,19C37,19,37,19,37,19z"/>
		<circle class="st0" cx="14" cy="8" r="8"/>
		<path  stroke-width="param(outline-width) "  stroke-opacity="param(outline-opacity) "  stroke="param(outline) "  fill-opacity="param(fill-opacity) "  fill="param(fill) " class="st0" d="M15,19h-2C5.8,19,0,24.8,0,32c0,0,0,0,0,0v4h28v-4C28,24.8,22.2,19,15,19z"/>
	</g>
</g>
</svg>
