<?xml version="1.0" encoding="utf-8"?>
<!-- Generator: Adobe Illustrator 25.0.0, SVG Export Plug-In . SVG Version: 6.00 Build 0)  -->
<svg version="1.1" id="Layer_1" xmlns="http://www.w3.org/2000/svg" xmlns:xlink="http://www.w3.org/1999/xlink" x="0px" y="0px"
	 viewBox="0 0 25 48" style="enable-background:new 0 0 25 48;" xml:space="preserve">
<style type="text/css">
	.st0{fill:#011E41;}
</style>
<path  stroke-width="param(outline-width) "  stroke-opacity="param(outline-opacity) "  stroke="param(outline) "  fill-opacity="param(fill-opacity) "  fill="param(fill) " class="st0" d="M19,0H6.5C5.7,0,5,0.7,5,1.5S5.7,3,6.5,3H10v9H6c-0.6,0-1,0.4-1,1v4H2c-1.1,0-2,0.9-2,2v27c0,1.1,0.9,2,2,2h19
	c1.1,0,2-0.9,2-2V19c0-1.1-0.9-2-2-2h-3v-4c0-0.6-0.4-1-1-1h-4V3h6c1.9,0,3,1.6,3,3.5C22,7.3,22.7,8,23.5,8S25,7.3,25,6.5
	C25,2.9,22.6,0,19,0z"/>
</svg>
