<?xml version="1.0" encoding="utf-8"?>
<!-- Generator: Adobe Illustrator 25.0.0, SVG Export Plug-In . SVG Version: 6.00 Build 0)  -->
<svg version="1.1" id="Layer_1" xmlns="http://www.w3.org/2000/svg" xmlns:xlink="http://www.w3.org/1999/xlink" x="0px" y="0px"
	 viewBox="0 0 38 48" style="enable-background:new 0 0 38 48;" xml:space="preserve">
<style type="text/css">
	.st0{fill:#011E41;}
</style>
<g id="Layer_2_1_">
	<g id="Icons">
		<path  stroke-width="param(outline-width) "  stroke-opacity="param(outline-opacity) "  stroke="param(outline) "  fill-opacity="param(fill-opacity) "  fill="param(fill) " class="st0" d="M18,48h2c2.2,0,4-1.8,4-4H14C14,46.2,15.8,48,18,48z"/>
		<path  stroke-width="param(outline-width) "  stroke-opacity="param(outline-opacity) "  stroke="param(outline) "  fill-opacity="param(fill-opacity) "  fill="param(fill) " class="st0" d="M33.5,33h-0.2l-1.9-14.1C30.9,14.5,28,10.8,24,9V5c0-2.8-2.2-5-5-5s-5,2.2-5,5v4c-4,1.7-6.9,5.5-7.5,9.9
			L4.7,33H4.5C2,33,0,35,0,37.5S2,42,4.5,42h29c2.5,0,4.5-2,4.5-4.5S36,33,33.5,33z M19,3c1.1,0,2,0.9,2,2s-0.9,2-2,2s-2-0.9-2-2
			S17.9,3,19,3z"/>
	</g>
</g>
</svg>
