<?xml version="1.0" encoding="utf-8"?>
<!-- Generator: Adobe Illustrator 25.0.0, SVG Export Plug-In . SVG Version: 6.00 Build 0)  -->
<svg version="1.1" id="Layer_1" xmlns="http://www.w3.org/2000/svg" xmlns:xlink="http://www.w3.org/1999/xlink" x="0px" y="0px"
	 viewBox="0 0 48 44" style="enable-background:new 0 0 48 44;" xml:space="preserve">
<style type="text/css">
	.st0{fill:#011E41;}
</style>
<g id="Layer_2_1_">
	<g id="Icons">
		<path  stroke-width="param(outline-width) "  stroke-opacity="param(outline-opacity) "  stroke="param(outline) "  fill-opacity="param(fill-opacity) "  fill="param(fill) " class="st0" d="M46,16H2c-1.1,0-2,0.9-2,2v14c0,1.1,0.9,2,2,2h6v-6h32v6h6c1.1,0,2-0.9,2-2V18C48,16.9,47.1,16,46,16z M32,23
			c-1.1,0-2-0.9-2-2s0.9-2,2-2c1.1,0,2,0.9,2,2C34,22.1,33.1,23,32,23z M38,23c-1.1,0-2-0.9-2-2s0.9-2,2-2s2,0.9,2,2
			C40,22.1,39.1,23,38,23z"/>
		<path  stroke-width="param(outline-width) "  stroke-opacity="param(outline-opacity) "  stroke="param(outline) "  fill-opacity="param(fill-opacity) "  fill="param(fill) " class="st0" d="M11,34v8c0,1.1,0.9,2,2,2h22c1.1,0,2-0.9,2-2V31H11V34z"/>
		<path  stroke-width="param(outline-width) "  stroke-opacity="param(outline-opacity) "  stroke="param(outline) "  fill-opacity="param(fill-opacity) "  fill="param(fill) " class="st0" d="M37,7h-4c-1.7,0-3-1.3-3-3V0H13c-1.1,0-2,0.9-2,2v12h26V7z"/>
		<path  stroke-width="param(outline-width) "  stroke-opacity="param(outline-opacity) "  stroke="param(outline) "  fill-opacity="param(fill-opacity) "  fill="param(fill) " class="st0" d="M33,5h4l-5-5v4C32,4.6,32.4,5,33,5z"/>
	</g>
</g>
</svg>
