<?xml version="1.0" encoding="utf-8"?>
<!-- Generator: Adobe Illustrator 25.0.0, SVG Export Plug-In . SVG Version: 6.00 Build 0)  -->
<svg version="1.1" id="Layer_1" xmlns="http://www.w3.org/2000/svg" xmlns:xlink="http://www.w3.org/1999/xlink" x="0px" y="0px"
	 viewBox="0 0 48 48" style="enable-background:new 0 0 48 48;" xml:space="preserve">
<style type="text/css">
	.st0{fill:#011E41;}
</style>
<g id="Layer_2_1_">
	<g id="Icons">
		<path  stroke-width="param(outline-width) "  stroke-opacity="param(outline-opacity) "  stroke="param(outline) "  fill-opacity="param(fill-opacity) "  fill="param(fill) " class="st0" d="M46.6,24H40v-5c0-0.6-0.4-1-1-1h-1V5.1l2.4,2.4c0.6,0.6,1.5,0.6,2.1,0s0.6-1.5,0-2.1l-5-5l0,0l0,0
			c-0.1-0.1-0.3-0.2-0.5-0.3c0,0,0,0,0,0C36.9,0,36.7,0,36.5,0l0,0l0,0c-0.2,0-0.4,0-0.5,0.1c0,0,0,0,0,0c-0.2,0.1-0.3,0.2-0.5,0.3
			l0,0l0,0l-5,5c-0.6,0.6-0.6,1.5,0,2.1c0.6,0.6,1.5,0.6,2.1,0l0,0L35,5.1V18h-1c-0.6,0-1,0.4-1,1v5h-9V4c0-2.2-1.8-4-4-4H9
			C6.8,0,5,1.8,5,4v20H1.5C0.7,24,0,24.7,0,25.5v4.7C0.7,30.1,1.3,30,2,30c1.6,0,3.2,0.4,4.6,1.2C7.4,31.8,8.4,32,9.3,32
			c1,0,1.9-0.2,2.7-0.8c1.4-0.8,3-1.3,4.6-1.2c1.6,0,3.2,0.4,4.6,1.2C22.1,31.8,23,32,24,32c1,0,1.9-0.2,2.7-0.8
			c1.4-0.8,3-1.3,4.6-1.2c1.6,0,3.2,0.4,4.6,1.2c1.7,1,3.8,1,5.4,0c1.4-0.8,3-1.3,4.6-1.2c0.7,0,1.3,0.1,2,0.2v-4.7
			C48,24.7,47.4,24,46.6,24z"/>
		<path  stroke-width="param(outline-width) "  stroke-opacity="param(outline-opacity) "  stroke="param(outline) "  fill-opacity="param(fill-opacity) "  fill="param(fill) " class="st0" d="M46,42c-1.6,0-3.2,0.4-4.6,1.2c-1.7,1-3.8,1-5.4,0c-1.4-0.8-3-1.3-4.6-1.2c-1.6,0-3.2,0.4-4.6,1.2
			C25.9,43.8,25,44,24,44c-1,0-1.9-0.2-2.7-0.8c-1.4-0.8-3-1.3-4.6-1.2c-1.6,0-3.2,0.4-4.6,1.2c-0.8,0.5-1.7,0.8-2.7,0.8
			c-1,0-1.9-0.2-2.7-0.8C5.2,42.4,3.6,42,2,42c-1.1,0-2,0.9-2,2s0.9,2,2,2c1,0,1.9,0.2,2.7,0.8c1.4,0.8,3,1.3,4.6,1.2
			c1.6,0,3.2-0.4,4.6-1.2c0.8-0.5,1.7-0.8,2.7-0.8c1,0,1.9,0.2,2.7,0.8c1.4,0.8,3,1.3,4.6,1.2c1.6,0,3.2-0.4,4.6-1.2
			c1.7-1,3.8-1,5.4,0c2.9,1.7,6.4,1.7,9.3,0C44.1,46.2,45,46,46,46c1.1,0,2-0.9,2-2S47.1,42,46,42z"/>
		<path  stroke-width="param(outline-width) "  stroke-opacity="param(outline-opacity) "  stroke="param(outline) "  fill-opacity="param(fill-opacity) "  fill="param(fill) " class="st0" d="M46,34c-1.6,0-3.2,0.4-4.6,1.2c-1.7,1-3.8,1-5.4,0c-1.4-0.8-3-1.3-4.6-1.2c-1.6,0-3.2,0.4-4.6,1.2
			C25.9,35.8,25,36,24,36c-1,0-1.9-0.2-2.7-0.8c-1.4-0.8-3-1.3-4.6-1.2c-1.6,0-3.2,0.4-4.6,1.2c-0.8,0.5-1.7,0.8-2.7,0.8
			c-1,0-1.9-0.2-2.7-0.8C5.2,34.4,3.6,34,2,34c-1.1,0-2,0.9-2,2s0.9,2,2,2c1,0,1.9,0.2,2.7,0.8c1.4,0.8,3,1.3,4.6,1.2
			c1.6,0,3.2-0.4,4.6-1.2c0.8-0.5,1.7-0.8,2.7-0.8c1,0,1.9,0.2,2.7,0.8c1.4,0.8,3,1.3,4.6,1.2c1.6,0,3.2-0.4,4.6-1.2
			c1.7-1,3.8-1,5.4,0c2.9,1.7,6.4,1.7,9.3,0C44.1,38.2,45,38,46,38c1.1,0,2-0.9,2-2S47.1,34,46,34z"/>
	</g>
</g>
</svg>
