<?xml version="1.0" encoding="utf-8"?>
<!-- Generator: Adobe Illustrator 25.0.0, SVG Export Plug-In . SVG Version: 6.00 Build 0)  -->
<svg version="1.1" id="Layer_1" xmlns="http://www.w3.org/2000/svg" xmlns:xlink="http://www.w3.org/1999/xlink" x="0px" y="0px"
	 viewBox="0 0 48 48" style="enable-background:new 0 0 48 48;" xml:space="preserve">
<style type="text/css">
	.st0{fill:#011E41;}
</style>
<g id="Layer_2_1_">
	<g id="Icons">
		<path  stroke-width="param(outline-width) "  stroke-opacity="param(outline-opacity) "  stroke="param(outline) "  fill-opacity="param(fill-opacity) "  fill="param(fill) " class="st0" d="M5.9,33.5C5,31.8,4.3,30,4,28.1c-0.2-1.1-1.3-1.8-2.4-1.6c-1.1,0.2-1.8,1.3-1.6,2.4c0.5,2.6,1.5,5.1,2.8,7.4
			C3.5,35,4.6,34,5.9,33.5z"/>
		<path  stroke-width="param(outline-width) "  stroke-opacity="param(outline-opacity) "  stroke="param(outline) "  fill-opacity="param(fill-opacity) "  fill="param(fill) " class="st0" d="M19.9,44c-1.9-0.4-3.7-1-5.4-1.9c-0.6,1.3-1.5,2.4-2.8,3.1c2.3,1.3,4.8,2.3,7.4,2.8c0.1,0,0.3,0,0.4,0
			c1.1,0,2-0.9,2-2C21.5,45,20.8,44.2,19.9,44z"/>
		<path  stroke-width="param(outline-width) "  stroke-opacity="param(outline-opacity) "  stroke="param(outline) "  fill-opacity="param(fill-opacity) "  fill="param(fill) " class="st0" d="M28.1,4c1.9,0.4,3.7,1,5.4,1.9c0.6-1.3,1.6-2.4,2.8-3C34,1.5,31.5,0.6,28.9,0c-1.1-0.2-2.1,0.5-2.4,1.6
			C26.3,2.7,27,3.7,28.1,4C28.1,4,28.1,4,28.1,4z"/>
		<path  stroke-width="param(outline-width) "  stroke-opacity="param(outline-opacity) "  stroke="param(outline) "  fill-opacity="param(fill-opacity) "  fill="param(fill) " class="st0" d="M42.1,14.5c0.9,1.7,1.5,3.5,1.9,5.4c0.2,0.9,1,1.6,2,1.6c0.1,0,0.3,0,0.4,0c1.1-0.2,1.8-1.3,1.6-2.4
			c0,0,0,0,0,0c-0.5-2.6-1.5-5.1-2.8-7.4C44.5,13,43.4,13.9,42.1,14.5z"/>
		<path  stroke-width="param(outline-width) "  stroke-opacity="param(outline-opacity) "  stroke="param(outline) "  fill-opacity="param(fill-opacity) "  fill="param(fill) " class="st0" d="M1.6,21.5c0.1,0,0.3,0,0.4,0c1,0,1.8-0.7,2-1.6c0.4-1.9,1-3.7,1.9-5.4C4.6,14,3.5,13,2.8,11.8
			c-1.3,2.3-2.2,4.7-2.7,7.3C-0.2,20.2,0.5,21.2,1.6,21.5C1.6,21.5,1.6,21.5,1.6,21.5z"/>
		<path  stroke-width="param(outline-width) "  stroke-opacity="param(outline-opacity) "  stroke="param(outline) "  fill-opacity="param(fill-opacity) "  fill="param(fill) " class="st0" d="M14.4,5.9C16.1,5,18,4.4,19.9,4c1.1-0.2,1.8-1.3,1.6-2.4c-0.2-1.1-1.3-1.8-2.4-1.6c-2.6,0.5-5.1,1.5-7.4,2.8
			C12.9,3.6,13.9,4.6,14.4,5.9z"/>
		<path  stroke-width="param(outline-width) "  stroke-opacity="param(outline-opacity) "  stroke="param(outline) "  fill-opacity="param(fill-opacity) "  fill="param(fill) " class="st0" d="M33.5,42.1C31.8,43,30,43.7,28.1,44c-1.1,0.2-1.8,1.3-1.6,2.4c0.2,0.9,1,1.6,2,1.6c0.1,0,0.3,0,0.4,0
			c2.6-0.5,5.1-1.5,7.4-2.8C35,44.5,34,43.4,33.5,42.1z"/>
		<path  stroke-width="param(outline-width) "  stroke-opacity="param(outline-opacity) "  stroke="param(outline) "  fill-opacity="param(fill-opacity) "  fill="param(fill) " class="st0" d="M46.4,26.5c-1.1-0.2-2.1,0.5-2.4,1.6c-0.4,1.9-1,3.7-1.9,5.4c1.3,0.6,2.4,1.6,3.1,2.8
			c1.3-2.3,2.3-4.8,2.8-7.4C48.2,27.8,47.5,26.8,46.4,26.5C46.4,26.5,46.4,26.5,46.4,26.5z"/>
		<path  stroke-width="param(outline-width) "  stroke-opacity="param(outline-opacity) "  stroke="param(outline) "  fill-opacity="param(fill-opacity) "  fill="param(fill) " class="st0" d="M6.9,12.8c0.5,0.2,1,0.3,1.6,0.3c2.5,0,4.5-2,4.5-4.6c0-2-1.3-3.8-3.3-4.4C9.3,4,8.9,4,8.4,4
			C5.9,4,3.9,6,3.9,8.5C3.9,10.4,5.1,12.1,6.9,12.8z"/>
		<path  stroke-width="param(outline-width) "  stroke-opacity="param(outline-opacity) "  stroke="param(outline) "  fill-opacity="param(fill-opacity) "  fill="param(fill) " class="st0" d="M34.9,8.5c0,2.5,2,4.6,4.6,4.6c0.6,0,1.1-0.1,1.6-0.3c1.4-0.5,2.4-1.7,2.8-3.1C43.9,9.3,44,8.9,44,8.5
			C44,6,42,4,39.5,4c0,0,0,0,0,0c-0.4,0-0.8,0-1.2,0.2c-1.4,0.4-2.5,1.4-3.1,2.8C35,7.4,34.9,8,34.9,8.5z"/>
		<path  stroke-width="param(outline-width) "  stroke-opacity="param(outline-opacity) "  stroke="param(outline) "  fill-opacity="param(fill-opacity) "  fill="param(fill) " class="st0" d="M13.1,39.5c0-2.5-2-4.6-4.6-4.6c-0.6,0-1.1,0.1-1.6,0.3c-1.4,0.5-2.4,1.6-2.8,3.1C4,38.7,4,39.1,4,39.5
			C4,42,6,44,8.5,44c0,0,0,0,0,0c0.4,0,0.8-0.1,1.2-0.2C11.7,43.3,13.1,41.5,13.1,39.5z"/>
		<path  stroke-width="param(outline-width) "  stroke-opacity="param(outline-opacity) "  stroke="param(outline) "  fill-opacity="param(fill-opacity) "  fill="param(fill) " class="st0" d="M41.1,35.2c-0.5-0.2-1.1-0.3-1.6-0.3c-2.5,0-4.6,2-4.6,4.6c0,0.6,0.1,1.1,0.3,1.6c0.5,1.4,1.7,2.4,3.1,2.8
			c0.4,0.1,0.8,0.2,1.2,0.2c2.5,0,4.5-2,4.5-4.5c0,0,0,0,0,0c0-0.4,0-0.8-0.2-1.2C43.5,36.9,42.5,35.8,41.1,35.2z"/>
		<path  stroke-width="param(outline-width) "  stroke-opacity="param(outline-opacity) "  stroke="param(outline) "  fill-opacity="param(fill-opacity) "  fill="param(fill) " class="st0" d="M24,32c-4.2,0-7.7-3.3-8-7.5l0.8,1c0.5,0.6,1.5,0.7,2.1,0.1c0.6-0.5,0.7-1.5,0.1-2.1l-3.5-4
			c-0.5-0.6-1.5-0.7-2.1-0.1c0,0-0.1,0.1-0.1,0.1l-3.5,4c-0.5,0.6-0.5,1.6,0.1,2.1c0.6,0.5,1.6,0.5,2.1-0.1l0.9-1
			C13.2,30.3,18.1,35,24,35c0.8,0,1.5-0.7,1.5-1.5C25.5,32.7,24.8,32,24,32z"/>
		<path  stroke-width="param(outline-width) "  stroke-opacity="param(outline-opacity) "  stroke="param(outline) "  fill-opacity="param(fill-opacity) "  fill="param(fill) " class="st0" d="M24,16c4.2,0,7.7,3.3,8,7.5l-0.9-1c-0.5-0.6-1.5-0.7-2.1-0.1s-0.7,1.5-0.1,2.1c0,0,0,0,0,0l3.5,4
			c0.5,0.6,1.5,0.7,2.1,0.1c0,0,0.1-0.1,0.1-0.1l3.5-4c0.5-0.6,0.5-1.6-0.1-2.1c-0.6-0.5-1.6-0.5-2.1,0.1l-0.9,1
			C34.7,17.7,29.9,13,24,13c-0.8,0-1.5,0.7-1.5,1.5S23.1,16,24,16C24,16,24,16,24,16z"/>
	</g>
</g>
</svg>
