<?xml version="1.0" encoding="utf-8"?>
<!-- Generator: Adobe Illustrator 25.0.0, SVG Export Plug-In . SVG Version: 6.00 Build 0)  -->
<svg version="1.1" id="Layer_1" xmlns="http://www.w3.org/2000/svg" xmlns:xlink="http://www.w3.org/1999/xlink" x="0px" y="0px"
	 viewBox="0 0 48 48" style="enable-background:new 0 0 48 48;" xml:space="preserve">
<style type="text/css">
	.st0{fill:#011E41;}
</style>
<g id="Layer_2_1_">
	<g id="Icons">
		<path  stroke-width="param(outline-width) "  stroke-opacity="param(outline-opacity) "  stroke="param(outline) "  fill-opacity="param(fill-opacity) "  fill="param(fill) " class="st0" d="M25.2,7.6c2,1,4.4,0.2,5.4-1.8s0.2-4.4-1.8-5.4c-2-1-4.4-0.2-5.4,1.8v0C22.4,4.2,23.2,6.6,25.2,7.6z"/>
		<circle class="st0" cx="42.5" cy="20.5" r="4.5"/>
		<circle class="st0" cx="40" cy="34" r="2"/>
		<circle class="st0" cx="44.5" cy="38.5" r="1.5"/>
		<path  stroke-width="param(outline-width) "  stroke-opacity="param(outline-opacity) "  stroke="param(outline) "  fill-opacity="param(fill-opacity) "  fill="param(fill) " class="st0" d="M45,42h-6.1c-0.2-1.7-1.7-3-3.4-3h-4.3c-1.1-1.9-3-3-5.2-3h-1.7c1.5-4.4,0.3-9.2-2.9-12.4l0.8-1.7l4.7,2.5
			c-0.1,1.1,0.7,2,1.8,2.2c0.5,0.1,1.1-0.1,1.5-0.5l7.3,3.8c0.2,0.1,0.5,0.2,0.7,0.2h7.7c0.8,0,1.5-0.7,1.5-1.5S46.7,27,45.8,27
			h-7.3l-7.1-3.7c1.4-5.6-1.3-11.3-6.8-14.1c0,0-0.1-0.1-0.1-0.1l-1.4-0.7c-2-1-4.4-0.2-5.4,1.8L13,19.5c0,0-0.1,0.1-0.1,0.1
			L4.5,36.2c-3.2,0.8-5.2,4.1-4.3,7.3C0.9,46.1,3.3,48,6,48h39c1.7,0,3-1.3,3-3C48,43.3,46.7,42,45,42C45,42,45,42,45,42z M9.1,36
			l6-11.9c0.1,0,0.2,0.1,0.2,0.1c4.7,2,6.8,6.9,4.9,11.2c-0.1,0.2-0.1,0.3-0.1,0.5H9.1z M27.7,21.4l-4.2-2.2l2.1-4.2
			C27.2,16.7,28,19,27.7,21.4z"/>
	</g>
</g>
</svg>
