<?xml version="1.0" encoding="utf-8"?>
<!-- Generator: Adobe Illustrator 25.0.0, SVG Export Plug-In . SVG Version: 6.00 Build 0)  -->
<svg version="1.1" id="Layer_1" xmlns="http://www.w3.org/2000/svg" xmlns:xlink="http://www.w3.org/1999/xlink" x="0px" y="0px"
	 viewBox="0 0 48 48" style="enable-background:new 0 0 48 48;" xml:space="preserve">
<style type="text/css">
	.st0{fill:#011E41;}
</style>
<g id="Layer_2_1_">
	<g id="Icons">
		<path  stroke-width="param(outline-width) "  stroke-opacity="param(outline-opacity) "  stroke="param(outline) "  fill-opacity="param(fill-opacity) "  fill="param(fill) " class="st0" d="M45,5c-1.7,0-3,1.3-3,3v16l-4.8,4.8c-0.3,0.5-0.8,0.7-1.3,0.4c-0.1-0.1-0.2-0.1-0.3-0.2
			c-0.5-0.5-0.5-1.3,0-1.7l4.1-4.1c0.8-0.8,0.8-2.2,0-3c-0.8-0.8-2.1-0.8-2.9,0c0,0,0,0,0,0l-7.9,8c-1.3,1.3-1.9,3.1-1.8,4.9h0v15h9
			v-9.7c0.6-0.3,1.2-0.7,1.7-1.2l9.5-9.6c0.6-0.6,0.9-1.3,0.9-2.1V8C48,6.3,46.7,5,45,5z"/>
		<path  stroke-width="param(outline-width) "  stroke-opacity="param(outline-opacity) "  stroke="param(outline) "  fill-opacity="param(fill-opacity) "  fill="param(fill) " class="st0" d="M19.2,28.1l-7.9-8c-0.8-0.8-2.1-0.8-2.9,0c0,0,0,0,0,0c-0.8,0.8-0.8,2.2,0,3l4.1,4.1c0.5,0.5,0.5,1.3,0,1.7
			c-0.5,0.5-1.2,0.5-1.7,0c0,0,0,0,0,0L6,24V8c0-1.7-1.3-3-3-3C1.3,5,0,6.3,0,8v17.4c0,0.8,0.3,1.6,0.9,2.1l9.5,9.6
			c0.5,0.5,1,0.9,1.7,1.2V48h9V33h0C21.1,31.2,20.4,29.4,19.2,28.1z"/>
		<circle class="st0" cx="24" cy="9" r="9"/>
	</g>
</g>
</svg>
