<?xml version="1.0" encoding="utf-8"?>
<!-- Generator: Adobe Illustrator 25.0.0, SVG Export Plug-In . SVG Version: 6.00 Build 0)  -->
<svg version="1.1" id="Layer_1" xmlns="http://www.w3.org/2000/svg" xmlns:xlink="http://www.w3.org/1999/xlink" x="0px" y="0px"
	 viewBox="0 0 48 48" style="enable-background:new 0 0 48 48;" xml:space="preserve">
<style type="text/css">
	.st0{fill:#011E41;}
</style>
<g id="Layer_2_1_">
	<g id="Icons">
		<path  stroke-width="param(outline-width) "  stroke-opacity="param(outline-opacity) "  stroke="param(outline) "  fill-opacity="param(fill-opacity) "  fill="param(fill) " class="st0" d="M26.6,28.7l-6.2,1.7c-0.2,0.1-0.4,0.1-0.6,0.1c-0.7,0-1.4-0.3-1.8-0.9c-0.1-0.2-0.2-0.4-0.3-0.6H6
			c-0.6,0-1-0.4-1-1s0.4-1,1-1h11.8l1.1-4H6c-0.6,0-1-0.4-1-1s0.4-1,1-1h13.5c0.1-0.3,0.3-0.6,0.6-0.9l3.1-3.1H6c-0.6,0-1-0.4-1-1
			c0-0.6,0.4-1,1-1h19.2l4.8-4.8V7c0-0.5-0.4-1-0.9-1H0.9C0.4,6,0,6.5,0,7v40c0,0.5,0.4,1,0.9,1H21v-6c0-1.7,1.3-3,3-3h6V25.8
			l-2.1,2.1C27.5,28.3,27.1,28.6,26.6,28.7z M13,35H6c-0.6,0-1-0.4-1-1s0.4-1,1-1h7c0.6,0,1,0.4,1,1S13.6,35,13,35z"/>
		<path  stroke-width="param(outline-width) "  stroke-opacity="param(outline-opacity) "  stroke="param(outline) "  fill-opacity="param(fill-opacity) "  fill="param(fill) " class="st0" d="M24,41c-0.6,0-1,0.4-1,1v6l7-7H24z"/>
		<path  stroke-width="param(outline-width) "  stroke-opacity="param(outline-opacity) "  stroke="param(outline) "  fill-opacity="param(fill-opacity) "  fill="param(fill) " class="st0" d="M47.1,1.2C46.5,0.4,45.5,0,44.5,0c-0.9,0-1.8,0.4-2.5,1l-12,12l-3,3L26.1,17l-4.6,4.6
			c-0.1,0.1-0.2,0.3-0.3,0.4l-1.5,5.4l-0.2,0.8c0,0.1,0,0.3,0.2,0.3c0,0,0,0,0.1,0c0,0,0,0,0.1,0l0,0l6.1-1.7c0.2,0,0.3-0.1,0.4-0.3
			L30,23L46.9,6.1C48.2,4.8,48.4,2.6,47.1,1.2z"/>
	</g>
</g>
</svg>
