<?xml version="1.0" encoding="utf-8"?>
<!-- Generator: Adobe Illustrator 25.0.0, SVG Export Plug-In . SVG Version: 6.00 Build 0)  -->
<svg version="1.1" id="Layer_1" xmlns="http://www.w3.org/2000/svg" xmlns:xlink="http://www.w3.org/1999/xlink" x="0px" y="0px"
	 viewBox="0 0 32 48" style="enable-background:new 0 0 32 48;" xml:space="preserve">
<style type="text/css">
	.st0{fill:#011E41;}
</style>
<g id="Layer_2_1_">
	<g id="Icons">
		<path  stroke-width="param(outline-width) "  stroke-opacity="param(outline-opacity) "  stroke="param(outline) "  fill-opacity="param(fill-opacity) "  fill="param(fill) " class="st0" d="M30,6H2C0.9,6,0,6.9,0,8v22h32V8C32,6.9,31.1,6,30,6z M11,13c1.1,0,2,0.9,2,2s-0.9,2-2,2s-2-0.9-2-2
			C9,13.9,9.9,13,11,13z M29,24.5c0,0.8-0.7,1.5-1.5,1.5S26,25.3,26,24.5V23H6v1.5C6,25.3,5.3,26,4.5,26S3,25.3,3,24.5v-13
			C3,10.7,3.7,10,4.5,10S6,10.7,6,11.5V20h23V24.5z M29,15.1c0,1-0.8,1.9-1.9,1.9c0,0,0,0,0,0h-9.3c-1,0-1.9-0.8-1.9-1.9
			c0,0,0,0,0,0v-0.3c0-1,0.8-1.9,1.9-1.9c0,0,0,0,0,0h9.3c1,0,1.9,0.8,1.9,1.9c0,0,0,0,0,0V15.1z"/>
		<path  stroke-width="param(outline-width) "  stroke-opacity="param(outline-opacity) "  stroke="param(outline) "  fill-opacity="param(fill-opacity) "  fill="param(fill) " class="st0" d="M6,4h20c1.1,0,2-0.9,2-2s-0.9-2-2-2H6C4.9,0,4,0.9,4,2S4.9,4,6,4z"/>
		<path  stroke-width="param(outline-width) "  stroke-opacity="param(outline-opacity) "  stroke="param(outline) "  fill-opacity="param(fill-opacity) "  fill="param(fill) " class="st0" d="M0,48h12V38c0-1.1,0.9-2,2-2h4c1.1,0,2,0.9,2,2v10h12V32H0V48z"/>
	</g>
</g>
</svg>
