<?xml version="1.0" encoding="utf-8"?>
<!-- Generator: Adobe Illustrator 25.0.0, SVG Export Plug-In . SVG Version: 6.00 Build 0)  -->
<svg version="1.1" id="Layer_1" xmlns="http://www.w3.org/2000/svg" xmlns:xlink="http://www.w3.org/1999/xlink" x="0px" y="0px"
	 viewBox="0 0 48 44" style="enable-background:new 0 0 48 44;" xml:space="preserve">
<style type="text/css">
	.st0{fill:#011E41;}
</style>
<g id="Layer_2_1_">
	<g id="Icons">
		<path  stroke-width="param(outline-width) "  stroke-opacity="param(outline-opacity) "  stroke="param(outline) "  fill-opacity="param(fill-opacity) "  fill="param(fill) " class="st0" d="M2,22h8c1.1,0,2,0.9,2,2v18c0,1.1-0.9,2-2,2H2c-1.1,0-2-0.9-2-2c0,0,0,0,0,0V24C0,22.9,0.9,22,2,22
			C2,22,2,22,2,22z"/>
		<path  stroke-width="param(outline-width) "  stroke-opacity="param(outline-opacity) "  stroke="param(outline) "  fill-opacity="param(fill-opacity) "  fill="param(fill) " class="st0" d="M20.1,11H28c1.1,0,2,0.9,2,2c0,0,0,0,0,0v29c0,1.1-0.9,2-2,2c0,0,0,0,0,0h-7.9c-1.1,0-2-0.9-2-2V13
			C18.1,11.9,19,11,20.1,11L20.1,11z"/>
		<path  stroke-width="param(outline-width) "  stroke-opacity="param(outline-opacity) "  stroke="param(outline) "  fill-opacity="param(fill-opacity) "  fill="param(fill) " class="st0" d="M38,0h8c1.1,0,2,0.9,2,2v40c0,1.1-0.9,2-2,2l0,0h-8c-1.1,0-2-0.9-2-2V2C36,0.9,36.9,0,38,0C38,0,38,0,38,0z"
			/>
	</g>
</g>
</svg>
