<?xml version="1.0" encoding="utf-8"?>
<!-- Generator: Adobe Illustrator 25.0.0, SVG Export Plug-In . SVG Version: 6.00 Build 0)  -->
<svg version="1.1" id="Layer_1" xmlns="http://www.w3.org/2000/svg" xmlns:xlink="http://www.w3.org/1999/xlink" x="0px" y="0px"
	 viewBox="0 0 48 22" style="enable-background:new 0 0 48 22;" xml:space="preserve">
<style type="text/css">
	.st0{fill:#011E41;}
</style>
<g id="Layer_2_1_">
	<g id="Icons">
		<path  stroke-width="param(outline-width) "  stroke-opacity="param(outline-opacity) "  stroke="param(outline) "  fill-opacity="param(fill-opacity) "  fill="param(fill) " class="st0" d="M47.5,10c-5.5-4.1-12.1-6.5-19-6.9L24,0.4c-1.6-0.9-3.6-0.4-4.5,1.2C19.1,2.3,18.9,3,19,3.7
			c-3.6,0.7-7,2.1-10.2,3.9L3.1,6.1C1.8,5.7,0.4,6.5,0.1,7.9c-0.4,1.3,0.4,2.7,1.8,3.1L2.2,11l-0.3,0.1c-1.3,0.4-2.1,1.7-1.8,3.1
			c0.4,1.3,1.7,2.1,3.1,1.8l5.7-1.5c3.2,1.8,6.7,3.1,10.3,3.9c-0.5,1.5,0.4,3.1,1.9,3.6c1,0.3,2.1,0,2.9-0.7l2.2-2.1h0.2
			c7.6,0,15.1-2.4,21.2-7c0.6-0.4,0.6-1.2,0.2-1.8C47.7,10.1,47.6,10.1,47.5,10z M37,11c-1.1,0-2-0.9-2-2s0.9-2,2-2s2,0.9,2,2
			C39,10.1,38.1,11,37,11z"/>
	</g>
</g>
</svg>
