<?xml version="1.0" encoding="utf-8"?>
<!-- Generator: Adobe Illustrator 25.0.0, SVG Export Plug-In . SVG Version: 6.00 Build 0)  -->
<svg version="1.1" id="Layer_1" xmlns="http://www.w3.org/2000/svg" xmlns:xlink="http://www.w3.org/1999/xlink" x="0px" y="0px"
	 viewBox="0 0 48 42.9" style="enable-background:new 0 0 48 42.9;" xml:space="preserve">
<style type="text/css">
	.st0{fill:#011E41;}
</style>
<g id="Layer_2_1_">
	<g id="Expanded_Icons">
		<path  stroke-width="param(outline-width) "  stroke-opacity="param(outline-opacity) "  stroke="param(outline) "  fill-opacity="param(fill-opacity) "  fill="param(fill) " class="st0" d="M46,12.9h-6.5L32.6,4c-3.4-4.5-9.9-5.3-14.3-1.8C17.6,2.7,17,3.3,16.4,4l-6.9,8.9H2c-1.1,0-2,0.9-2,2
			s0.9,2,2,2h6.2C9.3,24,14.9,29.6,22,30.7v12.2h6V30.5c6.7-1.5,11.8-6.9,12.8-13.6H46c1.1,0,2-0.9,2-2S47.1,12.9,46,12.9z M28,27.1
			v-5.2c0-1.7-1.3-3-3-3s-3,1.3-3,3c0,0,0,0,0,0v5.2c-2.9-1.7-3.9-5.3-2.2-8.2c1.7-2.9,5.3-3.9,8.2-2.2c2.9,1.7,3.9,5.3,2.2,8.2
			C29.7,25.8,28.9,26.5,28,27.1z"/>
	</g>
</g>
</svg>
