<?xml version="1.0" encoding="utf-8"?>
<!-- Generator: Adobe Illustrator 25.0.0, SVG Export Plug-In . SVG Version: 6.00 Build 0)  -->
<svg version="1.1" id="Layer_1" xmlns="http://www.w3.org/2000/svg" xmlns:xlink="http://www.w3.org/1999/xlink" x="0px" y="0px"
	 viewBox="0 0 48 48" style="enable-background:new 0 0 48 48;" xml:space="preserve">
<style type="text/css">
	.st0{fill:#011E41;}
</style>
<g id="Layer_2_1_">
	<g id="Icons">
		<path  stroke-width="param(outline-width) "  stroke-opacity="param(outline-opacity) "  stroke="param(outline) "  fill-opacity="param(fill-opacity) "  fill="param(fill) " class="st0" d="M46,20H2c-1.1,0-1.9,0.8-2,1.8v24.4C0.1,47.2,0.9,48,2,48h34v-8c0-2.2,1.8-4,4-4c0,0,0,0,0,0h8V21.8
			C47.9,20.8,47.1,20,46,20z M5.5,28C4.1,28,3,26.9,3,25.5S4.1,23,5.5,23S8,24.1,8,25.5C8,26.9,6.9,28,5.5,28z"/>
		<path  stroke-width="param(outline-width) "  stroke-opacity="param(outline-opacity) "  stroke="param(outline) "  fill-opacity="param(fill-opacity) "  fill="param(fill) " class="st0" d="M34.5,12c2.4,0,4.5-1.9,4.5-4.3c0-2.2-3.7-6.8-4.4-7.6C34.6,0,34.5,0,34.4,0c0,0,0,0,0,0
			C33.7,0.9,30,5.5,30,7.7C30,10.1,32.1,12,34.5,12z"/>
		<path  stroke-width="param(outline-width) "  stroke-opacity="param(outline-opacity) "  stroke="param(outline) "  fill-opacity="param(fill-opacity) "  fill="param(fill) " class="st0" d="M21.5,12c2.4,0,4.5-1.9,4.5-4.3c0-2.2-3.7-6.8-4.4-7.6C21.6,0,21.5,0,21.4,0c0,0,0,0,0,0
			C20.7,0.9,17,5.5,17,7.7C17,10.1,19.1,12,21.5,12z"/>
		<path  stroke-width="param(outline-width) "  stroke-opacity="param(outline-opacity) "  stroke="param(outline) "  fill-opacity="param(fill-opacity) "  fill="param(fill) " class="st0" d="M38,40v8l10-10h-8C38.9,38,38,38.9,38,40z"/>
	</g>
</g>
</svg>
