<?xml version="1.0" encoding="utf-8"?>
<!-- Generator: Adobe Illustrator 25.0.0, SVG Export Plug-In . SVG Version: 6.00 Build 0)  -->
<svg version="1.1" id="Layer_1" xmlns="http://www.w3.org/2000/svg" xmlns:xlink="http://www.w3.org/1999/xlink" x="0px" y="0px"
	 viewBox="0 0 32 47.9" style="enable-background:new 0 0 32 47.9;" xml:space="preserve">
<style type="text/css">
	.st0{fill:#011E41;}
</style>
<g id="Layer_2_1_">
	<g id="Icons">
		<path  stroke-width="param(outline-width) "  stroke-opacity="param(outline-opacity) "  stroke="param(outline) "  fill-opacity="param(fill-opacity) "  fill="param(fill) " class="st0" d="M16,0C7.2,0,0,7.6,0,17C0,25,11.8,42.6,15.1,47.4c0.3,0.5,0.9,0.6,1.4,0.3c0.1-0.1,0.2-0.2,0.3-0.3
			C20.2,42.6,32,25,32,17C32,7.6,24.8,0,16,0z M16,23.9c-4.4,0-8-3.6-8-8s3.6-8,8-8s8,3.6,8,8C24,20.3,20.4,23.9,16,23.9
			C16,23.9,16,23.9,16,23.9z"/>
	</g>
</g>
</svg>
