<?xml version="1.0" encoding="utf-8"?>
<!-- Generator: Adobe Illustrator 25.0.0, SVG Export Plug-In . SVG Version: 6.00 Build 0)  -->
<svg version="1.1" id="Layer_1" xmlns="http://www.w3.org/2000/svg" xmlns:xlink="http://www.w3.org/1999/xlink" x="0px" y="0px"
	 viewBox="0 0 48 43" style="enable-background:new 0 0 48 43;" xml:space="preserve">
<style type="text/css">
	.st0{fill:#011E41;}
</style>
<g id="Layer_2_1_">
	<g id="Expanded_Icons">
		<path  stroke-width="param(outline-width) "  stroke-opacity="param(outline-opacity) "  stroke="param(outline) "  fill-opacity="param(fill-opacity) "  fill="param(fill) " class="st0" d="M19,26.6V40c0,1.7-1.3,3-3,3c0,0,0,0,0,0H3c-1.7,0-3-1.3-3-3c0,0,0,0,0,0V20.6C0,11.4,7.4,4,16.6,4
			c0,0,0,0,0,0C17.9,4,19,5.1,19,6.4c0,0,0,0,0,0v8.8l-5.5,5.6l-2.6-2.6c-1.6-1.6-4.1-1.6-5.7,0c-1.6,1.6-1.6,4.1,0,5.7l2.7,2.7
			l-1.7,1.7c-1.6,1.6-1.6,4.1,0,5.7s4.1,1.6,5.7,0c0,0,0,0,0,0L19,26.6z M31.4,4C30.1,4,29,5.1,29,6.4c0,0,0,0,0,0v8.9l5.5,5.5
			l2.7-2.7c1.6-1.6,4.1-1.6,5.7,0c1.6,1.6,1.6,4.1,0,5.7c0,0,0,0,0,0l-2.7,2.7l1.7,1.7c1.6,1.6,1.6,4.1,0,5.7
			c-1.6,1.6-4.1,1.6-5.7,0c0,0,0,0,0,0L29,26.7V40c0,1.7,1.3,3,3,3c0,0,0,0,0,0h13c1.7,0,3-1.3,3-3c0,0,0,0,0,0V20.6
			C48,11.4,40.6,4,31.4,4C31.4,4,31.4,4,31.4,4z M41.4,19.6c-0.8-0.8-2-0.8-2.8,0c0,0,0,0,0,0l-4.1,4.1L26,15.2V2c0-1.1-0.9-2-2-2
			s-2,0.9-2,2v13.1l-8.5,8.6l-4.1-4.1c-0.8-0.8-2-0.8-2.8,0s-0.8,2,0,2.8l4.1,4.1l-3.1,3.1c-0.8,0.8-0.8,2,0,2.8s2,0.8,2.8,0
			l13.5-13.6l13.6,13.6c0.8,0.8,2,0.8,2.8,0c0.8-0.8,0.8-2,0-2.8l-3.1-3.1l4.1-4.1C42.2,21.6,42.2,20.4,41.4,19.6
			C41.4,19.6,41.4,19.6,41.4,19.6z"/>
	</g>
</g>
</svg>
