<?xml version="1.0" encoding="utf-8"?>
<!-- Generator: Adobe Illustrator 25.0.0, SVG Export Plug-In . SVG Version: 6.00 Build 0)  -->
<svg version="1.1" id="Layer_1" xmlns="http://www.w3.org/2000/svg" xmlns:xlink="http://www.w3.org/1999/xlink" x="0px" y="0px"
	 viewBox="0 0 48 48" style="enable-background:new 0 0 48 48;" xml:space="preserve">
<style type="text/css">
	.st0{fill:#011E41;}
</style>
<g id="Layer_2_1_">
	<g id="Icons">
		<path  stroke-width="param(outline-width) "  stroke-opacity="param(outline-opacity) "  stroke="param(outline) "  fill-opacity="param(fill-opacity) "  fill="param(fill) " class="st0" d="M1,42h46c0.6,0,1,0.4,1,1v4c0,0.6-0.4,1-1,1H1c-0.6,0-1-0.4-1-1v-4C0,42.4,0.4,42,1,42z"/>
		<path  stroke-width="param(outline-width) "  stroke-opacity="param(outline-opacity) "  stroke="param(outline) "  fill-opacity="param(fill-opacity) "  fill="param(fill) " class="st0" d="M5.4,17.6L5.4,17.6L5.4,17.6c0.2,0.1,0.3,0.3,0.5,0.3c0,0,0,0,0,0C6.1,18,6.3,18,6.5,18l0,0l0,0
			c0.2,0,0.4,0,0.5-0.1c0,0,0,0,0,0c0.2-0.1,0.3-0.2,0.5-0.3l0,0l0,0l5-5c0.6-0.6,0.6-1.5,0-2.1s-1.5-0.6-2.1,0L8,12.9V1.5
			C8,0.7,7.3,0,6.5,0S5,0.7,5,1.5v11.4l-2.4-2.4C2,9.9,1,9.9,0.4,10.4s-0.6,1.5,0,2.1L5.4,17.6z"/>
		<path  stroke-width="param(outline-width) "  stroke-opacity="param(outline-opacity) "  stroke="param(outline) "  fill-opacity="param(fill-opacity) "  fill="param(fill) " class="st0" d="M12.3,21.7L10,39h18v-9.7c0-0.2,0.1-0.3,0.3-0.3c0.1,0,0.2,0.1,0.2,0.1L34,39h13l-2.3-17.3
			c-0.1-0.4-0.3-0.8-0.6-1L29.5,9.3c-0.6-0.4-1.4-0.4-2,0L12.9,20.7C12.6,20.9,12.4,21.3,12.3,21.7z"/>
	</g>
</g>
</svg>
