<?xml version="1.0" encoding="utf-8"?>
<!-- Generator: Adobe Illustrator 25.0.0, SVG Export Plug-In . SVG Version: 6.00 Build 0)  -->
<svg version="1.1" id="Layer_1" xmlns="http://www.w3.org/2000/svg" xmlns:xlink="http://www.w3.org/1999/xlink" x="0px" y="0px"
	 viewBox="0 0 30 48" style="enable-background:new 0 0 30 48;" xml:space="preserve">
<style type="text/css">
	.st0{fill:#011E41;}
</style>
<path  stroke-width="param(outline-width) "  stroke-opacity="param(outline-opacity) "  stroke="param(outline) "  fill-opacity="param(fill-opacity) "  fill="param(fill) " class="st0" d="M23,25c-3.9,0-7,3.1-7,7c0,3.1,2,5.8,5,6.7v0.8c0,2.5-2,4.5-4.5,4.5S12,42,12,39.5V22.8c4.7-1,8-5,8-9.8V0h-6
	c-1.1,0-2,0.9-2,2s0.9,2,2,2h2v9c0,3.3-2.7,6-6,6s-6-2.7-6-6V4h2c1.1,0,2-0.9,2-2S7.1,0,6,0H0v13c0,4.8,3.3,8.8,8,9.8V40h0
	c0.3,4.7,4.3,8.3,9,8c4.3-0.2,7.7-3.7,8-8h0v-1.3c3.7-1.1,5.8-5,4.7-8.7C28.8,27,26.1,25,23,25z M23,35c-1.7,0-3-1.3-3-3
	c0-1.7,1.3-3,3-3s3,1.3,3,3C26,33.7,24.7,35,23,35z"/>
</svg>
