<?xml version="1.0" encoding="utf-8"?>
<!-- Generator: Adobe Illustrator 25.0.0, SVG Export Plug-In . SVG Version: 6.00 Build 0)  -->
<svg version="1.1" id="Layer_1" xmlns="http://www.w3.org/2000/svg" xmlns:xlink="http://www.w3.org/1999/xlink" x="0px" y="0px"
	 viewBox="0 0 48 48" style="enable-background:new 0 0 48 48;" xml:space="preserve">
<style type="text/css">
	.st0{fill:#011E41;}
</style>
<path  stroke-width="param(outline-width) "  stroke-opacity="param(outline-opacity) "  stroke="param(outline) "  fill-opacity="param(fill-opacity) "  fill="param(fill) " class="st0" d="M22,4h20c0.5,0,1-0.2,1.4-0.6C43.8,3,44,2.5,44,2c0-1.1-0.9-2-2-2H22c-0.5,0-1,0.2-1.4,0.6
	c-0.3,0.3-0.5,0.7-0.6,1.1c0.6,0.7,1.1,1.4,1.5,2.2C21.7,4,21.8,4,22,4z"/>
<path  stroke-width="param(outline-width) "  stroke-opacity="param(outline-opacity) "  stroke="param(outline) "  fill-opacity="param(fill-opacity) "  fill="param(fill) " class="st0" d="M10,5C8.3,5,7,6.3,7,8h6C13,6.3,11.7,5,10,5z"/>
<path  stroke-width="param(outline-width) "  stroke-opacity="param(outline-opacity) "  stroke="param(outline) "  fill-opacity="param(fill-opacity) "  fill="param(fill) " class="st0" d="M46,6H22.4c0.4,1.3,0.6,2.6,0.6,4c0,0.7,0,1.3-0.1,2H25c0.6,0,1,0.4,1,1v8c0,0.6-0.4,1-1,1h-4c-0.6,0-1-0.4-1-1
	v-2.7c-1.1,1.3-2.5,2.4-4,3.2V30h32V8C48,6.9,47.1,6,46,6z M35,21c0,0.6-0.4,1-1,1h-4c-0.6,0-1-0.4-1-1v-8c0-0.6,0.4-1,1-1h4
	c0.6,0,1,0.4,1,1V21z M44,21c0,0.6-0.4,1-1,1h-4c-0.6,0-1-0.4-1-1v-8c0-0.6,0.4-1,1-1h4c0.6,0,1,0.4,1,1V21z"/>
<path  stroke-width="param(outline-width) "  stroke-opacity="param(outline-opacity) "  stroke="param(outline) "  fill-opacity="param(fill-opacity) "  fill="param(fill) " class="st0" d="M16,48h12V38c0-1.1,0.9-2,2-2h4c1.1,0,2,0.9,2,2v10h12V32H16V48z"/>
<path  stroke-width="param(outline-width) "  stroke-opacity="param(outline-opacity) "  stroke="param(outline) "  fill-opacity="param(fill-opacity) "  fill="param(fill) " class="st0" d="M20,10c0-5.5-4.5-10-10-10S0,4.5,0,10s4.5,10,10,10C15.5,20,20,15.5,20,10z M15,14c0,1.1-0.9,2-2,2H7
	c-1.1,0-2-0.9-2-2V8c0-2.8,2.2-5,5-5s5,2.2,5,5V14z"/>
<path  stroke-width="param(outline-width) "  stroke-opacity="param(outline-opacity) "  stroke="param(outline) "  fill-opacity="param(fill-opacity) "  fill="param(fill) " class="st0" d="M9,10h2c0.6,0,1,0.4,1,1v2c0,0.6-0.4,1-1,1H9c-0.6,0-1-0.4-1-1v-2C8,10.4,8.4,10,9,10z"/>
</svg>
