<?xml version="1.0" encoding="utf-8"?>
<!-- Generator: Adobe Illustrator 25.0.0, SVG Export Plug-In . SVG Version: 6.00 Build 0)  -->
<svg version="1.1" id="Layer_1" xmlns="http://www.w3.org/2000/svg" xmlns:xlink="http://www.w3.org/1999/xlink" x="0px" y="0px"
	 viewBox="0 0 48 48" style="enable-background:new 0 0 48 48;" xml:space="preserve">
<style type="text/css">
	.st0{fill:#011E41;}
</style>
<g id="Layer_2_1_">
	<g id="Icons">
		<path  stroke-width="param(outline-width) "  stroke-opacity="param(outline-opacity) "  stroke="param(outline) "  fill-opacity="param(fill-opacity) "  fill="param(fill) " class="st0" d="M20,10c0-5.5-4.5-10-10-10S0,4.5,0,10s4.5,10,10,10C15.5,20,20,15.5,20,10z M9,4c0-0.6,0.4-1,1-1s1,0.4,1,1v8
			c0,0.6-0.4,1-1,1s-1-0.4-1-1V4z M9,16c0-0.6,0.4-1,1-1s1,0.4,1,1c0,0.6-0.4,1-1,1C9.4,17,9,16.6,9,16z"/>
		<path  stroke-width="param(outline-width) "  stroke-opacity="param(outline-opacity) "  stroke="param(outline) "  fill-opacity="param(fill-opacity) "  fill="param(fill) " class="st0" d="M47.1,33.9c-1.2-1.2-3.1-1.2-4.2,0c0,0,0,0,0,0c-2.9,2.9-6.8,4.9-10.9,5.5V26h7c1.7,0,3-1.3,3-3s-1.3-3-3-3
			h-7v-7c1.8-1,3-2.9,3-5c0-3.3-2.7-6-6-6s-6,2.7-6,6c0,2.1,1.2,4,3,5v7h-7c-1.7,0-3,1.3-3,3s1.3,3,3,3h7v13.4
			c-4.1-0.6-7.9-2.5-10.9-5.5c-1.2-1.2-3.1-1.2-4.2,0s-1.2,3.1,0,4.2c4.1,4.1,9.4,6.7,15.2,7.3c0.2,1.6,1.7,2.8,3.4,2.5
			c1.3-0.2,2.3-1.2,2.5-2.5c5.7-0.7,11.1-3.2,15.2-7.3C48.3,37,48.3,35.1,47.1,33.9C47.1,33.9,47.1,33.9,47.1,33.9z M29,10
			c-1.1,0-2-0.9-2-2s0.9-2,2-2s2,0.9,2,2C31,9.1,30.1,10,29,10z"/>
	</g>
</g>
</svg>
