<?xml version="1.0" encoding="utf-8"?>
<!-- Generator: Adobe Illustrator 25.0.0, SVG Export Plug-In . SVG Version: 6.00 Build 0)  -->
<svg version="1.1" id="Layer_1" xmlns="http://www.w3.org/2000/svg" xmlns:xlink="http://www.w3.org/1999/xlink" x="0px" y="0px"
	 viewBox="0 0 32 48" style="enable-background:new 0 0 32 48;" xml:space="preserve">
<style type="text/css">
	.st0{fill:#011E41;}
</style>
<g id="Layer_2_1_">
	<g id="Icons">
		<path  stroke-width="param(outline-width) "  stroke-opacity="param(outline-opacity) "  stroke="param(outline) "  fill-opacity="param(fill-opacity) "  fill="param(fill) " class="st0" d="M30,6h-5c0-1.1-0.9-2-2-2h-3c0-2.2-1.8-4-4-4s-4,1.8-4,4H9C7.9,4,7,4.9,7,6H2C0.9,6,0,7,0,8.1v37.7
			C0,47,0.9,48,2,48h28c1.1,0,2-1,2-2.2V8.1C32,7,31.1,6,30,6z M17,5c0,0.6-0.4,1-1,1c-0.6,0-1-0.4-1-1s0.4-1,1-1
			C16.6,4,17,4.4,17,5z M28,44H4V10h3c0,1.1,0.9,2,2,2h14c1.1,0,2-0.9,2-2h3V44z"/>
		<path  stroke-width="param(outline-width) "  stroke-opacity="param(outline-opacity) "  stroke="param(outline) "  fill-opacity="param(fill-opacity) "  fill="param(fill) " class="st0" d="M16,35.4c-1.3,0-2.3,1-2.3,2.3s1,2.3,2.3,2.3s2.3-1,2.3-2.3l0,0C18.3,36.4,17.2,35.4,16,35.4z"/>
		<path  stroke-width="param(outline-width) "  stroke-opacity="param(outline-opacity) "  stroke="param(outline) "  fill-opacity="param(fill-opacity) "  fill="param(fill) " class="st0" d="M17.2,17c-0.8-0.2-1.7-0.2-2.5,0c-2.4,0.5-4.2,2.3-4.7,4.7c-0.1,0.2-0.1,0.4-0.1,0.6c0,1.1,0.9,2,2,2
			c1,0,1.9-0.8,2-1.8c0,0,0,0,0,0c0.2-0.8,0.8-1.4,1.6-1.6c0.3-0.1,0.6-0.1,0.9,0c0.8,0.2,1.5,0.8,1.6,1.6c0,0.2,0,0.3,0,0.5
			c0,0.1,0,0.3,0,0.4c-0.2,1-1.1,1.7-2.1,1.7c-1.1,0-2,0.9-2,2c0,0,0,0,0,0v4.1c0,1.1,0.9,2,2,2c1.1,0,2-0.9,2-2v-2.4
			c2-0.7,3.6-2.4,4-4.6c0.1-0.4,0.1-0.8,0.1-1.2c0-0.4,0-0.8-0.1-1.3C21.5,19.3,19.6,17.5,17.2,17z"/>
	</g>
</g>
</svg>
