<?xml version="1.0" encoding="utf-8"?>
<!-- Generator: Adobe Illustrator 25.0.0, SVG Export Plug-In . SVG Version: 6.00 Build 0)  -->
<svg version="1.1" id="Layer_1" xmlns="http://www.w3.org/2000/svg" xmlns:xlink="http://www.w3.org/1999/xlink" x="0px" y="0px"
	 viewBox="0 0 42 48" style="enable-background:new 0 0 42 48;" xml:space="preserve">
<style type="text/css">
	.st0{fill:#011E41;}
</style>
<g id="Layer_2_1_">
	<g id="Icons">
		<path  stroke-width="param(outline-width) "  stroke-opacity="param(outline-opacity) "  stroke="param(outline) "  fill-opacity="param(fill-opacity) "  fill="param(fill) " class="st0" d="M39.5,43C33.1,43,28,37.7,28,31.4c0-0.1,0-0.2,0-0.2V8.5l2.7,2.7c1,1,2.6,1,3.5,0s1-2.6,0-3.5c0,0,0,0,0,0
			l-7-7c-1-1-2.6-1-3.5,0c0,0,0,0,0,0l-7,7c-1,1-1,2.6,0,3.5c1,1,2.6,1,3.5,0L23,8.5v17.3c-3.1-2.5-7-3.9-11-3.9H8.5l2.7-2.7
			c1-1,1-2.6,0-3.5c-1-1-2.6-1-3.5,0l-7,7c-1,1-1,2.6,0,3.5c0,0,0,0,0,0l7,7c1,1,2.6,1,3.5,0c1-1,1-2.6,0-3.5L8.5,27H12
			c5.3-0.1,10,3.3,11.5,8.4l0,0c1.7,7.4,8.4,12.6,16,12.6c1.4,0,2.5-1.1,2.5-2.5S40.9,43,39.5,43z"/>
	</g>
</g>
</svg>
