<?xml version="1.0" encoding="utf-8"?>
<!-- Generator: Adobe Illustrator 25.0.0, SVG Export Plug-In . SVG Version: 6.00 Build 0)  -->
<svg version="1.1" id="Layer_1" xmlns="http://www.w3.org/2000/svg" xmlns:xlink="http://www.w3.org/1999/xlink" x="0px" y="0px"
	 viewBox="0 0 48 48" style="enable-background:new 0 0 48 48;" xml:space="preserve">
<style type="text/css">
	.st0{fill:#011E41;}
</style>
<g id="Layer_2_1_">
	<g id="Icons">
		<path  stroke-width="param(outline-width) "  stroke-opacity="param(outline-opacity) "  stroke="param(outline) "  fill-opacity="param(fill-opacity) "  fill="param(fill) " class="st0" d="M24,9c1.7,0,3-1.3,3-3c0,0,0,0,0,0V3c0-1.7-1.3-3-3-3s-3,1.3-3,3v3C21,7.7,22.3,9,24,9C24,9,24,9,24,9z"/>
		<path  stroke-width="param(outline-width) "  stroke-opacity="param(outline-opacity) "  stroke="param(outline) "  fill-opacity="param(fill-opacity) "  fill="param(fill) " class="st0" d="M45.5,43H35l9.5-5.4c1.4-0.8,1.9-2.7,1.1-4.1s-2.7-1.9-4.1-1.1l0,0l-9.2,5.3l15.3-27.2
			c0.8-1.4,0.3-3.3-1.1-4.1s-3.3-0.3-4.1,1.1L27,34.9V20c0-1.7-1.3-3-3-3s-3,1.3-3,3v15.6l-9.5-14.3c-0.9-1.4-2.8-1.7-4.2-0.8
			c-1.4,0.9-1.7,2.8-0.8,4.1l8.2,12.2l-4.1-2.5c-1.4-0.9-3.3-0.4-4.1,1s-0.4,3.3,1,4.1l0,0l5.7,3.4H2.5C1.1,43,0,44.1,0,45.5
			S1.1,48,2.5,48h43c1.4,0,2.5-1.1,2.5-2.5S46.9,43,45.5,43z M23.2,43H17c0-0.7,0.1-1.4,0.3-2.1c0.6-1.9,1.9-3.4,3.7-4.2
			c0.2-0.1,0.4-0.2,0.6-0.2c0.8-0.3,1.6-0.4,2.4-0.4c0.7,0,1.5,0.1,2.2,0.4c0.3,0.1,0.6,0.2,0.8,0.3c1.7,0.8,3,2.2,3.6,4
			c0.3,0.7,0.4,1.5,0.4,2.3H23.2z"/>
	</g>
</g>
</svg>
