<?xml version="1.0" encoding="utf-8"?>
<!-- Generator: Adobe Illustrator 25.0.0, SVG Export Plug-In . SVG Version: 6.00 Build 0)  -->
<svg version="1.1" id="Layer_1" xmlns="http://www.w3.org/2000/svg" xmlns:xlink="http://www.w3.org/1999/xlink" x="0px" y="0px"
	 viewBox="0 0 48 48" style="enable-background:new 0 0 48 48;" xml:space="preserve">
<style type="text/css">
	.st0{fill:#011E41;}
</style>
<g id="Layer_2_1_">
	<g id="Icons">
		<path  stroke-width="param(outline-width) "  stroke-opacity="param(outline-opacity) "  stroke="param(outline) "  fill-opacity="param(fill-opacity) "  fill="param(fill) " class="st0" d="M6,31c1.1,0,2-0.9,2-2v-3h14v3c0,1.1,0.9,2,2,2s2-0.9,2-2v-3h14v3c0,1.1,0.9,2,2,2s2-0.9,2-2v-5
			c0-1.1-0.9-2-2-2H26v-3c0-1.1-0.9-2-2-2s-2,0.9-2,2v3H6c-1.1,0-2,0.9-2,2v5C4,30.1,4.9,31,6,31z"/>
		<circle class="st0" cx="6" cy="42" r="6"/>
		<circle class="st0" cx="42" cy="42" r="6"/>
		<circle class="st0" cx="24" cy="42" r="6"/>
		<circle class="st0" cx="24" cy="6" r="6"/>
	</g>
</g>
</svg>
