<?xml version="1.0" encoding="utf-8"?>
<!-- Generator: Adobe Illustrator 25.0.0, SVG Export Plug-In . SVG Version: 6.00 Build 0)  -->
<svg version="1.1" id="Layer_1" xmlns="http://www.w3.org/2000/svg" xmlns:xlink="http://www.w3.org/1999/xlink" x="0px" y="0px"
	 viewBox="0 0 48 48" style="enable-background:new 0 0 48 48;" xml:space="preserve">
<style type="text/css">
	.st0{fill:#011E41;}
</style>
<g id="Layer_2_1_">
	<g id="Icons">
		<path  stroke-width="param(outline-width) "  stroke-opacity="param(outline-opacity) "  stroke="param(outline) "  fill-opacity="param(fill-opacity) "  fill="param(fill) " class="st0" d="M47,12H32v21c0,4.4-3.6,8-8,8s-8-3.6-8-8V12H1c-0.6,0-1,0.4-1,1v34c0,0.6,0.4,1,1,1h46c0.6,0,1-0.4,1-1V13
			C48,12.4,47.6,12,47,12z"/>
		<path  stroke-width="param(outline-width) "  stroke-opacity="param(outline-opacity) "  stroke="param(outline) "  fill-opacity="param(fill-opacity) "  fill="param(fill) " class="st0" d="M24,37c2.8,0,5-2.2,5-5c0-1.6-0.7-3.1-2-4h0V3c0-1.7-1.3-3-3-3s-3,1.3-3,3v25h0c-2.2,1.6-2.7,4.8-1.1,7
			C20.9,36.3,22.4,37,24,37z"/>
	</g>
</g>
</svg>
