<?xml version="1.0" encoding="utf-8"?>
<!-- Generator: Adobe Illustrator 25.0.0, SVG Export Plug-In . SVG Version: 6.00 Build 0)  -->
<svg version="1.1" id="Layer_1" xmlns="http://www.w3.org/2000/svg" xmlns:xlink="http://www.w3.org/1999/xlink" x="0px" y="0px"
	 viewBox="0 0 36 48" style="enable-background:new 0 0 36 48;" xml:space="preserve">
<style type="text/css">
	.st0{fill:#011E41;}
</style>
<g id="Layer_2_1_">
	<g id="Text">
		<path  stroke-width="param(outline-width) "  stroke-opacity="param(outline-opacity) "  stroke="param(outline) "  fill-opacity="param(fill-opacity) "  fill="param(fill) " class="st0" d="M34.8,28.5L27,13H9L1.1,28.5C-1.1,33.7,0,39.7,4,43.8c2.6,2.7,6.2,4.2,10,4.2h8c3.8,0,7.4-1.5,10-4.2
			C36,39.7,37.1,33.7,34.8,28.5z M24.6,35.4c0.6,0.6,0.6,1.5,0,2.1c0,0,0,0,0,0c-0.6,0.6-1.5,0.6-2.1,0c0,0,0,0,0,0L18,33.1
			l-4.4,4.4c-0.6,0.6-1.5,0.6-2.1,0c0,0,0,0,0,0c-0.6-0.6-0.6-1.5,0-2.1c0,0,0,0,0,0l4.4-4.4l-4.4-4.4c-0.6-0.6-0.6-1.5,0-2.1
			s1.5-0.6,2.1,0l0,0l4.4,4.4l4.4-4.4c0.6-0.6,1.5-0.6,2.1,0s0.6,1.5,0,2.1L20.1,31L24.6,35.4z"/>
		<path  stroke-width="param(outline-width) "  stroke-opacity="param(outline-opacity) "  stroke="param(outline) "  fill-opacity="param(fill-opacity) "  fill="param(fill) " class="st0" d="M9,11h8l-1.6-7.4c-0.2-0.9-1-1.6-2-1.6H8C7.4,2,7,2.4,7,3c0,0.1,0,0.1,0,0.2L9,11z"/>
		<path  stroke-width="param(outline-width) "  stroke-opacity="param(outline-opacity) "  stroke="param(outline) "  fill-opacity="param(fill-opacity) "  fill="param(fill) " class="st0" d="M23,11h4l2-9.8c0.1-0.5-0.3-1.1-0.8-1.2C28.1,0,28,0,28,0h-3c-1.1,0-2,0.9-2,2c0-1.1-0.9-2-2-2h-3
			c-0.6,0-1,0.4-1,1c0,0.1,0,0.1,0,0.2l2,9.8H23z"/>
	</g>
</g>
</svg>
