<?xml version="1.0" encoding="utf-8"?>
<!-- Generator: Adobe Illustrator 25.0.0, SVG Export Plug-In . SVG Version: 6.00 Build 0)  -->
<svg version="1.1" id="Layer_1" xmlns="http://www.w3.org/2000/svg" xmlns:xlink="http://www.w3.org/1999/xlink" x="0px" y="0px"
	 viewBox="0 0 48 48" style="enable-background:new 0 0 48 48;" xml:space="preserve">
<style type="text/css">
	.st0{fill:#011E41;}
</style>
<g id="Layer_2_1_">
	<g id="Icons">
		<path  stroke-width="param(outline-width) "  stroke-opacity="param(outline-opacity) "  stroke="param(outline) "  fill-opacity="param(fill-opacity) "  fill="param(fill) " class="st0" d="M7.9,33.1l14,14c1.2,1.2,3.1,1.2,4.2,0c0,0,0,0,0,0l14-14c1.2-1.2,1.2-3.1,0-4.2s-3.1-1.2-4.2,0L27,37.8V12
			c0-1.7-1.3-3-3-3s-3,1.3-3,3v25.8l-8.9-8.9c-1.2-1.2-3.1-1.2-4.2,0S6.7,31.9,7.9,33.1z"/>
		<path  stroke-width="param(outline-width) "  stroke-opacity="param(outline-opacity) "  stroke="param(outline) "  fill-opacity="param(fill-opacity) "  fill="param(fill) " class="st0" d="M45.8,0H2.2C0.9,0.1-0.1,1.2,0,2.5v9c-0.1,1.3,0.9,2.4,2.2,2.5H18v-2c0-3.3,2.7-6,6-6s6,2.7,6,6v2h15.8
			c1.3-0.1,2.3-1.2,2.2-2.5v-9C48.1,1.2,47.1,0.1,45.8,0z M36,9c-1.1,0-2-0.9-2-2s0.9-2,2-2s2,0.9,2,2C38,8.1,37.1,9,36,9z M43,9
			c-1.1,0-2-0.9-2-2s0.9-2,2-2s2,0.9,2,2C45,8.1,44.1,9,43,9z"/>
	</g>
</g>
</svg>
