<?xml version="1.0" encoding="utf-8"?>
<!-- Generator: Adobe Illustrator 25.0.0, SVG Export Plug-In . SVG Version: 6.00 Build 0)  -->
<svg version="1.1" id="Layer_1" xmlns="http://www.w3.org/2000/svg" xmlns:xlink="http://www.w3.org/1999/xlink" x="0px" y="0px"
	 viewBox="0 0 48 48" style="enable-background:new 0 0 48 48;" xml:space="preserve">
<style type="text/css">
	.st0{fill:#011E41;}
</style>
<g id="Layer_2_1_">
	<g id="Icons">
		<path  stroke-width="param(outline-width) "  stroke-opacity="param(outline-opacity) "  stroke="param(outline) "  fill-opacity="param(fill-opacity) "  fill="param(fill) " class="st0" d="M7,6.5C7,9,9,11,11.5,11S16,9,16,6.5c0,0,0,0,0,0c0-0.5-0.1-1-0.3-1.5H7.3C7.1,5.5,7,6,7,6.5z"/>
		<path  stroke-width="param(outline-width) "  stroke-opacity="param(outline-opacity) "  stroke="param(outline) "  fill-opacity="param(fill-opacity) "  fill="param(fill) " class="st0" d="M18,15.1l-1.1,1.1l-1.3,1.3L7.1,26H17v-7.3c3.2,3,3.4,8.1,0.4,11.4c-0.1,0.1-0.2,0.2-0.4,0.4V29H6v1.5
			c-3.3-3-3.5-8.1-0.4-11.4c0.1-0.1,0.3-0.3,0.4-0.4v4.3l6.4-6.4l1.5-1.5l1.4-1.4C14,13.3,12.7,13,11.5,13C5.1,13,0,18.2,0,24.5
			c0,4.2,2.3,8.1,6,10.1l0,0c0,0.2,0.2,0.4,0.5,0.4h10c0.2,0,0.4-0.2,0.5-0.4l0,0c5.6-3,7.6-10,4.6-15.6
			C20.7,17.5,19.5,16.1,18,15.1z"/>
		<path  stroke-width="param(outline-width) "  stroke-opacity="param(outline-opacity) "  stroke="param(outline) "  fill-opacity="param(fill-opacity) "  fill="param(fill) " class="st0" d="M31,34.5C31,34.5,31,34.6,31,34.5c0.1,0.3,0.3,0.5,0.5,0.5h10c0.3,0,0.5-0.2,0.5-0.5c5.6-3,7.6-10,4.6-15.6
			c-3-5.6-10-7.6-15.6-4.6s-7.6,10-4.6,15.6C27.5,31.9,29,33.5,31,34.5z M42,30.3V18.6c3.2,3,3.4,8.1,0.4,11.4
			C42.2,30.1,42.1,30.2,42,30.3z M31,18.6C31,18.6,31,18.6,31,18.6l0,11.8c0,0,0,0,0,0c-3.2-3-3.4-8.1-0.4-11.4
			C30.7,18.8,30.8,18.7,31,18.6L31,18.6z"/>
		<path  stroke-width="param(outline-width) "  stroke-opacity="param(outline-opacity) "  stroke="param(outline) "  fill-opacity="param(fill-opacity) "  fill="param(fill) " class="st0" d="M8,3h7c0.6,0,1-0.5,1-1V1c0-0.6-0.4-1-1-1c0,0-0.1,0-0.1,0l-7,0.8C7.4,0.9,7,1.3,7,1.9V2C7,2.5,7.4,3,8,3z"/>
		<circle class="st0" cx="36.5" cy="6.5" r="4.5"/>
		<path  stroke-width="param(outline-width) "  stroke-opacity="param(outline-opacity) "  stroke="param(outline) "  fill-opacity="param(fill-opacity) "  fill="param(fill) " class="st0" d="M17.6,37.4c-0.6-0.6-1.5-0.6-2.1,0c-0.6,0.6-0.6,1.5,0,2.1l1.4,1.4H1.5C0.7,41,0,41.7,0,42.5
			C0,43.3,0.7,44,1.5,44h15.3l-1.4,1.4c-0.6,0.6-0.6,1.5,0,2.1s1.5,0.6,2.1,0c0,0,0,0,0,0l4-4c0.6-0.6,0.6-1.5,0-2.1L17.6,37.4z"/>
		<path  stroke-width="param(outline-width) "  stroke-opacity="param(outline-opacity) "  stroke="param(outline) "  fill-opacity="param(fill-opacity) "  fill="param(fill) " class="st0" d="M46.5,41H31.1l1.4-1.4c0.6-0.6,0.6-1.5,0-2.1c-0.6-0.6-1.5-0.6-2.1,0c0,0,0,0,0,0l-4,4
			c-0.6,0.6-0.6,1.5,0,2.1l4,4c0.6,0.6,1.5,0.6,2.1,0c0.6-0.6,0.6-1.5,0-2.1c0,0,0,0,0,0L31.1,44h15.3c0.8,0,1.5-0.7,1.5-1.5
			S47.3,41,46.5,41z"/>
	</g>
</g>
</svg>
