<?xml version="1.0" encoding="utf-8"?>
<!-- Generator: Adobe Illustrator 25.0.0, SVG Export Plug-In . SVG Version: 6.00 Build 0)  -->
<svg version="1.1" id="Layer_1" xmlns="http://www.w3.org/2000/svg" xmlns:xlink="http://www.w3.org/1999/xlink" x="0px" y="0px"
	 viewBox="0 0 48 47.1" style="enable-background:new 0 0 48 47.1;" xml:space="preserve">
<style type="text/css">
	.st0{fill:#011E41;}
</style>
<g id="Layer_2_1_">
	<g id="Icons">
		<path  stroke-width="param(outline-width) "  stroke-opacity="param(outline-opacity) "  stroke="param(outline) "  fill-opacity="param(fill-opacity) "  fill="param(fill) " class="st0" d="M29.8,6.8c-0.7-2.1-3-3.2-5.1-2.5s-3.2,3-2.5,5.1c0.7,2.1,3,3.2,5.1,2.5C29.3,11.2,30.5,8.9,29.8,6.8z"/>
		<path  stroke-width="param(outline-width) "  stroke-opacity="param(outline-opacity) "  stroke="param(outline) "  fill-opacity="param(fill-opacity) "  fill="param(fill) " class="st0" d="M20.7,27.6l3.9-7.8c1.2-2.4,0.2-5.3-2.1-6.5L20,12c-0.1-0.1-0.3-0.1-0.4-0.2c-6.9-3-14.9-0.2-18.3,6.5
			c-0.5,1-0.1,2.3,0.9,2.8c1,0.5,2.3,0.1,2.8-0.9c0,0,0,0,0,0c1.9-3.8,6-5.9,10.2-5.4L0.2,44c-0.5,1-0.1,2.3,0.9,2.8
			c1,0.5,2.3,0.1,2.8-0.9c0,0,0,0,0,0l9-17.7l4.5,2.3c4.8,2.6,6.7,8.7,4.2,13.6c-0.5,1-0.1,2.3,0.9,2.8c1,0.5,2.3,0.1,2.8-0.9l0,0
			C28.6,39.5,26.7,31.7,20.7,27.6z"/>
		<path  stroke-width="param(outline-width) "  stroke-opacity="param(outline-opacity) "  stroke="param(outline) "  fill-opacity="param(fill-opacity) "  fill="param(fill) " class="st0" d="M47.5,22.4l-6.9-6.9c-0.6-0.6-1.6-0.6-2.2,0c-0.6,0.6-0.6,1.6,0,2.2c0,0,0,0,0,0l4.3,4.3H29.5
			c-0.8,0-1.5,0.7-1.5,1.5s0.7,1.5,1.5,1.5h13.3l-4.4,4.3c-0.6,0.6-0.6,1.6,0,2.2c0.6,0.6,1.6,0.6,2.2,0c0,0,0,0,0,0l6.9-6.9
			C48.2,24,48.2,23,47.5,22.4C47.5,22.4,47.5,22.4,47.5,22.4z"/>
		<path  stroke-width="param(outline-width) "  stroke-opacity="param(outline-opacity) "  stroke="param(outline) "  fill-opacity="param(fill-opacity) "  fill="param(fill) " class="st0" d="M33.5,28c-0.8,0-1.5,0.7-1.5,1.5v5c0,0.8,0.7,1.5,1.5,1.5s1.5-0.7,1.5-1.5v-5C35,28.7,34.3,28,33.5,28z"/>
		<path  stroke-width="param(outline-width) "  stroke-opacity="param(outline-opacity) "  stroke="param(outline) "  fill-opacity="param(fill-opacity) "  fill="param(fill) " class="st0" d="M33.5,19c0.8,0,1.5-0.7,1.5-1.5v-5c0-0.8-0.7-1.5-1.5-1.5S32,11.7,32,12.5v5C32,18.3,32.7,19,33.5,19z"/>
		<path  stroke-width="param(outline-width) "  stroke-opacity="param(outline-opacity) "  stroke="param(outline) "  fill-opacity="param(fill-opacity) "  fill="param(fill) " class="st0" d="M33.5,8C34.3,8,35,7.3,35,6.5v-5C35,0.7,34.3,0,33.5,0S32,0.7,32,1.5v5C32,7.3,32.7,8,33.5,8z"/>
		<path  stroke-width="param(outline-width) "  stroke-opacity="param(outline-opacity) "  stroke="param(outline) "  fill-opacity="param(fill-opacity) "  fill="param(fill) " class="st0" d="M33.5,39c-0.8,0-1.5,0.7-1.5,1.5v5c0,0.8,0.7,1.5,1.5,1.5s1.5-0.7,1.5-1.5v-5C35,39.7,34.3,39,33.5,39z"/>
	</g>
</g>
</svg>
