<?xml version="1.0" encoding="utf-8"?>
<!-- Generator: Adobe Illustrator 25.0.0, SVG Export Plug-In . SVG Version: 6.00 Build 0)  -->
<svg version="1.1" id="Layer_1" xmlns="http://www.w3.org/2000/svg" xmlns:xlink="http://www.w3.org/1999/xlink" x="0px" y="0px"
	 viewBox="0 0 42 48" style="enable-background:new 0 0 42 48;" xml:space="preserve">
<style type="text/css">
	.st0{fill:#011E41;}
</style>
<g id="Layer_2_1_">
	<g id="Icons">
		<path  stroke-width="param(outline-width) "  stroke-opacity="param(outline-opacity) "  stroke="param(outline) "  fill-opacity="param(fill-opacity) "  fill="param(fill) " class="st0" d="M40,6h-5v2.5c0,1.9-1.6,3.5-3.5,3.5S28,10.4,28,8.5V6H15v2.5c0,1.9-1.6,3.5-3.5,3.5S8,10.4,8,8.5V6H2
			C0.9,6,0,6.9,0,8c0,0,0,0,0,0v38c0,1.1,0.9,2,2,2c0,0,0,0,0,0h38c1.1,0,2-0.9,2-2c0,0,0,0,0,0V8C42,6.9,41.1,6,40,6
			C40,6,40,6,40,6z M38,44H4V18h34V44z"/>
		<path  stroke-width="param(outline-width) "  stroke-opacity="param(outline-opacity) "  stroke="param(outline) "  fill-opacity="param(fill-opacity) "  fill="param(fill) " class="st0" d="M11.5,10c0.8,0,1.5-0.7,1.5-1.5c0,0,0,0,0,0v-7C13,0.7,12.3,0,11.5,0S10,0.7,10,1.5v7C10,9.3,10.7,10,11.5,10
			C11.5,10,11.5,10,11.5,10z"/>
		<path  stroke-width="param(outline-width) "  stroke-opacity="param(outline-opacity) "  stroke="param(outline) "  fill-opacity="param(fill-opacity) "  fill="param(fill) " class="st0" d="M31.5,10c0.8,0,1.5-0.7,1.5-1.5c0,0,0,0,0,0v-7C33,0.7,32.3,0,31.5,0S30,0.7,30,1.5v7C30,9.3,30.7,10,31.5,10
			C31.5,10,31.5,10,31.5,10z"/>
		<path  stroke-width="param(outline-width) "  stroke-opacity="param(outline-opacity) "  stroke="param(outline) "  fill-opacity="param(fill-opacity) "  fill="param(fill) " class="st0" d="M18.7,30.5l-5.3,5c-0.3,0.3-0.5,0.7-0.5,1.1c0,0.4,0.2,0.8,0.5,1.1c0.6,0.6,1.6,0.6,2.3,0l5.3-5l5.3,5
			c0.3,0.3,0.7,0.4,1.1,0.4c0.4,0,0.8-0.2,1.1-0.4c0.6-0.5,0.6-1.4,0.1-2c0,0-0.1-0.1-0.1-0.1l-5.3-5l5.3-4.9
			c0.3-0.3,0.5-0.7,0.5-1.1c0-0.4-0.2-0.8-0.5-1.1c-0.6-0.6-1.6-0.6-2.3,0L21,28.4l-5.3-5C15.4,23.2,15,23,14.6,23
			c-0.4,0-0.8,0.2-1.1,0.4c-0.6,0.5-0.6,1.4-0.1,2c0,0,0.1,0.1,0.1,0.1L18.7,30.5z"/>
	</g>
</g>
</svg>
