<?xml version="1.0" encoding="utf-8"?>
<!-- Generator: Adobe Illustrator 25.0.0, SVG Export Plug-In . SVG Version: 6.00 Build 0)  -->
<svg version="1.1" id="Layer_1" xmlns="http://www.w3.org/2000/svg" xmlns:xlink="http://www.w3.org/1999/xlink" x="0px" y="0px"
	 viewBox="0 0 48 48" style="enable-background:new 0 0 48 48;" xml:space="preserve">
<style type="text/css">
	.st0{fill:#011E41;}
</style>
<g id="Layer_2_1_">
	<g id="Icons">
		<circle class="st0" cx="4" cy="4" r="4"/>
		<path  stroke-width="param(outline-width) "  stroke-opacity="param(outline-opacity) "  stroke="param(outline) "  fill-opacity="param(fill-opacity) "  fill="param(fill) " class="st0" d="M38.8,28.5l3.9-7.7c1.2-2.4,0.2-5.3-2.1-6.5l-1.3-0.6L38,12.9c-0.1-0.1-0.2-0.1-0.4-0.1
			c-5.8-2.6-12.7-1-16.8,3.9l-2.1-2.5C15.6,10.9,11.3,9,6.9,9C3.1,9,0,12.1,0,15.8c0,0.8,0.1,1.5,0.4,2.3c0,0,0,0.1,0.1,0.1l2.9,6.6
			c0.2,0.8,0.7,2.4,1.5,4.9c1.4,4.5,2.4,9.1,2.9,13.8L8,46.2c0.1,1,1,1.8,2,1.8c0.1,0,0.1,0,0.2,0c1.1-0.1,1.9-1.1,1.8-2.2
			c0,0,0,0,0,0l-0.3-2.6c-0.5-4.5-1.3-8.9-2.6-13.2h4c1.4,3.8,2,7.9,1.9,12c0,0.9,0.6,1.7,1.5,1.9l2.4-4.8c-0.2-5-1.4-9.9-3.6-14.3
			c-0.4-0.9-0.8-1.9-1.2-2.9l-3.4-8.3c1.9,0.6,3.6,1.7,4.9,3.2l3.8,4.5c0.3,0.4,0.8,0.6,1.4,0.7c0.1,0,0.2,0,0.2,0
			c0.8,0,1.5-0.4,1.8-1.1c1.6-3,4.6-5,8-5.2c0.4,0,0.8,0,1.1,0c0.4,0,0.7,0,1.1,0.1L18.2,44.9c-0.5,1-0.1,2.3,0.9,2.8c0,0,0,0,0,0
			c0.3,0.2,0.6,0.2,1,0.2c0.8,0,1.5-0.4,1.9-1.1l9-17.7l0.9,0.5l0.9,0.4l3.3,1.7c0,0,0,0,0,0c0,0,0,0,0.1,0l0.1,0
			c4.4,2.8,5.9,8.5,3.5,13.2c-0.5,1-0.1,2.3,0.9,2.8c1,0.5,2.3,0.1,2.8-0.9C46.7,40.4,44.7,32.5,38.8,28.5z"/>
		<path  stroke-width="param(outline-width) "  stroke-opacity="param(outline-opacity) "  stroke="param(outline) "  fill-opacity="param(fill-opacity) "  fill="param(fill) " class="st0" d="M47.8,7.8c-0.7-2.1-3-3.2-5.1-2.5s-3.2,3-2.5,5.1c0.7,2.1,3,3.2,5.1,2.5C47.3,12.1,48.5,9.8,47.8,7.8
			C47.8,7.8,47.8,7.8,47.8,7.8z"/>
	</g>
</g>
</svg>
