<?xml version="1.0" encoding="utf-8"?>
<!-- Generator: Adobe Illustrator 25.0.0, SVG Export Plug-In . SVG Version: 6.00 Build 0)  -->
<svg version="1.1" id="Layer_1" xmlns="http://www.w3.org/2000/svg" xmlns:xlink="http://www.w3.org/1999/xlink" x="0px" y="0px"
	 viewBox="0 0 48 48" style="enable-background:new 0 0 48 48;" xml:space="preserve">
<style type="text/css">
	.st0{fill:#011E41;}
</style>
<g id="Layer_2_1_">
	<g id="Icons">
		<path  stroke-width="param(outline-width) "  stroke-opacity="param(outline-opacity) "  stroke="param(outline) "  fill-opacity="param(fill-opacity) "  fill="param(fill) " class="st0" d="M3,0C1.3,0,0,1.3,0,3v42c0,1.7,1.3,3,3,3s3-1.3,3-3V3C6,1.3,4.7,0,3,0z"/>
		<path  stroke-width="param(outline-width) "  stroke-opacity="param(outline-opacity) "  stroke="param(outline) "  fill-opacity="param(fill-opacity) "  fill="param(fill) " class="st0" d="M45,0c-1.7,0-3,1.3-3,3v42c0,1.7,1.3,3,3,3s3-1.3,3-3V3C48,1.3,46.7,0,45,0z"/>
		<path  stroke-width="param(outline-width) "  stroke-opacity="param(outline-opacity) "  stroke="param(outline) "  fill-opacity="param(fill-opacity) "  fill="param(fill) " class="st0" d="M32.1,14.9c-1.2-1.2-3.1-1.2-4.2,0s-1.2,3.1,0,4.2l1.9,1.9H18.2l1.9-1.9c1.2-1.2,1.2-3.1,0-4.2
			s-3.1-1.2-4.2,0l-7,7c-1.2,1.2-1.2,3.1,0,4.2c0,0,0,0,0,0l7,7c1.2,1.2,3.1,1.2,4.2,0c1.2-1.2,1.2-3.1,0-4.2l0,0L18.2,27h11.5
			l-1.9,1.9c-1.2,1.2-1.2,3.1,0,4.2c1.2,1.2,3.1,1.2,4.2,0l0,0l7-7c1.2-1.2,1.2-3.1,0-4.2c0,0,0,0,0,0L32.1,14.9z"/>
	</g>
</g>
</svg>
