<?xml version="1.0" encoding="utf-8"?>
<!-- Generator: Adobe Illustrator 25.0.0, SVG Export Plug-In . SVG Version: 6.00 Build 0)  -->
<svg version="1.1" id="Layer_1" xmlns="http://www.w3.org/2000/svg" xmlns:xlink="http://www.w3.org/1999/xlink" x="0px" y="0px"
	 viewBox="0 0 48 48" style="enable-background:new 0 0 48 48;" xml:space="preserve">
<style type="text/css">
	.st0{fill:#011E41;}
</style>
<g id="Layer_2_1_">
	<g id="Icons">
		<circle class="st0" cx="24" cy="24" r="6"/>
		<path  stroke-width="param(outline-width) "  stroke-opacity="param(outline-opacity) "  stroke="param(outline) "  fill-opacity="param(fill-opacity) "  fill="param(fill) " class="st0" d="M32,18h9c1.1,0,2-0.9,2-2s-0.9-2-2-2h-4.2L47.4,3.4c0.8-0.8,0.8-2,0-2.8c-0.8-0.8-2-0.8-2.8,0l0,0L34,11.2V7
			c0-1.1-0.9-2-2-2c-1.1,0-2,0.9-2,2v9C30,17.1,30.9,18,32,18z"/>
		<path  stroke-width="param(outline-width) "  stroke-opacity="param(outline-opacity) "  stroke="param(outline) "  fill-opacity="param(fill-opacity) "  fill="param(fill) " class="st0" d="M11.2,14H7c-1.1,0-2,0.9-2,2s0.9,2,2,2h9c1.1,0,2-0.9,2-2V7c0-1.1-0.9-2-2-2s-2,0.9-2,2v4.2L3.4,0.6
			c-0.8-0.8-2-0.8-2.8,0s-0.8,2,0,2.8L11.2,14z"/>
		<path  stroke-width="param(outline-width) "  stroke-opacity="param(outline-opacity) "  stroke="param(outline) "  fill-opacity="param(fill-opacity) "  fill="param(fill) " class="st0" d="M36.8,34H41c1.1,0,2-0.9,2-2c0-1.1-0.9-2-2-2h-9c-1.1,0-2,0.9-2,2v9c0,1.1,0.9,2,2,2c1.1,0,2-0.9,2-2v-4.2
			l10.6,10.6c0.8,0.8,2,0.8,2.8,0s0.8-2,0-2.8L36.8,34z"/>
		<path  stroke-width="param(outline-width) "  stroke-opacity="param(outline-opacity) "  stroke="param(outline) "  fill-opacity="param(fill-opacity) "  fill="param(fill) " class="st0" d="M16,30H7c-1.1,0-2,0.9-2,2c0,1.1,0.9,2,2,2h4.2L0.6,44.6c-0.8,0.8-0.8,2,0,2.8s2,0.8,2.8,0L14,36.8V41
			c0,1.1,0.9,2,2,2s2-0.9,2-2v-9C18,30.9,17.1,30,16,30z"/>
	</g>
</g>
</svg>
