<?xml version="1.0" encoding="utf-8"?>
<!-- Generator: Adobe Illustrator 25.0.0, SVG Export Plug-In . SVG Version: 6.00 Build 0)  -->
<svg version="1.1" id="Layer_1" xmlns="http://www.w3.org/2000/svg" xmlns:xlink="http://www.w3.org/1999/xlink" x="0px" y="0px"
	 viewBox="0 0 48 48" style="enable-background:new 0 0 48 48;" xml:space="preserve">
<style type="text/css">
	.st0{fill:#011E41;}
</style>
<g id="Layer_2_1_">
	<g id="Icons">
		<path  stroke-width="param(outline-width) "  stroke-opacity="param(outline-opacity) "  stroke="param(outline) "  fill-opacity="param(fill-opacity) "  fill="param(fill) " class="st0" d="M37.5,4C31.9,4,27.3,8.4,27,14h0c0,0,0,0,0,0v1c0,1.1,0.9,2,2,2s2-0.9,2-2v-1c0.3-3.6,3.4-6.3,7-6
			s6.3,3.4,6,7c-0.3,3.4-3.1,6-6.5,6H2c-1.1,0-2,0.9-2,2c0,0,0,0,0,0V23c0,1.1,0.9,2,2,2c0,0,0,0,0,0h35.5C43.3,25,48,20.3,48,14.5
			S43.3,4,37.5,4z"/>
		<path  stroke-width="param(outline-width) "  stroke-opacity="param(outline-opacity) "  stroke="param(outline) "  fill-opacity="param(fill-opacity) "  fill="param(fill) " class="st0" d="M1.9,18H16c5,0,9-4,9-9s-4-9-9-9S7,4,7,9h0c0,0,0,0,0,0v1c0,1.1,0.9,2,2,2s2-0.9,2-2V9c0-2.8,2.2-5,5-5
			s5,2.2,5,5s-2.2,5-5,5H1.9C0.9,14,0,14.9,0,15.9c0,0,0,0,0,0v0.1C0,17.1,0.9,18,1.9,18C1.9,18,1.9,18,1.9,18z"/>
		<path  stroke-width="param(outline-width) "  stroke-opacity="param(outline-opacity) "  stroke="param(outline) "  fill-opacity="param(fill-opacity) "  fill="param(fill) " class="st0" d="M28,28H2c-1.1,0-2,0.9-2,2s0.9,2,2,2h26c3.3,0,6,2.7,6,6s-2.7,6-6,6s-6-2.7-6-6v-1c0-1.1-0.9-2-2-2
			s-2,0.9-2,2v1c0,0,0,0,0,0h0c0,5.5,4.5,10,10,10s10-4.5,10-10S33.5,28,28,28z"/>
	</g>
</g>
</svg>
