<?xml version="1.0" encoding="utf-8"?>
<!-- Generator: Adobe Illustrator 25.0.0, SVG Export Plug-In . SVG Version: 6.00 Build 0)  -->
<svg version="1.1" id="Layer_1" xmlns="http://www.w3.org/2000/svg" xmlns:xlink="http://www.w3.org/1999/xlink" x="0px" y="0px"
	 viewBox="0 0 48 48" style="enable-background:new 0 0 48 48;" xml:space="preserve">
<style type="text/css">
	.st0{fill:#011E41;}
</style>
<g id="Layer_2_1_">
	<g id="Icons">
		<path  stroke-width="param(outline-width) "  stroke-opacity="param(outline-opacity) "  stroke="param(outline) "  fill-opacity="param(fill-opacity) "  fill="param(fill) " class="st0" d="M6.6,31.2C7.3,31.7,8.2,32,9,32c0.1,0,0.2,0,0.3,0c1,0,1.9-0.2,2.7-0.8c0.4-0.2,0.8-0.4,1.3-0.6
			c1.1-0.4,2.2-0.6,3.3-0.6c1.6,0,3.2,0.4,4.6,1.2C22.1,31.8,23,32,24,32c1,0,1.9-0.2,2.7-0.8c1.4-0.8,3-1.3,4.6-1.2
			c1.2,0,2.3,0.2,3.4,0.6c0.4,0.2,0.9,0.4,1.3,0.6c0.8,0.5,1.8,0.8,2.7,0.8c0.5,0,0.9,0,1.3-0.1c0.5-0.1,0.9-0.3,1.4-0.6
			c0.2-0.1,0.5-0.3,0.7-0.4c1.2-2.6,1.9-5.5,1.9-8.4V14c0-0.6-0.4-1-1-1H5c-0.6,0-1,0.4-1,1v8.4c0,2.9,0.6,5.8,1.9,8.4
			C6.1,31,6.4,31.1,6.6,31.2z M10,17h28v4.6c0,1.9-0.3,3.7-1,5.4H11c-0.7-1.7-1-3.6-1-5.4V17z"/>
		<path  stroke-width="param(outline-width) "  stroke-opacity="param(outline-opacity) "  stroke="param(outline) "  fill-opacity="param(fill-opacity) "  fill="param(fill) " class="st0" d="M20,4h8c1.1,0,2-0.9,2-2s-0.9-2-2-2h-8c-1.1,0-2,0.9-2,2S18.9,4,20,4z"/>
		<path  stroke-width="param(outline-width) "  stroke-opacity="param(outline-opacity) "  stroke="param(outline) "  fill-opacity="param(fill-opacity) "  fill="param(fill) " class="st0" d="M11.5,11h25c1.4,0,2.5-1.1,2.5-2.5S37.9,6,36.5,6h-25C10.1,6,9,7.1,9,8.5S10.1,11,11.5,11z"/>
		<path  stroke-width="param(outline-width) "  stroke-opacity="param(outline-opacity) "  stroke="param(outline) "  fill-opacity="param(fill-opacity) "  fill="param(fill) " class="st0" d="M46,42c-1.6,0-3.2,0.4-4.6,1.2c-1.7,1-3.8,1-5.4,0c-1.4-0.8-3-1.3-4.6-1.2c-1.6,0-3.2,0.4-4.6,1.2
			C25.9,43.8,25,44,24,44c-1,0-1.9-0.2-2.7-0.8c-1.4-0.8-3-1.3-4.6-1.2c-1.6,0-3.2,0.4-4.6,1.2c-0.8,0.5-1.7,0.8-2.7,0.8
			c-1,0-1.9-0.2-2.7-0.8C5.2,42.4,3.6,42,2,42c-1.1,0-2,0.9-2,2s0.9,2,2,2c1,0,1.9,0.2,2.7,0.8c1.4,0.8,3,1.3,4.6,1.2
			c1.6,0,3.2-0.4,4.6-1.2c0.8-0.5,1.7-0.8,2.7-0.8c1,0,1.9,0.2,2.7,0.8c1.4,0.8,3,1.3,4.6,1.2c1.6,0,3.2-0.4,4.6-1.2
			c1.7-1,3.8-1,5.4,0c2.9,1.7,6.4,1.7,9.3,0C44.1,46.2,45,46,46,46c1.1,0,2-0.9,2-2S47.1,42,46,42z"/>
		<path  stroke-width="param(outline-width) "  stroke-opacity="param(outline-opacity) "  stroke="param(outline) "  fill-opacity="param(fill-opacity) "  fill="param(fill) " class="st0" d="M2,38c1,0,1.9,0.2,2.7,0.8c1.4,0.8,3,1.3,4.6,1.2c1.6,0,3.2-0.4,4.6-1.2c0.8-0.5,1.7-0.8,2.7-0.8
			c1,0,1.9,0.2,2.7,0.8c1.4,0.8,3,1.3,4.6,1.2c1.6,0,3.2-0.4,4.6-1.2c1.7-1,3.8-1,5.4,0c2.9,1.7,6.4,1.7,9.3,0
			C44.1,38.2,45,38,46,38c1.1,0,2-0.9,2-2s-0.9-2-2-2c-1.6,0-3.2,0.4-4.6,1.2c-1.7,1-3.8,1-5.4,0c-1.4-0.8-3-1.3-4.6-1.2
			c-1.6,0-3.2,0.4-4.6,1.2C25.9,35.8,25,36,24,36c-1,0-1.9-0.2-2.7-0.8c-1.4-0.8-3-1.3-4.6-1.2c-1.6,0-3.2,0.4-4.6,1.2
			c-0.8,0.5-1.7,0.8-2.7,0.8c-1,0-1.9-0.2-2.7-0.8C5.2,34.4,3.6,34,2,34c-1.1,0-2,0.9-2,2S0.9,38,2,38z"/>
	</g>
</g>
</svg>
