<?xml version="1.0" encoding="utf-8"?>
<!-- Generator: Adobe Illustrator 25.0.0, SVG Export Plug-In . SVG Version: 6.00 Build 0)  -->
<svg version="1.1" id="Layer_1" xmlns="http://www.w3.org/2000/svg" xmlns:xlink="http://www.w3.org/1999/xlink" x="0px" y="0px"
	 viewBox="0 0 48 48" style="enable-background:new 0 0 48 48;" xml:space="preserve">
<style type="text/css">
	.st0{fill:#011E41;}
</style>
<g id="Layer_2_1_">
	<g id="Icons">
		<path  stroke-width="param(outline-width) "  stroke-opacity="param(outline-opacity) "  stroke="param(outline) "  fill-opacity="param(fill-opacity) "  fill="param(fill) " class="st0" d="M24,0C10.7,0,0,10.7,0,24s10.7,24,24,24s24-10.7,24-24C48,10.7,37.3,0,24,0z M24,43C13.5,43,5,34.5,5,24
			S13.5,5,24,5s19,8.5,19,19C43,34.5,34.5,43,24,43z"/>
		<path  stroke-width="param(outline-width) "  stroke-opacity="param(outline-opacity) "  stroke="param(outline) "  fill-opacity="param(fill-opacity) "  fill="param(fill) " class="st0" d="M31.5,12c-1.4,0-2.5,1.1-2.5,2.5V21H19v-6.5c0-1.4-1.1-2.5-2.5-2.5S14,13.1,14,14.5v19c0,1.4,1.1,2.5,2.5,2.5
			s2.5-1.1,2.5-2.5V26h10v7.5c0,1.4,1.1,2.5,2.5,2.5c1.4,0,2.5-1.1,2.5-2.5v-19C34,13.1,32.9,12,31.5,12C31.5,12,31.5,12,31.5,12z"
			/>
	</g>
</g>
</svg>
