<?xml version="1.0" encoding="utf-8"?>
<!-- Generator: Adobe Illustrator 25.0.0, SVG Export Plug-In . SVG Version: 6.00 Build 0)  -->
<svg version="1.1" id="Layer_1" xmlns="http://www.w3.org/2000/svg" xmlns:xlink="http://www.w3.org/1999/xlink" x="0px" y="0px"
	 viewBox="0 0 46 48" style="enable-background:new 0 0 46 48;" xml:space="preserve">
<style type="text/css">
	.st0{fill:#011E41;}
</style>
<g id="Layer_2_1_">
	<g id="Icons">
		<path  stroke-width="param(outline-width) "  stroke-opacity="param(outline-opacity) "  stroke="param(outline) "  fill-opacity="param(fill-opacity) "  fill="param(fill) " class="st0" d="M39,7.5c1.9,1.1,4.4,0.4,5.5-1.5c1.1-1.9,0.4-4.4-1.5-5.5c-1.9-1.1-4.4-0.4-5.5,1.5C36.4,3.9,37.1,6.4,39,7.5
			z"/>
		<path  stroke-width="param(outline-width) "  stroke-opacity="param(outline-opacity) "  stroke="param(outline) "  fill-opacity="param(fill-opacity) "  fill="param(fill) " class="st0" d="M30.2,34.2c-1.5-0.7-3.3,0-4,1.5c0,0,0,0,0,0c-1.8,3.8-5.6,6.2-9.8,6.2C10.7,42,6,37.3,6,31.5
			C6,25.8,11,21,17,21c1.7,0,3-1.3,3-3s-1.3-3-3-3C7.8,15,0,22.6,0,31.5C0.1,40.7,7.5,48.1,16.7,48c6.5,0,12.4-3.9,15-9.8
			C32.4,36.7,31.7,34.9,30.2,34.2z"/>
		<path  stroke-width="param(outline-width) "  stroke-opacity="param(outline-opacity) "  stroke="param(outline) "  fill-opacity="param(fill-opacity) "  fill="param(fill) " class="st0" d="M45.2,24c-0.6-0.7-1.5-1-2.4-1L34,23.6l5.5-8c0.1-0.1,0.1-0.2,0.1-0.3c0.4-0.8,0.4-1.7,0-2.5
			c-0.2-0.3-0.4-0.5-0.7-0.8l-3.5-2.4l-8-5.6c-1-0.7-2.4-0.6-3.2,0.3l-4.5,4.5c-1,1-1,2.6,0,3.5c1,1,2.6,1,3.5,0l3-3l4.3,2.9
			l-7,11.8c-1.1,1.9-0.4,4.4,1.6,5.4c0.6,0.3,1.3,0.5,1.9,0.5l0.1,0c0,0,0.1,0,0.1,0l12.3-0.8L38,39.6c-0.2,1.6,0.9,3.2,2.5,3.4
			c1.6,0.2,3.2-0.9,3.4-2.5l2-14C46.1,25.5,45.8,24.6,45.2,24z"/>
	</g>
</g>
</svg>
