<?xml version="1.0" encoding="utf-8"?>
<!-- Generator: Adobe Illustrator 25.0.0, SVG Export Plug-In . SVG Version: 6.00 Build 0)  -->
<svg version="1.1" id="Layer_1" xmlns="http://www.w3.org/2000/svg" xmlns:xlink="http://www.w3.org/1999/xlink" x="0px" y="0px"
	 viewBox="0 0 48 34" style="enable-background:new 0 0 48 34;" xml:space="preserve">
<style type="text/css">
	.st0{fill:#011E41;}
</style>
<g id="Layer_2_1_">
	<g id="Editable_Icons">
		<path  stroke-width="param(outline-width) "  stroke-opacity="param(outline-opacity) "  stroke="param(outline) "  fill-opacity="param(fill-opacity) "  fill="param(fill) " class="st0" d="M1.5,19C2.3,19,3,18.3,3,17.5c0,0,0,0,0,0c0-2.2,1.1-4.2,3-5.4V21c0,2.2,1.8,4,4,4s4-1.8,4-4v-8.9
			c1.9,1.1,3,3.2,3,5.4c0,0.8,0.7,1.5,1.5,1.5s1.5-0.7,1.5-1.5l0,0l0,0c0-1.1,0.4-2.1,1-2.9V18c0,1.7,1.3,3,3,3c1.7,0,3-1.3,3-3
			v-3.5c0.7,0.8,1,1.9,1,2.9c0,0,0,0,0,0c0,0.8,0.7,1.5,1.5,1.5s1.5-0.7,1.5-1.5c0.2-2.5,1.7-4.7,4-5.7L33.1,19
			c-0.5,2.7,1.2,5.4,3.9,5.9c2.7,0.5,5.4-1.2,5.9-3.9c0.1-0.6,0.1-1.3,0-2L41,11.8c2.3,1,3.8,3.2,4,5.7c0,0.8,0.7,1.5,1.5,1.5
			s1.5-0.7,1.5-1.5C48,12.1,43.7,8,38,8c-3.5-0.1-6.8,1.6-8.7,4.6c-2.2-3-6.4-3.5-9.4-1.3c-0.5,0.4-0.9,0.8-1.3,1.3
			C16.8,9.7,13.5,7.9,10,8C4.3,8,0,12.1,0,17.5C0,18.3,0.7,19,1.5,19C1.5,19,1.5,19,1.5,19z"/>
		<circle class="st0" cx="38" cy="3" r="3"/>
		<circle class="st0" cx="10" cy="3" r="3"/>
		<path  stroke-width="param(outline-width) "  stroke-opacity="param(outline-opacity) "  stroke="param(outline) "  fill-opacity="param(fill-opacity) "  fill="param(fill) " class="st0" d="M24,8c1.4,0,2.5-1.1,2.5-2.5S25.4,3,24,3c-1.4,0-2.5,1.1-2.5,2.5C21.5,6.9,22.6,8,24,8C24,8,24,8,24,8z"/>
		<path  stroke-width="param(outline-width) "  stroke-opacity="param(outline-opacity) "  stroke="param(outline) "  fill-opacity="param(fill-opacity) "  fill="param(fill) " class="st0" d="M46,30H2c-1.1,0-2,0.9-2,2c0,1.1,0.9,2,2,2h44c1.1,0,2-0.9,2-2C48,30.9,47.1,30,46,30z"/>
	</g>
</g>
</svg>
