<?xml version="1.0" encoding="utf-8"?>
<!-- Generator: Adobe Illustrator 25.0.0, SVG Export Plug-In . SVG Version: 6.00 Build 0)  -->
<svg version="1.1" id="Layer_1" xmlns="http://www.w3.org/2000/svg" xmlns:xlink="http://www.w3.org/1999/xlink" x="0px" y="0px"
	 viewBox="0 0 44 44" style="enable-background:new 0 0 44 44;" xml:space="preserve">
<style type="text/css">
	.st0{fill:#011E41;}
</style>
<g id="Layer_2_1_">
	<g id="Icons">
		<path  stroke-width="param(outline-width) "  stroke-opacity="param(outline-opacity) "  stroke="param(outline) "  fill-opacity="param(fill-opacity) "  fill="param(fill) " class="st0" d="M22,0C9.8,0,0,9.8,0,22s9.8,22,22,22s22-9.8,22-22C44,9.8,34.2,0,22,0z M22,39c-1.7,0-3-1.3-3-3s1.3-3,3-3
			s3,1.3,3,3C25,37.7,23.7,39,22,39C22,39,22,39,22,39z M25,26c0,1.7-1.3,3-3,3s-3-1.3-3-3V8c0-1.7,1.3-3,3-3s3,1.3,3,3V26z"/>
	</g>
</g>
</svg>
