<?xml version="1.0" encoding="utf-8"?>
<!-- Generator: Adobe Illustrator 25.0.0, SVG Export Plug-In . SVG Version: 6.00 Build 0)  -->
<svg version="1.1" id="Layer_1" xmlns="http://www.w3.org/2000/svg" xmlns:xlink="http://www.w3.org/1999/xlink" x="0px" y="0px"
	 viewBox="0 0 28 48" style="enable-background:new 0 0 28 48;" xml:space="preserve">
<style type="text/css">
	.st0{fill:#011E41;}
</style>
<g id="Layer_2_1_">
	<g id="Icons">
		<path  stroke-width="param(outline-width) "  stroke-opacity="param(outline-opacity) "  stroke="param(outline) "  fill-opacity="param(fill-opacity) "  fill="param(fill) " class="st0" d="M14,0L14,0c4.4,0,8,3.6,8,8v17c0,4.4-3.6,8-8,8h0c-4.4,0-8-3.6-8-8V8C6,3.6,9.6,0,14,0z"/>
		<path  stroke-width="param(outline-width) "  stroke-opacity="param(outline-opacity) "  stroke="param(outline) "  fill-opacity="param(fill-opacity) "  fill="param(fill) " class="st0" d="M28,24.5c0-0.8-0.7-1.5-1.5-1.5S25,23.7,25,24.5c0,6.1-4.9,11-11,11s-11-4.9-11-11C3,23.7,2.3,23,1.5,23
			S0,23.7,0,24.5c0,7,5.1,12.9,12,13.8V44H8c-1.1,0-2,0.9-2,2c0,0.3,0.1,0.7,0.3,1c0.3,0.6,1,1,1.7,1h12c1.1,0,2-0.9,2-2
			c0-0.3-0.1-0.7-0.3-1c-0.3-0.6-1-1-1.7-1h-4v-5.7C22.9,37.3,28,31.4,28,24.5z"/>
	</g>
</g>
</svg>
