<?xml version="1.0" encoding="utf-8"?>
<!-- Generator: Adobe Illustrator 25.0.0, SVG Export Plug-In . SVG Version: 6.00 Build 0)  -->
<svg version="1.1" id="Layer_1" xmlns="http://www.w3.org/2000/svg" xmlns:xlink="http://www.w3.org/1999/xlink" x="0px" y="0px"
	 viewBox="0 0 42 44" style="enable-background:new 0 0 42 44;" xml:space="preserve">
<style type="text/css">
	.st0{fill:#011E41;}
</style>
<g id="Layer_2_1_">
	<g id="Icons">
		<path  stroke-width="param(outline-width) "  stroke-opacity="param(outline-opacity) "  stroke="param(outline) "  fill-opacity="param(fill-opacity) "  fill="param(fill) " class="st0" d="M34,0H8C3.6,0,0,3.6,0,8c0,0,0,0,0,0v19c0,4.4,3.6,8,8,8c0,0,0,0,0,0h14l8.8,8.8c0.3,0.3,0.7,0.3,1,0
			c0.1-0.1,0.2-0.3,0.2-0.5V35h2c4.4,0,8-3.6,8-8c0,0,0,0,0,0V8C42,3.6,38.4,0,34,0C34,0,34,0,34,0z M21,28c-1.1,0-2-0.9-2-2
			s0.9-2,2-2s2,0.9,2,2C23,27.1,22.1,28,21,28z M23,19c0,1.1-0.9,2-2,2s-2-0.9-2-2V8c0-1.1,0.9-2,2-2s2,0.9,2,2V19z"/>
	</g>
</g>
</svg>
