<?xml version="1.0" encoding="utf-8"?>
<!-- Generator: Adobe Illustrator 25.0.0, SVG Export Plug-In . SVG Version: 6.00 Build 0)  -->
<svg version="1.1" id="Layer_1" xmlns="http://www.w3.org/2000/svg" xmlns:xlink="http://www.w3.org/1999/xlink" x="0px" y="0px"
	 viewBox="0 0 48 48" style="enable-background:new 0 0 48 48;" xml:space="preserve">
<style type="text/css">
	.st0{fill:#011E41;}
</style>
<g id="Layer_2_1_">
	<g id="FINAL">
		<path  stroke-width="param(outline-width) "  stroke-opacity="param(outline-opacity) "  stroke="param(outline) "  fill-opacity="param(fill-opacity) "  fill="param(fill) " class="st0" d="M44,48c-1.1,0-2.1-0.4-2.8-1.2l-19-20c-1.6-1.6-1.6-4.1,0-5.7l19-20c1.6-1.6,4.1-1.6,5.7,0
			c1.6,1.6,1.6,4.1,0,5.6L31,24l15.8,17.2c1.6,1.6,1.6,4.1,0,5.7C46.1,47.6,45.1,48,44,48z M25.8,46.8c1.6-1.6,1.6-4.1,0-5.7L10,24
			L25.8,6.8c1.6-1.6,1.6-4.1,0-5.7c-1.6-1.6-4.1-1.6-5.6,0l-19,20c-1.6,1.6-1.6,4.1,0,5.7l19,20C21.7,48.4,24.3,48.4,25.8,46.8z"/>
	</g>
</g>
</svg>
