<?xml version="1.0" encoding="utf-8"?>
<!-- Generator: Adobe Illustrator 25.0.0, SVG Export Plug-In . SVG Version: 6.00 Build 0)  -->
<svg version="1.1" id="Layer_1" xmlns="http://www.w3.org/2000/svg" xmlns:xlink="http://www.w3.org/1999/xlink" x="0px" y="0px"
	 viewBox="0 0 36 48" style="enable-background:new 0 0 36 48;" xml:space="preserve">
<style type="text/css">
	.st0{fill:#011E41;}
</style>
<g id="Layer_2_1_">
	<g id="Icons">
		<path  stroke-width="param(outline-width) "  stroke-opacity="param(outline-opacity) "  stroke="param(outline) "  fill-opacity="param(fill-opacity) "  fill="param(fill) " class="st0" d="M35,0H13c-0.6,0-1,0.4-1,1v11h11c0.9,0,1.7,0.4,2.2,1H32c0.6,0,1,0.4,1,1s-0.4,1-1,1h-6v3h6c0.6,0,1,0.4,1,1
			s-0.4,1-1,1h-6v3h6c0.6,0,1,0.4,1,1s-0.4,1-1,1h-6v9h9c0.6,0,1-0.4,1-1V1C36,0.4,35.6,0,35,0z M32,10H16c-0.6,0-1-0.4-1-1
			s0.4-1,1-1h16c0.6,0,1,0.4,1,1S32.6,10,32,10z"/>
		<path  stroke-width="param(outline-width) "  stroke-opacity="param(outline-opacity) "  stroke="param(outline) "  fill-opacity="param(fill-opacity) "  fill="param(fill) " class="st0" d="M23,14H1c-0.6,0-1,0.4-1,1v32c0,0.6,0.4,1,1,1h22c0.6,0,1-0.4,1-1V15C24,14.4,23.6,14,23,14z M4,22h16
			c0.6,0,1,0.4,1,1s-0.4,1-1,1H4c-0.6,0-1-0.4-1-1S3.4,22,4,22z M4,27h16c0.6,0,1,0.4,1,1s-0.4,1-1,1H4c-0.6,0-1-0.4-1-1
			S3.4,27,4,27z M20,39H4c-0.6,0-1-0.4-1-1s0.4-1,1-1h16c0.6,0,1,0.4,1,1S20.6,39,20,39z M4,34c-0.6,0-1-0.4-1-1s0.4-1,1-1h16
			c0.6,0,1,0.4,1,1s-0.4,1-1,1H4z"/>
	</g>
</g>
</svg>
