<?xml version="1.0" encoding="utf-8"?>
<!-- Generator: Adobe Illustrator 25.0.0, SVG Export Plug-In . SVG Version: 6.00 Build 0)  -->
<svg version="1.1" id="Layer_1" xmlns="http://www.w3.org/2000/svg" xmlns:xlink="http://www.w3.org/1999/xlink" x="0px" y="0px"
	 viewBox="0 0 44 32" style="enable-background:new 0 0 44 32;" xml:space="preserve">
<style type="text/css">
	.st0{fill:#011E41;}
</style>
<g id="Layer_2_1_">
	<g id="FINAL">
		<path  stroke-width="param(outline-width) "  stroke-opacity="param(outline-opacity) "  stroke="param(outline) "  fill-opacity="param(fill-opacity) "  fill="param(fill) " class="st0" d="M37,0.9V0l7,7h-6.2C37.3,7,37,6.7,37,6.2V0.9z M44,9v21c0,1.1-0.9,2-2,2H2c-1.1,0-2-0.9-2-2V2
			c0-1.1,0.9-2,2-2h33v6.2C35,7.8,36.2,9,37.8,9H44z M9.6,18l2.3-4.6c0.2-0.5,0-1.1-0.4-1.3s-1.1,0-1.3,0.4c0,0,0,0,0,0l-1.6,3.2
			l-1.6-3.2c-0.2-0.5-0.8-0.7-1.3-0.5c-0.5,0.2-0.7,0.8-0.5,1.3c0,0,0,0,0,0L7.4,18l-2.3,4.6c-0.2,0.5,0,1.1,0.5,1.3
			c0.5,0.2,1.1,0,1.3-0.4l1.6-3.2l1.6,3.2c0.2,0.5,0.8,0.7,1.3,0.5c0.5-0.2,0.7-0.8,0.5-1.3c0,0,0,0,0,0L9.6,18z M21,23
			c0-0.6-0.4-1-1-1c0,0,0,0,0,0h-4v-9c0-0.6-0.4-1-1-1s-1,0.4-1,1v10c0,0.6,0.4,1,1,1c0,0,0,0,0,0h5C20.6,24,21,23.6,21,23
			C21,23,21,23,21,23z M29,20c0-1.7-1.3-3-3-3h-1c-0.6,0-1-0.4-1-1v-1c0-0.6,0.4-1,1-1h2c0.6,0,1-0.4,1-1s-0.4-1-1-1h-2
			c-1.7,0-3,1.3-3,3v1c0,1.7,1.3,3,3,3h1c0.6,0,1,0.4,1,1v1c0,0.6-0.4,1-1,1h-3c-0.6,0-1,0.4-1,1s0.4,1,1,1h3c1.7,0,3-1.3,3-3V20z
			 M35.6,18l2.3-4.6c0.2-0.5,0-1.1-0.5-1.3c-0.5-0.2-1.1,0-1.3,0.4l-1.6,3.2l-1.6-3.2c-0.2-0.5-0.8-0.7-1.3-0.4
			c-0.5,0.2-0.7,0.8-0.4,1.3l2.3,4.6l-2.3,4.6c-0.2,0.5,0,1.1,0.5,1.3c0.5,0.2,1.1,0,1.3-0.4l1.6-3.2l1.6,3.2
			c0.2,0.5,0.8,0.7,1.3,0.4c0.5-0.2,0.7-0.8,0.4-1.3L35.6,18z"/>
	</g>
</g>
</svg>
