<?xml version="1.0" encoding="utf-8"?>
<!-- Generator: Adobe Illustrator 25.0.0, SVG Export Plug-In . SVG Version: 6.00 Build 0)  -->
<svg version="1.1" id="Layer_1" xmlns="http://www.w3.org/2000/svg" xmlns:xlink="http://www.w3.org/1999/xlink" x="0px" y="0px"
	 viewBox="0 0 48 48" style="enable-background:new 0 0 48 48;" xml:space="preserve">
<style type="text/css">
	.st0{fill:#011E41;}
</style>
<g id="Layer_2_1_">
	<g id="Icons">
		<path  stroke-width="param(outline-width) "  stroke-opacity="param(outline-opacity) "  stroke="param(outline) "  fill-opacity="param(fill-opacity) "  fill="param(fill) " class="st0" d="M18.8,23.9c-2.9-2.6-7.3-2.4-10.1,0.4l-8.1,8.1c-0.9,0.9-0.9,2.3,0,3.2l6.8,6.8c0.9,0.9,2.3,0.9,3.2,0L19,34
			c2.7-2.7,2.7-7.2,0-10C18.9,24,18.9,23.9,18.8,23.9z"/>
		<path  stroke-width="param(outline-width) "  stroke-opacity="param(outline-opacity) "  stroke="param(outline) "  fill-opacity="param(fill-opacity) "  fill="param(fill) " class="st0" d="M47.8,2.8L47.8,2.8c-0.7-2.1-3-3.2-5.1-2.5s-3.2,3-2.5,5.1v0c0.7,2.1,3,3.2,5.1,2.5S48.5,4.8,47.8,2.8
			C47.8,2.8,47.8,2.8,47.8,2.8z"/>
		<path  stroke-width="param(outline-width) "  stroke-opacity="param(outline-opacity) "  stroke="param(outline) "  fill-opacity="param(fill-opacity) "  fill="param(fill) " class="st0" d="M44.4,18.1c1.2-2.5,0.2-5.4-2.3-6.6l-2.6-1.3c-0.1-0.1-0.3-0.1-0.4-0.2c-6.9-3-15.4,0.3-18.9,7
			c-0.5,1-0.1,2.3,0.9,2.8s2.3,0.1,2.8-0.9c0,0,0,0,0,0c2.2-4,6.5-6.3,11.1-5.8L18.2,45c-0.5,1-0.1,2.3,0.9,2.8
			c1,0.5,2.3,0.1,2.8-0.9l0,0l9.3-17.7L35,31c5,2.7,6.8,8.9,4.2,13.9c-0.5,1-0.1,2.3,0.9,2.8c1,0.5,2.3,0.1,2.8-0.9l0,0
			c3.3-6.2,1.7-13.9-3.9-18.1l1.8-3.4L44.4,18.1z"/>
	</g>
</g>
</svg>
