<?xml version="1.0" encoding="utf-8"?>
<!-- Generator: Adobe Illustrator 25.0.0, SVG Export Plug-In . SVG Version: 6.00 Build 0)  -->
<svg version="1.1" id="Layer_1" xmlns="http://www.w3.org/2000/svg" xmlns:xlink="http://www.w3.org/1999/xlink" x="0px" y="0px"
	 viewBox="0 0 44 47.9" style="enable-background:new 0 0 44 47.9;" xml:space="preserve">
<style type="text/css">
	.st0{fill:#011E41;}
</style>
<g id="Layer_2_1_">
	<g id="Icons">
		<path  stroke-width="param(outline-width) "  stroke-opacity="param(outline-opacity) "  stroke="param(outline) "  fill-opacity="param(fill-opacity) "  fill="param(fill) " class="st0" d="M43.2,24.9H6.8c-0.5,0-0.9,0.4-0.8,0.9v2.1h34c0.5,0,0.9,0.4,1,0.9c0,0,0,0,0,0v14.1h2.2
			c0.5,0,0.8-0.4,0.8-0.8c0,0,0,0,0,0V25.7C44,25.2,43.6,24.9,43.2,24.9z"/>
		<path  stroke-width="param(outline-width) "  stroke-opacity="param(outline-opacity) "  stroke="param(outline) "  fill-opacity="param(fill-opacity) "  fill="param(fill) " class="st0" d="M38.2,29.9H1.9c-0.5,0-0.8,0.4-0.9,0.8c0,0,0,0,0,0V47c0,0.5,0.4,0.9,0.9,0.9h36.3c0.5,0,0.9-0.4,0.8-0.9
			V30.7C39,30.2,38.6,29.9,38.2,29.9C38.2,29.9,38.2,29.9,38.2,29.9z M7,40.9c-1.1,0-2-0.9-2-2s0.9-2,2-2s2,0.9,2,2
			C9,40,8.1,40.9,7,40.9z M20,44.9c-3.3,0-6-2.7-6-6s2.7-6,6-6s6,2.7,6,6C26,42.2,23.3,44.9,20,44.9z M33,40.9c-1.1,0-2-0.9-2-2
			s0.9-2,2-2c1.1,0,2,0.9,2,2C35,40,34.1,40.9,33,40.9z"/>
		<path  stroke-width="param(outline-width) "  stroke-opacity="param(outline-opacity) "  stroke="param(outline) "  fill-opacity="param(fill-opacity) "  fill="param(fill) " class="st0" d="M18.9,12.1l-2.5-0.7c-2.7-0.7-5.4,0.9-6.1,3.5l-0.2,0.7l2.5,0.7c2.7,0.7,5.4-0.9,6.1-3.5c0,0,0,0,0,0
			L18.9,12.1z"/>
		<path  stroke-width="param(outline-width) "  stroke-opacity="param(outline-opacity) "  stroke="param(outline) "  fill-opacity="param(fill-opacity) "  fill="param(fill) " class="st0" d="M18.3,17.8l2.5,0.7c2.7,0.7,5.4-0.9,6.1-3.5l0.2-0.7l-2.5-0.7c-2.7-0.7-5.4,0.9-6.1,3.5c0,0,0,0,0,0
			L18.3,17.8z"/>
		<path  stroke-width="param(outline-width) "  stroke-opacity="param(outline-opacity) "  stroke="param(outline) "  fill-opacity="param(fill-opacity) "  fill="param(fill) " class="st0" d="M26.6,20l2.5,0.7c2.7,0.7,5.4-0.9,6.1-3.5c0,0,0,0,0,0l0.2-0.7l-2.5-0.7c-2.7-0.7-5.4,0.9-6.1,3.5L26.6,20z"
			/>
		<path  stroke-width="param(outline-width) "  stroke-opacity="param(outline-opacity) "  stroke="param(outline) "  fill-opacity="param(fill-opacity) "  fill="param(fill) " class="st0" d="M17.1,8.7l2.5,0.7l0.2-0.7c0.7-2.7-0.9-5.4-3.5-6.1l-2.5-0.7l-0.2,0.7C12.9,5.2,14.5,8,17.1,8.7
			C17.1,8.7,17.1,8.7,17.1,8.7z"/>
		<path  stroke-width="param(outline-width) "  stroke-opacity="param(outline-opacity) "  stroke="param(outline) "  fill-opacity="param(fill-opacity) "  fill="param(fill) " class="st0" d="M25.4,10.9l2.5,0.7l0.2-0.7c0.7-2.7-0.9-5.4-3.5-6.1L22,4.1l-0.2,0.7C21.1,7.4,22.7,10.2,25.4,10.9
			C25.4,10.9,25.4,10.9,25.4,10.9z"/>
		<path  stroke-width="param(outline-width) "  stroke-opacity="param(outline-opacity) "  stroke="param(outline) "  fill-opacity="param(fill-opacity) "  fill="param(fill) " class="st0" d="M33.6,13.1l2.5,0.7l0.2-0.7c0.7-2.7-0.9-5.4-3.5-6.1c0,0,0,0,0,0l-2.5-0.7L30.1,7
			C29.3,9.6,30.9,12.4,33.6,13.1z"/>
		<path  stroke-width="param(outline-width) "  stroke-opacity="param(outline-opacity) "  stroke="param(outline) "  fill-opacity="param(fill-opacity) "  fill="param(fill) " class="st0" d="M44,17.3c0.2-0.8-0.2-1.5-1-1.7c0,0,0,0,0,0l-5-1.3L37.2,17l5,1.3C43,18.5,43.7,18.1,44,17.3
			C44,17.3,44,17.3,44,17.3z"/>
		<path  stroke-width="param(outline-width) "  stroke-opacity="param(outline-opacity) "  stroke="param(outline) "  fill-opacity="param(fill-opacity) "  fill="param(fill) " class="st0" d="M4,11c-0.8-0.2-1.5,0.2-1.7,1c-0.2,0.8,0.2,1.5,1,1.7l3.7,1c0.8,0.2,1.5-0.2,1.7-1c0.2-0.8-0.2-1.5-1-1.7
			c0,0,0,0,0,0L4,11z"/>
		<path  stroke-width="param(outline-width) "  stroke-opacity="param(outline-opacity) "  stroke="param(outline) "  fill-opacity="param(fill-opacity) "  fill="param(fill) " class="st0" d="M6.2,2.8l3.7,1c0.8,0.2,1.5-0.2,1.7-1c0.2-0.8-0.2-1.5-1-1.7L6.9,0c-0.8-0.2-1.5,0.2-1.7,1
			C5,1.8,5.4,2.6,6.2,2.8z"/>
		<path  stroke-width="param(outline-width) "  stroke-opacity="param(outline-opacity) "  stroke="param(outline) "  fill-opacity="param(fill-opacity) "  fill="param(fill) " class="st0" d="M11.1,10c0.8,0.2,1.5-0.2,1.7-1c0.2-0.8-0.2-1.5-1-1.7L1.8,4.6C1,4.4,0.3,4.8,0,5.6s0.2,1.5,1,1.7L11.1,10z"
			/>
	</g>
</g>
</svg>
