<?xml version="1.0" encoding="utf-8"?>
<!-- Generator: Adobe Illustrator 25.0.0, SVG Export Plug-In . SVG Version: 6.00 Build 0)  -->
<svg version="1.1" id="Layer_1" xmlns="http://www.w3.org/2000/svg" xmlns:xlink="http://www.w3.org/1999/xlink" x="0px" y="0px"
	 viewBox="0 0 48 48" style="enable-background:new 0 0 48 48;" xml:space="preserve">
<style type="text/css">
	.st0{fill:#011E41;}
</style>
<g id="Layer_2_1_">
	<g id="Icons">
		<path  stroke-width="param(outline-width) "  stroke-opacity="param(outline-opacity) "  stroke="param(outline) "  fill-opacity="param(fill-opacity) "  fill="param(fill) " class="st0" d="M45.4,27c1.4,0.1,2.5-1,2.6-2.4c0.1-1.4-1-2.5-2.4-2.6c-0.1,0-0.1,0-0.2,0H42v-4h3.4c1.4,0.1,2.5-1,2.6-2.4
			s-1-2.5-2.4-2.6c-0.1,0-0.1,0-0.2,0H42V8.1C42,7.5,41.5,7,40.9,7H36V2.6c0.1-1.4-1-2.5-2.4-2.6c-1.4-0.1-2.5,1-2.6,2.4
			c0,0.1,0,0.1,0,0.2V7h-4V2.6c0.1-1.4-1-2.5-2.4-2.6c-1.4-0.1-2.5,1-2.6,2.4c0,0.1,0,0.1,0,0.2V7h-4V2.6c0.1-1.4-1-2.5-2.4-2.6
			S13.1,1,13,2.4c0,0.1,0,0.1,0,0.2V7H8.1C7.5,7,7,7.5,7,8.1V13H2.6c-1.4-0.1-2.5,1-2.6,2.4s1,2.5,2.4,2.6c0.1,0,0.1,0,0.2,0H7v4
			H2.6c-1.4-0.1-2.5,1-2.6,2.4c-0.1,1.4,1,2.5,2.4,2.6c0.1,0,0.1,0,0.2,0H7v4H2.6c-1.4-0.1-2.5,1-2.6,2.4c-0.1,1.4,1,2.5,2.4,2.6
			c0.1,0,0.1,0,0.2,0H7v4.9C7,41.5,7.5,42,8.1,42H13v3.4c-0.1,1.4,1,2.5,2.4,2.6s2.5-1,2.6-2.4c0-0.1,0-0.1,0-0.2V42h4v3.4
			c-0.1,1.4,1,2.5,2.4,2.6c1.4,0.1,2.5-1,2.6-2.4c0-0.1,0-0.1,0-0.2V42h4v3.4c-0.1,1.4,1,2.5,2.4,2.6c1.4,0.1,2.5-1,2.6-2.4
			c0-0.1,0-0.1,0-0.2V42h4.9c0.6,0,1.1-0.5,1.1-1.1V36h3.4c1.4,0.1,2.5-1,2.6-2.4c0.1-1.4-1-2.5-2.4-2.6c-0.1,0-0.1,0-0.2,0H42v-4
			H45.4z M36,31v4.4c0,0.4-0.3,0.6-0.6,0.6H13.6c-0.4,0-0.6-0.3-0.6-0.6V13.6c0-0.4,0.3-0.6,0.6-0.6h21.7c0.4,0,0.6,0.3,0.6,0.6V31z
			"/>
	</g>
</g>
</svg>
