<?xml version="1.0" encoding="utf-8"?>
<!-- Generator: Adobe Illustrator 25.0.0, SVG Export Plug-In . SVG Version: 6.00 Build 0)  -->
<svg version="1.1" id="Layer_1" xmlns="http://www.w3.org/2000/svg" xmlns:xlink="http://www.w3.org/1999/xlink" x="0px" y="0px"
	 viewBox="0 0 48 48" style="enable-background:new 0 0 48 48;" xml:space="preserve">
<style type="text/css">
	.st0{fill:#011E41;}
</style>
<g id="Layer_2_1_">
	<g id="Icons">
		<path  stroke-width="param(outline-width) "  stroke-opacity="param(outline-opacity) "  stroke="param(outline) "  fill-opacity="param(fill-opacity) "  fill="param(fill) " class="st0" d="M24.5,41h-3c-1.9,0-3.5,1.6-3.5,3.5s1.6,3.5,3.5,3.5h3c1.9,0,3.5-1.6,3.5-3.5S26.4,41,24.5,41z"/>
		<path  stroke-width="param(outline-width) "  stroke-opacity="param(outline-opacity) "  stroke="param(outline) "  fill-opacity="param(fill-opacity) "  fill="param(fill) " class="st0" d="M30.5,31h-9c-1.9,0-3.5,1.6-3.5,3.5c0,1.9,1.6,3.5,3.5,3.5h9c1.9,0,3.5-1.6,3.5-3.5S32.4,31,30.5,31z"/>
		<path  stroke-width="param(outline-width) "  stroke-opacity="param(outline-opacity) "  stroke="param(outline) "  fill-opacity="param(fill-opacity) "  fill="param(fill) " class="st0" d="M32,24.5c0-1.9-1.6-3.5-3.5-3.5h-16C10.6,21,9,22.6,9,24.5s1.6,3.5,3.5,3.5h16C30.4,28,32,26.4,32,24.5z"/>
		<path  stroke-width="param(outline-width) "  stroke-opacity="param(outline-opacity) "  stroke="param(outline) "  fill-opacity="param(fill-opacity) "  fill="param(fill) " class="st0" d="M39.5,11h-26c-1.9,0-3.5,1.6-3.5,3.5s1.6,3.5,3.5,3.5h26c1.9,0,3.5-1.6,3.5-3.5S41.4,11,39.5,11z"/>
		<path  stroke-width="param(outline-width) "  stroke-opacity="param(outline-opacity) "  stroke="param(outline) "  fill-opacity="param(fill-opacity) "  fill="param(fill) " class="st0" d="M44.5,0h-41C1.6,0,0,1.6,0,3.5S1.6,7,3.5,7h41C46.4,7,48,5.4,48,3.5S46.4,0,44.5,0z"/>
	</g>
</g>
</svg>
