<?xml version="1.0" encoding="utf-8"?>
<!-- Generator: Adobe Illustrator 25.0.0, SVG Export Plug-In . SVG Version: 6.00 Build 0)  -->
<svg version="1.1" id="Layer_1" xmlns="http://www.w3.org/2000/svg" xmlns:xlink="http://www.w3.org/1999/xlink" x="0px" y="0px"
	 viewBox="0 0 48 48" style="enable-background:new 0 0 48 48;" xml:space="preserve">
<style type="text/css">
	.st0{fill:#011E41;}
</style>
<g id="Layer_2_1_">
	<g id="FINAL">
		<path  stroke-width="param(outline-width) "  stroke-opacity="param(outline-opacity) "  stroke="param(outline) "  fill-opacity="param(fill-opacity) "  fill="param(fill) " class="st0" d="M48,44v4H14v-4c0-8.8,7.2-16,16-16h2C40.8,28,48,35.2,48,44z M40,17L40,17c0-5-4-9-9-9l0,0c-5,0-9,4-9,9l0,0
			c0,5,4,9,9,9l0,0C36,26,40,22,40,17z M0,10C0,4.5,4.5,0,10,0s10,4.5,10,10s-4.5,10-10,10C4.5,20,0,15.5,0,10z M8.6,10l-3.3,3.3
			c-0.4,0.4-0.4,1,0,1.4c0.4,0.4,1,0.4,1.4,0l3.3-3.3l3.3,3.3c0.4,0.4,1,0.4,1.4,0c0.4-0.4,0.4-1,0-1.4L11.4,10l3.3-3.3
			c0.4-0.4,0.4-1,0-1.4c-0.4-0.4-1-0.4-1.4,0L10,8.6L6.7,5.3c-0.4-0.4-1-0.4-1.4,0s-0.4,1,0,1.4l0,0L8.6,10z"/>
	</g>
</g>
</svg>
